<?xml version="1.0" encoding="UTF-8"?>
<svg xmlns="http://www.w3.org/2000/svg" xmlns:xlink="http://www.w3.org/1999/xlink" version="1.2" >
<font id="Nimbus Roman No9 L">
<font-face  font-family="Nimbus Roman No9 L" units-per-em="1000" ascent="683" descent="-317" font-style="normal" font-weight="400" font-stretch="normal" cap-height="662" x-height="450" underline-position="-75" underline-thickness="50" />
<missing-glyph  horiz-adv-x="250" d="" />
<glyph glyph-name="NULL" d="" />
<glyph glyph-name="&amp;#x21b5;" unicode="&#x21b5;" horiz-adv-x="1000" d="M884 528 L820 528 L820 348 L261 348 L471 429 L448 482 L162 355 L162 278 L448 150 L471 202 L261 284 L884 284 L884 528 Z " />
<glyph glyph-name="&amp;#xd;" unicode="&#xd;" horiz-adv-x="1000" d="M884 528 L820 528 L820 348 L261 348 L471 429 L448 482 L162 355 L162 278 L448 150 L471 202 L261 284 L884 284 L884 528 Z " />
<glyph glyph-name="space" unicode="&#x20;" horiz-adv-x="250" d="" />
<glyph glyph-name="exclam" unicode="&#x21;" horiz-adv-x="333" d="M170 176 L215 559 C216 571 217 582 217 596 C217 648 198 676 164 676 C131 676 111 647 111 599 C111 573 119 497 131 422 C140 363 146 314 148 284 L157 176 L170 176 Z M164 96 C134 96 111 72 111 42 C111 13 133 -9 163 -9 C196 -9 219 12 219 42 C219 72 194 96 164 96 L164 96 Z " />
<glyph glyph-name="quotedbl" unicode="&#x22;" horiz-adv-x="408" d="M299 431 C302 448 304 462 306 471 C322 547 331 607 331 636 C331 658 312 676 289 676 C265 676 246 658 246 635 C246 618 260 528 278 431 L299 431 Z M130 431 C133 448 135 462 137 471 C153 547 162 607 162 636 C162 658 143 676 120 676 C96 676 77 658 77 635 C77 618 91 528 109 431 L130 431 Z " />
<glyph glyph-name="numbersign" unicode="&#x23;" horiz-adv-x="500" d="M471 271 L371 271 L391 405 L496 405 L496 460 L399 460 L429 662 L371 662 L341 460 L208 460 L239 662 L181 662 L150 460 L32 460 L32 405 L142 405 L121 271 L5 271 L5 216 L112 216 L79 0 L137 0 L170 216 L304 216 L273 0 L331 0 L362 216 L471 216 L471 271 Z M333 405 L313 271 L179 271 L200 405 L333 405 Z " />
<glyph glyph-name="dollar" unicode="&#x24;" horiz-adv-x="500" d="M425 500 L425 611 C391 639 348 654 264 664 L264 727 L230 727 L230 664 C167 657 139 648 106 622 C72 595 52 555 52 512 C52 465 68 430 108 393 C137 365 159 350 230 310 L230 28 C136 29 83 76 59 181 L44 181 L44 51 C104 14 146 3 230 0 L230 -87 L264 -87 L264 0 C338 12 369 24 405 53 C438 81 457 122 457 170 C457 206 450 239 437 260 C411 301 385 322 264 391 L264 637 C348 627 393 585 410 500 L425 500 Z M229 407 C145 463 126 487 126 534 C126 589 160 623 229 637 L229 407 Z M264 293 C357 235 378 208 378 146 C378 80 342 43 264 28 L264 293 Z " />
<glyph glyph-name="percent" unicode="&#x25;" horiz-adv-x="833" d="M593 676 L201 -13 L249 -13 L636 676 L593 676 Z M646 332 C566 332 506 256 506 153 C506 52 567 -24 648 -24 C730 -24 787 48 787 152 C787 255 727 332 646 332 L646 332 Z M647 306 C688 306 710 251 710 151 C710 58 686 3 646 3 C605 3 584 55 584 155 C584 254 606 306 647 306 L647 306 Z M188 675 C104 675 44 599 44 495 C44 392 103 317 185 317 C268 317 325 388 325 491 C325 599 269 675 188 675 L188 675 Z M186 648 C225 648 248 592 248 493 C248 396 225 341 183 341 C142 341 122 392 122 501 C122 600 143 648 186 648 L186 648 Z " />
<glyph glyph-name="ampersand" unicode="&#x26;" horiz-adv-x="778" d="M711 426 L495 426 L495 405 C545 400 559 390 559 360 C559 316 533 264 468 178 C412 247 380 298 336 384 C450 438 491 483 491 555 C491 626 435 676 356 676 C270 676 202 608 202 522 C202 484 210 452 237 377 L199 355 C93 294 42 223 42 139 C42 44 106 -13 213 -13 C294 -13 354 12 429 78 C492 13 541 -13 599 -13 C663 -13 720 29 750 100 L735 111 C703 71 681 58 645 58 C589 58 538 89 491 150 C535 209 560 246 591 300 L617 346 C641 387 661 399 711 405 L711 426 Z M321 416 C291 479 281 517 281 562 C281 611 312 644 358 644 C404 644 438 608 438 559 C438 504 401 458 321 416 L321 416 Z M252 343 C312 229 347 174 404 104 C344 57 306 39 263 39 C192 39 134 102 134 180 C134 244 165 287 252 343 L252 343 Z " />
<glyph glyph-name="quotesingle" unicode="&#x27;" horiz-adv-x="180" d="M101 431 C104 448 106 462 108 471 C124 547 133 607 133 636 C133 658 114 676 91 676 C67 676 48 658 48 635 C48 618 62 528 80 431 L101 431 Z " />
<glyph glyph-name="parenleft" unicode="&#x28;" horiz-adv-x="333" d="M295 676 C221 627 191 602 154 556 C83 469 48 369 48 252 C48 124 85 27 173 -75 C214 -123 240 -145 292 -177 L304 -161 C224 -98 196 -62 169 12 C145 79 134 154 134 255 C134 360 147 442 174 504 C202 566 232 602 304 660 L295 676 Z " />
<glyph glyph-name="parenright" unicode="&#x29;" horiz-adv-x="333" d="M38 -177 C112 -128 142 -103 179 -57 C250 30 285 130 285 247 C285 375 248 472 160 574 C119 622 93 644 41 676 L29 660 C109 597 136 562 164 487 C188 420 199 345 199 244 C199 139 186 56 159 -4 C132 -67 101 -103 29 -161 L38 -177 Z " />
<glyph glyph-name="asterisk" unicode="&#x2a;" horiz-adv-x="500" d="M241 449 C242 440 243 434 243 432 C243 406 237 380 225 348 C218 329 214 312 214 301 C214 282 230 265 249 265 C270 265 288 284 288 305 C288 311 285 323 280 337 C267 372 260 410 260 449 L260 456 L267 453 C289 444 311 426 337 393 C362 362 379 350 397 350 C418 350 432 365 432 387 C432 413 417 424 373 431 C335 437 302 449 276 465 L268 470 C317 498 337 505 380 512 C419 518 431 528 431 554 C431 577 417 593 395 593 C380 593 363 580 339 552 C315 523 290 501 267 488 L260 484 L260 510 L287 640 C287 660 271 676 251 676 C231 676 216 661 216 641 C216 630 220 611 226 590 C236 555 241 524 241 499 L241 486 C203 507 183 523 151 559 C131 583 119 591 103 591 C83 591 69 576 69 555 C69 530 88 517 137 508 C174 501 204 491 223 478 L234 471 C193 446 177 440 131 431 C86 423 69 411 69 385 C69 364 82 351 105 351 C121 351 130 356 147 375 C176 407 181 412 189 420 C199 428 204 432 240 456 L241 449 Z " />
<glyph glyph-name="plus" unicode="&#x2b;" horiz-adv-x="564" d="M256 333 L37 333 L37 280 L256 280 L256 60 L309 60 L309 280 L528 280 L528 333 L309 333 L309 553 L256 553 L256 333 Z " />
<glyph glyph-name="comma" unicode="&#x2c;" horiz-adv-x="250" d="M83 -141 C150 -108 195 -47 195 13 C195 63 160 102 115 102 C80 102 56 79 56 45 C56 13 78 -6 115 -6 C122 -6 129 -5 135 -4 C140 -2 141 -2 142 -2 C150 -2 156 -8 156 -16 C156 -48 128 -85 74 -122 L83 -141 Z " />
<glyph glyph-name="hyphen" unicode="&#x2d;" horiz-adv-x="333" d="M39 257 L39 194 L285 194 L285 257 L39 257 Z " />
<glyph glyph-name="period" unicode="&#x2e;" horiz-adv-x="250" d="M125 100 C95 100 70 75 70 43 C70 14 95 -11 124 -11 C155 -11 181 13 181 43 C181 74 155 100 125 100 L125 100 Z " />
<glyph glyph-name="slash" unicode="&#x2f;" horiz-adv-x="278" d="M278 676 L233 676 L4 -14 L50 -14 L278 676 Z " />
<glyph glyph-name="zero" unicode="0" horiz-adv-x="500" d="M254 676 C199 676 157 660 120 624 C62 568 24 453 24 336 C24 226 57 110 104 54 C141 10 192 -14 250 -14 C301 -14 344 3 380 38 C438 93 476 209 476 330 C476 535 385 676 254 676 L254 676 Z M251 650 C335 650 380 537 380 328 C380 119 336 12 250 12 C164 12 120 119 120 327 C120 540 165 650 251 650 L251 650 Z " />
<glyph glyph-name="one" unicode="1" horiz-adv-x="500" d="M118 0 L394 0 L394 15 C317 15 300 26 299 74 L299 674 L291 676 L111 585 L111 571 C150 586 174 593 183 593 C204 593 213 578 213 546 L213 93 C211 30 194 16 118 15 L118 0 Z " />
<glyph glyph-name="two" unicode="2" horiz-adv-x="500" d="M475 137 L462 142 C425 84 414 77 367 76 L128 76 L296 252 C385 345 424 421 424 500 C424 599 343 676 239 676 C184 676 132 654 95 614 C63 580 48 548 31 477 L52 472 C92 570 127 602 197 602 C282 602 338 545 338 461 C338 382 292 290 208 201 L30 12 L30 0 L420 0 L475 137 Z " />
<glyph glyph-name="three" unicode="3" horiz-adv-x="500" d="M153 330 C212 330 235 328 258 319 C321 296 359 240 359 171 C359 86 303 22 229 22 C201 22 181 29 144 53 C115 71 98 78 81 78 C58 78 43 64 43 43 C43 8 86 -14 156 -14 C232 -14 311 12 359 53 C406 94 431 152 431 219 C431 271 415 317 387 348 C366 370 347 382 304 401 C372 448 397 485 397 539 C397 621 334 676 241 676 C191 676 147 659 111 627 C81 600 66 574 45 514 L60 510 C100 584 145 616 208 616 C274 616 318 573 318 509 C318 473 303 438 278 412 C248 382 220 367 152 343 L153 330 Z " />
<glyph glyph-name="four" unicode="4" horiz-adv-x="500" d="M472 231 L370 231 L370 676 L326 676 L12 231 L12 167 L293 167 L293 0 L370 0 L370 167 L472 167 L472 231 Z M292 231 L52 231 L292 574 L292 231 Z " />
<glyph glyph-name="five" unicode="5" horiz-adv-x="500" d="M181 583 L377 583 C394 583 397 584 400 592 L438 681 L429 688 C414 668 405 662 383 662 L174 662 L65 425 C64 423 64 422 64 420 C64 414 68 412 76 412 C108 412 147 405 189 392 C304 355 356 294 356 194 C356 98 296 23 217 23 C197 23 181 30 151 52 C119 76 97 85 74 85 C46 85 32 73 32 48 C32 10 78 -14 154 -14 C237 -14 309 13 360 64 C405 109 426 166 426 242 C426 314 407 360 358 410 C314 454 257 477 139 498 L181 583 Z " />
<glyph glyph-name="six" unicode="6" horiz-adv-x="500" d="M446 684 C332 674 274 655 201 604 C93 527 34 413 34 279 C34 192 61 104 104 54 C142 10 196 -14 258 -14 C382 -14 468 81 468 219 C468 348 396 428 279 428 C235 428 215 421 152 383 C179 534 291 642 448 668 L446 684 Z M242 382 C329 382 378 310 378 185 C378 75 339 14 269 14 C181 14 127 108 127 263 C127 314 135 342 155 357 C176 373 207 382 242 382 L242 382 Z " />
<glyph glyph-name="seven" unicode="7" horiz-adv-x="500" d="M455 662 L85 662 L26 515 L43 507 C84 574 103 587 159 588 L376 588 L178 -8 L243 -8 L455 646 L455 662 Z " />
<glyph glyph-name="eight" unicode="8" horiz-adv-x="500" d="M290 371 C389 424 424 466 424 534 C424 617 353 676 252 676 C143 676 62 609 62 518 C62 453 81 424 186 332 C77 249 56 220 56 151 C56 53 134 -14 248 -14 C368 -14 445 52 445 155 C445 233 411 280 290 371 L290 371 Z M272 268 C345 216 369 180 369 124 C369 59 324 14 259 14 C183 14 132 72 132 158 C132 223 153 264 212 312 L272 268 Z M261 389 C172 447 136 493 136 549 C136 607 181 648 244 648 C312 648 355 604 355 535 C355 474 329 433 261 389 L261 389 Z " />
<glyph glyph-name="nine" unicode="9" horiz-adv-x="500" d="M59 -22 C171 -9 226 10 294 59 C398 135 459 259 459 394 C459 559 368 676 238 676 C119 676 30 575 30 440 C30 318 102 237 210 237 C265 237 307 253 360 294 C319 131 208 24 56 -2 L59 -22 Z M362 355 C362 335 358 326 347 317 C319 294 282 280 246 280 C170 280 122 355 122 474 C122 531 138 591 159 617 C176 637 201 648 230 648 C317 648 362 562 362 394 L362 355 Z " />
<glyph glyph-name="colon" unicode="&#x3a;" horiz-adv-x="278" d="M136 459 C106 459 81 434 81 402 C81 373 106 348 135 348 C166 348 192 372 192 402 C192 433 166 459 136 459 L136 459 Z M136 100 C106 100 81 75 81 43 C81 14 106 -11 135 -11 C166 -11 192 13 192 43 C192 74 166 100 136 100 L136 100 Z " />
<glyph glyph-name="semicolon" unicode="&#x3b;" horiz-adv-x="278" d="M107 -141 C176 -107 219 -47 219 13 C219 64 184 102 139 102 C103 102 80 80 80 46 C80 13 102 -6 139 -6 C146 -6 153 -5 159 -4 C164 -2 165 -2 166 -2 C174 -2 180 -8 180 -16 C180 -48 152 -85 98 -122 L107 -141 Z M136 459 C106 459 81 434 81 402 C81 373 106 348 135 348 C166 348 192 373 192 402 C192 433 166 459 136 459 L136 459 Z " />
<glyph glyph-name="less" unicode="&#x3c;" horiz-adv-x="564" d="M530 54 L530 111 L100 306 L530 501 L530 559 L35 335 L35 277 L530 54 Z " />
<glyph glyph-name="equal" unicode="&#x3d;" horiz-adv-x="564" d="M528 433 L37 433 L37 380 L528 380 L528 433 Z M528 233 L37 233 L37 180 L528 180 L528 233 Z " />
<glyph glyph-name="greater" unicode="&#x3e;" horiz-adv-x="564" d="M35 54 L530 277 L530 335 L35 559 L35 501 L465 306 L35 111 L35 54 Z " />
<glyph glyph-name="question" unicode="&#x3f;" horiz-adv-x="444" d="M225 164 C236 232 253 272 290 318 C336 374 336 374 350 395 C382 444 395 480 395 521 C395 559 382 595 359 618 C325 653 266 676 211 676 C119 676 49 614 49 531 C49 490 65 469 97 469 C122 469 138 485 138 510 C138 524 132 536 117 553 C104 567 100 575 100 584 C100 616 146 646 194 646 C255 646 303 593 303 526 C303 480 290 425 266 370 L238 306 C219 257 209 208 208 164 L225 164 Z M218 97 C188 97 165 73 165 42 C165 13 187 -8 218 -8 C250 -8 273 13 273 43 C273 73 248 97 218 97 L218 97 Z " />
<glyph glyph-name="at" unicode="&#x40;" horiz-adv-x="921" d="M718 -87 C632 -133 574 -149 499 -149 C290 -149 143 6 143 226 C143 461 289 637 484 637 C663 637 809 483 809 293 C809 223 787 149 750 98 C722 60 696 43 664 43 C635 43 621 62 621 101 C621 109 622 117 623 124 L696 446 L619 446 L608 398 C583 450 567 463 528 463 C478 463 439 443 401 399 C343 333 308 236 308 143 C308 64 351 2 407 2 C456 2 509 37 546 94 C553 38 594 1 647 1 C759 1 854 141 854 305 C854 514 694 676 487 676 C260 676 79 479 79 232 C79 -11 258 -198 491 -198 C568 -198 622 -182 732 -125 L718 -87 Z M544 408 C575 405 589 380 589 327 C589 275 568 191 539 130 C518 86 485 57 455 57 C414 57 388 98 388 164 C388 231 409 297 445 344 C477 385 516 410 544 408 L544 408 Z " />
<glyph glyph-name="A" unicode="A" horiz-adv-x="722" d="M706 19 C661 22 651 32 616 106 L367 674 L347 674 L139 183 C75 37 63 21 15 19 L15 0 L213 0 L213 19 C165 19 145 31 145 60 C145 72 148 86 153 99 L199 216 L461 216 L502 120 C514 93 521 67 521 53 C521 28 504 20 451 19 L451 0 L706 0 L706 19 Z M216 257 L331 532 L447 257 L216 257 Z " />
<glyph glyph-name="B" unicode="B" horiz-adv-x="667" d="M17 643 C101 638 112 628 113 553 L113 109 C112 34 99 22 17 19 L17 0 L351 0 C428 0 500 21 537 55 C573 87 593 132 593 180 C593 224 576 264 544 293 C514 320 487 332 422 348 C474 361 495 371 519 392 C544 414 559 450 559 492 C559 604 469 662 297 662 L17 662 L17 643 Z M215 326 C312 326 358 320 394 305 C451 282 478 241 478 179 C478 125 457 86 417 63 C385 45 344 37 278 37 C229 37 215 46 215 78 L215 326 Z M215 365 L215 595 C216 617 220 623 237 624 L281 625 C392 628 457 577 457 488 C457 409 406 367 310 366 L215 365 Z " />
<glyph glyph-name="C" unicode="C" horiz-adv-x="667" d="M620 451 L611 676 L590 676 C584 655 568 643 548 643 C539 643 524 646 509 651 C460 668 410 676 363 676 C281 676 199 645 136 590 C66 528 28 436 28 326 C28 122 161 -14 360 -14 C473 -14 573 32 633 113 L615 131 C541 60 475 30 392 30 C329 30 273 50 230 88 C175 137 144 227 144 338 C144 520 237 636 382 636 C439 636 491 615 531 576 C563 544 578 516 597 451 L620 451 Z " />
<glyph glyph-name="D" unicode="D" horiz-adv-x="722" d="M16 0 L300 0 C416 0 521 33 583 89 C648 148 685 237 685 334 C685 424 656 502 600 557 C532 626 423 662 286 662 L16 662 L16 643 C95 636 103 628 104 553 L104 109 C103 36 91 24 16 19 L16 0 Z M206 586 C206 617 216 625 258 625 C345 625 409 609 457 575 C535 521 576 435 576 327 C576 209 535 125 454 78 C403 49 345 37 258 37 C218 37 206 46 206 78 L206 586 Z " />
<glyph glyph-name="E" unicode="E" horiz-adv-x="611" d="M597 169 L569 169 C521 63 476 38 333 37 L306 37 C202 40 201 41 201 80 L201 327 L355 327 C439 325 452 313 465 231 L488 231 L488 463 L465 463 C453 382 439 370 355 368 L201 368 L201 590 C202 620 206 624 234 624 L369 624 C485 622 505 608 521 519 L546 519 L543 662 L12 662 L12 643 C85 638 97 625 99 553 L99 109 C97 37 84 23 12 19 L12 0 L552 0 L597 169 Z " />
<glyph glyph-name="F" unicode="F" horiz-adv-x="556" d="M479 231 L479 463 L456 463 C445 384 428 370 346 368 L201 368 L201 590 C202 620 205 623 233 624 L369 624 C485 622 505 608 521 519 L546 519 L543 662 L12 662 L12 643 C85 638 97 625 99 553 L99 120 C98 35 88 24 12 19 L12 0 L292 0 L292 19 C216 22 202 36 201 109 L201 327 L346 327 C428 326 444 312 456 231 L479 231 Z " />
<glyph glyph-name="G" unicode="G" horiz-adv-x="722" d="M709 354 L454 354 L454 336 C532 331 540 323 542 247 L542 85 C542 53 482 26 409 26 C246 26 146 140 146 326 C146 420 174 511 218 560 C262 609 324 636 392 636 C448 636 498 617 536 581 C566 552 582 526 607 465 L630 465 L622 676 L600 676 C594 656 576 643 555 643 C545 643 529 647 511 653 C466 668 420 676 375 676 C175 676 32 529 32 325 C32 227 59 152 115 93 C181 24 278 -14 388 -14 C475 -14 599 21 639 56 L639 259 C641 320 652 332 709 336 L709 354 Z " />
<glyph glyph-name="H" unicode="H" horiz-adv-x="722" d="M19 0 L297 0 L297 19 C222 25 210 37 209 109 L209 315 L512 315 L512 120 C511 35 502 24 424 19 L424 0 L702 0 L702 19 C627 25 615 37 614 109 L614 553 C615 626 625 636 702 643 L702 662 L424 662 L424 643 C501 637 511 627 512 553 L512 359 L209 359 L209 553 C210 626 220 636 297 643 L297 662 L19 662 L19 643 C96 637 106 627 107 553 L107 120 C106 35 97 24 19 19 L19 0 Z " />
<glyph glyph-name="I" unicode="I" horiz-adv-x="333" d="M18 0 L315 0 L315 19 C233 21 219 35 217 109 L217 553 C219 628 232 640 315 643 L315 662 L18 662 L18 643 C103 638 114 628 115 553 L115 109 C114 33 102 22 18 19 L18 0 Z " />
<glyph glyph-name="J" unicode="J" horiz-adv-x="389" d="M376 662 L89 662 L89 643 C170 637 181 627 182 553 L182 90 C182 45 170 24 144 24 C130 24 124 32 117 57 C107 92 91 108 65 108 C38 108 16 85 16 58 C16 16 57 -14 115 -14 C223 -14 284 58 284 183 L284 553 C286 628 295 637 376 643 L376 662 Z " />
<glyph glyph-name="K" unicode="K" horiz-adv-x="722" d="M406 643 C466 640 474 636 474 612 C474 590 451 560 396 509 L219 348 L219 553 C220 628 230 637 311 643 L311 662 L27 662 L27 643 C104 638 115 626 117 553 L117 120 C116 35 105 24 27 19 L27 0 L309 0 L309 19 C232 24 220 35 219 109 L219 296 L245 317 L351 212 C427 136 481 66 481 42 C481 28 468 21 439 20 C434 20 423 20 411 19 L411 0 L716 0 L716 19 C664 20 650 30 559 127 L326 377 L516 565 C584 630 600 638 668 643 L668 662 L406 662 L406 643 Z " />
<glyph glyph-name="L" unicode="L" horiz-adv-x="611" d="M294 662 L12 662 L12 643 C85 638 97 625 99 553 L99 109 C97 37 84 23 12 19 L12 0 L550 0 L598 174 L573 174 C526 69 483 43 354 39 L287 39 C210 41 202 44 201 80 L201 553 C203 626 216 639 294 643 L294 662 Z " />
<glyph glyph-name="M" unicode="M" horiz-adv-x="889" d="M863 662 L664 662 L443 157 L212 662 L14 662 L14 643 C96 639 107 628 109 553 L109 147 C107 41 94 24 12 19 L12 0 L247 0 L247 19 C170 23 155 44 153 147 L153 550 L404 0 L418 0 L674 573 L674 120 C673 35 662 24 583 19 L583 0 L863 0 L863 19 C791 23 778 37 776 109 L776 553 C778 625 790 638 863 643 L863 662 Z " />
<glyph glyph-name="N" unicode="N" horiz-adv-x="722" d="M707 662 L472 662 L472 643 C552 638 565 621 568 515 L568 178 L183 662 L12 662 L12 643 C55 643 69 635 109 588 L109 147 C107 41 94 24 12 19 L12 0 L247 0 L247 19 C170 23 155 44 153 147 L153 539 L595 -11 L612 -11 L612 515 C615 619 628 636 707 643 L707 662 Z " />
<glyph glyph-name="O" unicode="O" horiz-adv-x="722" d="M361 676 C170 676 34 533 34 331 C34 237 66 145 120 88 C178 25 267 -14 355 -14 C552 -14 688 125 688 327 C688 426 659 512 604 571 C541 640 457 676 361 676 L361 676 Z M361 640 C407 640 453 622 489 590 C543 541 574 447 574 328 C574 269 561 200 541 148 C532 123 515 98 492 75 C457 40 412 22 359 22 C313 22 268 40 232 71 C181 117 148 218 148 329 C148 431 176 528 218 575 C257 618 306 640 361 640 L361 640 Z " />
<glyph glyph-name="P" unicode="P" horiz-adv-x="556" d="M16 643 C90 635 99 626 100 553 L100 120 C99 35 92 26 16 19 L16 0 L296 0 L296 19 C217 21 203 35 202 109 L202 291 C228 289 245 288 271 288 C350 288 403 298 446 322 C506 354 542 415 542 481 C542 523 528 561 501 590 C461 634 374 662 280 662 L16 662 L16 643 Z M202 591 C202 618 209 625 236 625 C371 625 433 578 433 475 C433 378 374 328 259 328 C239 328 225 329 202 331 L202 591 Z " />
<glyph glyph-name="Q" unicode="Q" horiz-adv-x="722" d="M701 -159 C587 -156 507 -112 426 -7 C494 6 530 23 576 63 C650 129 688 220 688 331 C688 533 552 676 361 676 C170 676 34 532 34 329 C34 231 64 149 123 85 C162 43 194 23 265 -1 L312 -56 C380 -136 501 -178 661 -178 C674 -178 685 -178 695 -177 L701 -177 L701 -159 Z M364 640 C407 640 453 621 488 590 C542 542 574 446 574 333 C574 234 545 132 505 86 C468 45 416 22 361 22 C313 22 269 39 232 71 C180 118 148 217 148 335 C148 431 177 529 218 575 C258 619 306 640 364 640 L364 640 Z " />
<glyph glyph-name="R" unicode="R" horiz-adv-x="667" d="M659 19 C621 22 601 32 572 66 L366 319 C493 344 547 394 547 486 C547 529 534 566 508 595 C470 636 387 662 293 662 L17 662 L17 643 C91 635 101 626 102 553 L102 120 C101 35 92 25 17 19 L17 0 L294 0 L294 19 C217 24 205 36 204 109 L204 306 L260 308 L498 0 L659 0 L659 19 Z M204 589 C204 617 215 625 255 625 C380 625 438 582 438 488 C438 438 417 396 381 377 C335 351 300 345 204 343 L204 589 Z " />
<glyph glyph-name="S" unicode="S" horiz-adv-x="556" d="M447 676 L426 676 C422 653 411 642 394 642 C384 642 367 646 350 654 C313 668 276 676 243 676 C201 676 157 659 124 630 C89 599 71 557 71 505 C71 425 115 369 227 310 C299 271 351 231 376 193 C385 180 390 159 390 134 C390 68 340 22 267 22 C177 22 115 77 65 199 L42 199 L72 -13 L94 -13 C95 6 107 20 122 20 C133 20 150 16 169 9 C207 -6 248 -14 287 -14 C403 -14 491 65 491 168 C491 250 436 315 304 387 C199 444 157 488 157 543 C157 598 199 635 261 635 C306 635 348 616 383 580 C414 548 428 522 444 463 L469 463 L447 676 Z " />
<glyph glyph-name="T" unicode="T" horiz-adv-x="611" d="M452 19 C370 23 357 36 356 109 L356 620 L410 620 C526 618 547 601 569 492 L593 492 L587 662 L23 662 L17 492 L41 492 C64 601 85 618 200 620 L254 620 L254 120 C253 34 244 24 160 19 L160 0 L452 0 L452 19 Z " />
<glyph glyph-name="U" unicode="U" horiz-adv-x="722" d="M705 662 L473 662 L473 643 C550 638 565 618 567 515 L567 245 C567 177 560 139 544 109 C517 61 453 30 378 30 C307 30 258 54 231 101 C213 133 206 170 206 233 L206 553 C207 626 217 636 297 643 L297 662 L14 662 L14 643 C93 637 103 627 104 553 L104 241 C104 68 185 -14 355 -14 C464 -14 539 21 578 89 C602 131 611 177 611 254 L611 515 C613 620 624 634 705 643 L705 662 Z " />
<glyph glyph-name="V" unicode="V" horiz-adv-x="722" d="M697 662 L492 662 L492 643 C547 640 565 629 565 601 C565 585 558 558 546 528 L399 161 L248 499 C215 573 207 595 207 610 C207 630 221 639 253 641 C258 641 269 642 282 643 L282 662 L16 662 L16 643 C65 641 79 627 122 538 L368 -11 L383 -11 L605 550 C638 629 649 640 697 643 L697 662 Z " />
<glyph glyph-name="W" unicode="W" horiz-adv-x="944" d="M932 662 L734 662 L734 643 C785 638 803 627 803 600 C803 580 797 553 787 525 L662 186 L530 527 C528 532 519 554 518 557 C509 578 503 597 503 608 C503 632 526 642 580 643 L580 662 L313 662 L313 643 C370 642 380 633 414 553 L447 471 L340 189 L196 565 C189 583 185 600 185 611 C185 633 199 640 250 643 L250 662 L5 662 L5 643 C56 638 71 620 108 526 L301 -11 L316 -11 L470 412 L630 -11 L645 -11 C730 250 740 278 849 572 C868 624 879 633 932 643 L932 662 Z " />
<glyph glyph-name="X" unicode="X" horiz-adv-x="722" d="M696 662 L458 662 L458 643 C512 641 528 634 528 611 C528 596 518 578 488 542 L375 404 L333 463 C272 549 248 591 248 613 C248 633 263 641 296 642 L324 643 L324 662 L22 662 L22 643 C87 640 105 625 203 486 L312 326 L155 133 C66 27 61 23 10 19 L10 0 L243 0 L243 19 C185 23 167 31 167 54 C167 69 182 94 219 140 L338 288 L433 148 C467 98 484 65 484 50 C484 32 468 22 434 21 C430 21 419 20 407 19 L407 0 L704 0 L704 19 C651 25 636 35 593 93 L401 367 L547 549 C612 627 632 639 696 643 L696 662 Z " />
<glyph glyph-name="Y" unicode="Y" horiz-adv-x="722" d="M703 662 L484 662 L484 643 C536 642 553 634 553 610 C553 600 549 588 539 573 L396 347 L248 569 C237 585 231 602 231 613 C231 632 245 640 277 642 C281 642 291 642 302 643 L302 662 L22 662 L22 643 C70 641 84 627 184 486 L315 294 L315 120 C314 32 305 23 214 19 L214 0 L520 0 L520 19 C431 21 418 32 417 109 L417 303 L565 529 C626 617 652 639 703 643 L703 662 Z " />
<glyph glyph-name="Z" unicode="Z" horiz-adv-x="611" d="M574 176 C544 69 510 42 402 38 L145 38 L577 647 L577 662 L51 662 L31 491 L57 491 C74 592 110 621 225 624 L446 624 L9 15 L9 0 L573 0 L597 176 L574 176 Z " />
<glyph glyph-name="bracketleft" unicode="&#x5b;" horiz-adv-x="333" d="M299 637 L299 662 L88 662 L88 -156 L299 -156 L299 -131 L213 -131 C179 -130 165 -115 164 -79 L164 593 C165 625 176 636 209 637 L299 637 Z " />
<glyph glyph-name="backslash" unicode="&#x5c;" horiz-adv-x="278" d="M8 676 L242 -14 L287 -14 L58 676 L8 676 Z " />
<glyph glyph-name="bracketright" unicode="&#x5d;" horiz-adv-x="333" d="M34 -131 L34 -156 L245 -156 L245 662 L34 662 L34 637 L120 637 C154 636 168 621 169 585 L169 -87 C168 -119 157 -130 124 -131 L34 -131 Z " />
<glyph glyph-name="asciicircum" unicode="&#x5e;" horiz-adv-x="469" d="M92 297 L235 586 L378 297 L446 297 L265 662 L205 662 L24 297 L92 297 Z " />
<glyph glyph-name="underscore" unicode="&#x5f;" horiz-adv-x="500" d="M500 -125 L500 -75 L0 -75 L0 -125 L500 -125 Z " />
<glyph glyph-name="grave" unicode="&#x60;" horiz-adv-x="333" d="M257 507 L110 655 C92 673 83 678 68 678 C47 678 34 666 34 647 C34 631 44 616 63 604 L217 507 L257 507 Z " />
<glyph glyph-name="a" unicode="a" horiz-adv-x="444" d="M442 66 C425 52 413 47 398 47 C375 47 368 61 368 105 L368 300 C368 352 363 381 348 405 C326 441 283 460 224 460 C130 460 56 411 56 348 C56 325 75 305 99 305 C123 305 144 325 144 347 C144 351 143 356 142 363 C140 372 139 380 139 387 C139 414 171 436 211 436 C260 436 287 407 287 353 L287 292 C133 230 116 222 73 184 C51 164 37 130 37 97 C37 34 81 -10 142 -10 C186 -10 227 11 288 63 C293 10 311 -10 352 -10 C386 -10 407 2 442 40 L442 66 Z M287 123 C287 93 282 82 261 70 C236 56 209 48 188 48 C153 48 125 82 125 125 L125 129 C126 189 170 227 287 268 L287 123 Z " />
<glyph glyph-name="b" unicode="b" horiz-adv-x="500" d="M153 681 L148 683 C106 668 79 660 32 647 L3 639 L3 623 C9 624 13 624 20 624 C61 624 69 615 69 573 L69 54 C69 23 153 -10 234 -10 C366 -10 468 100 468 243 C468 367 392 460 292 460 C231 460 173 425 153 375 L153 681 Z M153 322 C153 361 200 397 252 397 C280 397 305 387 326 368 C358 337 380 269 380 197 C380 86 332 22 250 22 C198 22 153 44 153 70 L153 322 Z " />
<glyph glyph-name="c" unicode="c" horiz-adv-x="444" d="M398 156 C350 86 314 62 257 62 C165 62 102 142 102 257 C102 361 157 431 238 431 C274 431 287 420 297 383 L303 361 C311 332 329 315 351 315 C377 315 398 334 398 357 C398 413 328 460 244 460 C195 460 144 440 103 404 C53 360 25 292 25 212 C25 83 104 -10 215 -10 C260 -10 300 6 336 37 C363 60 382 88 412 147 L398 156 Z " />
<glyph glyph-name="d" unicode="d" horiz-adv-x="500" d="M491 58 C478 57 472 57 468 57 C432 57 424 68 424 114 L424 681 L419 683 C371 666 336 656 272 639 L272 623 C280 624 286 624 294 624 C331 624 340 614 340 573 L340 417 C302 449 275 460 235 460 C120 460 27 347 27 205 C27 77 101 -10 212 -10 C268 -10 306 10 340 57 L340 -7 L344 -10 L491 42 L491 58 Z M340 102 C340 95 333 83 323 72 C306 52 280 42 251 42 C168 42 113 122 113 245 C113 358 162 432 238 432 C292 432 340 385 340 332 L340 102 Z " />
<glyph glyph-name="e" unicode="e" horiz-adv-x="444" d="M414 164 C366 88 323 59 259 59 C202 59 159 88 130 145 C112 183 105 215 103 277 L411 277 C403 342 393 371 368 403 C338 439 292 460 240 460 C190 460 143 442 105 408 C58 367 31 296 31 214 C31 76 103 -10 218 -10 C314 -10 388 49 430 157 L414 164 Z M105 309 C116 388 150 424 211 424 C272 424 296 396 309 309 L105 309 Z " />
<glyph glyph-name="f" unicode="f" horiz-adv-x="333" d="M322 450 L199 450 L199 566 C199 625 218 655 256 655 C278 655 291 645 309 616 C325 590 337 580 354 580 C378 580 396 598 396 621 C396 657 352 683 292 683 C229 683 177 656 151 611 C125 566 117 530 116 450 L34 450 L34 418 L116 418 L116 104 C114 29 104 18 33 15 L33 0 L293 0 L293 15 C211 18 200 29 200 104 L200 418 L322 418 L322 450 Z " />
<glyph glyph-name="g" unicode="g" horiz-adv-x="500" d="M470 388 L470 427 L393 427 C372 427 358 430 338 437 L316 445 C289 455 262 460 236 460 C143 460 69 389 69 297 C69 234 95 196 162 163 L136 139 C115 119 103 108 100 104 C79 82 73 71 73 54 C73 32 84 21 126 1 C54 -51 28 -84 28 -121 C28 -174 105 -218 201 -218 C276 -218 354 -192 406 -150 C444 -119 461 -87 461 -49 C461 13 414 55 340 58 L211 64 C157 66 133 75 133 91 C133 111 166 146 193 154 C229 151 248 149 250 149 C287 149 327 164 358 191 C391 219 406 254 406 304 C406 333 401 356 387 388 L470 388 Z M147 -2 C181 -9 260 -15 309 -15 C400 -15 433 -28 433 -64 C433 -122 357 -161 244 -161 C155 -161 98 -132 98 -88 C98 -65 107 -50 147 -2 L147 -2 Z M152 338 C152 397 180 432 226 432 C257 432 283 415 299 385 C318 350 329 305 329 265 C329 209 301 174 255 174 C193 174 152 239 152 335 L152 338 Z " />
<glyph glyph-name="h" unicode="h" horiz-adv-x="500" d="M487 15 C433 24 428 31 427 102 L427 301 C427 406 386 460 304 460 C245 460 203 436 157 376 L157 680 L152 683 C118 671 93 663 37 647 L10 639 L10 623 C14 624 17 624 22 624 C65 624 73 616 73 573 L73 102 C71 30 66 22 9 15 L9 0 L225 0 L225 15 C167 20 159 31 157 102 L157 343 C199 389 229 406 268 406 C318 406 343 370 343 300 L343 102 C341 31 332 20 275 15 L275 0 L487 0 L487 15 Z " />
<glyph glyph-name="i" unicode="i" horiz-adv-x="278" d="M23 0 L260 0 L260 15 C194 20 187 29 186 102 L186 457 L182 460 L27 405 L27 390 L35 391 C47 393 60 394 69 394 C93 394 102 378 102 334 L102 102 C100 28 91 18 23 15 L23 0 Z M135 683 C108 683 85 660 85 632 C85 603 107 581 135 581 C165 581 187 603 187 632 C187 661 164 683 135 683 L135 683 Z " />
<glyph glyph-name="j" unicode="j" horiz-adv-x="278" d="M193 457 L188 460 C129 437 91 424 32 406 L32 390 L37 391 C52 393 67 394 77 394 C100 394 109 377 109 334 L109 -45 C109 -121 106 -146 95 -166 C89 -176 75 -184 61 -184 C46 -184 36 -177 19 -156 C1 -133 -13 -124 -29 -124 C-52 -124 -70 -141 -70 -163 C-70 -195 -31 -218 24 -218 C68 -218 108 -204 135 -179 C171 -147 193 -79 193 0 L193 457 Z M142 683 C115 683 92 660 92 632 C92 603 114 581 142 581 C172 581 194 603 194 632 C194 661 171 683 142 683 L142 683 Z " />
<glyph glyph-name="k" unicode="k" horiz-adv-x="500" d="M7 0 L241 0 L241 15 L221 16 C179 19 167 30 166 67 L166 251 L306 64 C310 59 313 54 316 51 C324 41 327 35 327 30 C327 21 318 15 306 15 L287 15 L287 0 L505 0 L505 15 C461 18 430 37 388 88 L235 282 L264 309 C389 421 416 437 480 435 L480 450 L276 450 L276 436 C315 435 326 431 326 418 C326 409 317 396 303 383 L166 261 L166 681 L162 683 C124 671 95 663 37 647 L7 639 L7 623 C20 624 29 625 39 625 C73 625 82 612 82 564 L82 82 C81 29 78 26 7 15 L7 0 Z " />
<glyph glyph-name="l" unicode="l" horiz-adv-x="278" d="M21 0 L257 0 L257 15 C194 18 183 28 182 84 L182 681 L178 683 C126 666 88 656 19 639 L19 623 L25 623 C36 624 48 625 56 625 C88 625 98 611 98 564 L98 87 C97 33 83 19 21 15 L21 0 Z " />
<glyph glyph-name="m" unicode="m" horiz-adv-x="778" d="M16 0 L238 0 L238 15 C187 16 171 27 170 67 L170 349 C170 351 178 361 185 368 C210 391 253 408 288 408 C332 408 354 373 354 303 L354 86 C352 29 342 18 286 15 L286 0 L510 0 L510 15 C454 15 440 31 438 95 L438 347 C468 390 500 408 547 408 C604 408 622 381 622 298 L622 87 C620 28 614 21 556 15 L556 0 L775 0 L775 15 L749 17 C717 22 706 37 706 76 L706 282 C706 400 667 460 590 460 C531 460 481 434 427 376 C409 433 375 460 321 460 C276 460 250 447 166 383 L166 458 L159 460 C108 441 74 430 19 415 L19 398 C32 401 40 402 51 402 C77 402 86 386 86 338 L86 85 C84 29 71 15 16 15 L16 0 Z " />
<glyph glyph-name="n" unicode="n" horiz-adv-x="500" d="M18 0 L230 0 L230 15 C180 18 164 31 164 67 L164 348 C211 393 234 405 267 405 C316 405 340 374 340 308 L340 99 C338 34 326 18 277 15 L277 0 L485 0 L485 15 C436 20 425 32 424 81 L424 310 C424 404 380 460 306 460 C260 460 229 443 161 379 L161 458 L154 460 C105 442 71 431 16 415 L16 398 C22 401 32 402 43 402 C71 402 80 387 80 338 L80 90 C79 31 68 18 18 15 L18 0 Z " />
<glyph glyph-name="o" unicode="o" horiz-adv-x="500" d="M250 460 C119 460 29 364 29 226 C29 90 122 -10 248 -10 C374 -10 470 95 470 234 C470 366 378 460 250 460 L250 460 Z M237 432 C321 432 380 336 380 199 C380 85 335 18 260 18 C221 18 184 42 163 82 C135 134 119 204 119 275 C119 370 165 432 237 432 L237 432 Z " />
<glyph glyph-name="p" unicode="p" horiz-adv-x="500" d="M5 -217 L247 -217 L247 -199 C172 -198 160 -188 159 -124 L159 33 C195 0 218 -10 260 -10 C379 -10 470 102 470 247 C470 371 400 460 303 460 C247 460 203 436 159 381 L159 458 L153 460 C99 439 64 426 9 409 L9 393 C18 394 25 394 34 394 C68 394 75 384 75 337 L75 -131 C75 -184 64 -194 5 -200 L5 -217 Z M159 334 C159 364 215 400 261 400 C335 400 384 324 384 207 C384 97 335 22 263 22 C216 22 159 58 159 88 L159 334 Z " />
<glyph glyph-name="q" unicode="q" horiz-adv-x="500" d="M360 425 C315 451 285 460 245 460 C119 460 24 349 24 204 C24 79 90 -10 184 -10 C242 -10 297 16 341 64 L341 -124 C340 -180 322 -196 252 -200 L252 -217 L488 -217 L488 -203 C434 -191 427 -184 425 -141 L425 456 L414 457 L360 425 Z M341 127 C341 103 337 90 327 81 C305 63 272 51 241 51 C210 51 183 61 163 80 C131 110 110 174 110 241 C110 359 163 432 248 432 C310 432 341 399 341 333 L341 127 Z " />
<glyph glyph-name="r" unicode="r" horiz-adv-x="333" d="M5 0 L245 0 L245 15 C178 17 162 31 160 90 L160 315 C160 347 202 397 230 397 C236 397 245 392 256 382 C272 367 283 362 296 362 C320 362 335 379 335 407 C335 440 314 460 280 460 C238 460 209 438 160 366 L160 458 L155 460 C102 438 66 425 7 406 L7 390 C21 393 30 394 42 394 C67 394 76 378 76 334 L76 84 C74 32 68 26 5 15 L5 0 Z " />
<glyph glyph-name="s" unicode="s" horiz-adv-x="389" d="M315 314 L311 451 L300 451 C294 443 289 440 284 440 C278 440 268 442 257 447 C234 455 211 460 187 460 C108 460 51 408 51 336 C51 280 83 240 168 192 L226 159 C261 139 278 115 278 84 C278 40 246 12 195 12 C126 12 91 50 68 152 L52 152 L52 -4 L65 -4 C72 6 76 8 88 8 C99 8 111 6 134 0 C161 -6 187 -10 207 -10 C285 -10 348 48 348 118 C348 168 325 201 264 237 L156 301 C128 317 113 342 113 369 C113 410 144 437 190 437 C247 437 277 404 300 314 L315 314 Z " />
<glyph glyph-name="t" unicode="t" horiz-adv-x="278" d="M259 450 L158 450 L158 566 C158 576 156 579 151 579 C93 495 63 461 34 444 C23 437 17 431 17 425 C17 422 18 420 21 418 L74 418 L74 117 C74 33 104 -10 163 -10 C212 -10 250 14 283 66 L270 77 C248 51 232 42 210 42 C173 42 158 69 158 132 L158 418 L259 418 L259 450 Z " />
<glyph glyph-name="u" unicode="u" horiz-adv-x="500" d="M488 50 L483 50 C434 52 427 60 426 107 L426 450 L268 450 L268 433 C330 430 342 420 342 370 L342 135 C342 107 337 93 323 82 C296 60 265 48 235 48 C196 48 164 82 164 124 L164 450 L18 450 L18 436 C65 434 79 420 80 372 L80 120 C80 41 128 -10 201 -10 C238 -10 277 6 304 33 L347 76 L347 -7 L351 -9 C401 11 437 22 488 36 L488 50 Z " />
<glyph glyph-name="v" unicode="v" horiz-adv-x="500" d="M477 450 L338 450 L338 435 C370 432 385 422 385 403 C385 393 383 383 379 373 L280 114 L178 370 C172 384 169 398 169 407 C169 425 180 432 215 435 L215 450 L19 450 L19 435 C57 433 64 423 110 320 L230 33 C232 27 235 20 238 12 C241 4 244 -3 247 -8 C249 -12 253 -14 256 -14 C262 -14 269 -1 284 36 L412 357 C441 425 447 432 477 435 L477 450 Z " />
<glyph glyph-name="w" unicode="w" horiz-adv-x="722" d="M571 450 L571 435 C605 428 615 421 615 404 C615 389 609 364 598 338 L508 116 L424 340 C407 386 407 386 407 399 C407 421 418 428 465 435 L465 450 L262 450 L262 435 C299 431 311 420 331 366 C338 347 345 328 351 310 L260 111 L161 372 C157 382 155 392 155 402 C155 423 166 431 201 435 L201 450 L21 450 L21 435 C44 433 52 423 74 372 L209 30 C221 -1 229 -14 235 -14 C240 -14 248 -2 260 25 L372 265 L463 29 C478 -9 480 -14 487 -14 C494 -14 499 -5 515 35 L653 381 C671 423 674 428 694 435 L694 450 L571 450 Z " />
<glyph glyph-name="x" unicode="x" horiz-adv-x="500" d="M278 0 L479 0 L479 15 C448 15 428 31 397 75 L269 271 L352 391 C371 418 401 434 433 435 L433 450 L275 450 L275 435 C305 433 315 427 315 413 C315 401 303 379 278 348 C273 342 261 324 248 304 L240 316 C225 339 216 352 214 356 C195 387 188 403 188 413 C188 428 201 434 231 435 L231 450 L24 450 L24 435 L33 435 C63 435 79 422 110 375 L204 231 L90 66 C60 25 50 18 17 15 L17 0 L162 0 L162 15 C133 15 122 20 122 33 C122 40 128 53 142 74 L221 197 L312 57 C316 51 318 46 318 39 C318 21 311 17 278 15 L278 0 Z " />
<glyph glyph-name="y" unicode="y" horiz-adv-x="500" d="M475 450 L340 450 L340 435 C372 435 388 426 388 410 C388 406 387 400 384 393 L287 117 L172 370 C166 384 162 398 162 408 C162 426 177 433 220 435 L220 450 L14 450 L14 436 C40 432 57 421 65 404 L179 158 C191 131 192 130 197 120 C225 70 241 33 241 18 C241 2 218 -59 201 -90 C186 -115 165 -134 151 -134 C145 -134 136 -132 125 -127 C107 -120 89 -116 73 -116 C49 -116 30 -135 30 -160 C30 -193 61 -218 104 -218 C172 -218 218 -163 273 -18 L427 390 C440 422 451 432 475 435 L475 450 Z " />
<glyph glyph-name="z" unicode="z" horiz-adv-x="444" d="M418 135 L400 139 C382 45 368 33 272 30 L134 30 L403 435 L403 450 L56 450 L53 332 L71 332 C79 403 93 418 155 420 L293 420 L27 15 L27 0 L404 0 L418 135 Z " />
<glyph glyph-name="braceleft" unicode="&#x7b;" horiz-adv-x="480" d="M350 -170 C282 -154 260 -123 259 -47 L259 121 C258 205 239 231 165 249 C239 268 258 294 259 378 L259 546 C260 622 282 653 350 669 L350 680 C226 680 187 647 185 541 L185 363 C184 293 166 268 100 250 C166 231 184 206 185 136 L185 -41 C188 -149 226 -181 350 -181 L350 -170 Z " />
<glyph glyph-name="bar" unicode="&#x7c;" horiz-adv-x="200" d="M67 -155 L133 -155 L133 676 L67 676 L67 -155 Z " />
<glyph glyph-name="braceright" unicode="&#x7d;" horiz-adv-x="480" d="M130 669 C197 653 220 622 221 546 L221 378 C222 293 241 268 315 250 C241 231 222 205 221 121 L221 -47 C220 -123 197 -154 130 -170 L130 -181 C254 -181 293 -148 295 -42 L295 136 C296 206 314 231 380 250 C314 268 296 293 295 363 L295 540 C292 648 254 680 130 680 L130 669 Z " />
<glyph glyph-name="asciitilde" unicode="&#x7e;" horiz-adv-x="541" d="M448 303 C422 264 405 252 374 252 C353 252 332 257 315 266 C226 313 208 320 163 320 C117 320 86 299 40 235 L94 203 C120 242 137 254 168 254 C189 254 210 249 227 240 C316 193 334 186 379 186 C425 186 456 207 502 271 L448 303 Z " />
<glyph glyph-name="uni00A0" unicode="&#xa0;" horiz-adv-x="250" d="" />
<glyph glyph-name="exclamdown" unicode="&#xa1;" horiz-adv-x="333" d="M157 282 L112 -101 C111 -113 110 -126 110 -138 C110 -190 129 -218 163 -218 C196 -218 216 -189 216 -140 C216 -106 208 -35 196 36 C189 81 183 127 179 174 L170 282 L157 282 Z M164 467 C133 467 110 446 110 417 C110 386 133 362 163 362 C194 362 218 386 218 416 C218 445 194 467 164 467 L164 467 Z " />
<glyph glyph-name="cent" unicode="&#xa2;" horiz-adv-x="500" d="M403 579 L368 579 L324 455 C300 459 287 460 273 460 C149 460 53 354 53 219 C53 164 70 110 99 71 C117 46 132 33 169 12 L118 -138 L152 -138 L201 0 C225 -7 240 -9 257 -9 C295 -9 332 5 360 29 C395 59 414 86 448 156 L435 164 C383 89 347 64 288 64 C268 64 252 67 229 76 L330 367 C348 328 363 315 388 315 C413 315 431 333 431 360 C431 395 404 425 356 444 L403 579 Z M198 98 C149 143 130 188 130 260 C130 362 184 430 266 430 C283 430 295 428 313 421 L198 98 Z " />
<glyph glyph-name="sterling" unicode="&#xa3;" horiz-adv-x="500" d="M344 373 L219 373 C211 440 208 473 208 510 C208 598 243 649 303 649 C340 649 359 632 359 597 C360 544 368 530 398 530 C427 530 448 552 448 583 C448 636 393 676 318 676 C198 676 123 586 123 442 C123 417 125 399 130 373 L23 373 L23 328 L131 328 L133 311 L135 295 C146 219 152 164 152 146 C152 139 151 133 149 125 C130 129 118 130 103 130 C48 130 12 100 12 54 C12 16 38 -8 80 -8 C115 -8 138 6 178 54 C246 7 279 -7 322 -7 C370 -7 415 14 447 51 C468 75 490 119 490 137 C490 140 488 141 484 141 C478 141 471 136 461 125 C430 91 394 76 348 76 C299 76 264 84 199 111 C221 220 224 240 224 273 C224 273 224 286 223 301 L222 328 L344 328 L344 373 Z M89 94 C114 94 142 84 142 76 C142 68 136 55 125 43 C112 26 99 20 79 20 C55 20 38 35 38 57 C38 81 55 94 89 94 L89 94 Z " />
<glyph glyph-name="currency" unicode="&#xa4;" horiz-adv-x="500" d="M-22 108 L28 58 L124 156 C166 127 204 115 251 115 C298 115 336 128 376 156 L474 58 L522 108 L426 204 C455 249 465 283 465 331 C465 380 455 413 426 456 L522 554 L474 602 L376 506 C337 533 300 545 251 545 C203 545 168 534 124 506 L28 602 L-22 554 L76 456 C47 416 35 378 35 330 C35 282 47 246 76 204 L-22 108 Z M253 481 C332 481 397 413 397 331 C397 246 332 179 251 179 C169 179 103 247 103 330 C103 415 169 481 253 481 L253 481 Z " />
<glyph glyph-name="yen" unicode="&#xa5;" horiz-adv-x="500" d="M367 19 C304 20 288 38 287 109 L287 182 L460 182 L460 222 L287 222 L287 298 L294 312 L460 312 L460 352 L314 352 L406 536 C443 605 473 632 524 643 L524 662 L329 662 L329 643 L343 643 C373 643 394 631 394 613 C394 602 389 585 380 568 L268 348 L150 569 C142 584 137 601 137 614 C137 635 155 642 202 643 L202 662 L-41 662 L-41 643 C5 640 22 624 77 525 L172 352 L28 352 L28 312 L195 312 L202 298 L202 222 L28 222 L28 182 L202 182 L202 120 C201 36 190 22 123 19 L123 0 L367 0 L367 19 Z " />
<glyph glyph-name="brokenbar" unicode="&#xa6;" horiz-adv-x="200" d="M67 -153 L133 -153 L133 177 L67 177 L67 -153 Z M67 315 L133 315 L133 644 L67 644 L67 315 Z " />
<glyph glyph-name="section" unicode="&#xa7;" horiz-adv-x="500" d="M310 125 C378 125 426 175 426 245 C426 298 395 352 337 400 L200 513 C180 530 166 558 166 584 C166 626 200 655 251 655 C286 655 313 641 313 623 C313 620 311 617 305 612 C289 601 279 584 279 568 C279 543 298 525 326 525 C358 525 377 545 377 578 C377 634 322 676 249 676 C166 676 110 627 110 554 C110 500 130 470 210 404 C200 405 191 405 185 405 C119 405 70 354 70 286 C70 212 119 149 241 65 C306 21 330 -11 330 -50 C330 -97 296 -127 243 -127 C206 -127 172 -110 172 -92 C172 -88 176 -83 183 -77 C198 -64 206 -50 206 -36 C206 -12 185 6 158 6 C127 6 104 -17 104 -48 C104 -104 164 -148 242 -148 C329 -148 386 -97 386 -21 C386 31 367 60 292 125 L310 125 Z M191 383 C222 383 274 351 321 305 C355 271 374 238 374 212 C374 177 342 146 305 146 C267 146 230 169 169 229 C135 263 123 286 123 316 C123 355 151 383 191 383 L191 383 Z " />
<glyph glyph-name="dieresis" unicode="&#xa8;" horiz-adv-x="333" d="M66 623 C40 623 18 600 18 574 C18 545 39 523 66 523 C93 523 116 545 116 573 C116 600 93 623 66 623 L66 623 Z M265 623 C239 623 217 600 217 574 C217 545 238 523 265 523 C292 523 315 545 315 573 C315 600 292 623 265 623 L265 623 Z " />
<glyph glyph-name="copyright" unicode="&#xa9;" horiz-adv-x="760" d="M386 676 C190 676 38 525 38 330 C38 138 189 -14 381 -14 C572 -14 722 137 722 330 C722 521 571 676 386 676 L386 676 Z M385 634 C537 634 667 495 667 331 C667 166 537 28 381 28 C224 28 93 165 93 330 C93 498 224 634 385 634 L385 634 Z M537 526 L518 526 C512 510 506 505 496 505 C492 505 485 506 481 508 C441 522 419 526 390 526 C256 526 156 435 156 314 C156 199 250 111 373 111 C452 111 505 138 555 204 L537 213 C496 160 452 138 390 138 C291 138 234 205 234 324 C234 436 292 505 385 505 C457 505 505 469 528 398 L547 398 L537 526 Z " />
<glyph glyph-name="ordfeminine" unicode="&#xaa;" horiz-adv-x="276" d="M270 442 C260 433 252 430 242 430 C231 430 229 436 229 465 L229 580 C229 644 194 676 124 676 C61 676 16 648 16 609 C16 591 30 578 48 578 C65 578 79 590 79 603 C79 605 79 608 78 611 C77 616 76 621 76 625 C76 637 98 648 121 648 C144 648 157 633 157 606 L157 576 C66 542 53 536 26 513 C12 502 4 482 4 462 C4 422 34 394 75 394 C105 394 133 407 166 438 C172 406 184 394 211 394 C234 394 246 401 270 424 L270 442 Z M158 474 C158 466 154 459 147 452 C130 444 118 441 105 441 C84 441 67 461 67 485 C67 511 88 526 158 551 L158 474 Z " />
<glyph glyph-name="guillemotleft" unicode="&#xab;" horiz-adv-x="500" d="M42 222 L73 195 C145 133 182 99 243 39 C247 34 249 33 254 33 C260 33 263 36 263 42 C263 55 222 113 145 211 C142 215 141 215 135 224 C160 257 177 278 210 317 C239 353 264 393 264 406 C264 411 259 416 254 416 C248 416 228 398 211 377 C209 374 179 344 150 318 C141 310 133 303 126 297 L123 295 C118 290 113 285 107 281 L42 222 Z M234 222 L265 195 C337 133 374 99 435 39 C439 34 441 33 446 33 C452 33 455 36 455 42 C455 55 414 113 337 211 C334 215 333 215 327 224 C352 257 369 278 402 317 C431 353 456 393 456 406 C456 411 451 416 446 416 C440 416 420 398 403 377 C401 374 371 344 342 318 C333 310 325 303 318 297 L315 295 C310 290 305 285 299 281 L234 222 Z " />
<glyph glyph-name="logicalnot" unicode="&#xac;" horiz-adv-x="564" d="M31 383 L31 319 L469 319 L469 113 L535 113 L535 383 L31 383 Z " />
<glyph glyph-name="uni00AD" unicode="&#xad;" horiz-adv-x="333" d="M39 257 L39 194 L285 194 L285 257 L39 257 Z " />
<glyph glyph-name="registered" unicode="&#xae;" horiz-adv-x="760" d="M219 505 C252 501 253 501 261 497 C266 494 268 486 268 456 L268 215 C268 185 266 178 261 175 C253 171 250 170 219 167 L219 152 L381 152 L381 167 C350 170 347 171 339 175 C334 178 332 185 332 215 L332 314 L380 314 C417 258 421 251 432 231 C461 179 487 149 501 152 L565 152 L565 160 C541 180 517 206 489 245 L432 324 C484 345 511 380 511 428 C511 484 466 520 396 520 L219 520 L219 505 Z M332 501 L373 501 C420 501 444 474 444 422 C444 365 419 333 375 333 L332 333 L332 501 Z M381 676 C190 676 38 523 38 330 C38 138 189 -14 381 -14 C570 -14 722 138 722 325 C722 523 574 676 381 676 L381 676 Z M381 634 C540 634 667 497 667 326 C667 166 535 28 381 28 C224 28 93 165 93 330 C93 496 224 634 381 634 L381 634 Z " />
<glyph glyph-name="macron" unicode="&#xaf;" horiz-adv-x="333" d="M16 594 L16 545 L316 545 L316 594 L16 594 Z " />
<glyph glyph-name="degree" unicode="&#xb0;" horiz-adv-x="400" d="M200 676 C120 676 57 613 57 533 C57 454 120 390 198 390 C279 390 343 452 343 532 C343 613 281 676 200 676 L200 676 Z M200 642 C257 642 304 592 304 533 C304 473 257 424 199 424 C143 424 96 474 96 533 C96 593 143 642 200 642 L200 642 Z " />
<glyph glyph-name="plusminus" unicode="&#xb1;" horiz-adv-x="564" d="M37 60 L528 60 L528 113 L37 113 L37 60 Z M256 395 L37 395 L37 342 L256 342 L256 182 L309 182 L309 342 L528 342 L528 395 L309 395 L309 615 L256 615 L256 395 Z " />
<glyph glyph-name="twosuperior" unicode="&#xb2;" horiz-adv-x="300" d="M296 355 L279 362 C265 340 256 336 228 335 L107 335 L193 420 C254 481 277 521 277 570 C277 633 224 676 146 676 C105 676 71 664 48 641 C27 622 17 603 1 557 L26 543 C48 591 75 613 112 613 C152 613 185 579 185 537 C185 507 154 455 104 400 L6 293 L6 270 L259 270 L296 355 Z " />
<glyph glyph-name="threesuperior" unicode="&#xb3;" horiz-adv-x="300" d="M94 460 L117 463 C129 465 154 458 169 449 C196 434 210 409 210 378 C210 337 183 310 142 310 C124 310 113 314 91 330 C72 344 61 349 50 349 C30 349 15 333 15 312 C15 280 45 262 98 262 C209 262 291 320 291 398 C291 450 262 488 205 511 C248 542 265 565 265 593 C265 640 218 676 157 676 C95 676 56 649 21 581 L46 563 C77 607 97 620 133 620 C168 620 189 601 189 571 C189 534 163 512 93 489 L94 460 Z " />
<glyph glyph-name="acute" unicode="&#xb4;" horiz-adv-x="333" d="M116 507 L270 604 C291 617 300 630 300 646 C300 666 287 678 265 678 C250 678 241 673 223 655 L76 507 L116 507 Z " />
<glyph glyph-name="mu" unicode="&#xb5;" horiz-adv-x="500" d="M429 450 L341 450 L341 115 C317 74 278 52 231 52 C179 52 147 87 147 144 L147 450 L59 450 L59 54 C59 33 57 15 47 -43 C40 -83 35 -126 35 -148 C35 -192 52 -218 81 -218 C112 -218 127 -192 127 -141 C127 -112 122 -84 109 -33 C96 17 94 27 90 64 C121 13 156 -10 207 -10 C262 -10 304 17 344 80 C346 17 369 -10 417 -10 C455 -10 478 4 511 47 L511 55 C487 33 476 27 461 27 C438 27 429 46 429 92 L429 450 Z " />
<glyph glyph-name="paragraph" unicode="&#xb6;" horiz-adv-x="453" d="M251 640 L309 640 L309 -180 L375 -180 L375 553 C376 626 386 636 463 643 L463 662 L200 662 C53 662 -9 607 -9 477 C-9 395 14 339 61 306 C94 283 122 275 185 273 L185 -180 L251 -180 L251 640 Z M185 295 C99 304 67 354 67 480 C67 552 81 597 110 618 C128 631 145 637 185 640 L185 295 Z " />
<glyph glyph-name="periodcentered" unicode="&#xb7;" horiz-adv-x="250" d="M125 310 C95 310 70 285 70 253 C70 224 95 199 124 199 C155 199 181 223 181 253 C181 284 155 310 125 310 L125 310 Z " />
<glyph glyph-name="cedilla" unicode="&#xb8;" horiz-adv-x="333" d="M98 -99 L105 -104 C113 -101 121 -100 133 -100 C171 -100 186 -110 186 -136 C186 -163 165 -180 131 -180 C110 -180 93 -177 66 -168 L52 -199 C81 -210 105 -215 136 -215 C213 -215 261 -183 261 -131 C261 -87 229 -62 175 -62 C165 -62 159 -63 149 -65 L174 0 L139 0 L98 -99 Z " />
<glyph glyph-name="onesuperior" unicode="&#xb9;" horiz-adv-x="300" d="M248 294 C204 296 192 304 191 330 L191 673 L177 676 L59 621 L59 598 C95 611 95 611 102 611 C108 611 110 605 110 583 L110 326 C109 303 99 296 57 294 L57 270 L248 270 L248 294 Z " />
<glyph glyph-name="ordmasculine" unicode="&#xba;" horiz-adv-x="310" d="M159 676 C67 676 6 619 6 533 C6 452 67 394 151 394 C239 394 304 458 304 542 C304 621 244 676 159 676 L159 676 Z M150 643 C198 643 231 590 231 514 C231 458 206 427 160 427 C135 427 116 439 104 461 C88 489 79 530 79 569 C79 614 107 643 150 643 L150 643 Z " />
<glyph glyph-name="guillemotright" unicode="&#xbb;" horiz-adv-x="500" d="M458 222 L393 281 C382 290 376 296 374 297 C369 302 361 309 350 318 C321 344 291 374 289 377 C272 398 252 416 246 416 C241 416 236 411 236 406 C236 393 261 353 290 317 C323 278 340 257 365 224 L361 218 L355 211 C278 113 237 55 237 42 C237 36 240 33 246 33 C251 33 253 34 257 39 C316 97 356 134 427 195 L458 222 Z M266 222 L201 281 C190 290 184 296 182 297 C177 302 169 309 158 318 C129 344 99 374 97 377 C80 398 60 416 54 416 C49 416 44 411 44 406 C44 393 69 353 98 317 C131 278 148 257 173 224 L169 218 L163 211 C86 113 45 55 45 42 C45 36 48 33 54 33 C59 33 61 34 65 39 C124 97 164 134 235 195 L266 222 Z " />
<glyph glyph-name="onequarter" unicode="&#xbc;" horiz-adv-x="750" d="M216 288 C174 291 160 301 159 330 L159 668 L152 669 L40 617 L40 608 C67 617 69 618 76 618 C88 618 91 610 91 583 L91 326 C90 300 77 290 38 288 L38 277 L216 277 L216 288 Z M712 145 L661 145 L661 399 L618 399 L424 141 L424 95 L595 95 L595 0 L661 0 L661 95 L712 95 L712 145 Z M593 145 L467 145 L593 315 L593 145 Z M631 676 L585 676 L132 -14 L181 -14 L631 676 Z " />
<glyph glyph-name="onehalf" unicode="&#xbd;" horiz-adv-x="750" d="M216 288 C174 291 160 301 159 330 L159 668 L152 669 L40 617 L40 608 C67 617 69 618 76 618 C88 618 91 610 91 583 L91 326 C90 300 77 290 38 288 L38 277 L216 277 L216 288 Z M600 676 L554 676 L101 -14 L150 -14 L600 676 Z M734 81 L728 83 C715 64 704 59 675 58 L538 58 L635 154 C685 204 709 249 709 294 C709 353 656 399 587 399 C554 399 521 387 499 366 C481 349 470 331 456 290 L470 282 C491 327 521 349 560 349 C607 349 639 319 639 275 C639 234 613 188 556 125 L459 20 L459 6 L701 6 L734 81 Z " />
<glyph glyph-name="threequarters" unicode="&#xbe;" horiz-adv-x="750" d="M98 469 L116 471 C119 472 122 472 123 472 C171 472 213 430 213 382 C213 339 184 310 141 310 C122 310 110 315 88 331 C70 344 60 349 50 349 C33 349 20 335 20 317 C20 288 48 272 97 272 C205 272 284 328 284 403 C284 435 269 466 243 487 C231 497 226 500 194 513 C245 550 259 567 259 596 C259 639 214 673 156 673 C110 673 69 652 44 614 C39 606 38 604 27 585 L45 572 C75 614 95 627 132 627 C170 627 193 606 193 574 C193 536 168 514 97 489 L98 469 Z M712 145 L661 145 L661 399 L618 399 L424 141 L424 95 L595 95 L595 0 L661 0 L661 95 L712 95 L712 145 Z M593 145 L467 145 L593 315 L593 145 Z M645 676 L599 676 L146 -14 L195 -14 L645 676 Z " />
<glyph glyph-name="questiondown" unicode="&#xbf;" horiz-adv-x="444" d="M209 294 C198 226 180 186 144 140 C98 84 98 84 84 63 C52 14 39 -22 39 -63 C39 -101 52 -137 75 -160 C109 -195 168 -218 223 -218 C315 -218 385 -156 385 -73 C385 -32 368 -11 337 -11 C312 -11 296 -27 296 -52 C296 -66 302 -78 317 -95 C329 -109 334 -117 334 -126 C334 -158 288 -188 240 -188 C179 -188 131 -135 131 -68 C131 -22 144 33 168 88 L196 152 C215 200 225 250 226 294 L209 294 Z M217 466 C185 466 163 445 163 416 C163 384 186 361 216 361 C247 361 271 385 271 415 C271 444 248 466 217 466 L217 466 Z " />
<glyph glyph-name="Agrave" unicode="&#xc0;" horiz-adv-x="722" d="M706 19 C661 22 651 32 616 106 L367 674 L347 674 L139 183 C75 37 63 21 15 19 L15 0 L213 0 L213 19 C165 19 145 31 145 60 C145 72 148 86 153 99 L199 216 L461 216 L502 120 C514 93 521 67 521 53 C521 28 504 20 451 19 L451 0 L706 0 L706 19 Z M216 257 L331 532 L447 257 L216 257 Z M437 719 L290 867 C272 885 263 890 248 890 C227 890 214 878 214 859 C214 843 224 828 243 816 L397 719 L437 719 Z " />
<glyph glyph-name="Aacute" unicode="&#xc1;" horiz-adv-x="722" d="M706 19 C661 22 651 32 616 106 L367 674 L347 674 L139 183 C75 37 63 21 15 19 L15 0 L213 0 L213 19 C165 19 145 31 145 60 C145 72 148 86 153 99 L199 216 L461 216 L502 120 C514 93 521 67 521 53 C521 28 504 20 451 19 L451 0 L706 0 L706 19 Z M216 257 L331 532 L447 257 L216 257 Z M323 719 L477 816 C498 829 507 842 507 858 C507 878 494 890 472 890 C457 890 448 885 430 867 L283 719 L323 719 Z " />
<glyph glyph-name="Acircumflex" unicode="&#xc2;" horiz-adv-x="722" d="M706 19 C661 22 651 32 616 106 L367 674 L347 674 L139 183 C75 37 63 21 15 19 L15 0 L213 0 L213 19 C165 19 145 31 145 60 C145 72 148 86 153 99 L199 216 L461 216 L502 120 C514 93 521 67 521 53 C521 28 504 20 451 19 L451 0 L706 0 L706 19 Z M216 257 L331 532 L447 257 L216 257 Z M512 719 L387 886 L325 886 L201 719 L235 719 L356 822 L478 719 L512 719 Z " />
<glyph glyph-name="Atilde" unicode="&#xc3;" horiz-adv-x="722" d="M706 19 C661 22 651 32 616 106 L367 674 L347 674 L139 183 C75 37 63 21 15 19 L15 0 L213 0 L213 19 C165 19 145 31 145 60 C145 72 148 86 153 99 L199 216 L461 216 L502 120 C514 93 521 67 521 53 C521 28 504 20 451 19 L451 0 L706 0 L706 19 Z M216 257 L331 532 L447 257 L216 257 Z M497 850 C480 812 467 800 444 800 C429 800 410 806 391 815 L367 827 C344 839 319 845 297 845 C247 845 211 809 196 744 L225 744 C236 775 253 790 276 790 C288 790 302 786 317 779 L340 768 C381 748 396 744 421 744 C476 744 505 774 526 850 L497 850 Z " />
<glyph glyph-name="Adieresis" unicode="&#xc4;" horiz-adv-x="722" d="M706 19 C661 22 651 32 616 106 L367 674 L347 674 L139 183 C75 37 63 21 15 19 L15 0 L213 0 L213 19 C165 19 145 31 145 60 C145 72 148 86 153 99 L199 216 L461 216 L502 120 C514 93 521 67 521 53 C521 28 504 20 451 19 L451 0 L706 0 L706 19 Z M216 257 L331 532 L447 257 L216 257 Z M254 835 C228 835 206 812 206 786 C206 757 227 735 254 735 C281 735 304 757 304 785 C304 812 281 835 254 835 L254 835 Z M453 835 C427 835 405 812 405 786 C405 757 426 735 453 735 C480 735 503 757 503 785 C503 812 480 835 453 835 L453 835 Z " />
<glyph glyph-name="Aring" unicode="&#xc5;" horiz-adv-x="722" d="M706 19 C661 22 651 32 616 106 L367 674 L347 674 L139 183 C75 37 63 21 15 19 L15 0 L213 0 L213 19 C165 19 145 31 145 60 C145 72 148 86 153 99 L199 216 L461 216 L502 120 C514 93 521 67 521 53 C521 28 504 20 451 19 L451 0 L706 0 L706 19 Z M216 257 L331 532 L447 257 L216 257 Z M351 915 C297 915 252 870 252 816 C252 760 295 716 351 716 C406 716 451 760 451 815 C451 870 406 915 351 915 L351 915 Z M352 881 C387 881 417 851 417 815 C417 779 388 750 350 750 C315 750 286 779 286 816 C286 852 316 881 352 881 L352 881 Z " />
<glyph glyph-name="AE" unicode="&#xc6;" horiz-adv-x="889" d="M816 521 L816 662 L252 662 L252 642 C317 640 342 631 342 609 C342 603 339 592 333 581 L88 97 C55 36 43 25 0 19 L0 0 L199 0 L199 19 L198 19 C155 23 130 34 130 49 C130 71 153 129 194 207 L222 260 L398 260 L398 108 C396 39 389 30 326 21 L309 19 L309 0 L819 0 L863 168 L839 168 C781 58 754 40 642 38 L566 38 C535 38 509 42 505 47 C500 50 497 67 497 91 L497 329 L642 329 C713 327 733 306 740 229 L761 229 L761 463 L740 463 C733 383 713 368 608 366 L497 366 L497 596 C498 619 504 626 524 626 L611 626 C756 626 781 612 793 521 L816 521 Z M239 299 L398 618 L398 299 L239 299 Z " />
<glyph glyph-name="Ccedilla" unicode="&#xc7;" horiz-adv-x="667" d="M336 -13 C345 -14 352 -14 360 -14 C473 -14 573 33 633 113 L615 131 C541 60 475 30 392 30 C329 30 273 50 230 88 C175 137 144 227 144 338 C144 520 237 636 382 636 C439 636 491 615 531 576 C563 544 578 516 597 451 L620 451 L611 676 L590 676 C584 655 568 643 548 643 C539 643 524 646 509 651 C460 668 410 676 363 676 C281 676 199 645 136 590 C66 528 28 436 28 325 C28 144 135 14 302 -10 L265 -99 L272 -104 C280 -101 288 -100 300 -100 C338 -100 353 -110 353 -136 C353 -163 332 -180 298 -180 C277 -180 260 -177 233 -168 L219 -199 C248 -210 272 -215 303 -215 C380 -215 428 -183 428 -131 C428 -87 396 -62 342 -62 C332 -62 326 -63 316 -65 L336 -13 Z " />
<glyph glyph-name="Egrave" unicode="&#xc8;" horiz-adv-x="611" d="M597 169 L569 169 C521 63 476 38 333 37 L306 37 C202 40 201 41 201 80 L201 327 L355 327 C439 325 452 313 465 231 L488 231 L488 463 L465 463 C453 382 439 370 355 368 L201 368 L201 590 C202 620 206 624 234 624 L369 624 C485 622 505 608 521 519 L546 519 L543 662 L12 662 L12 643 C85 638 97 625 99 553 L99 109 C97 37 84 23 12 19 L12 0 L552 0 L597 169 Z M382 719 L235 867 C216 885 208 890 193 890 C172 890 159 878 159 859 C159 843 169 827 188 816 L342 719 L382 719 Z " />
<glyph glyph-name="Eacute" unicode="&#xc9;" horiz-adv-x="611" d="M597 169 L569 169 C521 63 476 38 333 37 L306 37 C202 40 201 41 201 80 L201 327 L355 327 C439 325 452 313 465 231 L488 231 L488 463 L465 463 C453 382 439 370 355 368 L201 368 L201 590 C202 620 206 624 234 624 L369 624 C485 622 505 608 521 519 L546 519 L543 662 L12 662 L12 643 C85 638 97 625 99 553 L99 109 C97 37 84 23 12 19 L12 0 L552 0 L597 169 Z M273 719 L427 816 C448 829 457 842 457 858 C457 878 444 890 422 890 C407 890 398 885 380 867 L233 719 L273 719 Z " />
<glyph glyph-name="Ecircumflex" unicode="&#xca;" horiz-adv-x="611" d="M597 169 L569 169 C521 63 476 38 333 37 L306 37 C202 40 201 41 201 80 L201 327 L355 327 C439 325 452 313 465 231 L488 231 L488 463 L465 463 C453 382 439 370 355 368 L201 368 L201 590 C202 620 206 624 234 624 L369 624 C485 622 505 608 521 519 L546 519 L543 662 L12 662 L12 643 C85 638 97 625 99 553 L99 109 C97 37 84 23 12 19 L12 0 L552 0 L597 169 Z M462 719 L337 886 L275 886 L151 719 L185 719 L306 822 L428 719 L462 719 Z " />
<glyph glyph-name="Edieresis" unicode="&#xcb;" horiz-adv-x="611" d="M597 169 L569 169 C521 63 476 38 333 37 L306 37 C202 40 201 41 201 80 L201 327 L355 327 C439 325 452 313 465 231 L488 231 L488 463 L465 463 C453 382 439 370 355 368 L201 368 L201 590 C202 620 206 624 234 624 L369 624 C485 622 505 608 521 519 L546 519 L543 662 L12 662 L12 643 C85 638 97 625 99 553 L99 109 C97 37 84 23 12 19 L12 0 L552 0 L597 169 Z M206 835 C180 835 158 812 158 786 C158 757 179 735 206 735 C233 735 256 757 256 785 C256 812 233 835 206 835 L206 835 Z M405 835 C379 835 357 812 357 786 C357 757 378 735 405 735 C432 735 455 757 455 785 C455 812 432 835 405 835 L405 835 Z " />
<glyph glyph-name="Igrave" unicode="&#xcc;" horiz-adv-x="333" d="M18 0 L315 0 L315 19 C233 21 219 35 217 109 L217 553 C219 628 232 640 315 643 L315 662 L18 662 L18 643 C103 638 114 628 115 553 L115 109 C114 33 102 22 18 19 L18 0 Z M243 719 L96 867 C77 885 69 890 54 890 C33 890 20 878 20 859 C20 843 30 827 49 816 L203 719 L243 719 Z " />
<glyph glyph-name="Iacute" unicode="&#xcd;" horiz-adv-x="333" d="M18 0 L315 0 L315 19 C233 21 219 35 217 109 L217 553 C219 628 232 640 315 643 L315 662 L18 662 L18 643 C103 638 114 628 115 553 L115 109 C114 33 102 22 18 19 L18 0 Z M133 719 L287 816 C308 829 317 842 317 858 C317 878 304 890 282 890 C267 890 258 885 240 867 L93 719 L133 719 Z " />
<glyph glyph-name="Icircumflex" unicode="&#xce;" horiz-adv-x="333" d="M18 0 L315 0 L315 19 C233 21 219 35 217 109 L217 553 C219 628 232 640 315 643 L315 662 L18 662 L18 643 C103 638 114 628 115 553 L115 109 C114 33 102 22 18 19 L18 0 Z M322 719 L197 886 L135 886 L11 719 L45 719 L166 822 L288 719 L322 719 Z " />
<glyph glyph-name="Idieresis" unicode="&#xcf;" horiz-adv-x="333" d="M18 0 L315 0 L315 19 C233 21 219 35 217 109 L217 553 C219 628 232 640 315 643 L315 662 L18 662 L18 643 C103 638 114 628 115 553 L115 109 C114 33 102 22 18 19 L18 0 Z M66 835 C40 835 18 812 18 786 C18 757 39 735 66 735 C93 735 116 757 116 785 C116 812 93 835 66 835 L66 835 Z M265 835 C239 835 217 812 217 786 C217 757 238 735 265 735 C292 735 315 757 315 785 C315 812 292 835 265 835 L265 835 Z " />
<glyph glyph-name="Eth" unicode="&#xd0;" horiz-adv-x="722" d="M16 643 C95 636 103 628 104 553 L104 359 L21 359 L21 315 L104 315 L104 109 C103 36 91 24 16 19 L16 0 L300 0 C416 0 521 33 583 89 C648 148 685 237 685 334 C685 424 656 502 600 557 C532 626 423 662 286 662 L16 662 L16 643 Z M352 359 L206 359 L206 586 C206 617 216 625 256 625 C345 625 409 609 457 575 C535 521 576 435 576 327 C576 209 535 125 454 78 C403 49 345 37 258 37 C218 37 206 46 206 78 L206 315 L352 315 L352 359 Z " />
<glyph glyph-name="Ntilde" unicode="&#xd1;" horiz-adv-x="722" d="M707 662 L472 662 L472 643 C552 638 565 621 568 515 L568 178 L183 662 L12 662 L12 643 C55 643 69 635 109 588 L109 147 C107 41 94 24 12 19 L12 0 L247 0 L247 19 C170 23 155 44 153 147 L153 539 L595 -11 L612 -11 L612 515 C615 619 628 636 707 643 L707 662 Z M497 850 C480 812 467 800 444 800 C429 800 410 806 391 815 L367 827 C344 839 319 845 297 845 C247 845 211 809 196 744 L225 744 C236 775 253 790 276 790 C288 790 302 786 317 779 L340 768 C381 748 396 744 421 744 C476 744 505 774 526 850 L497 850 Z " />
<glyph glyph-name="Ograve" unicode="&#xd2;" horiz-adv-x="722" d="M361 676 C170 676 34 533 34 331 C34 237 66 145 120 88 C178 25 267 -14 355 -14 C552 -14 688 125 688 327 C688 426 659 512 604 571 C541 640 457 676 361 676 L361 676 Z M361 640 C407 640 453 622 489 590 C543 541 574 447 574 328 C574 269 561 200 541 148 C532 123 515 98 492 75 C457 40 412 22 359 22 C313 22 268 40 232 71 C181 117 148 218 148 329 C148 431 176 528 218 575 C257 618 306 640 361 640 L361 640 Z M437 719 L290 867 C272 885 263 890 248 890 C227 890 214 878 214 859 C214 843 224 828 243 816 L397 719 L437 719 Z " />
<glyph glyph-name="Oacute" unicode="&#xd3;" horiz-adv-x="722" d="M361 676 C170 676 34 533 34 331 C34 237 66 145 120 88 C178 25 267 -14 355 -14 C552 -14 688 125 688 327 C688 426 659 512 604 571 C541 640 457 676 361 676 L361 676 Z M361 640 C407 640 453 622 489 590 C543 541 574 447 574 328 C574 269 561 200 541 148 C532 123 515 98 492 75 C457 40 412 22 359 22 C313 22 268 40 232 71 C181 117 148 218 148 329 C148 431 176 528 218 575 C257 618 306 640 361 640 L361 640 Z M328 719 L482 816 C503 829 512 842 512 858 C512 878 499 890 477 890 C462 890 453 885 435 867 L288 719 L328 719 Z " />
<glyph glyph-name="Ocircumflex" unicode="&#xd4;" horiz-adv-x="722" d="M361 676 C170 676 34 533 34 331 C34 237 66 145 120 88 C178 25 267 -14 355 -14 C552 -14 688 125 688 327 C688 426 659 512 604 571 C541 640 457 676 361 676 L361 676 Z M361 640 C407 640 453 622 489 590 C543 541 574 447 574 328 C574 269 561 200 541 148 C532 123 515 98 492 75 C457 40 412 22 359 22 C313 22 268 40 232 71 C181 117 148 218 148 329 C148 431 176 528 218 575 C257 618 306 640 361 640 L361 640 Z M517 719 L392 886 L330 886 L206 719 L240 719 L361 822 L483 719 L517 719 Z " />
<glyph glyph-name="Otilde" unicode="&#xd5;" horiz-adv-x="722" d="M361 676 C170 676 34 533 34 331 C34 237 66 145 120 88 C178 25 267 -14 355 -14 C552 -14 688 125 688 327 C688 426 659 512 604 571 C541 640 457 676 361 676 L361 676 Z M361 640 C407 640 453 622 489 590 C543 541 574 447 574 328 C574 269 561 200 541 148 C532 123 515 98 492 75 C457 40 412 22 359 22 C313 22 268 40 232 71 C181 117 148 218 148 329 C148 431 176 528 218 575 C257 618 306 640 361 640 L361 640 Z M497 850 C480 812 467 800 444 800 C429 800 410 806 391 815 L367 827 C344 839 319 845 297 845 C247 845 211 809 196 744 L225 744 C236 775 253 790 276 790 C288 790 302 786 317 779 L340 768 C381 748 396 744 421 744 C476 744 505 774 526 850 L497 850 Z " />
<glyph glyph-name="Odieresis" unicode="&#xd6;" horiz-adv-x="722" d="M361 676 C170 676 34 533 34 331 C34 237 66 145 120 88 C178 25 267 -14 355 -14 C552 -14 688 125 688 327 C688 426 659 512 604 571 C541 640 457 676 361 676 L361 676 Z M361 640 C407 640 453 622 489 590 C543 541 574 447 574 328 C574 269 561 200 541 148 C532 123 515 98 492 75 C457 40 412 22 359 22 C313 22 268 40 232 71 C181 117 148 218 148 329 C148 431 176 528 218 575 C257 618 306 640 361 640 L361 640 Z M261 835 C235 835 213 812 213 786 C213 757 234 735 261 735 C288 735 311 757 311 785 C311 812 288 835 261 835 L261 835 Z M460 835 C434 835 412 812 412 786 C412 757 433 735 460 735 C487 735 510 757 510 785 C510 812 487 835 460 835 L460 835 Z " />
<glyph glyph-name="multiply" unicode="&#xd7;" horiz-adv-x="564" d="M243 306 L47 109 L86 71 L282 268 L479 71 L517 109 L320 306 L517 502 L479 541 L282 344 L86 541 L47 502 L243 306 Z " />
<glyph glyph-name="Oslash" unicode="&#xd8;" horiz-adv-x="722" d="M658 734 L609 734 L537 627 C473 663 428 676 362 676 C169 676 34 533 34 330 C34 266 49 202 75 152 C93 117 109 97 151 59 L56 -80 L105 -80 L184 36 C246 -1 292 -14 359 -14 C554 -14 688 127 688 332 C688 396 673 461 646 511 C628 546 611 566 570 604 L658 734 Z M527 540 C561 475 574 419 574 330 C574 139 493 22 361 22 C303 22 262 41 219 88 L527 540 Z M194 123 C160 187 148 242 148 330 C148 521 230 640 361 640 C417 640 458 621 502 575 L194 123 Z " />
<glyph glyph-name="Ugrave" unicode="&#xd9;" horiz-adv-x="722" d="M705 662 L473 662 L473 643 C550 638 565 618 567 515 L567 245 C567 177 560 139 544 109 C517 61 453 30 378 30 C307 30 258 54 231 101 C213 133 206 170 206 233 L206 553 C207 626 217 636 297 643 L297 662 L14 662 L14 643 C93 637 103 627 104 553 L104 241 C104 68 185 -14 355 -14 C464 -14 539 21 578 89 C602 131 611 177 611 254 L611 515 C613 620 624 634 705 643 L705 662 Z M455 719 L308 867 C289 885 281 890 266 890 C245 890 232 878 232 859 C232 843 242 827 261 816 L415 719 L455 719 Z " />
<glyph glyph-name="Uacute" unicode="&#xda;" horiz-adv-x="722" d="M705 662 L473 662 L473 643 C550 638 565 618 567 515 L567 245 C567 177 560 139 544 109 C517 61 453 30 378 30 C307 30 258 54 231 101 C213 133 206 170 206 233 L206 553 C207 626 217 636 297 643 L297 662 L14 662 L14 643 C93 637 103 627 104 553 L104 241 C104 68 185 -14 355 -14 C464 -14 539 21 578 89 C602 131 611 177 611 254 L611 515 C613 620 624 634 705 643 L705 662 Z M353 719 L507 816 C528 829 537 842 537 858 C537 878 524 890 502 890 C487 890 478 885 460 867 L313 719 L353 719 Z " />
<glyph glyph-name="Ucircumflex" unicode="&#xdb;" horiz-adv-x="722" d="M705 662 L473 662 L473 643 C550 638 565 618 567 515 L567 245 C567 177 560 139 544 109 C517 61 453 30 378 30 C307 30 258 54 231 101 C213 133 206 170 206 233 L206 553 C207 626 217 636 297 643 L297 662 L14 662 L14 643 C93 637 103 627 104 553 L104 241 C104 68 185 -14 355 -14 C464 -14 539 21 578 89 C602 131 611 177 611 254 L611 515 C613 620 624 634 705 643 L705 662 Z M536 719 L411 886 L349 886 L225 719 L259 719 L380 822 L502 719 L536 719 Z " />
<glyph glyph-name="Udieresis" unicode="&#xdc;" horiz-adv-x="722" d="M705 662 L473 662 L473 643 C550 638 565 618 567 515 L567 245 C567 177 560 139 544 109 C517 61 453 30 378 30 C307 30 258 54 231 101 C213 133 206 170 206 233 L206 553 C207 626 217 636 297 643 L297 662 L14 662 L14 643 C93 637 103 627 104 553 L104 241 C104 68 185 -14 355 -14 C464 -14 539 21 578 89 C602 131 611 177 611 254 L611 515 C613 620 624 634 705 643 L705 662 Z M279 835 C253 835 231 812 231 786 C231 757 252 735 279 735 C306 735 329 757 329 785 C329 812 306 835 279 835 L279 835 Z M478 835 C452 835 430 812 430 786 C430 757 451 735 478 735 C505 735 528 757 528 785 C528 812 505 835 478 835 L478 835 Z " />
<glyph glyph-name="Yacute" unicode="&#xdd;" horiz-adv-x="722" d="M703 662 L484 662 L484 643 C536 642 553 634 553 610 C553 600 549 588 539 573 L396 347 L248 569 C237 585 231 602 231 613 C231 632 245 640 277 642 C281 642 291 642 302 643 L302 662 L22 662 L22 643 C70 641 84 627 184 486 L315 294 L315 120 C314 32 305 23 214 19 L214 0 L520 0 L520 19 C431 21 418 32 417 109 L417 303 L565 529 C626 617 652 639 703 643 L703 662 Z M386 719 L540 816 C561 829 570 842 570 858 C570 878 557 890 535 890 C520 890 511 885 493 867 L346 719 L386 719 Z " />
<glyph glyph-name="Thorn" unicode="&#xde;" horiz-adv-x="556" d="M296 19 C217 21 203 35 202 109 L202 161 C228 159 245 158 271 158 C350 158 403 168 446 192 C505 224 542 285 542 351 C542 462 442 532 282 532 L202 532 C201 623 211 636 293 643 L293 662 L16 662 L16 643 C90 635 99 626 100 553 L100 120 C99 35 92 26 16 19 L16 0 L296 0 L296 19 Z M202 461 C202 487 208 494 234 494 C372 494 433 448 433 345 C433 248 374 198 259 198 C238 198 224 199 202 201 L202 461 Z " />
<glyph glyph-name="germandbls" unicode="&#xdf;" horiz-adv-x="500" d="M12 0 L157 0 L157 549 C157 614 190 656 243 656 C300 656 334 604 334 517 C334 437 304 396 239 389 C218 387 210 383 210 374 C210 363 219 358 242 357 C330 354 374 285 374 150 C374 65 352 20 310 20 C291 20 283 28 281 50 L279 72 C277 95 259 112 237 112 C211 112 192 91 192 64 C192 21 232 -9 289 -9 C390 -9 468 76 468 186 C468 243 446 292 406 326 C374 354 345 365 284 377 C391 426 421 459 421 531 C421 624 355 683 251 683 C183 683 132 657 103 606 C82 569 73 524 73 454 L73 84 C71 29 62 18 12 15 L12 0 Z " />
<glyph glyph-name="agrave" unicode="&#xe0;" horiz-adv-x="444" d="M442 66 C425 52 413 47 398 47 C375 47 368 61 368 105 L368 300 C368 352 363 381 348 405 C326 441 283 460 224 460 C130 460 56 411 56 348 C56 325 75 305 99 305 C123 305 144 325 144 347 C144 351 143 356 142 363 C140 372 139 380 139 387 C139 414 171 436 211 436 C260 436 287 407 287 353 L287 292 C133 230 116 222 73 184 C51 164 37 130 37 97 C37 34 81 -10 142 -10 C186 -10 227 11 288 63 C293 10 311 -10 352 -10 C386 -10 407 2 442 40 L442 66 Z M287 123 C287 93 282 82 261 70 C236 56 209 48 188 48 C153 48 125 82 125 125 L125 129 C126 189 170 227 287 268 L287 123 Z M329 507 L182 655 C164 673 155 678 140 678 C119 678 106 666 106 647 C106 631 116 616 135 604 L289 507 L329 507 Z " />
<glyph glyph-name="aacute" unicode="&#xe1;" horiz-adv-x="444" d="M442 66 C425 52 413 47 398 47 C375 47 368 61 368 105 L368 300 C368 352 363 381 348 405 C326 441 283 460 224 460 C130 460 56 411 56 348 C56 325 75 305 99 305 C123 305 144 325 144 347 C144 351 143 356 142 363 C140 372 139 380 139 387 C139 414 171 436 211 436 C260 436 287 407 287 353 L287 292 C133 230 116 222 73 184 C51 164 37 130 37 97 C37 34 81 -10 142 -10 C186 -10 227 11 288 63 C293 10 311 -10 352 -10 C386 -10 407 2 442 40 L442 66 Z M287 123 C287 93 282 82 261 70 C236 56 209 48 188 48 C153 48 125 82 125 125 L125 129 C126 189 170 227 287 268 L287 123 Z M163 507 L317 604 C338 617 347 630 347 646 C347 666 334 678 312 678 C297 678 288 673 270 655 L123 507 L163 507 Z " />
<glyph glyph-name="acircumflex" unicode="&#xe2;" horiz-adv-x="444" d="M442 66 C425 52 413 47 398 47 C375 47 368 61 368 105 L368 300 C368 352 363 381 348 405 C326 441 283 460 224 460 C130 460 56 411 56 348 C56 325 75 305 99 305 C123 305 144 325 144 347 C144 351 143 356 142 363 C140 372 139 380 139 387 C139 414 171 436 211 436 C260 436 287 407 287 353 L287 292 C133 230 116 222 73 184 C51 164 37 130 37 97 C37 34 81 -10 142 -10 C186 -10 227 11 288 63 C293 10 311 -10 352 -10 C386 -10 407 2 442 40 L442 66 Z M287 123 C287 93 282 82 261 70 C236 56 209 48 188 48 C153 48 125 82 125 125 L125 129 C126 189 170 227 287 268 L287 123 Z M378 507 L253 674 L191 674 L67 507 L101 507 L222 610 L344 507 L378 507 Z " />
<glyph glyph-name="atilde" unicode="&#xe3;" horiz-adv-x="444" d="M442 66 C425 52 413 47 398 47 C375 47 368 61 368 105 L368 300 C368 352 363 381 348 405 C326 441 283 460 224 460 C130 460 56 411 56 348 C56 325 75 305 99 305 C123 305 144 325 144 347 C144 351 143 356 142 363 C140 372 139 380 139 387 C139 414 171 436 211 436 C260 436 287 407 287 353 L287 292 C133 230 116 222 73 184 C51 164 37 130 37 97 C37 34 81 -10 142 -10 C186 -10 227 11 288 63 C293 10 311 -10 352 -10 C386 -10 407 2 442 40 L442 66 Z M287 123 C287 93 282 82 261 70 C236 56 209 48 188 48 C153 48 125 82 125 125 L125 129 C126 189 170 227 287 268 L287 123 Z M358 638 C340 600 327 588 304 588 C290 588 270 594 252 603 L228 615 C204 627 180 633 158 633 C108 633 72 597 57 532 L86 532 C97 563 113 578 137 578 C148 578 163 574 178 567 L201 556 C242 536 256 532 281 532 C337 532 366 562 387 638 L358 638 Z " />
<glyph glyph-name="adieresis" unicode="&#xe4;" horiz-adv-x="444" d="M442 66 C425 52 413 47 398 47 C375 47 368 61 368 105 L368 300 C368 352 363 381 348 405 C326 441 283 460 224 460 C130 460 56 411 56 348 C56 325 75 305 99 305 C123 305 144 325 144 347 C144 351 143 356 142 363 C140 372 139 380 139 387 C139 414 171 436 211 436 C260 436 287 407 287 353 L287 292 C133 230 116 222 73 184 C51 164 37 130 37 97 C37 34 81 -10 142 -10 C186 -10 227 11 288 63 C293 10 311 -10 352 -10 C386 -10 407 2 442 40 L442 66 Z M287 123 C287 93 282 82 261 70 C236 56 209 48 188 48 C153 48 125 82 125 125 L125 129 C126 189 170 227 287 268 L287 123 Z M122 623 C96 623 74 600 74 574 C74 545 95 523 122 523 C149 523 172 545 172 573 C172 600 149 623 122 623 L122 623 Z M321 623 C295 623 273 600 273 574 C273 545 294 523 321 523 C348 523 371 545 371 573 C371 600 348 623 321 623 L321 623 Z " />
<glyph glyph-name="aring" unicode="&#xe5;" horiz-adv-x="444" d="M442 66 C425 52 413 47 398 47 C375 47 368 61 368 105 L368 300 C368 352 363 381 348 405 C326 441 283 460 224 460 C130 460 56 411 56 348 C56 325 75 305 99 305 C123 305 144 325 144 347 C144 351 143 356 142 363 C140 372 139 380 139 387 C139 414 171 436 211 436 C260 436 287 407 287 353 L287 292 C133 230 116 222 73 184 C51 164 37 130 37 97 C37 34 81 -10 142 -10 C186 -10 227 11 288 63 C293 10 311 -10 352 -10 C386 -10 407 2 442 40 L442 66 Z M287 123 C287 93 282 82 261 70 C236 56 209 48 188 48 C153 48 125 82 125 125 L125 129 C126 189 170 227 287 268 L287 123 Z M222 722 C168 722 123 677 123 623 C123 567 166 523 222 523 C277 523 322 567 322 622 C322 677 277 722 222 722 L222 722 Z M223 688 C258 688 288 658 288 622 C288 586 259 557 221 557 C186 557 157 586 157 623 C157 659 187 688 223 688 L223 688 Z " />
<glyph glyph-name="ae" unicode="&#xe6;" horiz-adv-x="667" d="M620 154 C572 83 533 57 476 57 C435 57 397 77 381 107 C359 146 354 177 354 277 L616 277 C604 406 557 460 456 460 C409 460 382 450 337 415 C298 449 269 460 219 460 C129 460 60 413 60 352 C60 322 77 304 104 304 C132 304 147 321 147 352 C147 356 147 363 146 369 L145 380 L145 386 C147 419 170 436 213 436 C237 436 256 428 263 414 C270 398 275 367 275 344 L273 281 L187 245 C80 201 38 160 38 100 C38 35 86 -10 154 -10 C204 -10 238 6 306 63 C340 11 377 -10 435 -10 C481 -10 523 6 558 38 C586 62 604 90 632 149 L620 154 Z M274 201 C275 164 281 127 292 91 C293 90 293 89 293 88 C293 70 228 38 192 38 C155 38 125 77 125 125 C125 185 152 209 273 253 L274 201 Z M355 307 C360 395 385 431 442 431 C496 431 519 395 521 307 L355 307 Z " />
<glyph glyph-name="ccedilla" unicode="&#xe7;" horiz-adv-x="444" d="M226 -9 C303 -6 362 44 412 147 L398 156 C350 86 314 62 257 62 C165 62 102 142 102 257 C102 361 157 431 238 431 C274 431 287 420 297 383 L303 361 C311 332 329 315 351 315 C377 315 398 334 398 357 C398 413 328 460 244 460 C195 460 144 440 103 404 C53 360 25 292 25 212 C25 93 91 5 192 -8 L154 -83 L161 -88 C169 -85 177 -84 189 -84 C227 -84 242 -92 242 -114 C242 -137 221 -151 187 -151 C166 -151 149 -148 122 -141 L108 -166 C137 -176 161 -180 192 -180 C269 -180 317 -153 317 -110 C317 -74 285 -53 232 -53 C222 -53 215 -54 205 -55 L226 -9 Z " />
<glyph glyph-name="egrave" unicode="&#xe8;" horiz-adv-x="444" d="M415 164 C367 88 324 59 260 59 C203 59 160 88 131 145 C113 183 106 215 104 277 L412 277 C404 342 394 371 369 403 C339 439 293 460 241 460 C191 460 144 442 106 408 C59 367 32 296 32 214 C32 76 104 -10 219 -10 C315 -10 389 49 431 157 L415 164 Z M106 309 C117 388 151 424 212 424 C273 424 297 396 310 309 L106 309 Z M347 507 L200 655 C182 673 173 678 158 678 C137 678 124 666 124 647 C124 631 134 616 153 604 L307 507 L347 507 Z " />
<glyph glyph-name="eacute" unicode="&#xe9;" horiz-adv-x="444" d="M414 164 C366 88 323 59 259 59 C202 59 159 88 130 145 C112 183 105 215 103 277 L411 277 C403 342 393 371 368 403 C338 439 292 460 240 460 C190 460 143 442 105 408 C58 367 31 296 31 214 C31 76 103 -10 218 -10 C314 -10 388 49 430 157 L414 164 Z M105 309 C116 388 150 424 211 424 C272 424 296 396 309 309 L105 309 Z M187 507 L341 604 C362 617 371 630 371 646 C371 666 358 678 336 678 C321 678 312 673 294 655 L147 507 L187 507 Z " />
<glyph glyph-name="ecircumflex" unicode="&#xea;" horiz-adv-x="444" d="M417 164 C369 88 326 59 262 59 C205 59 162 88 133 145 C115 183 108 215 106 277 L414 277 C406 342 396 371 371 403 C341 439 295 460 243 460 C193 460 146 442 108 408 C61 367 34 296 34 214 C34 76 106 -10 221 -10 C317 -10 391 49 433 157 L417 164 Z M108 309 C119 388 153 424 214 424 C275 424 299 396 312 309 L108 309 Z M394 507 L269 674 L207 674 L83 507 L117 507 L238 610 L360 507 L394 507 Z " />
<glyph glyph-name="edieresis" unicode="&#xeb;" horiz-adv-x="444" d="M417 164 C369 88 326 59 262 59 C205 59 162 88 133 145 C115 183 108 215 106 277 L414 277 C406 342 396 371 371 403 C341 439 295 460 243 460 C193 460 146 442 108 408 C61 367 34 296 34 214 C34 76 106 -10 221 -10 C317 -10 391 49 433 157 L417 164 Z M108 309 C119 388 153 424 214 424 C275 424 299 396 312 309 L108 309 Z M142 623 C116 623 94 600 94 574 C94 545 115 523 142 523 C169 523 192 545 192 573 C192 600 169 623 142 623 L142 623 Z M341 623 C315 623 293 600 293 574 C293 545 314 523 341 523 C368 523 391 545 391 573 C391 600 368 623 341 623 L341 623 Z " />
<glyph glyph-name="igrave" unicode="&#xec;" horiz-adv-x="278" d="M16 0 L253 0 L253 15 C187 20 180 29 179 102 L179 457 L175 460 L20 405 L20 390 L28 391 C40 393 53 394 62 394 C86 394 95 378 95 334 L95 102 C93 28 84 18 16 15 L16 0 Z M215 507 L68 655 C50 673 41 678 26 678 C5 678 -8 666 -8 647 C-8 631 2 616 21 604 L175 507 L215 507 Z " />
<glyph glyph-name="iacute" unicode="&#xed;" horiz-adv-x="278" d="M16 0 L253 0 L253 15 C187 20 180 29 179 102 L179 457 L175 460 L20 405 L20 390 L28 391 C40 393 53 394 62 394 C86 394 95 378 95 334 L95 102 C93 28 84 18 16 15 L16 0 Z M86 507 L240 604 C261 617 270 630 270 646 C270 666 257 678 235 678 C220 678 211 673 193 655 L46 507 L86 507 Z " />
<glyph glyph-name="icircumflex" unicode="&#xee;" horiz-adv-x="278" d="M16 0 L253 0 L253 15 C187 20 180 29 179 102 L179 457 L175 460 L20 405 L20 390 L28 391 C40 393 53 394 62 394 C86 394 95 378 95 334 L95 102 C93 28 84 18 16 15 L16 0 Z M283 507 L158 674 L96 674 L-28 507 L6 507 L127 610 L249 507 L283 507 Z " />
<glyph glyph-name="idieresis" unicode="&#xef;" horiz-adv-x="278" d="M59 623 C33 623 11 600 11 574 C11 545 32 523 59 523 C86 523 109 545 109 573 C109 600 86 623 59 623 L59 623 Z M218 623 C192 623 170 600 170 574 C170 545 191 523 218 523 C245 523 268 545 268 573 C268 600 245 623 218 623 L218 623 Z M16 0 L253 0 L253 15 C187 20 180 29 179 102 L179 457 L175 460 L20 405 L20 390 L28 391 C40 393 53 394 62 394 C86 394 95 378 95 334 L95 102 C93 28 84 18 16 15 L16 0 Z " />
<glyph glyph-name="eth" unicode="&#xf0;" horiz-adv-x="500" d="M270 575 C329 515 352 474 367 400 C316 447 289 460 241 460 C121 460 29 357 29 223 C29 90 122 -10 247 -10 C300 -10 346 8 382 43 C437 95 471 189 471 285 C471 355 455 427 424 490 C402 535 384 559 333 608 L424 656 L391 686 L296 636 C245 666 210 677 144 683 L102 660 C154 651 188 637 235 604 L114 540 L147 510 L270 575 Z M237 432 C322 432 381 337 381 201 C381 85 337 18 261 18 C221 18 185 42 163 83 C135 135 119 206 119 277 C119 370 166 432 237 432 L237 432 Z " />
<glyph glyph-name="ntilde" unicode="&#xf1;" horiz-adv-x="500" d="M18 0 L230 0 L230 15 C180 18 164 31 164 67 L164 348 C211 393 234 405 267 405 C316 405 340 374 340 308 L340 99 C338 34 326 18 277 15 L277 0 L485 0 L485 15 C436 20 425 32 424 81 L424 310 C424 404 380 460 306 460 C260 460 229 443 161 379 L161 458 L154 460 C105 442 71 431 16 415 L16 398 C22 401 32 402 43 402 C71 402 80 387 80 338 L80 90 C79 31 68 18 18 15 L18 0 Z M386 638 C368 600 355 588 332 588 C318 588 298 594 280 603 L256 615 C232 627 208 633 186 633 C136 633 100 597 85 532 L114 532 C125 563 141 578 165 578 C176 578 191 574 206 567 L229 556 C270 536 284 532 309 532 C365 532 394 562 415 638 L386 638 Z " />
<glyph glyph-name="ograve" unicode="&#xf2;" horiz-adv-x="500" d="M250 460 C119 460 29 364 29 226 C29 90 122 -10 248 -10 C374 -10 470 95 470 234 C470 366 378 460 250 460 L250 460 Z M237 432 C321 432 380 336 380 199 C380 85 335 18 260 18 C221 18 184 42 163 82 C135 134 119 204 119 275 C119 370 165 432 237 432 L237 432 Z M351 507 L204 655 C186 673 178 678 162 678 C141 678 128 666 128 647 C128 631 138 616 157 604 L311 507 L351 507 Z " />
<glyph glyph-name="oacute" unicode="&#xf3;" horiz-adv-x="500" d="M250 460 C119 460 29 364 29 226 C29 90 122 -10 248 -10 C374 -10 470 95 470 234 C470 366 378 460 250 460 L250 460 Z M237 432 C321 432 380 336 380 199 C380 85 335 18 260 18 C221 18 184 42 163 82 C135 134 119 204 119 275 C119 370 165 432 237 432 L237 432 Z M194 507 L348 604 C369 617 378 630 378 646 C378 666 365 678 344 678 C328 678 319 673 301 655 L154 507 L194 507 Z " />
<glyph glyph-name="ocircumflex" unicode="&#xf4;" horiz-adv-x="500" d="M250 460 C119 460 29 364 29 226 C29 90 122 -10 248 -10 C374 -10 470 95 470 234 C470 366 378 460 250 460 L250 460 Z M237 432 C321 432 380 336 380 199 C380 85 335 18 260 18 C221 18 184 42 163 82 C135 134 119 204 119 275 C119 370 165 432 237 432 L237 432 Z M406 507 L281 674 L219 674 L95 507 L129 507 L250 610 L372 507 L406 507 Z " />
<glyph glyph-name="otilde" unicode="&#xf5;" horiz-adv-x="500" d="M250 460 C119 460 29 364 29 226 C29 90 122 -10 248 -10 C374 -10 470 95 470 234 C470 366 378 460 250 460 L250 460 Z M237 432 C321 432 380 336 380 199 C380 85 335 18 260 18 C221 18 184 42 163 82 C135 134 119 204 119 275 C119 370 165 432 237 432 L237 432 Z M386 638 C368 600 355 588 332 588 C318 588 298 594 280 603 L256 615 C232 627 208 633 186 633 C136 633 100 597 85 532 L114 532 C125 563 141 578 165 578 C176 578 191 574 206 567 L229 556 C270 536 284 532 309 532 C365 532 394 562 415 638 L386 638 Z " />
<glyph glyph-name="odieresis" unicode="&#xf6;" horiz-adv-x="500" d="M250 460 C119 460 29 364 29 226 C29 90 122 -10 248 -10 C374 -10 470 95 470 234 C470 366 378 460 250 460 L250 460 Z M237 432 C321 432 380 336 380 199 C380 85 335 18 260 18 C221 18 184 42 163 82 C135 134 119 204 119 275 C119 370 165 432 237 432 L237 432 Z M150 623 C124 623 102 600 102 574 C102 545 123 523 150 523 C177 523 200 545 200 573 C200 600 177 623 150 623 L150 623 Z M349 623 C323 623 301 600 301 574 C301 545 322 523 349 523 C376 523 399 545 399 573 C399 600 376 623 349 623 L349 623 Z " />
<glyph glyph-name="divide" unicode="&#xf7;" horiz-adv-x="564" d="M528 280 L528 333 L37 333 L37 280 L528 280 Z M282 563 C256 563 234 540 234 513 C234 487 256 465 282 465 C309 465 332 487 332 512 C332 540 309 563 282 563 L282 563 Z M282 148 C256 148 234 125 234 98 C234 72 256 50 282 50 C309 50 332 71 332 97 C332 125 309 148 282 148 L282 148 Z " />
<glyph glyph-name="oslash" unicode="&#xf8;" horiz-adv-x="500" d="M437 551 L398 551 L341 442 C306 455 282 460 249 460 C120 460 29 363 29 227 C29 181 41 135 62 97 C78 70 91 55 125 28 L52 -112 L89 -112 L154 11 C189 -5 212 -10 247 -10 C374 -10 470 95 470 234 C470 282 456 331 432 368 C416 392 403 404 372 426 L437 551 Z M340 366 C369 312 380 267 380 203 C380 86 336 18 261 18 C227 18 204 30 179 60 L340 366 Z M158 92 C131 150 119 207 119 276 C119 370 166 432 237 432 C268 432 290 422 317 396 L158 92 Z " />
<glyph glyph-name="ugrave" unicode="&#xf9;" horiz-adv-x="500" d="M479 50 L474 50 C425 52 418 60 417 107 L417 450 L259 450 L259 433 C321 430 333 420 333 370 L333 135 C333 107 328 93 314 82 C287 60 256 48 226 48 C187 48 155 82 155 124 L155 450 L9 450 L9 436 C56 434 70 420 71 372 L71 120 C71 41 119 -10 192 -10 C229 -10 268 6 295 33 L338 76 L338 -7 L342 -9 C392 11 428 22 479 36 L479 50 Z M327 507 L180 655 C162 673 153 678 138 678 C117 678 104 666 104 647 C104 631 114 616 133 604 L287 507 L327 507 Z " />
<glyph glyph-name="uacute" unicode="&#xfa;" horiz-adv-x="500" d="M479 50 L474 50 C425 52 418 60 417 107 L417 450 L259 450 L259 433 C321 430 333 420 333 370 L333 135 C333 107 328 93 314 82 C287 60 256 48 226 48 C187 48 155 82 155 124 L155 450 L9 450 L9 436 C56 434 70 420 71 372 L71 120 C71 41 119 -10 192 -10 C229 -10 268 6 295 33 L338 76 L338 -7 L342 -9 C392 11 428 22 479 36 L479 50 Z M226 507 L380 604 C401 617 410 630 410 646 C410 666 397 678 375 678 C360 678 351 673 333 655 L186 507 L226 507 Z " />
<glyph glyph-name="ucircumflex" unicode="&#xfb;" horiz-adv-x="500" d="M479 50 L474 50 C425 52 418 60 417 107 L417 450 L259 450 L259 433 C321 430 333 420 333 370 L333 135 C333 107 328 93 314 82 C287 60 256 48 226 48 C187 48 155 82 155 124 L155 450 L9 450 L9 436 C56 434 70 420 71 372 L71 120 C71 41 119 -10 192 -10 C229 -10 268 6 295 33 L338 76 L338 -7 L342 -9 C392 11 428 22 479 36 L479 50 Z M384 507 L259 674 L197 674 L73 507 L107 507 L228 610 L350 507 L384 507 Z " />
<glyph glyph-name="udieresis" unicode="&#xfc;" horiz-adv-x="500" d="M479 50 L474 50 C425 52 418 60 417 107 L417 450 L259 450 L259 433 C321 430 333 420 333 370 L333 135 C333 107 328 93 314 82 C287 60 256 48 226 48 C187 48 155 82 155 124 L155 450 L9 450 L9 436 C56 434 70 420 71 372 L71 120 C71 41 119 -10 192 -10 C229 -10 268 6 295 33 L338 76 L338 -7 L342 -9 C392 11 428 22 479 36 L479 50 Z M130 623 C104 623 82 600 82 574 C82 545 103 523 130 523 C157 523 180 545 180 573 C180 600 157 623 130 623 L130 623 Z M329 623 C303 623 281 600 281 574 C281 545 302 523 329 523 C356 523 379 545 379 573 C379 600 356 623 329 623 L329 623 Z " />
<glyph glyph-name="yacute" unicode="&#xfd;" horiz-adv-x="500" d="M475 450 L340 450 L340 435 C372 435 388 426 388 410 C388 406 387 400 384 393 L287 117 L172 370 C166 384 162 398 162 408 C162 426 177 433 220 435 L220 450 L14 450 L14 436 C40 432 57 421 65 404 L179 158 C191 131 192 130 197 120 C225 70 241 33 241 18 C241 2 218 -59 201 -90 C186 -115 165 -134 151 -134 C145 -134 136 -132 125 -127 C107 -120 89 -116 73 -116 C49 -116 30 -135 30 -160 C30 -193 61 -218 104 -218 C172 -218 218 -163 273 -18 L427 390 C440 422 451 432 475 435 L475 450 Z M243 507 L397 604 C418 617 427 630 427 646 C427 666 414 678 392 678 C377 678 368 673 350 655 L203 507 L243 507 Z " />
<glyph glyph-name="thorn" unicode="&#xfe;" horiz-adv-x="500" d="M5 -217 L247 -217 L247 -199 C172 -198 160 -188 159 -124 L159 33 C195 0 218 -10 260 -10 C379 -10 470 102 470 247 C470 371 400 460 303 460 C248 460 204 436 159 382 L159 680 L154 683 C106 666 78 658 9 639 L9 623 C15 624 19 624 26 624 C67 624 75 615 75 573 L75 -131 C75 -184 64 -194 5 -199 L5 -217 Z M159 334 C159 364 215 400 261 400 C335 400 384 324 384 207 C384 97 335 22 263 22 C216 22 159 58 159 88 L159 334 Z " />
<glyph glyph-name="ydieresis" unicode="&#xff;" horiz-adv-x="500" d="M475 450 L340 450 L340 435 C372 435 388 426 388 410 C388 406 387 400 384 393 L287 117 L172 370 C166 384 162 398 162 408 C162 426 177 433 220 435 L220 450 L14 450 L14 436 C40 432 57 421 65 404 L179 158 C191 131 192 130 197 120 C225 70 241 33 241 18 C241 2 218 -59 201 -90 C186 -115 165 -134 151 -134 C145 -134 136 -132 125 -127 C107 -120 89 -116 73 -116 C49 -116 30 -135 30 -160 C30 -193 61 -218 104 -218 C172 -218 218 -163 273 -18 L427 390 C440 422 451 432 475 435 L475 450 Z M165 623 C139 623 117 600 117 574 C117 545 138 523 165 523 C192 523 215 545 215 573 C215 600 192 623 165 623 L165 623 Z M364 623 C338 623 316 600 316 574 C316 545 337 523 364 523 C391 523 414 545 414 573 C414 600 391 623 364 623 L364 623 Z " />
<glyph glyph-name="Amacron" unicode="&#x100;" horiz-adv-x="722" d="M706 19 C661 22 651 32 616 106 L367 674 L347 674 L139 183 C75 37 63 21 15 19 L15 0 L213 0 L213 19 C165 19 145 31 145 60 C145 72 148 86 153 99 L199 216 L461 216 L502 120 C514 93 521 67 521 53 C521 28 504 20 451 19 L451 0 L706 0 L706 19 Z M216 257 L331 532 L447 257 L216 257 Z M206 813 L206 759 L517 759 L517 813 L206 813 Z " />
<glyph glyph-name="amacron" unicode="&#x101;" horiz-adv-x="444" d="M442 66 C425 52 413 47 398 47 C375 47 368 61 368 105 L368 300 C368 352 363 381 348 405 C326 441 283 460 224 460 C130 460 56 411 56 348 C56 325 75 305 99 305 C123 305 144 325 144 347 C144 351 143 356 142 363 C140 372 139 380 139 387 C139 414 171 436 211 436 C260 436 287 407 287 353 L287 292 C133 230 116 222 73 184 C51 164 37 130 37 97 C37 34 81 -10 142 -10 C186 -10 227 11 288 63 C293 10 311 -10 352 -10 C386 -10 407 2 442 40 L442 66 Z M287 123 C287 93 282 82 261 70 C236 56 209 48 188 48 C153 48 125 82 125 125 L125 129 C126 189 170 227 287 268 L287 123 Z M67 601 L67 547 L378 547 L378 601 L67 601 Z " />
<glyph glyph-name="Abreve" unicode="&#x102;" horiz-adv-x="722" d="M706 19 C661 22 651 32 616 106 L367 674 L347 674 L139 183 C75 37 63 21 15 19 L15 0 L213 0 L213 19 C165 19 145 31 145 60 C145 72 148 86 153 99 L199 216 L461 216 L502 120 C514 93 521 67 521 53 C521 28 504 20 451 19 L451 0 L706 0 L706 19 Z M216 257 L331 532 L447 257 L216 257 Z M473 876 C444 800 420 779 362 779 C297 779 263 809 250 876 L221 876 C222 825 228 801 248 773 C273 738 312 719 360 719 C443 719 489 770 502 876 L473 876 Z " />
<glyph glyph-name="abreve" unicode="&#x103;" horiz-adv-x="444" d="M442 66 C425 52 413 47 398 47 C375 47 368 61 368 105 L368 300 C368 352 363 381 348 405 C326 441 283 460 224 460 C130 460 56 411 56 348 C56 325 75 305 99 305 C123 305 144 325 144 347 C144 351 143 356 142 363 C140 372 139 380 139 387 C139 414 171 436 211 436 C260 436 287 407 287 353 L287 292 C133 230 116 222 73 184 C51 164 37 130 37 97 C37 34 81 -10 142 -10 C186 -10 227 11 288 63 C293 10 311 -10 352 -10 C386 -10 407 2 442 40 L442 66 Z M287 123 C287 93 282 82 261 70 C236 56 209 48 188 48 C153 48 125 82 125 125 L125 129 C126 189 170 227 287 268 L287 123 Z M334 664 C305 588 281 567 223 567 C158 567 124 597 111 664 L82 664 C83 613 89 589 109 561 C134 526 173 507 221 507 C304 507 350 558 363 664 L334 664 Z " />
<glyph glyph-name="Aogonek" unicode="&#x104;" horiz-adv-x="722" d="M706 19 C661 22 651 32 616 106 L367 674 L347 674 L139 183 C75 37 63 21 15 19 L15 0 L213 0 L213 19 C165 19 145 31 145 60 C145 72 148 86 153 99 L199 216 L461 216 L502 120 C514 93 521 67 521 53 C521 28 504 20 451 19 L451 0 L655 0 C615 -32 601 -56 601 -90 C601 -132 632 -165 674 -165 C715 -165 749 -142 786 -89 L766 -73 C735 -100 716 -109 695 -109 C673 -109 657 -93 657 -69 C657 -43 684 -5 706 0 L706 19 Z M216 257 L331 532 L447 257 L216 257 Z " />
<glyph glyph-name="aogonek" unicode="&#x105;" horiz-adv-x="444" d="M442 66 C425 52 413 47 398 47 C375 47 368 61 368 105 L368 300 C368 352 363 381 348 405 C326 441 283 460 224 460 C130 460 56 411 56 348 C56 325 75 305 99 305 C123 305 144 325 144 347 C144 351 143 356 142 363 C140 372 139 380 139 387 C139 414 171 436 211 436 C260 436 287 407 287 353 L287 292 C133 230 116 222 73 184 C51 164 37 130 37 97 C37 34 81 -10 142 -10 C186 -10 227 11 288 63 C291 30 297 15 313 0 C275 -30 259 -57 259 -90 C259 -132 290 -165 332 -165 C373 -165 407 -142 444 -89 L424 -73 C393 -100 374 -109 353 -109 C330 -109 315 -92 315 -66 C315 -38 331 -16 355 -11 C396 -4 407 2 442 40 L442 66 Z M287 123 C287 93 282 82 261 70 C236 56 209 48 188 48 C153 48 125 82 125 125 L125 129 C126 189 170 227 287 268 L287 123 Z " />
<glyph glyph-name="Cacute" unicode="&#x106;" horiz-adv-x="667" d="M620 451 L611 676 L590 676 C584 655 568 643 548 643 C539 643 524 646 509 651 C460 668 410 676 363 676 C281 676 199 645 136 590 C66 528 28 436 28 326 C28 122 161 -14 360 -14 C473 -14 573 32 633 113 L615 131 C541 60 475 30 392 30 C329 30 273 50 230 88 C175 137 144 227 144 338 C144 520 237 636 382 636 C439 636 491 615 531 576 C563 544 578 516 597 451 L620 451 Z M360 719 L514 816 C535 829 544 842 544 858 C544 878 531 890 509 890 C494 890 485 885 467 867 L320 719 L360 719 Z " />
<glyph glyph-name="cacute" unicode="&#x107;" horiz-adv-x="444" d="M398 156 C350 86 314 62 257 62 C165 62 102 142 102 257 C102 361 157 431 238 431 C274 431 287 420 297 383 L303 361 C311 332 329 315 351 315 C377 315 398 334 398 357 C398 413 328 460 244 460 C195 460 144 440 103 404 C53 360 25 292 25 212 C25 83 104 -10 215 -10 C260 -10 300 6 336 37 C363 60 382 88 412 147 L398 156 Z M179 507 L333 604 C354 617 363 630 363 646 C363 666 350 678 328 678 C313 678 304 673 286 655 L139 507 L179 507 Z " />
<glyph glyph-name="Ccircumflex" unicode="&#x108;" horiz-adv-x="667" d="M617 155 C557 76 484 37 393 37 C248 37 155 150 155 328 C155 512 248 632 390 632 C450 632 506 609 549 566 C584 531 602 494 609 437 L627 439 L621 662 L600 662 C596 634 587 622 570 622 C560 622 559 622 519 641 C480 659 430 669 379 669 C186 669 34 520 34 331 C34 145 183 -7 367 -7 C472 -7 570 49 634 144 L617 155 Z M542 719 L417 886 L355 886 L231 719 L265 719 L386 822 L508 719 L542 719 Z " />
<glyph glyph-name="ccircumflex" unicode="&#x109;" horiz-adv-x="444" d="M398 156 C350 86 314 62 257 62 C165 62 102 142 102 257 C102 361 157 431 238 431 C274 431 287 420 297 383 L303 361 C311 332 329 315 351 315 C377 315 398 334 398 357 C398 413 328 460 244 460 C195 460 144 440 103 404 C53 360 25 292 25 212 C25 83 104 -10 215 -10 C260 -10 300 6 336 37 C363 60 382 88 412 147 L398 156 Z M389 507 L264 674 L202 674 L78 507 L112 507 L233 610 L355 507 L389 507 Z " />
<glyph glyph-name="Cdotaccent" unicode="&#x10a;" horiz-adv-x="667" d="M617 155 C557 76 484 37 393 37 C248 37 155 150 155 328 C155 512 248 632 390 632 C450 632 506 609 549 566 C584 531 602 494 609 437 L627 439 L621 662 L600 662 C596 634 587 622 570 622 C560 622 559 622 519 641 C480 659 430 669 379 669 C186 669 34 520 34 331 C34 145 183 -7 367 -7 C472 -7 570 49 634 144 L617 155 Z M384 823 C354 823 330 799 330 770 C330 740 354 716 384 716 C413 716 437 740 437 770 C437 799 413 823 384 823 L384 823 Z " />
<glyph glyph-name="cdotaccent" unicode="&#x10b;" horiz-adv-x="444" d="M398 156 C350 86 314 62 257 62 C165 62 102 142 102 257 C102 361 157 431 238 431 C274 431 287 420 297 383 L303 361 C311 332 329 315 351 315 C377 315 398 334 398 357 C398 413 328 460 244 460 C195 460 144 440 103 404 C53 360 25 292 25 212 C25 83 104 -10 215 -10 C260 -10 300 6 336 37 C363 60 382 88 412 147 L398 156 Z M230 623 C204 623 182 600 182 574 C182 545 203 523 230 523 C257 523 280 545 280 573 C280 600 257 623 230 623 L230 623 Z " />
<glyph glyph-name="Ccaron" unicode="&#x10c;" horiz-adv-x="667" d="M620 451 L611 676 L590 676 C584 655 568 643 548 643 C539 643 524 646 509 651 C460 668 410 676 363 676 C281 676 199 645 136 590 C66 528 28 436 28 326 C28 122 161 -14 360 -14 C473 -14 573 32 633 113 L615 131 C541 60 475 30 392 30 C329 30 273 50 230 88 C175 137 144 227 144 338 C144 520 237 636 382 636 C439 636 491 615 531 576 C563 544 578 516 597 451 L620 451 Z M528 886 L494 886 L372 783 L251 886 L217 886 L341 719 L403 719 L528 886 Z " />
<glyph glyph-name="ccaron" unicode="&#x10d;" horiz-adv-x="444" d="M398 156 C350 86 314 62 257 62 C165 62 102 142 102 257 C102 361 157 431 238 431 C274 431 287 420 297 383 L303 361 C311 332 329 315 351 315 C377 315 398 334 398 357 C398 413 328 460 244 460 C195 460 144 440 103 404 C53 360 25 292 25 212 C25 83 104 -10 215 -10 C260 -10 300 6 336 37 C363 60 382 88 412 147 L398 156 Z M398 674 L364 674 L242 571 L121 674 L87 674 L211 507 L273 507 L398 674 Z " />
<glyph glyph-name="Dcaron" unicode="&#x10e;" horiz-adv-x="722" d="M16 0 L300 0 C416 0 521 33 583 89 C648 148 685 237 685 334 C685 424 656 502 600 557 C532 626 423 662 286 662 L16 662 L16 643 C95 636 103 628 104 553 L104 109 C103 36 91 24 16 19 L16 0 Z M206 586 C206 617 216 625 258 625 C345 625 409 609 457 575 C535 521 576 435 576 327 C576 209 535 125 454 78 C403 49 345 37 258 37 C218 37 206 46 206 78 L206 586 Z M478 886 L444 886 L322 783 L201 886 L167 886 L291 719 L353 719 L478 886 Z " />
<glyph glyph-name="dcaron" unicode="&#x10f;" horiz-adv-x="588" d="M510 433 C577 466 622 527 622 587 C622 637 587 676 542 676 C507 676 483 653 483 619 C483 587 505 568 542 568 C549 568 556 569 562 570 C567 572 568 572 569 572 C577 572 583 566 583 558 C583 525 555 489 501 452 L510 433 Z M490 58 C477 57 471 57 467 57 C431 57 423 68 423 114 L423 681 L418 683 C370 666 335 656 271 639 L271 623 C279 624 285 624 293 624 C330 624 339 614 339 573 L339 417 C301 449 274 460 234 460 C119 460 26 347 26 205 C26 77 100 -10 211 -10 C267 -10 305 10 339 57 L339 -7 L343 -10 L490 42 L490 58 Z M339 102 C339 95 332 83 322 72 C305 52 279 42 250 42 C167 42 112 122 112 245 C112 358 161 432 237 432 C291 432 339 385 339 332 L339 102 Z " />
<glyph glyph-name="Dcroat" unicode="&#x110;" horiz-adv-x="722" d="M16 643 C95 636 103 628 104 553 L104 359 L21 359 L21 315 L104 315 L104 109 C103 36 91 24 16 19 L16 0 L300 0 C416 0 521 33 583 89 C648 148 685 237 685 334 C685 424 656 502 600 557 C532 626 423 662 286 662 L16 662 L16 643 Z M352 359 L206 359 L206 586 C206 617 216 625 256 625 C345 625 409 609 457 575 C535 521 576 435 576 327 C576 209 535 125 454 78 C403 49 345 37 258 37 C218 37 206 46 206 78 L206 315 L352 315 L352 359 Z " />
<glyph glyph-name="dcroat" unicode="&#x111;" horiz-adv-x="500" d="M340 527 L340 417 C302 449 275 460 235 460 C120 460 27 347 27 205 C27 77 101 -10 212 -10 C268 -10 306 10 340 57 L340 -7 L344 -10 L491 42 L491 58 C478 57 472 57 468 57 C432 57 424 68 424 114 L424 527 L500 527 L500 561 L424 561 L424 681 L419 683 C371 666 336 656 272 639 L272 623 C280 624 286 624 294 624 C331 624 340 614 340 573 L340 561 L219 561 L219 527 L340 527 Z M340 102 C340 95 333 83 323 72 C306 52 280 42 251 42 C168 42 113 122 113 245 C113 358 162 432 238 432 C292 432 340 385 340 332 L340 102 Z " />
<glyph glyph-name="Emacron" unicode="&#x112;" horiz-adv-x="611" d="M597 169 L569 169 C521 63 476 38 333 37 L306 37 C202 40 201 41 201 80 L201 327 L355 327 C439 325 452 313 465 231 L488 231 L488 463 L465 463 C453 382 439 370 355 368 L201 368 L201 590 C202 620 206 624 234 624 L369 624 C485 622 505 608 521 519 L546 519 L543 662 L12 662 L12 643 C85 638 97 625 99 553 L99 109 C97 37 84 23 12 19 L12 0 L552 0 L597 169 Z M150 813 L150 759 L461 759 L461 813 L150 813 Z " />
<glyph glyph-name="emacron" unicode="&#x113;" horiz-adv-x="444" d="M408 164 C360 88 317 59 253 59 C196 59 153 88 124 145 C106 183 99 215 97 277 L405 277 C397 342 387 371 362 403 C332 439 286 460 234 460 C184 460 137 442 99 408 C52 367 25 296 25 214 C25 76 97 -10 212 -10 C308 -10 382 49 424 157 L408 164 Z M99 309 C110 388 144 424 205 424 C266 424 290 396 303 309 L99 309 Z M67 601 L67 547 L378 547 L378 601 L67 601 Z " />
<glyph glyph-name="Ebreve" unicode="&#x114;" horiz-adv-x="611" d="M597 169 L569 169 C521 63 476 38 333 37 L306 37 C202 40 201 41 201 80 L201 327 L355 327 C439 325 452 313 465 231 L488 231 L488 463 L465 463 C453 382 439 370 355 368 L201 368 L201 590 C202 620 206 624 234 624 L369 624 C485 622 505 608 521 519 L546 519 L543 662 L12 662 L12 643 C85 638 97 625 99 553 L99 109 C97 37 84 23 12 19 L12 0 L552 0 L597 169 Z M417 876 C388 800 364 779 306 779 C242 779 208 809 194 876 L165 876 C166 825 173 801 192 773 C217 738 256 719 304 719 C388 719 434 770 446 876 L417 876 Z " />
<glyph glyph-name="ebreve" unicode="&#x115;" horiz-adv-x="444" d="M414 164 C366 88 323 59 259 59 C202 59 159 88 130 145 C112 183 105 215 103 277 L411 277 C403 342 393 371 368 403 C338 439 292 460 240 460 C190 460 143 442 105 408 C58 367 31 296 31 214 C31 76 103 -10 218 -10 C314 -10 388 49 430 157 L414 164 Z M105 309 C116 388 150 424 211 424 C272 424 296 396 309 309 L105 309 Z M351 664 C323 588 298 567 240 567 C176 567 142 597 128 664 L99 664 C101 613 107 589 127 561 C152 526 191 507 239 507 C322 507 368 558 380 664 L351 664 Z " />
<glyph glyph-name="Edotaccent" unicode="&#x116;" horiz-adv-x="611" d="M597 169 L569 169 C521 63 476 38 333 37 L306 37 C202 40 201 41 201 80 L201 327 L355 327 C439 325 452 313 465 231 L488 231 L488 463 L465 463 C453 382 439 370 355 368 L201 368 L201 590 C202 620 206 624 234 624 L369 624 C485 622 505 608 521 519 L546 519 L543 662 L12 662 L12 643 C85 638 97 625 99 553 L99 109 C97 37 84 23 12 19 L12 0 L552 0 L597 169 Z M305 835 C279 835 257 812 257 786 C257 757 278 735 305 735 C332 735 355 757 355 785 C355 812 332 835 305 835 L305 835 Z " />
<glyph glyph-name="edotaccent" unicode="&#x117;" horiz-adv-x="444" d="M414 164 C366 88 323 59 259 59 C202 59 159 88 130 145 C112 183 105 215 103 277 L411 277 C403 342 393 371 368 403 C338 439 292 460 240 460 C190 460 143 442 105 408 C58 367 31 296 31 214 C31 76 103 -10 218 -10 C314 -10 388 49 430 157 L414 164 Z M105 309 C116 388 150 424 211 424 C272 424 296 396 309 309 L105 309 Z M228 623 C202 623 180 600 180 574 C180 545 201 523 228 523 C255 523 278 545 278 573 C278 600 255 623 228 623 L228 623 Z " />
<glyph glyph-name="Eogonek" unicode="&#x118;" horiz-adv-x="611" d="M552 0 L597 169 L569 169 C521 63 476 38 333 37 L306 37 C202 40 201 41 201 80 L201 327 L355 327 C439 325 452 313 465 231 L488 231 L488 463 L465 463 C453 382 439 370 355 368 L201 368 L201 590 C202 620 206 624 234 624 L369 624 C485 622 505 608 521 519 L546 519 L543 662 L12 662 L12 643 C85 638 97 625 99 553 L99 109 C97 37 84 23 12 19 L12 0 L480 0 C441 -31 426 -56 426 -90 C426 -132 457 -165 499 -165 C540 -165 574 -142 611 -89 L591 -73 C560 -100 541 -109 520 -109 C498 -109 482 -93 482 -69 C482 -36 516 0 546 0 L552 0 Z " />
<glyph glyph-name="eogonek" unicode="&#x119;" horiz-adv-x="444" d="M415 164 C367 88 324 59 260 59 C203 59 160 88 131 145 C113 183 106 215 104 277 L412 277 C404 342 394 371 369 403 C339 439 293 460 241 460 C191 460 144 442 106 408 C59 367 32 296 32 214 C32 76 104 -10 220 -10 C241 -10 257 -8 279 -1 C242 -32 227 -57 227 -90 C227 -132 258 -165 300 -165 C341 -165 375 -142 412 -89 L392 -73 C360 -100 342 -109 321 -109 C299 -109 283 -93 283 -71 C283 -44 296 -22 338 22 C393 81 415 113 431 157 L415 164 Z M106 309 C117 388 151 424 212 424 C273 424 297 396 310 309 L106 309 Z " />
<glyph glyph-name="Ecaron" unicode="&#x11a;" horiz-adv-x="611" d="M597 169 L569 169 C521 63 476 38 333 37 L306 37 C202 40 201 41 201 80 L201 327 L355 327 C439 325 452 313 465 231 L488 231 L488 463 L465 463 C453 382 439 370 355 368 L201 368 L201 590 C202 620 206 624 234 624 L369 624 C485 622 505 608 521 519 L546 519 L543 662 L12 662 L12 643 C85 638 97 625 99 553 L99 109 C97 37 84 23 12 19 L12 0 L552 0 L597 169 Z M461 886 L427 886 L305 783 L184 886 L150 886 L274 719 L336 719 L461 886 Z " />
<glyph glyph-name="ecaron" unicode="&#x11b;" horiz-adv-x="444" d="M417 164 C369 88 326 59 262 59 C205 59 162 88 133 145 C115 183 108 215 106 277 L414 277 C406 342 396 371 371 403 C341 439 295 460 243 460 C193 460 146 442 108 408 C61 367 34 296 34 214 C34 76 106 -10 221 -10 C317 -10 391 49 433 157 L417 164 Z M108 309 C119 388 153 424 214 424 C275 424 299 396 312 309 L108 309 Z M394 674 L360 674 L238 571 L117 674 L83 674 L207 507 L269 507 L394 674 Z " />
<glyph glyph-name="Gcircumflex" unicode="&#x11c;" horiz-adv-x="722" d="M640 254 C640 316 656 336 709 339 L726 339 L726 357 L451 357 L451 339 L466 339 C519 336 535 316 535 254 L535 78 C496 46 459 34 403 34 C326 34 261 64 213 120 C166 175 145 242 145 338 C145 410 159 464 189 512 C234 585 309 627 395 627 C453 627 510 605 555 564 C587 536 601 511 618 455 L638 457 L625 662 L605 662 C601 637 590 623 572 623 C563 623 549 627 534 634 C481 658 435 669 384 669 C286 669 185 627 120 558 C61 496 28 408 28 314 C28 223 58 151 120 90 C189 23 272 -7 388 -7 C479 -7 557 14 640 60 L640 254 Z M541 719 L416 886 L354 886 L230 719 L264 719 L385 822 L507 719 L541 719 Z " />
<glyph glyph-name="gcircumflex" unicode="&#x11d;" horiz-adv-x="500" d="M470 388 L470 427 L393 427 C372 427 358 430 338 437 L316 445 C289 455 262 460 236 460 C143 460 69 389 69 297 C69 234 95 196 162 163 L136 139 C115 119 103 108 100 104 C79 82 73 71 73 54 C73 32 84 21 126 1 C54 -51 28 -84 28 -121 C28 -174 105 -218 201 -218 C276 -218 354 -192 406 -150 C444 -119 461 -87 461 -49 C461 13 414 55 340 58 L211 64 C157 66 133 75 133 91 C133 111 166 146 193 154 C229 151 248 149 250 149 C287 149 327 164 358 191 C391 219 406 254 406 304 C406 333 401 356 387 388 L470 388 Z M152 338 C152 397 180 432 226 432 C257 432 283 415 299 385 C318 350 329 305 329 265 C329 209 301 174 255 174 C193 174 152 239 152 335 L152 338 Z M147 -2 C181 -9 260 -15 309 -15 C400 -15 433 -28 433 -64 C433 -122 357 -161 244 -161 C155 -161 98 -132 98 -88 C98 -65 107 -50 147 -2 L147 -2 Z M405 507 L280 674 L218 674 L94 507 L128 507 L249 610 L371 507 L405 507 Z " />
<glyph glyph-name="Gbreve" unicode="&#x11e;" horiz-adv-x="722" d="M709 354 L454 354 L454 336 C532 331 540 323 542 247 L542 85 C542 53 482 26 409 26 C246 26 146 140 146 326 C146 420 174 511 218 560 C262 609 324 636 392 636 C448 636 498 617 536 581 C566 552 582 526 607 465 L630 465 L622 676 L600 676 C594 656 576 643 555 643 C545 643 529 647 511 653 C466 668 420 676 375 676 C175 676 32 529 32 325 C32 227 59 152 115 93 C181 24 278 -14 388 -14 C475 -14 599 21 639 56 L639 259 C641 320 652 332 709 336 L709 354 Z M493 876 C464 800 440 779 382 779 C318 779 284 809 270 876 L241 876 C242 825 249 801 268 773 C293 738 332 719 380 719 C464 719 510 770 522 876 L493 876 Z " />
<glyph glyph-name="gbreve" unicode="&#x11f;" horiz-adv-x="500" d="M470 388 L470 427 L393 427 C372 427 358 430 338 437 L316 445 C289 455 262 460 236 460 C143 460 69 389 69 297 C69 234 95 196 162 163 L136 139 C115 119 103 108 100 104 C79 82 73 71 73 54 C73 32 84 21 126 1 C54 -51 28 -84 28 -121 C28 -174 105 -218 201 -218 C276 -218 354 -192 406 -150 C444 -119 461 -87 461 -49 C461 13 414 55 340 58 L211 64 C157 66 133 75 133 91 C133 111 166 146 193 154 C229 151 248 149 250 149 C287 149 327 164 358 191 C391 219 406 254 406 304 C406 333 401 356 387 388 L470 388 Z M147 -2 C181 -9 260 -15 309 -15 C400 -15 433 -28 433 -64 C433 -122 357 -161 244 -161 C155 -161 98 -132 98 -88 C98 -65 107 -50 147 -2 L147 -2 Z M152 338 C152 397 180 432 226 432 C257 432 283 415 299 385 C318 350 329 305 329 265 C329 209 301 174 255 174 C193 174 152 239 152 335 L152 338 Z M362 664 C333 588 309 567 251 567 C186 567 152 597 139 664 L110 664 C111 613 117 589 137 561 C162 526 201 507 249 507 C332 507 378 558 391 664 L362 664 Z " />
<glyph glyph-name="Gdotaccent" unicode="&#x120;" horiz-adv-x="722" d="M640 254 C640 316 656 336 709 339 L726 339 L726 357 L451 357 L451 339 L466 339 C519 336 535 316 535 254 L535 78 C496 46 459 34 403 34 C326 34 261 64 213 120 C166 175 145 242 145 338 C145 410 159 464 189 512 C234 585 309 627 395 627 C453 627 510 605 555 564 C587 536 601 511 618 455 L638 457 L625 662 L605 662 C601 637 590 623 572 623 C563 623 549 627 534 634 C481 658 435 669 384 669 C286 669 185 627 120 558 C61 496 28 408 28 314 C28 223 58 151 120 90 C189 23 272 -7 388 -7 C479 -7 557 14 640 60 L640 254 Z M390 823 C360 823 336 799 336 770 C336 740 360 716 390 716 C419 716 443 740 443 770 C443 799 419 823 390 823 L390 823 Z " />
<glyph glyph-name="gdotaccent" unicode="&#x121;" horiz-adv-x="500" d="M247 636 C218 636 195 613 195 585 C195 556 218 533 246 533 C275 533 298 556 298 585 C298 613 275 636 247 636 L247 636 Z M470 388 L470 427 L393 427 C372 427 358 430 338 437 L316 445 C289 455 262 460 236 460 C143 460 69 389 69 297 C69 234 95 196 162 163 L136 139 C115 119 103 108 100 104 C79 82 73 71 73 54 C73 32 84 21 126 1 C54 -51 28 -84 28 -121 C28 -174 105 -218 201 -218 C276 -218 354 -192 406 -150 C444 -119 461 -87 461 -49 C461 13 414 55 340 58 L211 64 C157 66 133 75 133 91 C133 111 166 146 193 154 C229 151 248 149 250 149 C287 149 327 164 358 191 C391 219 406 254 406 304 C406 333 401 356 387 388 L470 388 Z M152 338 C152 397 180 432 226 432 C257 432 283 415 299 385 C318 350 329 305 329 265 C329 209 301 174 255 174 C193 174 152 239 152 335 L152 338 Z M147 -2 C181 -9 260 -15 309 -15 C400 -15 433 -28 433 -64 C433 -122 357 -161 244 -161 C155 -161 98 -132 98 -88 C98 -65 107 -50 147 -2 L147 -2 Z " />
<glyph glyph-name="Gcommaaccent" unicode="&#x122;" horiz-adv-x="722" d="M709 354 L454 354 L454 336 C532 331 540 323 542 247 L542 85 C542 53 482 26 409 26 C246 26 146 140 146 326 C146 420 174 511 218 560 C262 609 324 636 392 636 C448 636 498 617 536 581 C566 552 582 526 607 465 L630 465 L622 676 L600 676 C594 656 576 643 555 643 C545 643 529 647 511 653 C466 668 420 676 375 676 C175 676 32 529 32 325 C32 227 59 152 115 93 C181 24 278 -14 388 -14 C475 -14 599 21 639 56 L639 259 C641 320 652 332 709 336 L709 354 Z M319 -281 C386 -248 431 -187 431 -127 C431 -77 396 -38 351 -38 C316 -38 292 -61 292 -95 C292 -127 314 -146 351 -146 C358 -146 365 -145 371 -144 C376 -142 377 -142 378 -142 C386 -142 392 -148 392 -156 C392 -188 364 -225 310 -262 L319 -281 Z " />
<glyph glyph-name="gcommaaccent" unicode="&#x123;" horiz-adv-x="500" d="M470 388 L470 427 L393 427 C372 427 358 430 338 437 L316 445 C289 455 262 460 236 460 C143 460 69 389 69 297 C69 234 95 196 162 163 L136 139 C115 119 103 108 100 104 C79 82 73 71 73 54 C73 32 84 21 126 1 C54 -51 28 -84 28 -121 C28 -174 105 -218 201 -218 C276 -218 354 -192 406 -150 C444 -119 461 -87 461 -49 C461 13 414 55 340 58 L211 64 C157 66 133 75 133 91 C133 111 166 146 193 154 C229 151 248 149 250 149 C287 149 327 164 358 191 C391 219 406 254 406 304 C406 333 401 356 387 388 L470 388 Z M147 -2 C181 -9 260 -15 309 -15 C400 -15 433 -28 433 -64 C433 -122 357 -161 244 -161 C155 -161 98 -132 98 -88 C98 -65 107 -50 147 -2 L147 -2 Z M152 338 C152 397 180 432 226 432 C257 432 283 415 299 385 C318 350 329 305 329 265 C329 209 301 174 255 174 C193 174 152 239 152 335 L152 338 Z M293 736 C226 703 181 642 181 582 C181 532 216 493 261 493 C296 493 320 516 320 550 C320 582 298 601 261 601 C254 601 247 600 241 599 C236 597 235 597 234 597 C226 597 220 603 220 611 C220 644 248 680 302 717 L293 736 Z " />
<glyph glyph-name="Hcircumflex" unicode="&#x124;" horiz-adv-x="722" d="M214 315 L509 315 L509 104 C509 40 493 21 441 19 L418 18 L418 0 L704 0 L704 18 L682 19 C629 21 614 40 614 104 L614 559 C614 622 629 641 682 643 L704 644 L704 662 L418 662 L418 644 L441 643 C493 641 509 622 509 559 L509 360 L214 360 L214 559 C214 622 229 641 282 643 L304 644 L304 662 L18 662 L18 644 L41 643 C93 641 109 622 109 559 L109 104 C109 40 93 21 41 19 L18 18 L18 0 L304 0 L304 18 L282 19 C229 21 214 40 214 104 L214 315 Z M517 719 L392 886 L330 886 L206 719 L240 719 L361 822 L483 719 L517 719 Z " />
<glyph glyph-name="hcircumflex" unicode="&#x125;" horiz-adv-x="500" d="M487 15 C433 24 428 31 427 102 L427 301 C427 406 386 460 304 460 C245 460 203 436 157 376 L157 680 L152 683 C118 671 93 663 37 647 L10 639 L10 623 C14 624 17 624 22 624 C65 624 73 616 73 573 L73 102 C71 30 66 22 9 15 L9 0 L225 0 L225 15 C167 20 159 31 157 102 L157 343 C199 389 229 406 268 406 C318 406 343 370 343 300 L343 102 C341 31 332 20 275 15 L275 0 L487 0 L487 15 Z M310 726 L185 893 L123 893 L-1 726 L33 726 L154 829 L276 726 L310 726 Z " />
<glyph glyph-name="Hbar" unicode="&#x126;" horiz-adv-x="722" d="M109 465 L109 104 C109 40 93 21 40 19 L18 18 L18 0 L304 0 L304 18 L283 19 C230 21 214 40 214 104 L214 315 L509 315 L509 104 C509 40 493 21 441 19 L419 18 L419 0 L705 0 L705 18 L683 19 C630 21 614 40 614 104 L614 465 L705 465 L705 505 L614 505 L614 558 C614 622 630 641 683 643 L705 644 L705 662 L419 662 L419 644 L441 643 C493 641 509 622 509 558 L509 505 L214 505 L214 558 C214 622 230 641 283 643 L304 644 L304 662 L18 662 L18 644 L40 643 C93 641 109 622 109 558 L109 505 L18 505 L18 465 L109 465 Z M214 465 L509 465 L509 360 L214 360 L214 465 Z " />
<glyph glyph-name="hbar" unicode="&#x127;" horiz-adv-x="500" d="M161 678 C92 644 82 639 8 608 L15 594 L25 598 C31 600 38 601 45 601 C72 601 82 586 82 546 L18 546 L18 510 L82 510 L82 122 C82 33 74 19 25 17 L8 17 L8 0 L231 0 L231 17 L218 17 C169 18 161 33 161 122 L161 342 C212 390 240 406 275 406 C302 406 329 387 337 360 C343 344 346 316 346 286 L346 122 C346 33 339 19 290 17 L279 17 L279 0 L491 0 L491 17 L481 17 C432 19 425 33 425 122 L425 286 C425 345 420 376 405 407 C389 441 352 464 313 464 C261 464 225 444 161 378 L161 510 L278 510 L278 546 L161 546 L161 678 Z " />
<glyph glyph-name="Itilde" unicode="&#x128;" horiz-adv-x="333" d="M18 0 L315 0 L315 19 C233 21 219 35 217 109 L217 553 C219 628 232 640 315 643 L315 662 L18 662 L18 643 C103 638 114 628 115 553 L115 109 C114 33 102 22 18 19 L18 0 Z M302 844 C285 806 272 794 249 794 C234 794 215 799 196 809 L172 821 C149 833 124 839 102 839 C52 839 16 803 1 738 L30 738 C41 769 58 784 81 784 C92 784 107 780 122 773 L145 762 C186 742 201 738 226 738 C281 738 310 768 331 844 L302 844 Z " />
<glyph glyph-name="itilde" unicode="&#x129;" horiz-adv-x="278" d="M23 0 L260 0 L260 15 C194 20 187 29 186 102 L186 457 L182 460 L27 405 L27 390 L35 391 C47 393 60 394 69 394 C93 394 102 378 102 334 L102 102 C100 28 91 18 23 15 L23 0 Z M277 638 C260 600 247 588 224 588 C209 588 190 594 171 603 L147 615 C124 627 99 633 77 633 C27 633 -9 597 -24 532 L5 532 C16 563 33 578 56 578 C68 578 82 574 97 567 L120 556 C161 536 176 532 201 532 C256 532 285 562 306 638 L277 638 Z " />
<glyph glyph-name="Imacron" unicode="&#x12a;" horiz-adv-x="333" d="M18 0 L315 0 L315 19 C233 21 219 35 217 109 L217 553 C219 628 232 640 315 643 L315 662 L18 662 L18 643 C103 638 114 628 115 553 L115 109 C114 33 102 22 18 19 L18 0 Z M11 813 L11 759 L322 759 L322 813 L11 813 Z " />
<glyph glyph-name="imacron" unicode="&#x12b;" horiz-adv-x="278" d="M16 0 L253 0 L253 15 C187 20 180 29 179 102 L179 457 L175 460 L20 405 L20 390 L28 391 C40 393 53 394 62 394 C86 394 95 378 95 334 L95 102 C93 28 84 18 16 15 L16 0 Z M-25 601 L-25 547 L283 547 L283 601 L-25 601 Z " />
<glyph glyph-name="Ibreve" unicode="&#x12c;" horiz-adv-x="333" d="M18 0 L315 0 L315 19 C233 21 219 35 217 109 L217 553 C219 628 232 640 315 643 L315 662 L18 662 L18 643 C103 638 114 628 115 553 L115 109 C114 33 102 22 18 19 L18 0 Z M278 870 C249 794 225 773 167 773 C103 773 69 803 55 870 L26 870 C27 819 34 795 53 767 C78 732 118 713 165 713 C249 713 295 764 307 870 L278 870 Z " />
<glyph glyph-name="ibreve" unicode="&#x12d;" horiz-adv-x="278" d="M182 470 C114 436 103 431 29 401 L36 386 L47 390 C54 392 59 393 67 393 C96 393 103 380 103 324 L103 122 C102 29 97 20 46 17 L29 17 L29 0 L255 0 L255 17 L239 17 C190 19 182 33 182 122 L182 470 Z M226 640 C209 605 175 583 136 583 C97 583 64 605 47 640 L23 640 C45 558 79 523 136 523 C194 523 228 558 249 640 L226 640 Z " />
<glyph glyph-name="Iogonek" unicode="&#x12e;" horiz-adv-x="333" d="M18 662 L18 643 C103 638 114 628 115 553 L115 109 C114 33 102 22 18 19 L18 0 L266 0 C227 -31 212 -56 212 -90 C212 -132 243 -165 285 -165 C326 -165 360 -142 397 -89 L377 -73 C346 -100 327 -109 306 -109 C284 -109 268 -93 268 -70 C268 -50 277 -32 296 -13 C307 -4 311 -1 315 0 L315 19 C233 21 219 35 217 109 L217 553 C219 628 232 640 315 643 L315 662 L18 662 Z " />
<glyph glyph-name="iogonek" unicode="&#x12f;" horiz-adv-x="278" d="M185 457 L181 460 L26 405 L26 390 L34 391 C46 393 59 394 68 394 C92 394 101 378 101 334 L101 102 C99 28 90 18 22 15 L22 0 L153 0 C114 -31 99 -56 99 -90 C99 -132 130 -165 172 -165 C213 -165 247 -142 284 -89 L264 -73 C233 -100 214 -109 193 -109 C171 -109 155 -93 155 -70 C155 -33 188 0 226 0 L259 0 L259 15 C193 20 186 29 185 102 L185 457 Z M134 683 C107 683 84 660 84 632 C84 603 106 581 134 581 C164 581 186 603 186 632 C186 661 163 683 134 683 L134 683 Z " />
<glyph glyph-name="Idotaccent" unicode="&#x130;" horiz-adv-x="333" d="M18 0 L315 0 L315 19 C233 21 219 35 217 109 L217 553 C219 628 232 640 315 643 L315 662 L18 662 L18 643 C103 638 114 628 115 553 L115 109 C114 33 102 22 18 19 L18 0 Z M166 835 C140 835 118 812 118 786 C118 757 139 735 166 735 C193 735 216 757 216 785 C216 812 193 835 166 835 L166 835 Z " />
<glyph glyph-name="dotlessi" unicode="&#x131;" horiz-adv-x="278" d="M16 0 L253 0 L253 15 C187 20 180 29 179 102 L179 457 L175 460 L20 405 L20 390 L28 391 C40 393 53 394 62 394 C86 394 95 378 95 334 L95 102 C93 28 84 18 16 15 L16 0 Z " />
<glyph glyph-name="IJ" unicode="&#x132;" horiz-adv-x="708" d="M304 18 L282 19 C229 21 214 40 214 103 L214 559 C214 622 229 641 282 643 L304 644 L304 662 L18 662 L18 644 L40 643 C93 641 109 622 109 559 L109 103 C109 40 93 21 40 19 L18 18 L18 0 L304 0 L304 18 Z M415 644 L437 643 C487 643 509 617 511 559 L511 144 C511 60 504 34 482 34 C471 34 461 43 454 58 C432 102 419 113 390 113 C360 113 340 94 340 67 C340 23 382 -7 444 -7 C548 -7 614 71 614 193 L614 559 C613 622 629 641 682 643 L702 644 L702 662 L415 662 L415 644 Z " />
<glyph glyph-name="ij" unicode="&#x133;" horiz-adv-x="552" d="M196 470 C128 436 117 431 43 401 L50 386 L61 390 C68 392 73 393 81 393 C110 393 117 380 117 324 L117 122 C116 29 111 20 60 17 L43 17 L43 0 L269 0 L269 17 L253 17 C204 19 196 33 196 122 L196 470 Z M151 662 C122 662 99 639 99 611 C99 582 122 559 151 559 C179 559 202 582 202 611 C202 639 179 662 151 662 L151 662 Z M453 470 C384 436 374 431 300 401 L307 386 L318 390 C324 392 329 393 338 393 C367 393 374 380 374 324 L374 0 C374 -88 365 -116 339 -116 C329 -116 319 -111 305 -97 C283 -77 268 -69 252 -69 C229 -69 211 -87 211 -108 C211 -137 245 -159 291 -159 C352 -159 405 -129 432 -79 C449 -45 453 -20 453 67 L453 470 Z M407 662 C378 662 355 639 355 611 C355 582 378 559 407 559 C435 559 458 582 458 611 C458 639 435 662 407 662 L407 662 Z " />
<glyph glyph-name="Jcircumflex" unicode="&#x134;" horiz-adv-x="389" d="M376 662 L89 662 L89 643 C170 637 181 627 182 553 L182 90 C182 45 170 24 144 24 C130 24 124 32 117 57 C107 92 91 108 65 108 C38 108 16 85 16 58 C16 16 57 -14 115 -14 C223 -14 284 58 284 183 L284 553 C286 628 295 637 376 643 L376 662 Z M394 728 L269 895 L207 895 L83 728 L117 728 L238 831 L360 728 L394 728 Z " />
<glyph glyph-name="jcircumflex" unicode="&#x135;" horiz-adv-x="278" d="M193 457 L188 460 C129 437 91 424 32 406 L32 390 L37 391 C52 393 67 394 77 394 C100 394 109 377 109 334 L109 -45 C109 -121 106 -146 95 -166 C89 -176 75 -184 61 -184 C46 -184 36 -177 19 -156 C1 -133 -13 -124 -29 -124 C-52 -124 -70 -141 -70 -163 C-70 -195 -31 -218 24 -218 C68 -218 108 -204 135 -179 C171 -147 193 -79 193 0 L193 457 Z M292 507 L167 674 L105 674 L-19 507 L15 507 L136 610 L258 507 L292 507 Z " />
<glyph glyph-name="Kcommaaccent" unicode="&#x136;" horiz-adv-x="722" d="M413 643 C473 640 481 636 481 612 C481 590 458 560 403 509 L226 348 L226 553 C227 628 237 637 318 643 L318 662 L34 662 L34 643 C111 638 122 626 124 553 L124 120 C123 35 112 24 34 19 L34 0 L316 0 L316 19 C239 24 227 35 226 109 L226 296 L252 317 L358 212 C434 136 488 66 488 42 C488 28 475 21 446 20 C441 20 430 20 418 19 L418 0 L723 0 L723 19 C671 20 657 30 566 127 L333 377 L523 565 C591 630 607 638 675 643 L675 662 L413 662 L413 643 Z M319 -281 C386 -248 431 -187 431 -127 C431 -77 396 -38 351 -38 C316 -38 292 -61 292 -95 C292 -127 314 -146 351 -146 C358 -146 365 -145 371 -144 C376 -142 377 -142 378 -142 C386 -142 392 -148 392 -156 C392 -188 364 -225 310 -262 L319 -281 Z " />
<glyph glyph-name="kcommaaccent" unicode="&#x137;" horiz-adv-x="500" d="M7 0 L241 0 L241 15 L221 16 C179 19 167 30 166 67 L166 251 L306 64 C310 59 313 54 316 51 C324 41 327 35 327 30 C327 21 318 15 306 15 L287 15 L287 0 L505 0 L505 15 C461 18 430 37 388 88 L235 282 L264 309 C389 421 416 437 480 435 L480 450 L276 450 L276 436 C315 435 326 431 326 418 C326 409 317 396 303 383 L166 261 L166 681 L162 683 C124 671 95 663 37 647 L7 639 L7 623 C20 624 29 625 39 625 C73 625 82 612 82 564 L82 82 C81 29 78 26 7 15 L7 0 Z M208 -281 C275 -248 320 -187 320 -127 C320 -77 285 -38 240 -38 C205 -38 181 -61 181 -95 C181 -127 203 -146 240 -146 C247 -146 254 -145 260 -144 C265 -142 266 -142 267 -142 C275 -142 281 -148 281 -156 C281 -188 253 -225 199 -262 L208 -281 Z " />
<glyph glyph-name="kgreenlandic" unicode="&#x138;" horiz-adv-x="500" d="M181 230 L297 65 C307 52 314 38 314 32 C314 22 307 17 294 17 L284 17 L284 0 L493 0 L493 17 C442 17 419 34 362 116 L245 277 L335 374 C380 423 400 435 448 439 L461 440 L461 457 L284 457 L284 440 L289 440 C305 439 314 433 314 422 C314 414 308 403 298 392 L181 262 L181 470 C112 436 101 431 28 401 L34 387 L45 390 C52 392 60 394 65 394 C77 394 88 390 93 382 C101 372 102 364 102 324 L102 122 C102 33 94 19 45 17 L31 17 L31 0 L251 0 L251 17 L238 17 C188 18 180 33 181 122 L181 230 Z " />
<glyph glyph-name="Lacute" unicode="&#x139;" horiz-adv-x="611" d="M294 662 L12 662 L12 643 C85 638 97 625 99 553 L99 109 C97 37 84 23 12 19 L12 0 L550 0 L598 174 L573 174 C526 69 483 43 354 39 L287 39 C210 41 202 44 201 80 L201 553 C203 626 216 639 294 643 L294 662 Z M151 719 L305 816 C326 829 335 842 335 858 C335 878 322 890 301 890 C285 890 277 885 258 867 L111 719 L151 719 Z " />
<glyph glyph-name="lacute" unicode="&#x13a;" horiz-adv-x="278" d="M21 0 L257 0 L257 15 C194 18 183 28 182 84 L182 681 L178 683 C126 666 88 656 19 639 L19 623 L25 623 C36 624 48 625 56 625 C88 625 98 611 98 564 L98 87 C97 33 83 19 21 15 L21 0 Z M99 719 L253 816 C274 829 283 842 283 858 C283 878 270 890 248 890 C233 890 224 885 206 867 L59 719 L99 719 Z " />
<glyph glyph-name="Lcommaaccent" unicode="&#x13b;" horiz-adv-x="611" d="M294 662 L12 662 L12 643 C85 638 97 625 99 553 L99 109 C97 37 84 23 12 19 L12 0 L550 0 L598 174 L573 174 C526 69 483 43 354 39 L287 39 C210 41 202 44 201 80 L201 553 C203 626 216 639 294 643 L294 662 Z M263 -281 C330 -248 375 -187 375 -127 C375 -77 340 -38 295 -38 C260 -38 236 -61 236 -95 C236 -127 258 -146 295 -146 C302 -146 309 -145 315 -144 C320 -142 321 -142 322 -142 C330 -142 336 -148 336 -156 C336 -188 308 -225 254 -262 L263 -281 Z " />
<glyph glyph-name="lcommaaccent" unicode="&#x13c;" horiz-adv-x="278" d="M21 0 L257 0 L257 15 C194 18 183 28 182 84 L182 681 L178 683 C126 666 88 656 19 639 L19 623 L25 623 C36 624 48 625 56 625 C88 625 98 611 98 564 L98 87 C97 33 83 19 21 15 L21 0 Z M97 -281 C164 -248 209 -187 209 -127 C209 -77 174 -38 129 -38 C94 -38 70 -61 70 -95 C70 -127 92 -146 129 -146 C136 -146 143 -145 149 -144 C154 -142 155 -142 156 -142 C164 -142 170 -148 170 -156 C170 -188 142 -225 88 -262 L97 -281 Z " />
<glyph glyph-name="Lcaron" unicode="&#x13d;" horiz-adv-x="611" d="M294 662 L12 662 L12 643 C85 638 97 625 99 553 L99 109 C97 37 84 23 12 19 L12 0 L550 0 L598 174 L573 174 C526 69 483 43 354 39 L287 39 C210 41 202 44 201 80 L201 553 C203 626 216 639 294 643 L294 662 Z M382 433 C449 466 494 527 494 587 C494 637 459 676 414 676 C379 676 355 653 355 619 C355 587 377 568 414 568 C421 568 428 569 434 570 C439 572 440 572 441 572 C449 572 455 566 455 558 C455 525 427 489 373 452 L382 433 Z " />
<glyph glyph-name="lcaron" unicode="&#x13e;" horiz-adv-x="344" d="M271 433 C338 466 383 527 383 587 C383 637 348 676 303 676 C268 676 244 653 244 619 C244 587 266 568 303 568 C310 568 317 569 323 570 C328 572 329 572 330 572 C338 572 344 566 344 558 C344 525 316 489 262 452 L271 433 Z M19 0 L255 0 L255 15 C192 18 181 28 180 84 L180 681 L176 683 C124 666 86 656 17 639 L17 623 L23 623 C34 624 46 625 54 625 C86 625 96 611 96 564 L96 87 C95 33 81 19 19 15 L19 0 Z " />
<glyph glyph-name="Ldot" unicode="&#x13f;" horiz-adv-x="611" d="M294 662 L12 662 L12 643 C85 638 97 625 99 553 L99 109 C97 37 84 23 12 19 L12 0 L550 0 L598 174 L573 174 C526 69 483 43 354 39 L287 39 C210 41 202 44 201 80 L201 553 C203 626 216 639 294 643 L294 662 Z M405 390 C375 390 350 365 350 333 C350 304 375 279 404 279 C435 279 461 303 461 333 C461 364 435 390 405 390 L405 390 Z " />
<glyph glyph-name="ldot" unicode="&#x140;" horiz-adv-x="344" d="M309 390 C279 390 254 365 254 333 C254 304 279 279 308 279 C339 279 365 303 365 333 C365 364 339 390 309 390 L309 390 Z M21 0 L257 0 L257 15 C194 18 183 28 182 84 L182 681 L178 683 C126 666 88 656 19 639 L19 623 L25 623 C36 624 48 625 56 625 C88 625 98 611 98 564 L98 87 C97 33 83 19 21 15 L21 0 Z " />
<glyph glyph-name="Lslash" unicode="&#x141;" horiz-adv-x="611" d="M99 325 L12 275 L12 226 L99 276 L99 109 C97 37 84 23 12 19 L12 0 L550 0 L598 174 L573 174 C526 69 483 43 354 39 L287 39 C210 41 202 44 201 80 L201 335 L356 424 L356 473 L201 384 L201 553 C203 626 216 639 294 643 L294 662 L12 662 L12 643 C85 638 97 625 99 553 L99 325 Z " />
<glyph glyph-name="lslash" unicode="&#x142;" horiz-adv-x="278" d="M98 362 L20 308 L20 264 L98 318 L98 87 C97 33 83 19 21 15 L21 0 L257 0 L257 15 C194 18 183 28 182 84 L182 375 L259 428 L259 472 L182 419 L182 681 L178 683 C126 666 88 656 19 639 L19 623 L25 623 C36 624 48 625 56 625 C88 625 98 611 98 564 L98 362 Z " />
<glyph glyph-name="Nacute" unicode="&#x143;" horiz-adv-x="722" d="M707 662 L472 662 L472 643 C552 638 565 621 568 515 L568 178 L183 662 L12 662 L12 643 C55 643 69 635 109 588 L109 147 C107 41 94 24 12 19 L12 0 L247 0 L247 19 C170 23 155 44 153 147 L153 539 L595 -11 L612 -11 L612 515 C615 619 628 636 707 643 L707 662 Z M328 719 L482 816 C503 829 512 842 512 858 C512 878 499 890 477 890 C462 890 453 885 435 867 L288 719 L328 719 Z " />
<glyph glyph-name="nacute" unicode="&#x144;" horiz-adv-x="500" d="M18 0 L230 0 L230 15 C180 18 164 31 164 67 L164 348 C211 393 234 405 267 405 C316 405 340 374 340 308 L340 99 C338 34 326 18 277 15 L277 0 L485 0 L485 15 C436 20 425 32 424 81 L424 310 C424 404 380 460 306 460 C260 460 229 443 161 379 L161 458 L154 460 C105 442 71 431 16 415 L16 398 C22 401 32 402 43 402 C71 402 80 387 80 338 L80 90 C79 31 68 18 18 15 L18 0 Z M202 507 L356 604 C377 617 386 630 386 646 C386 666 373 678 352 678 C336 678 328 673 309 655 L162 507 L202 507 Z " />
<glyph glyph-name="Ncommaaccent" unicode="&#x145;" horiz-adv-x="722" d="M707 662 L472 662 L472 643 C552 638 565 621 568 515 L568 178 L183 662 L12 662 L12 643 C55 643 69 635 109 588 L109 147 C107 41 94 24 12 19 L12 0 L247 0 L247 19 C170 23 155 44 153 147 L153 539 L595 -11 L612 -11 L612 515 C615 619 628 636 707 643 L707 662 Z M339 -281 C407 -248 451 -187 451 -127 C451 -77 416 -38 371 -38 C336 -38 312 -61 312 -95 C312 -127 334 -146 371 -146 C378 -146 385 -145 391 -144 C396 -142 397 -142 398 -142 C406 -142 412 -148 412 -156 C412 -188 384 -225 330 -262 L339 -281 Z " />
<glyph glyph-name="ncommaaccent" unicode="&#x146;" horiz-adv-x="500" d="M18 0 L230 0 L230 15 C180 18 164 31 164 67 L164 348 C211 393 234 405 267 405 C316 405 340 374 340 308 L340 99 C338 34 326 18 277 15 L277 0 L485 0 L485 15 C436 20 425 32 424 81 L424 310 C424 404 380 460 306 460 C260 460 229 443 161 379 L161 458 L154 460 C105 442 71 431 16 415 L16 398 C22 401 32 402 43 402 C71 402 80 387 80 338 L80 90 C79 31 68 18 18 15 L18 0 Z M208 -281 C275 -248 320 -187 320 -127 C320 -77 285 -38 240 -38 C205 -38 181 -61 181 -95 C181 -127 203 -146 240 -146 C247 -146 254 -145 260 -144 C265 -142 266 -142 267 -142 C275 -142 281 -148 281 -156 C281 -188 253 -225 199 -262 L208 -281 Z " />
<glyph glyph-name="Ncaron" unicode="&#x147;" horiz-adv-x="722" d="M707 662 L472 662 L472 643 C552 638 565 621 568 515 L568 178 L183 662 L12 662 L12 643 C55 643 69 635 109 588 L109 147 C107 41 94 24 12 19 L12 0 L247 0 L247 19 C170 23 155 44 153 147 L153 539 L595 -11 L612 -11 L612 515 C615 619 628 636 707 643 L707 662 Z M517 886 L483 886 L361 783 L240 886 L206 886 L330 719 L392 719 L517 886 Z " />
<glyph glyph-name="ncaron" unicode="&#x148;" horiz-adv-x="500" d="M18 0 L230 0 L230 15 C180 18 164 31 164 67 L164 348 C211 393 234 405 267 405 C316 405 340 374 340 308 L340 99 C338 34 326 18 277 15 L277 0 L485 0 L485 15 C436 20 425 32 424 81 L424 310 C424 404 380 460 306 460 C260 460 229 443 161 379 L161 458 L154 460 C105 442 71 431 16 415 L16 398 C22 401 32 402 43 402 C71 402 80 387 80 338 L80 90 C79 31 68 18 18 15 L18 0 Z M406 674 L372 674 L250 571 L129 674 L95 674 L219 507 L281 507 L406 674 Z " />
<glyph glyph-name="napostrophe" unicode="&#x149;" horiz-adv-x="604" d="M6 453 C84 465 133 517 133 585 C133 635 104 672 64 672 C33 672 9 649 9 619 C9 590 33 565 61 565 C69 565 76 566 91 570 C89 521 59 486 6 469 L6 453 Z M122 0 L334 0 L334 15 C284 18 268 31 268 67 L268 348 C315 393 338 405 371 405 C420 405 444 374 444 308 L444 99 C442 34 430 18 381 15 L381 0 L589 0 L589 15 C540 20 529 32 528 81 L528 310 C528 404 484 460 410 460 C364 460 333 443 265 379 L265 458 L258 460 C209 442 175 431 120 415 L120 398 C126 401 136 402 147 402 C175 402 184 387 184 338 L184 90 C183 31 172 18 122 15 L122 0 Z " />
<glyph glyph-name="Eng" unicode="&#x14a;" horiz-adv-x="702" d="M206 564 C257 605 303 622 366 622 C463 622 509 580 509 491 L509 -45 C509 -121 506 -146 495 -166 C489 -176 475 -184 461 -184 C446 -184 436 -177 419 -156 C401 -133 387 -124 371 -124 C348 -124 330 -141 330 -163 C330 -196 370 -218 431 -218 C482 -218 527 -204 553 -180 C589 -147 611 -78 611 0 L611 493 C611 560 591 618 559 643 C533 664 485 676 429 676 C335 676 280 656 203 595 L203 674 L196 676 C141 658 103 647 40 631 L40 614 C46 617 56 618 67 618 C95 618 104 603 104 554 L104 90 C103 31 92 18 42 15 L42 0 L272 0 L272 15 C222 18 206 31 206 67 L206 564 Z " />
<glyph glyph-name="eng" unicode="&#x14b;" horiz-adv-x="495" d="M162 348 C209 393 232 405 265 405 C314 405 338 374 338 308 L338 -45 C338 -121 335 -146 324 -166 C318 -176 304 -184 290 -184 C275 -184 265 -177 248 -156 C230 -133 216 -124 200 -124 C177 -124 159 -141 159 -163 C159 -195 198 -218 253 -218 C297 -218 337 -204 364 -179 C400 -147 422 -79 422 0 L422 310 C422 404 378 460 304 460 C258 460 227 443 159 379 L159 458 L152 460 C103 442 69 431 14 415 L14 398 C20 401 30 402 41 402 C69 402 78 387 78 338 L78 90 C77 31 66 18 16 15 L16 0 L228 0 L228 15 C178 18 162 31 162 67 L162 348 Z " />
<glyph glyph-name="Omacron" unicode="&#x14c;" horiz-adv-x="722" d="M361 676 C170 676 34 533 34 331 C34 237 66 145 120 88 C178 25 267 -14 355 -14 C552 -14 688 125 688 327 C688 426 659 512 604 571 C541 640 457 676 361 676 L361 676 Z M361 640 C407 640 453 622 489 590 C543 541 574 447 574 328 C574 269 561 200 541 148 C532 123 515 98 492 75 C457 40 412 22 359 22 C313 22 268 40 232 71 C181 117 148 218 148 329 C148 431 176 528 218 575 C257 618 306 640 361 640 L361 640 Z M206 813 L206 759 L517 759 L517 813 L206 813 Z " />
<glyph glyph-name="omacron" unicode="&#x14d;" horiz-adv-x="500" d="M250 460 C119 460 29 364 29 226 C29 90 122 -10 248 -10 C374 -10 470 95 470 234 C470 366 378 460 250 460 L250 460 Z M237 432 C321 432 380 336 380 199 C380 85 335 18 260 18 C221 18 184 42 163 82 C135 134 119 204 119 275 C119 370 165 432 237 432 L237 432 Z M95 601 L95 547 L406 547 L406 601 L95 601 Z " />
<glyph glyph-name="Obreve" unicode="&#x14e;" horiz-adv-x="722" d="M361 676 C170 676 34 533 34 331 C34 237 66 145 120 88 C178 25 267 -14 355 -14 C552 -14 688 125 688 327 C688 426 659 512 604 571 C541 640 457 676 361 676 L361 676 Z M361 640 C407 640 453 622 489 590 C543 541 574 447 574 328 C574 269 561 200 541 148 C532 123 515 98 492 75 C457 40 412 22 359 22 C313 22 268 40 232 71 C181 117 148 218 148 329 C148 431 176 528 218 575 C257 618 306 640 361 640 L361 640 Z M472 870 C444 794 420 773 361 773 C297 773 263 803 249 870 L220 870 C222 819 228 795 248 767 C273 732 312 713 360 713 C443 713 489 764 501 870 L472 870 Z " />
<glyph glyph-name="obreve" unicode="&#x14f;" horiz-adv-x="500" d="M250 460 C119 460 29 364 29 226 C29 90 122 -10 248 -10 C374 -10 470 95 470 234 C470 366 378 460 250 460 L250 460 Z M237 432 C321 432 380 336 380 199 C380 85 335 18 260 18 C221 18 184 42 163 82 C135 134 119 204 119 275 C119 370 165 432 237 432 L237 432 Z M370 664 C342 588 317 567 259 567 C195 567 161 597 147 664 L118 664 C120 613 126 589 146 561 C171 526 210 507 258 507 C341 507 387 558 399 664 L370 664 Z " />
<glyph glyph-name="Ohungarumlaut" unicode="&#x150;" horiz-adv-x="722" d="M361 676 C170 676 34 533 34 331 C34 237 66 145 120 88 C178 25 267 -14 355 -14 C552 -14 688 125 688 327 C688 426 659 512 604 571 C541 640 457 676 361 676 L361 676 Z M361 640 C407 640 453 622 489 590 C543 541 574 447 574 328 C574 269 561 200 541 148 C532 123 515 98 492 75 C457 40 412 22 359 22 C313 22 268 40 232 71 C181 117 148 218 148 329 C148 431 176 528 218 575 C257 618 306 640 361 640 L361 640 Z M428 719 L582 816 C603 829 612 842 612 858 C612 878 599 890 577 890 C562 890 553 885 535 867 L388 719 L428 719 Z M272 719 L426 816 C447 829 456 842 456 858 C456 878 443 890 421 890 C406 890 397 885 379 867 L232 719 L272 719 Z " />
<glyph glyph-name="ohungarumlaut" unicode="&#x151;" horiz-adv-x="500" d="M250 460 C119 460 29 364 29 226 C29 90 122 -10 248 -10 C374 -10 470 95 470 234 C470 366 378 460 250 460 L250 460 Z M237 432 C321 432 380 336 380 199 C380 85 335 18 260 18 C221 18 184 42 163 82 C135 134 119 204 119 275 C119 370 165 432 237 432 L237 432 Z M300 507 L454 604 C475 617 484 630 484 646 C484 666 471 678 450 678 C434 678 425 673 407 655 L260 507 L300 507 Z M144 507 L298 604 C319 617 328 630 328 646 C328 666 315 678 294 678 C278 678 269 673 251 655 L104 507 L144 507 Z " />
<glyph glyph-name="OE" unicode="&#x152;" horiz-adv-x="889" d="M827 521 L827 662 L501 662 C481 662 442 663 396 665 C348 668 346 668 331 668 C248 668 174 642 119 593 C56 537 19 437 19 322 C19 214 49 130 109 71 C159 21 227 -6 300 -6 C315 -6 335 -5 359 -4 L374 -4 L389 -3 C431 0 440 0 480 0 L830 0 L874 168 L850 168 C799 73 763 42 700 40 L576 38 C529 39 522 45 520 84 L520 329 L658 330 C728 328 749 307 756 230 L777 230 L777 464 L756 464 C749 384 730 370 624 367 L520 366 L520 602 C520 623 524 624 585 626 L636 626 C766 626 793 610 804 521 L827 521 Z M420 131 C420 60 391 31 320 31 C197 31 131 134 131 326 C131 521 200 632 321 632 C390 632 420 600 420 527 L420 131 Z " />
<glyph glyph-name="oe" unicode="&#x153;" horiz-adv-x="722" d="M679 145 C632 81 597 57 549 57 C512 57 477 77 459 107 C433 153 424 190 420 277 L674 277 C671 338 663 367 640 398 C612 437 565 460 514 460 C459 460 425 440 384 384 C334 440 294 460 232 460 C182 460 139 444 105 412 C59 369 30 294 30 218 C30 85 115 -10 236 -10 C304 -10 345 16 383 85 C413 17 449 -10 511 -10 C589 -10 638 31 690 139 L679 145 Z M229 431 C302 431 343 348 343 199 C343 79 308 16 240 16 C161 16 120 102 120 271 C120 323 134 377 154 398 C176 420 200 431 229 431 L229 431 Z M419 307 C420 390 447 431 500 431 C546 431 579 390 579 334 L579 307 L419 307 Z " />
<glyph glyph-name="Racute" unicode="&#x154;" horiz-adv-x="667" d="M659 19 C621 22 601 32 572 66 L366 319 C493 344 547 394 547 486 C547 529 534 566 508 595 C470 636 387 662 293 662 L17 662 L17 643 C91 635 101 626 102 553 L102 120 C101 35 92 25 17 19 L17 0 L294 0 L294 19 C217 24 205 36 204 109 L204 306 L260 308 L498 0 L659 0 L659 19 Z M204 589 C204 617 215 625 255 625 C380 625 438 582 438 488 C438 438 417 396 381 377 C335 351 300 345 204 343 L204 589 Z M268 719 L422 816 C443 829 452 842 452 858 C452 878 439 890 418 890 C402 890 394 885 375 867 L228 719 L268 719 Z " />
<glyph glyph-name="racute" unicode="&#x155;" horiz-adv-x="333" d="M5 0 L245 0 L245 15 C178 17 162 31 160 90 L160 315 C160 347 202 397 230 397 C236 397 245 392 256 382 C272 367 283 362 296 362 C320 362 335 379 335 407 C335 440 314 460 280 460 C238 460 209 438 160 366 L160 458 L155 460 C102 438 66 425 7 406 L7 390 C21 393 30 394 42 394 C67 394 76 378 76 334 L76 84 C74 32 68 26 5 15 L5 0 Z M156 507 L310 604 C331 617 340 630 340 646 C340 666 327 678 306 678 C290 678 282 673 263 655 L116 507 L156 507 Z " />
<glyph glyph-name="Rcommaaccent" unicode="&#x156;" horiz-adv-x="667" d="M659 19 C621 22 601 32 572 66 L366 319 C493 344 547 394 547 486 C547 529 534 566 508 595 C470 636 387 662 293 662 L17 662 L17 643 C91 635 101 626 102 553 L102 120 C101 35 92 25 17 19 L17 0 L294 0 L294 19 C217 24 205 36 204 109 L204 306 L260 308 L498 0 L659 0 L659 19 Z M204 589 C204 617 215 625 255 625 C380 625 438 582 438 488 C438 438 417 396 381 377 C335 351 300 345 204 343 L204 589 Z M309 -281 C376 -248 421 -187 421 -127 C421 -77 386 -38 341 -38 C306 -38 282 -61 282 -95 C282 -127 304 -146 341 -146 C348 -146 355 -145 361 -144 C366 -142 367 -142 368 -142 C376 -142 382 -148 382 -156 C382 -188 354 -224 300 -262 L309 -281 Z " />
<glyph glyph-name="rcommaaccent" unicode="&#x157;" horiz-adv-x="333" d="M5 0 L245 0 L245 15 C178 17 162 31 160 90 L160 315 C160 347 202 397 230 397 C236 397 245 392 256 382 C272 367 283 362 296 362 C320 362 335 379 335 407 C335 440 314 460 280 460 C238 460 209 438 160 366 L160 458 L155 460 C102 438 66 425 7 406 L7 390 C21 393 30 394 42 394 C67 394 76 378 76 334 L76 84 C74 32 68 26 5 15 L5 0 Z M84 -281 C151 -248 196 -187 196 -127 C196 -77 161 -38 116 -38 C81 -38 57 -61 57 -95 C57 -127 79 -146 116 -146 C123 -146 130 -145 136 -144 C141 -142 142 -142 143 -142 C151 -142 157 -148 157 -156 C157 -188 129 -225 75 -262 L84 -281 Z " />
<glyph glyph-name="Rcaron" unicode="&#x158;" horiz-adv-x="667" d="M659 19 C621 22 601 32 572 66 L366 319 C493 344 547 394 547 486 C547 529 534 566 508 595 C470 636 387 662 293 662 L17 662 L17 643 C91 635 101 626 102 553 L102 120 C101 35 92 25 17 19 L17 0 L294 0 L294 19 C217 24 205 36 204 109 L204 306 L260 308 L498 0 L659 0 L659 19 Z M204 589 C204 617 215 625 255 625 C380 625 438 582 438 488 C438 438 417 396 381 377 C335 351 300 345 204 343 L204 589 Z M440 886 L406 886 L284 783 L163 886 L129 886 L253 719 L315 719 L440 886 Z " />
<glyph glyph-name="rcaron" unicode="&#x159;" horiz-adv-x="333" d="M5 0 L245 0 L245 15 C178 17 162 31 160 90 L160 315 C160 347 202 397 230 397 C236 397 245 392 256 382 C272 367 283 362 296 362 C320 362 335 379 335 407 C335 440 314 460 280 460 C238 460 209 438 160 366 L160 458 L155 460 C102 438 66 425 7 406 L7 390 C21 393 30 394 42 394 C67 394 76 378 76 334 L76 84 C74 32 68 26 5 15 L5 0 Z M322 674 L288 674 L166 571 L45 674 L11 674 L135 507 L197 507 L322 674 Z " />
<glyph glyph-name="Sacute" unicode="&#x15a;" horiz-adv-x="556" d="M447 676 L426 676 C422 653 411 642 394 642 C384 642 367 646 350 654 C313 668 276 676 243 676 C201 676 157 659 124 630 C89 599 71 557 71 505 C71 425 115 369 227 310 C299 271 351 231 376 193 C385 180 390 159 390 134 C390 68 340 22 267 22 C177 22 115 77 65 199 L42 199 L72 -13 L94 -13 C95 6 107 20 122 20 C133 20 150 16 169 9 C207 -6 248 -14 287 -14 C403 -14 491 65 491 168 C491 250 436 315 304 387 C199 444 157 488 157 543 C157 598 199 635 261 635 C306 635 348 616 383 580 C414 548 428 522 444 463 L469 463 L447 676 Z M245 719 L399 816 C420 829 429 842 429 858 C429 878 416 890 394 890 C379 890 370 885 352 867 L205 719 L245 719 Z " />
<glyph glyph-name="sacute" unicode="&#x15b;" horiz-adv-x="389" d="M315 314 L311 451 L300 451 C294 443 289 440 284 440 C278 440 268 442 257 447 C234 455 211 460 187 460 C108 460 51 408 51 336 C51 280 83 240 168 192 L226 159 C261 139 278 115 278 84 C278 40 246 12 195 12 C126 12 91 50 68 152 L52 152 L52 -4 L65 -4 C72 6 76 8 88 8 C99 8 111 6 134 0 C161 -6 187 -10 207 -10 C285 -10 348 48 348 118 C348 168 325 201 264 237 L156 301 C128 317 113 342 113 369 C113 410 144 437 190 437 C247 437 277 404 300 314 L315 314 Z M154 507 L308 604 C329 617 338 630 338 646 C338 666 325 678 303 678 C288 678 279 673 261 655 L114 507 L154 507 Z " />
<glyph glyph-name="Scircumflex" unicode="&#x15c;" horiz-adv-x="556" d="M105 0 C112 20 120 27 136 27 C145 27 158 24 173 19 C255 -7 255 -7 294 -7 C408 -7 490 69 490 176 C490 253 443 314 341 373 L264 418 C202 453 167 495 167 535 C167 587 211 625 271 625 C310 625 342 612 366 587 C392 560 408 527 431 452 L449 452 L449 662 L429 662 C421 645 413 638 401 638 C392 638 389 639 349 652 C310 665 288 669 258 669 C153 669 82 599 82 497 C82 426 120 375 212 321 L290 277 C311 264 335 246 354 227 C382 198 393 174 393 143 C393 83 343 36 278 36 C226 36 174 65 143 113 C122 144 113 170 106 224 L86 224 L86 0 L105 0 Z M442 719 L317 886 L255 886 L131 719 L165 719 L286 822 L408 719 L442 719 Z " />
<glyph glyph-name="scircumflex" unicode="&#x15d;" horiz-adv-x="389" d="M315 314 L311 451 L300 451 C294 443 289 440 284 440 C278 440 268 442 257 447 C234 455 211 460 187 460 C108 460 51 408 51 336 C51 280 83 240 168 192 L226 159 C261 139 278 115 278 84 C278 40 246 12 195 12 C126 12 91 50 68 152 L52 152 L52 -4 L65 -4 C72 6 76 8 88 8 C99 8 111 6 134 0 C161 -6 187 -10 207 -10 C285 -10 348 48 348 118 C348 168 325 201 264 237 L156 301 C128 317 113 342 113 369 C113 410 144 437 190 437 C247 437 277 404 300 314 L315 314 Z M353 507 L228 674 L166 674 L42 507 L76 507 L197 610 L319 507 L353 507 Z " />
<glyph glyph-name="Scedilla" unicode="&#x15e;" horiz-adv-x="556" d="M280 -14 L289 -14 C403 -14 491 66 491 168 C491 250 436 315 304 387 C199 444 157 488 157 543 C157 598 199 635 261 635 C306 635 348 616 383 580 C414 548 428 522 444 463 L469 463 L447 676 L426 676 C422 653 411 642 394 642 C384 642 367 646 350 654 C313 668 276 676 243 676 C201 676 157 659 124 630 C89 599 71 557 71 505 C71 425 115 369 227 310 C299 271 351 231 376 193 C385 180 390 159 390 134 C390 68 340 22 267 22 C177 22 115 77 65 199 L42 199 L72 -13 L94 -13 C95 6 107 20 122 20 C133 20 150 16 169 9 C195 -2 218 -7 246 -11 L210 -99 L217 -104 C225 -101 232 -100 245 -100 C283 -100 298 -110 298 -136 C298 -163 277 -180 243 -180 C222 -180 205 -177 178 -168 L164 -199 C192 -211 216 -215 248 -215 C325 -215 373 -183 373 -131 C373 -87 341 -62 287 -62 C277 -62 270 -63 261 -65 L280 -14 Z " />
<glyph glyph-name="scedilla" unicode="&#x15f;" horiz-adv-x="389" d="M198 -10 L209 -10 C285 -10 348 48 348 118 C348 168 325 201 264 237 L156 301 C128 317 113 342 113 369 C113 410 144 437 190 437 C247 437 277 404 300 314 L315 314 L311 451 L300 451 C294 443 289 440 284 440 C278 440 268 442 257 447 C234 455 211 460 187 460 C108 460 51 408 51 336 C51 280 83 240 168 192 L226 159 C261 139 278 115 278 84 C278 40 246 12 195 12 C126 12 91 50 68 152 L52 152 L52 -4 L65 -4 C72 6 76 8 88 8 C99 8 110 6 134 0 C146 -2 152 -4 165 -6 L126 -99 L133 -104 C141 -101 149 -100 161 -100 C199 -100 214 -110 214 -136 C214 -163 193 -180 159 -180 C138 -180 121 -177 94 -168 L80 -199 C109 -210 133 -215 164 -215 C241 -215 289 -183 289 -131 C289 -87 257 -62 203 -62 C193 -62 187 -63 177 -65 L198 -10 Z " />
<glyph glyph-name="Scaron" unicode="&#x160;" horiz-adv-x="556" d="M447 676 L426 676 C422 653 411 642 394 642 C384 642 367 646 350 654 C313 668 276 676 243 676 C201 676 157 659 124 630 C89 599 71 557 71 505 C71 425 115 369 227 310 C299 271 351 231 376 193 C385 180 390 159 390 134 C390 68 340 22 267 22 C177 22 115 77 65 199 L42 199 L72 -13 L94 -13 C95 6 107 20 122 20 C133 20 150 16 169 9 C207 -6 248 -14 287 -14 C403 -14 491 65 491 168 C491 250 436 315 304 387 C199 444 157 488 157 543 C157 598 199 635 261 635 C306 635 348 616 383 580 C414 548 428 522 444 463 L469 463 L447 676 Z M434 886 L400 886 L278 783 L157 886 L123 886 L247 719 L309 719 L434 886 Z " />
<glyph glyph-name="scaron" unicode="&#x161;" horiz-adv-x="389" d="M315 314 L311 451 L300 451 C294 443 289 440 284 440 C278 440 268 442 257 447 C234 455 211 460 187 460 C108 460 51 408 51 336 C51 280 83 240 168 192 L226 159 C261 139 278 115 278 84 C278 40 246 12 195 12 C126 12 91 50 68 152 L52 152 L52 -4 L65 -4 C72 6 76 8 88 8 C99 8 111 6 134 0 C161 -6 187 -10 207 -10 C285 -10 348 48 348 118 C348 168 325 201 264 237 L156 301 C128 317 113 342 113 369 C113 410 144 437 190 437 C247 437 277 404 300 314 L315 314 Z M350 674 L316 674 L194 571 L73 674 L39 674 L163 507 L225 507 L350 674 Z " />
<glyph glyph-name="Tcommaaccent" unicode="&#x162;" horiz-adv-x="611" d="M452 19 C370 23 357 36 356 109 L356 620 L410 620 C526 618 547 601 569 492 L593 492 L587 662 L23 662 L17 492 L41 492 C64 601 85 618 200 620 L254 620 L254 120 C253 34 244 24 160 19 L160 0 L452 0 L452 19 Z M263 -281 C330 -248 375 -187 375 -127 C375 -77 340 -38 295 -38 C260 -38 236 -61 236 -95 C236 -127 258 -146 295 -146 C302 -146 309 -145 315 -144 C320 -142 321 -142 322 -142 C330 -142 336 -148 336 -156 C336 -188 308 -225 254 -262 L263 -281 Z " />
<glyph glyph-name="tcommaaccent" unicode="&#x163;" horiz-adv-x="278" d="M255 450 L154 450 L154 566 C154 576 152 579 147 579 C89 495 59 461 30 444 C19 437 13 431 13 425 C13 422 14 420 17 418 L70 418 L70 117 C70 33 100 -10 159 -10 C208 -10 246 14 279 66 L266 77 C244 51 228 42 206 42 C169 42 154 69 154 132 L154 418 L255 418 L255 450 Z M106 -281 C173 -248 218 -187 218 -127 C218 -77 183 -38 138 -38 C103 -38 79 -61 79 -95 C79 -127 101 -146 138 -146 C145 -146 152 -145 158 -144 C163 -142 164 -142 165 -142 C173 -142 179 -148 179 -156 C179 -189 151 -225 97 -262 L106 -281 Z " />
<glyph glyph-name="Tcaron" unicode="&#x164;" horiz-adv-x="611" d="M452 19 C370 23 357 36 356 109 L356 620 L410 620 C526 618 547 601 569 492 L593 492 L587 662 L23 662 L17 492 L41 492 C64 601 85 618 200 620 L254 620 L254 120 C253 34 244 24 160 19 L160 0 L452 0 L452 19 Z M461 886 L427 886 L305 783 L184 886 L150 886 L274 719 L336 719 L461 886 Z " />
<glyph glyph-name="tcaron" unicode="&#x165;" horiz-adv-x="326" d="M305 429 L334 450 C386 489 416 538 416 587 C416 637 381 676 336 676 C301 676 277 653 277 619 C277 587 299 568 336 568 C343 568 350 569 356 570 C361 572 362 572 363 572 C371 572 377 566 377 558 C377 525 349 489 295 452 L305 429 Z M257 450 L156 450 L156 566 C156 576 154 579 149 579 C91 495 61 461 32 444 C21 437 15 431 15 425 C15 422 16 420 19 418 L72 418 L72 117 C72 33 102 -10 161 -10 C210 -10 248 14 281 66 L268 77 C246 51 230 42 208 42 C171 42 156 69 156 132 L156 418 L257 418 L257 450 Z " />
<glyph glyph-name="Tbar" unicode="&#x166;" horiz-adv-x="611" d="M254 316 L254 120 C253 34 244 24 160 19 L160 0 L452 0 L452 19 C370 23 357 35 356 109 L356 316 L461 316 L461 350 L356 350 L356 620 L410 620 C526 618 547 601 569 492 L593 492 L587 662 L23 662 L17 492 L41 492 C64 601 85 618 200 620 L254 620 L254 350 L150 350 L150 316 L254 316 Z " />
<glyph glyph-name="tbar" unicode="&#x167;" horiz-adv-x="278" d="M154 317 L154 418 L255 418 L255 450 L154 450 L154 566 C154 576 152 579 147 579 C89 495 59 461 30 444 C19 437 13 431 13 425 C13 422 14 420 17 418 L70 418 L70 317 L0 317 L0 283 L70 283 L70 117 C70 33 100 -10 159 -10 C208 -10 246 14 279 66 L266 77 C244 51 228 42 206 42 C169 42 154 69 154 132 L154 283 L278 283 L278 317 L154 317 Z " />
<glyph glyph-name="Utilde" unicode="&#x168;" horiz-adv-x="722" d="M705 662 L473 662 L473 643 C550 638 565 618 567 515 L567 245 C567 177 560 139 544 109 C517 61 453 30 378 30 C307 30 258 54 231 101 C213 133 206 170 206 233 L206 553 C207 626 217 636 297 643 L297 662 L14 662 L14 643 C93 637 103 627 104 553 L104 241 C104 68 185 -14 355 -14 C464 -14 539 21 578 89 C602 131 611 177 611 254 L611 515 C613 620 624 634 705 643 L705 662 Z M527 848 C510 810 497 798 474 798 C459 798 440 803 421 813 L397 825 C374 836 349 843 328 843 C277 843 241 807 226 742 L255 742 C267 773 283 788 307 788 C317 788 333 784 347 777 L370 766 C410 747 426 742 451 742 C506 742 536 771 556 848 L527 848 Z " />
<glyph glyph-name="utilde" unicode="&#x169;" horiz-adv-x="500" d="M412 457 L252 457 L252 440 L276 440 C325 438 333 424 333 334 L333 117 C277 69 259 59 224 59 C174 59 155 89 155 168 L155 457 L5 457 L5 440 L19 440 C68 438 76 424 76 334 L76 165 C76 111 80 82 92 54 C109 14 142 -7 187 -7 C222 -7 256 7 283 32 C298 46 303 51 333 84 L333 -10 C402 19 412 23 485 46 L479 63 C467 60 460 59 452 59 C418 59 412 78 412 175 L412 457 Z M372 638 C355 600 342 588 319 588 C305 588 285 594 266 603 L242 615 C219 627 194 633 173 633 C122 633 86 597 71 532 L100 532 C112 563 128 578 152 578 C163 578 178 574 192 567 L215 556 C257 536 271 532 296 532 C351 532 381 562 401 638 L372 638 Z " />
<glyph glyph-name="Umacron" unicode="&#x16a;" horiz-adv-x="722" d="M705 662 L473 662 L473 643 C550 638 565 618 567 515 L567 245 C567 177 560 139 544 109 C517 61 453 30 378 30 C307 30 258 54 231 101 C213 133 206 170 206 233 L206 553 C207 626 217 636 297 643 L297 662 L14 662 L14 643 C93 637 103 627 104 553 L104 241 C104 68 185 -14 355 -14 C464 -14 539 21 578 89 C602 131 611 177 611 254 L611 515 C613 620 624 634 705 643 L705 662 Z M226 813 L226 759 L537 759 L537 813 L226 813 Z " />
<glyph glyph-name="umacron" unicode="&#x16b;" horiz-adv-x="500" d="M479 50 L474 50 C425 52 418 60 417 107 L417 450 L259 450 L259 433 C321 430 333 420 333 370 L333 135 C333 107 328 93 314 82 C287 60 256 48 226 48 C187 48 155 82 155 124 L155 450 L9 450 L9 436 C56 434 70 420 71 372 L71 120 C71 41 119 -10 192 -10 C229 -10 268 6 295 33 L338 76 L338 -7 L342 -9 C392 11 428 22 479 36 L479 50 Z M74 601 L74 547 L385 547 L385 601 L74 601 Z " />
<glyph glyph-name="Ubreve" unicode="&#x16c;" horiz-adv-x="722" d="M705 662 L473 662 L473 643 C550 638 565 618 567 515 L567 245 C567 177 560 139 544 109 C517 61 453 30 378 30 C307 30 258 54 231 101 C213 133 206 170 206 233 L206 553 C207 626 217 636 297 643 L297 662 L14 662 L14 643 C93 637 103 627 104 553 L104 241 C104 68 185 -14 355 -14 C464 -14 539 21 578 89 C602 131 611 177 611 254 L611 515 C613 620 624 634 705 643 L705 662 Z M498 875 C469 799 445 778 387 778 C322 778 288 808 275 875 L246 875 C247 824 253 800 273 772 C298 737 337 718 385 718 C468 718 514 769 527 875 L498 875 Z " />
<glyph glyph-name="ubreve" unicode="&#x16d;" horiz-adv-x="500" d="M412 457 L252 457 L252 440 L276 440 C325 438 333 424 333 334 L333 117 C277 69 259 59 224 59 C174 59 155 89 155 168 L155 457 L5 457 L5 440 L19 440 C68 438 76 424 76 334 L76 165 C76 111 80 82 92 54 C109 14 142 -7 187 -7 C222 -7 256 7 283 32 C298 46 303 51 333 84 L333 -10 C402 19 412 23 485 46 L479 63 C467 60 460 59 452 59 C418 59 412 78 412 175 L412 457 Z M333 640 C317 606 277 583 234 583 C190 583 151 606 134 640 L111 640 C119 607 125 593 136 575 C156 543 194 523 234 523 C274 523 312 543 332 575 C342 593 348 607 357 640 L333 640 Z " />
<glyph glyph-name="Uring" unicode="&#x16e;" horiz-adv-x="722" d="M705 662 L473 662 L473 643 C550 638 565 618 567 515 L567 245 C567 177 560 139 544 109 C517 61 453 30 378 30 C307 30 258 54 231 101 C213 133 206 170 206 233 L206 553 C207 626 217 636 297 643 L297 662 L14 662 L14 643 C93 637 103 627 104 553 L104 241 C104 68 185 -14 355 -14 C464 -14 539 21 578 89 C602 131 611 177 611 254 L611 515 C613 620 624 634 705 643 L705 662 Z M381 923 C327 923 282 878 282 824 C282 768 325 724 381 724 C436 724 481 768 481 823 C481 878 436 923 381 923 L381 923 Z M382 889 C417 889 447 859 447 823 C447 787 418 758 380 758 C345 758 316 787 316 824 C316 860 346 889 382 889 L382 889 Z " />
<glyph glyph-name="uring" unicode="&#x16f;" horiz-adv-x="500" d="M479 50 L474 50 C425 52 418 60 417 107 L417 450 L259 450 L259 433 C321 430 333 420 333 370 L333 135 C333 107 328 93 314 82 C287 60 256 48 226 48 C187 48 155 82 155 124 L155 450 L9 450 L9 436 C56 434 70 420 71 372 L71 120 C71 41 119 -10 192 -10 C229 -10 268 6 295 33 L338 76 L338 -7 L342 -9 C392 11 428 22 479 36 L479 50 Z M235 711 C181 711 136 666 136 612 C136 556 179 512 235 512 C290 512 335 556 335 611 C335 666 290 711 235 711 L235 711 Z M236 677 C271 677 301 647 301 611 C301 575 272 546 234 546 C199 546 170 575 170 612 C170 648 200 677 236 677 L236 677 Z " />
<glyph glyph-name="Uhungarumlaut" unicode="&#x170;" horiz-adv-x="722" d="M705 662 L473 662 L473 643 C550 638 565 618 567 515 L567 245 C567 177 560 139 544 109 C517 61 453 30 378 30 C307 30 258 54 231 101 C213 133 206 170 206 233 L206 553 C207 626 217 636 297 643 L297 662 L14 662 L14 643 C93 637 103 627 104 553 L104 241 C104 68 185 -14 355 -14 C464 -14 539 21 578 89 C602 131 611 177 611 254 L611 515 C613 620 624 634 705 643 L705 662 Z M466 719 L620 816 C641 829 650 842 650 858 C650 878 637 890 615 890 C600 890 591 885 573 867 L426 719 L466 719 Z M310 719 L464 816 C485 829 494 842 494 858 C494 878 481 890 459 890 C444 890 435 885 417 867 L270 719 L310 719 Z " />
<glyph glyph-name="uhungarumlaut" unicode="&#x171;" horiz-adv-x="500" d="M479 50 L474 50 C425 52 418 60 417 107 L417 450 L259 450 L259 433 C321 430 333 420 333 370 L333 135 C333 107 328 93 314 82 C287 60 256 48 226 48 C187 48 155 82 155 124 L155 450 L9 450 L9 436 C56 434 70 420 71 372 L71 120 C71 41 119 -10 192 -10 C229 -10 268 6 295 33 L338 76 L338 -7 L342 -9 C392 11 428 22 479 36 L479 50 Z M281 507 L435 604 C456 617 465 630 465 646 C465 666 452 678 430 678 C415 678 406 673 388 655 L241 507 L281 507 Z M125 507 L279 604 C300 617 309 630 309 646 C309 666 296 678 274 678 C259 678 250 673 232 655 L85 507 L125 507 Z " />
<glyph glyph-name="Uogonek" unicode="&#x172;" horiz-adv-x="722" d="M705 662 L473 662 L473 643 C550 638 565 618 567 515 L567 245 C567 177 560 139 544 109 C517 61 453 30 378 30 C307 30 258 54 231 101 C213 133 206 170 206 233 L206 553 C207 626 217 636 297 643 L297 662 L14 662 L14 643 C93 637 103 627 104 553 L104 241 C104 69 185 -14 353 -14 C387 -14 416 -10 449 -3 C414 -32 399 -57 399 -90 C399 -132 430 -165 472 -165 C513 -165 547 -142 584 -89 L564 -73 C532 -100 514 -109 493 -109 C471 -109 455 -93 455 -71 C455 -40 472 -12 514 23 C594 89 609 125 611 254 L611 515 C613 620 624 634 705 643 L705 662 Z " />
<glyph glyph-name="uogonek" unicode="&#x173;" horiz-adv-x="500" d="M479 50 L474 50 C425 52 418 60 417 107 L417 450 L259 450 L259 433 C321 430 333 420 333 370 L333 135 C333 107 328 93 314 82 C287 60 256 48 226 48 C187 48 155 82 155 124 L155 450 L9 450 L9 436 C56 434 70 420 71 372 L71 120 C71 41 119 -10 192 -10 C229 -10 268 6 295 33 L338 76 L338 -29 C321 -52 315 -68 315 -89 C315 -132 346 -165 388 -165 C429 -165 463 -142 500 -89 L480 -73 C449 -100 430 -109 409 -109 C387 -109 371 -93 371 -70 C371 -46 389 -16 415 6 C435 23 449 29 479 36 L479 50 Z " />
<glyph glyph-name="Wcircumflex" unicode="&#x174;" horiz-adv-x="944" d="M323 -10 L333 -10 L481 403 L635 -10 L646 -10 L813 484 C856 614 879 645 930 644 L930 662 L734 662 L734 644 L746 643 C784 639 799 626 799 596 C799 586 797 577 789 555 L666 200 L535 543 C526 567 521 588 521 603 C521 628 539 643 572 644 L589 644 L589 662 L333 662 L333 644 L347 644 C380 642 396 627 416 577 L454 474 L354 200 L225 563 C217 585 215 595 215 606 C215 631 228 642 258 643 L271 644 L271 662 L32 662 L32 644 L39 644 C77 638 89 623 115 552 L323 -10 Z M637 719 L512 886 L450 886 L326 719 L360 719 L481 822 L603 719 L637 719 Z " />
<glyph glyph-name="wcircumflex" unicode="&#x175;" horiz-adv-x="722" d="M571 450 L571 435 C605 428 615 421 615 404 C615 389 609 364 598 338 L508 116 L424 340 C407 386 407 386 407 399 C407 421 418 428 465 435 L465 450 L262 450 L262 435 C299 431 311 420 331 366 C338 347 345 328 351 310 L260 111 L161 372 C157 382 155 392 155 402 C155 423 166 431 201 435 L201 450 L21 450 L21 435 C44 433 52 423 74 372 L209 30 C221 -1 229 -14 235 -14 C240 -14 248 -2 260 25 L372 265 L463 29 C478 -9 480 -14 487 -14 C494 -14 499 -5 515 35 L653 381 C671 423 674 428 694 435 L694 450 L571 450 Z M519 507 L394 674 L332 674 L208 507 L242 507 L363 610 L485 507 L519 507 Z " />
<glyph glyph-name="Ycircumflex" unicode="&#x176;" horiz-adv-x="722" d="M315 282 L315 103 C315 40 300 21 246 19 L221 18 L221 0 L519 0 L519 18 L492 19 C439 21 423 40 423 103 L423 282 L567 524 C617 610 651 640 704 643 L715 644 L715 662 L492 662 L492 644 L513 643 C540 643 554 633 554 615 C554 602 549 588 532 560 L403 342 L273 547 C254 577 246 596 246 612 C246 634 264 644 301 644 L315 644 L315 662 L14 662 L14 644 L37 642 C87 635 110 615 152 542 L315 282 Z M553 719 L428 886 L366 886 L242 719 L276 719 L397 822 L519 719 L553 719 Z " />
<glyph glyph-name="ycircumflex" unicode="&#x177;" horiz-adv-x="500" d="M236 16 C213 -46 190 -76 168 -76 C165 -76 159 -75 153 -72 C130 -62 116 -58 104 -58 C78 -58 52 -83 52 -108 C52 -136 81 -158 118 -158 C152 -158 181 -145 208 -118 C232 -94 252 -55 282 23 L404 348 C431 421 438 432 469 439 L479 440 L479 457 L336 457 L336 440 L341 440 C366 440 379 431 379 411 C379 398 374 379 360 341 L282 127 L195 345 C181 381 176 397 176 408 C176 430 188 440 215 440 L223 440 L223 457 L27 457 L27 440 L42 439 C76 434 76 433 130 295 L236 16 Z M420 507 L295 674 L233 674 L109 507 L143 507 L264 610 L386 507 L420 507 Z " />
<glyph glyph-name="Ydieresis" unicode="&#x178;" horiz-adv-x="722" d="M703 662 L484 662 L484 643 C536 642 553 634 553 610 C553 600 549 588 539 573 L396 347 L248 569 C237 585 231 602 231 613 C231 632 245 640 277 642 C281 642 291 642 302 643 L302 662 L22 662 L22 643 C70 641 84 627 184 486 L315 294 L315 120 C314 32 305 23 214 19 L214 0 L520 0 L520 19 C431 21 418 32 417 109 L417 303 L565 529 C626 617 652 639 703 643 L703 662 Z M294 835 C268 835 246 812 246 786 C246 757 267 735 294 735 C321 735 344 757 344 785 C344 812 321 835 294 835 L294 835 Z M493 835 C467 835 445 812 445 786 C445 757 466 735 493 735 C520 735 543 757 543 785 C543 812 520 835 493 835 L493 835 Z " />
<glyph glyph-name="Zacute" unicode="&#x179;" horiz-adv-x="611" d="M574 176 C544 69 510 42 402 38 L145 38 L577 647 L577 662 L51 662 L31 491 L57 491 C74 592 110 621 225 624 L446 624 L9 15 L9 0 L573 0 L597 176 L574 176 Z M290 719 L444 816 C465 829 474 842 474 858 C474 878 461 890 439 890 C424 890 415 885 397 867 L250 719 L290 719 Z " />
<glyph glyph-name="zacute" unicode="&#x17a;" horiz-adv-x="444" d="M418 135 L400 139 C382 45 368 33 272 30 L134 30 L403 435 L403 450 L56 450 L53 332 L71 332 C79 403 93 418 155 420 L293 420 L27 15 L27 0 L404 0 L418 135 Z M196 507 L350 604 C371 617 380 630 380 646 C380 666 367 678 345 678 C330 678 321 673 303 655 L156 507 L196 507 Z " />
<glyph glyph-name="Zdotaccent" unicode="&#x17b;" horiz-adv-x="611" d="M574 176 C544 69 510 42 402 38 L145 38 L577 647 L577 662 L51 662 L31 491 L57 491 C74 592 110 621 225 624 L446 624 L9 15 L9 0 L573 0 L597 176 L574 176 Z M323 835 C297 835 275 812 275 786 C275 757 296 735 323 735 C350 735 373 757 373 785 C373 812 350 835 323 835 L323 835 Z " />
<glyph glyph-name="zdotaccent" unicode="&#x17c;" horiz-adv-x="444" d="M418 135 L400 139 C382 45 368 33 272 30 L134 30 L403 435 L403 450 L56 450 L53 332 L71 332 C79 403 93 418 155 420 L293 420 L27 15 L27 0 L404 0 L418 135 Z M233 623 C207 623 185 600 185 574 C185 545 206 523 233 523 C260 523 283 545 283 573 C283 600 260 623 233 623 L233 623 Z " />
<glyph glyph-name="Zcaron" unicode="&#x17d;" horiz-adv-x="611" d="M574 176 C544 69 510 42 402 38 L145 38 L577 647 L577 662 L51 662 L31 491 L57 491 C74 592 110 621 225 624 L446 624 L9 15 L9 0 L573 0 L597 176 L574 176 Z M479 886 L445 886 L323 783 L202 886 L168 886 L292 719 L354 719 L479 886 Z " />
<glyph glyph-name="zcaron" unicode="&#x17e;" horiz-adv-x="444" d="M418 135 L400 139 C382 45 368 33 272 30 L134 30 L403 435 L403 450 L56 450 L53 332 L71 332 C79 403 93 418 155 420 L293 420 L27 15 L27 0 L404 0 L418 135 Z M383 674 L349 674 L227 571 L106 674 L72 674 L196 507 L258 507 L383 674 Z " />
<glyph glyph-name="longs" unicode="&#x17f;" horiz-adv-x="278" d="M252 15 C170 19 159 29 159 104 L159 566 C159 624 178 655 215 655 C237 655 250 645 268 616 C284 590 296 580 314 580 C337 580 355 598 355 621 C355 657 311 683 251 683 C189 683 136 656 110 610 C84 566 76 530 75 450 L30 450 L30 418 L75 418 L75 104 C73 29 63 18 -8 15 L-8 0 L252 0 L252 15 Z " />
<glyph glyph-name="florin" unicode="&#x192;" horiz-adv-x="500" d="M195 410 L176 323 C163 265 161 259 134 123 C91 -89 91 -89 62 -141 C48 -166 24 -183 3 -183 C-5 -183 -12 -178 -12 -173 C-12 -170 -11 -167 -9 -163 C-5 -153 -3 -147 -3 -140 C-3 -120 -23 -103 -45 -103 C-71 -103 -88 -120 -88 -146 C-88 -185 -54 -211 -5 -211 C49 -211 97 -180 130 -123 C165 -62 198 36 223 151 L279 410 L391 410 L400 450 L291 450 L306 519 C326 609 364 664 405 664 C415 664 423 659 423 651 C423 648 423 647 420 638 C417 630 416 625 416 619 C416 598 434 581 458 581 C484 581 501 598 501 626 C501 666 467 692 413 692 C372 692 339 679 309 651 C268 612 241 560 205 450 L112 450 L102 410 L195 410 Z " />
<glyph glyph-name="Aringacute" unicode="&#x1fa;" horiz-adv-x="722" d="M706 19 C661 22 651 32 616 106 L367 674 L347 674 L139 183 C75 37 63 21 15 19 L15 0 L213 0 L213 19 C165 19 145 31 145 60 C145 72 148 86 153 99 L199 216 L461 216 L502 120 C514 93 521 67 521 53 C521 28 504 20 451 19 L451 0 L706 0 L706 19 Z M216 257 L331 532 L447 257 L216 257 Z M351 881 C297 881 252 836 252 782 C252 726 295 682 351 682 C406 682 451 726 451 781 C451 836 406 881 351 881 L351 881 Z M352 847 C387 847 417 817 417 781 C417 745 388 716 350 716 C315 716 286 745 286 782 C286 818 316 847 352 847 L352 847 Z M297 882 L451 979 C472 992 481 1005 481 1021 C481 1041 468 1053 447 1053 C431 1053 423 1048 404 1030 L257 882 L297 882 Z " />
<glyph glyph-name="aringacute" unicode="&#x1fb;" horiz-adv-x="444" d="M442 66 C425 52 413 47 398 47 C375 47 368 61 368 105 L368 300 C368 352 363 381 348 405 C326 441 283 460 224 460 C130 460 56 411 56 348 C56 325 75 305 99 305 C123 305 144 325 144 347 C144 351 143 356 142 363 C140 372 139 380 139 387 C139 414 171 436 211 436 C260 436 287 407 287 353 L287 292 C133 230 116 222 73 184 C51 164 37 130 37 97 C37 34 81 -10 142 -10 C186 -10 227 11 288 63 C293 10 311 -10 352 -10 C386 -10 407 2 442 40 L442 66 Z M287 123 C287 93 282 82 261 70 C236 56 209 48 188 48 C153 48 125 82 125 125 L125 129 C126 189 170 227 287 268 L287 123 Z M222 722 C168 722 123 677 123 623 C123 567 166 523 222 523 C277 523 322 567 322 622 C322 677 277 722 222 722 L222 722 Z M223 688 C258 688 288 658 288 622 C288 586 259 557 221 557 C186 557 157 586 157 623 C157 659 187 688 223 688 L223 688 Z M171 756 L325 853 C346 866 355 879 355 895 C355 915 342 927 320 927 C305 927 296 922 278 904 L131 756 L171 756 Z " />
<glyph glyph-name="AEacute" unicode="&#x1fc;" horiz-adv-x="889" d="M816 521 L816 662 L252 662 L252 642 C317 640 342 631 342 609 C342 603 339 592 333 581 L88 97 C55 36 43 25 0 19 L0 0 L199 0 L199 19 L198 19 C155 23 130 34 130 49 C130 71 153 129 194 207 L222 260 L398 260 L398 108 C396 39 389 30 326 21 L309 19 L309 0 L819 0 L863 168 L839 168 C781 58 754 40 642 38 L566 38 C535 38 509 42 505 47 C500 50 497 67 497 91 L497 329 L642 329 C713 327 733 306 740 229 L761 229 L761 463 L740 463 C733 383 713 368 608 366 L497 366 L497 596 C498 619 504 626 524 626 L611 626 C756 626 781 612 793 521 L816 521 Z M239 299 L398 618 L398 299 L239 299 Z M441 731 L595 828 C616 841 625 854 625 870 C625 890 612 902 590 902 C575 902 566 897 548 879 L401 731 L441 731 Z " />
<glyph glyph-name="aeacute" unicode="&#x1fd;" horiz-adv-x="667" d="M620 154 C572 83 533 57 476 57 C435 57 397 77 381 107 C359 146 354 177 354 277 L616 277 C604 406 557 460 456 460 C409 460 382 450 337 415 C298 449 269 460 219 460 C129 460 60 413 60 352 C60 322 77 304 104 304 C132 304 147 321 147 352 C147 356 147 363 146 369 L145 380 L145 386 C147 419 170 436 213 436 C237 436 256 428 263 414 C270 398 275 367 275 344 L273 281 L187 245 C80 201 38 160 38 100 C38 35 86 -10 154 -10 C204 -10 238 6 306 63 C340 11 377 -10 435 -10 C481 -10 523 6 558 38 C586 62 604 90 632 149 L620 154 Z M274 201 C275 164 281 127 292 91 C293 90 293 89 293 88 C293 70 228 38 192 38 C155 38 125 77 125 125 C125 185 152 209 273 253 L274 201 Z M355 307 C360 395 385 431 442 431 C496 431 519 395 521 307 L355 307 Z M302 507 L456 604 C477 617 486 630 486 646 C486 666 473 678 451 678 C436 678 427 673 409 655 L262 507 L302 507 Z " />
<glyph glyph-name="Oslashacute" unicode="&#x1fe;" horiz-adv-x="722" d="M658 734 L609 734 L537 627 C473 663 428 676 362 676 C169 676 34 533 34 330 C34 266 49 202 75 152 C93 117 109 97 151 59 L56 -80 L105 -80 L184 36 C246 -1 292 -14 359 -14 C554 -14 688 127 688 332 C688 396 673 461 646 511 C628 546 611 566 570 604 L658 734 Z M527 540 C561 475 574 419 574 330 C574 139 493 22 361 22 C303 22 262 41 219 88 L527 540 Z M194 123 C160 187 148 242 148 330 C148 521 230 640 361 640 C417 640 458 621 502 575 L194 123 Z M328 728 L482 825 C503 838 512 851 512 867 C512 887 499 899 477 899 C462 899 453 894 435 876 L288 728 L328 728 Z " />
<glyph glyph-name="oslashacute" unicode="&#x1ff;" horiz-adv-x="500" d="M437 551 L398 551 L341 442 C306 455 282 460 249 460 C120 460 29 363 29 227 C29 181 41 135 62 97 C78 70 91 55 125 28 L52 -112 L89 -112 L154 11 C189 -5 212 -10 247 -10 C374 -10 470 95 470 234 C470 282 456 331 432 368 C416 392 403 404 372 426 L437 551 Z M340 366 C369 312 380 267 380 203 C380 86 336 18 261 18 C227 18 204 30 179 60 L340 366 Z M158 92 C131 150 119 207 119 276 C119 370 166 432 237 432 C268 432 290 422 317 396 L158 92 Z M198 507 L352 604 C373 617 382 630 382 646 C382 666 369 678 347 678 C332 678 323 673 305 655 L158 507 L198 507 Z " />
<glyph glyph-name="Scommaaccent" unicode="&#x218;" horiz-adv-x="556" d="M479 464 L457 675 L434 675 C419 646 418 644 401 644 C392 644 390 645 363 656 C331 669 303 675 267 675 C156 675 78 606 78 509 C78 462 99 413 134 383 C155 363 193 337 228 317 L280 288 C360 243 396 197 396 140 C396 76 347 30 279 30 C223 30 167 57 128 104 C106 131 91 157 73 205 L49 205 L79 -9 L103 -9 C106 15 113 22 132 22 C141 22 145 21 161 15 C214 -5 250 -13 289 -13 C412 -13 501 66 501 176 C501 229 481 271 435 310 C411 332 395 343 329 382 L274 415 C188 467 166 492 166 539 C166 596 206 632 270 632 C319 632 358 614 395 574 C421 547 435 520 452 464 L479 464 Z M227 -309 C300 -270 339 -218 339 -160 C339 -104 305 -63 261 -63 C226 -63 199 -88 199 -120 C199 -149 223 -174 251 -174 C255 -174 261 -173 266 -172 C274 -170 275 -170 279 -170 C289 -170 296 -177 296 -187 C296 -219 262 -263 215 -291 L227 -309 Z " />
<glyph glyph-name="scommaaccent" unicode="&#x219;" horiz-adv-x="389" d="M321 449 L306 449 C301 438 298 436 289 436 C281 436 272 438 257 445 C233 455 217 459 195 459 C113 459 53 407 53 336 C53 276 84 242 189 185 C257 148 281 122 281 85 C281 46 248 18 202 18 C172 18 144 30 120 55 C97 78 85 105 74 154 L55 154 L55 -1 L70 -1 C74 9 81 13 94 13 C106 13 115 11 133 5 C170 -8 183 -11 207 -11 C291 -11 352 44 352 119 C352 177 325 209 228 263 C142 311 119 333 119 369 C119 404 151 431 193 431 C247 431 285 389 302 312 L321 312 L321 449 Z M145 -309 C219 -270 258 -218 258 -160 C258 -104 224 -63 180 -63 C145 -63 118 -88 118 -120 C118 -149 142 -174 170 -174 C174 -174 180 -173 185 -172 C193 -170 194 -170 198 -170 C208 -170 215 -177 215 -187 C215 -219 180 -263 134 -291 L145 -309 Z " />
<glyph glyph-name="uni021A" unicode="&#x21a;" horiz-adv-x="611" d="M452 19 C370 23 357 36 356 109 L356 620 L410 620 C526 618 547 601 569 492 L593 492 L587 662 L23 662 L17 492 L41 492 C64 601 85 618 200 620 L254 620 L254 120 C253 34 244 24 160 19 L160 0 L452 0 L452 19 Z M263 -281 C330 -248 375 -187 375 -127 C375 -77 340 -38 295 -38 C260 -38 236 -61 236 -95 C236 -127 258 -146 295 -146 C302 -146 309 -145 315 -144 C320 -142 321 -142 322 -142 C330 -142 336 -148 336 -156 C336 -188 308 -225 254 -262 L263 -281 Z " />
<glyph glyph-name="uni021B" unicode="&#x21b;" horiz-adv-x="278" d="M255 450 L154 450 L154 566 C154 576 152 579 147 579 C89 495 59 461 30 444 C19 437 13 431 13 425 C13 422 14 420 17 418 L70 418 L70 117 C70 33 100 -10 159 -10 C208 -10 246 14 279 66 L266 77 C244 51 228 42 206 42 C169 42 154 69 154 132 L154 418 L255 418 L255 450 Z M106 -281 C173 -248 218 -187 218 -127 C218 -77 183 -38 138 -38 C103 -38 79 -61 79 -95 C79 -127 101 -146 138 -146 C145 -146 152 -145 158 -144 C163 -142 164 -142 165 -142 C173 -142 179 -148 179 -156 C179 -189 151 -225 97 -262 L106 -281 Z " />
<glyph glyph-name="circumflex" unicode="&#x2c6;" horiz-adv-x="333" d="M322 507 L197 674 L135 674 L11 507 L45 507 L166 610 L288 507 L322 507 Z " />
<glyph glyph-name="caron" unicode="&#x2c7;" horiz-adv-x="333" d="M322 674 L288 674 L166 571 L45 674 L11 674 L135 507 L197 507 L322 674 Z " />
<glyph glyph-name="uni02C9" unicode="&#x2c9;" horiz-adv-x="333" d="M16 594 L16 545 L316 545 L316 594 L16 594 Z " />
<glyph glyph-name="breve" unicode="&#x2d8;" horiz-adv-x="333" d="M278 664 C249 588 225 567 167 567 C103 567 69 597 55 664 L26 664 C27 613 34 589 53 561 C78 526 117 507 165 507 C249 507 295 558 307 664 L278 664 Z " />
<glyph glyph-name="dotaccent" unicode="&#x2d9;" horiz-adv-x="333" d="M166 623 C140 623 118 600 118 574 C118 545 139 523 166 523 C193 523 216 545 216 573 C216 600 193 623 166 623 L166 623 Z " />
<glyph glyph-name="ring" unicode="&#x2da;" horiz-adv-x="333" d="M166 711 C112 711 67 666 67 612 C67 556 110 512 166 512 C221 512 266 556 266 611 C266 666 221 711 166 711 L166 711 Z M167 677 C202 677 232 647 232 611 C232 575 203 546 165 546 C130 546 101 575 101 612 C101 648 131 677 167 677 L167 677 Z " />
<glyph glyph-name="ogonek" unicode="&#x2db;" horiz-adv-x="333" d="M229 -73 C198 -100 179 -109 158 -109 C136 -109 120 -93 120 -69 C120 -46 133 -25 164 0 L118 0 C80 -30 64 -57 64 -90 C64 -132 95 -165 137 -165 C178 -165 212 -142 249 -89 L229 -73 Z " />
<glyph glyph-name="tilde" unicode="&#x2dc;" horiz-adv-x="333" d="M302 638 C285 600 272 588 249 588 C234 588 215 594 196 603 L172 615 C149 627 124 633 102 633 C52 633 16 597 1 532 L30 532 C41 563 58 578 81 578 C93 578 107 574 122 567 L145 556 C186 536 201 532 226 532 C281 532 310 562 331 638 L302 638 Z " />
<glyph glyph-name="hungarumlaut" unicode="&#x2dd;" horiz-adv-x="333" d="M186 507 L340 604 C361 617 370 630 370 646 C370 666 357 678 335 678 C320 678 311 673 293 655 L146 507 L186 507 Z M30 507 L184 604 C205 617 214 630 214 646 C214 666 201 678 179 678 C164 678 155 673 137 655 L-10 507 L30 507 Z " />
<glyph glyph-name="tonos" unicode="&#x384;" horiz-adv-x="333" d="M154 503 L180 503 L190 543 C203 596 204 599 204 619 C204 652 191 669 167 669 C143 669 130 652 130 619 C130 600 131 594 144 543 L154 503 Z " />
<glyph glyph-name="dieresistonos" unicode="&#x385;" horiz-adv-x="333" d="M154 593 L179 593 L190 631 C198 656 201 671 201 685 C201 717 189 733 166 733 C145 733 131 715 131 689 C131 676 136 651 142 631 L154 593 Z M91 582 C66 582 46 563 46 538 C46 514 66 494 90 494 C114 494 134 514 134 538 C134 562 114 582 91 582 L91 582 Z M243 582 C218 582 198 563 198 538 C198 514 218 494 242 494 C266 494 286 514 286 538 C286 562 266 582 243 582 L243 582 Z " />
<glyph glyph-name="Alphatonos" unicode="&#x386;" horiz-adv-x="722" d="M371 669 L359 669 L123 124 C83 30 72 20 6 18 L6 0 L227 0 L227 19 L215 19 C179 19 156 33 156 56 C156 63 163 87 173 112 L215 217 L457 217 L495 120 C508 87 512 71 512 56 C512 32 493 19 457 19 L441 19 L441 0 L719 0 L719 18 L706 18 C661 18 635 47 599 135 L371 669 Z M234 258 L334 496 L441 258 L234 258 Z M153 487 L182 487 L192 531 C207 586 208 594 208 614 C208 650 194 669 168 669 C141 669 127 650 127 613 C127 593 128 588 142 531 L153 487 Z " />
<glyph glyph-name="uni0387" unicode="&#x387;" horiz-adv-x="250" d="M125 310 C95 310 70 285 70 253 C70 224 95 199 124 199 C155 199 181 223 181 253 C181 284 155 310 125 310 L125 310 Z " />
<glyph glyph-name="Epsilontonos" unicode="&#x388;" horiz-adv-x="694" d="M25 487 L54 487 L64 531 C79 586 80 593 80 614 C80 650 66 669 40 669 C13 669 -1 650 -1 614 C-1 593 0 586 14 531 L25 487 Z M310 329 L477 329 C535 328 555 302 553 232 L571 232 L571 473 L553 473 C555 400 533 373 477 374 L310 374 L310 623 L463 623 C567 625 599 601 611 511 L628 512 L618 662 L114 662 L114 644 L137 643 C190 641 205 622 205 559 L205 104 C205 40 190 21 137 19 L114 18 L114 0 L628 0 L685 167 L668 174 C628 75 588 47 483 45 L364 45 C316 44 310 53 310 116 L310 329 Z " />
<glyph glyph-name="Etatonos" unicode="&#x389;" horiz-adv-x="808" d="M22 487 L51 487 L61 531 C76 586 77 593 77 614 C77 650 63 669 37 669 C10 669 -4 650 -4 614 C-4 593 -3 586 11 531 L22 487 Z M309 315 L605 315 L605 104 C605 40 590 21 537 19 L514 18 L514 0 L801 0 L801 18 L778 19 C726 21 710 40 710 104 L710 559 C710 622 725 641 778 643 L801 644 L801 662 L514 662 L514 644 L537 643 C590 641 605 622 605 559 L605 360 L309 360 L309 559 C309 622 324 641 377 643 L400 644 L400 662 L113 662 L113 644 L136 643 C189 641 204 622 204 559 L204 104 C204 40 189 21 136 19 L113 18 L113 0 L400 0 L400 18 L377 19 C325 21 309 40 309 104 L309 315 Z " />
<glyph glyph-name="Iotatonos" unicode="&#x38a;" horiz-adv-x="411" d="M24 487 L53 487 L63 531 C78 586 79 593 79 614 C79 650 65 669 39 669 C12 669 -2 650 -2 614 C-2 593 -1 586 13 531 L24 487 Z M113 644 L136 643 C189 641 204 622 204 559 L204 103 C204 40 189 21 136 19 L113 18 L113 0 L400 0 L400 18 L377 19 C324 21 309 40 309 103 L309 559 C309 622 324 641 377 643 L400 644 L400 662 L113 662 L113 644 Z " />
<glyph glyph-name="Omicrontonos" unicode="&#x38c;" horiz-adv-x="722" d="M22 487 L51 487 L61 531 C76 586 77 593 77 614 C77 650 63 669 37 669 C10 669 -4 650 -4 614 C-4 593 -3 586 11 531 L22 487 Z M375 669 C195 669 60 524 60 331 C60 138 195 -7 375 -7 C468 -7 539 23 600 85 C661 149 694 235 694 332 C694 525 558 669 375 669 L375 669 Z M374 630 C494 630 577 509 577 332 C577 151 497 32 374 32 C257 32 177 154 177 331 C177 509 256 630 374 630 L374 630 Z " />
<glyph glyph-name="Upsilontonos" unicode="&#x38e;" horiz-adv-x="816" d="M49 487 L78 487 L88 531 C103 586 104 593 104 614 C104 650 90 669 64 669 C37 669 23 650 23 614 C23 593 24 586 38 531 L49 487 Z M424 282 L424 103 C424 40 408 21 355 19 L330 18 L330 0 L628 0 L628 18 L601 19 C547 21 532 40 532 103 L532 282 L676 524 C726 610 760 640 813 643 L824 644 L824 662 L601 662 L601 644 L622 643 C649 643 663 633 663 615 C663 602 658 588 641 560 L512 342 L382 547 C363 577 355 596 355 612 C355 634 373 644 410 644 L424 644 L424 662 L123 662 L123 644 L146 642 C195 635 219 615 261 542 L424 282 Z " />
<glyph glyph-name="Omegatonos" unicode="&#x38f;" horiz-adv-x="743" d="M30 487 L59 487 L69 531 C84 586 85 593 85 614 C85 650 71 669 45 669 C18 669 4 650 4 614 C4 593 5 586 19 531 L30 487 Z M744 168 L727 171 C698 95 670 74 596 72 L492 72 C623 129 702 239 702 365 C702 535 565 669 391 669 C218 669 80 534 80 366 C80 284 112 210 173 151 C211 114 247 89 289 72 L186 72 C111 74 83 95 54 171 L37 168 L75 0 L328 0 L328 74 C290 93 271 110 246 151 C211 206 193 277 193 359 C193 518 275 630 391 630 C507 630 589 519 589 361 C589 222 537 112 454 74 L454 0 L707 0 L744 168 Z " />
<glyph glyph-name="iotadieresistonos" unicode="&#x390;" horiz-adv-x="269" d="M173 467 C106 434 96 429 26 401 L32 386 L38 388 C46 390 53 391 60 391 C87 391 94 377 94 322 L94 70 C94 35 97 23 113 5 C121 -4 128 -10 132 -10 C135 -10 140 -8 145 -5 L248 49 L242 63 C229 55 223 53 212 53 C181 53 173 70 173 134 L173 467 Z M122 593 L147 593 L158 631 C166 656 169 671 169 685 C169 717 157 733 134 733 C113 733 99 715 99 689 C99 676 104 651 110 631 L122 593 Z M59 582 C34 582 14 563 14 538 C14 514 34 494 58 494 C82 494 102 514 102 538 C102 562 82 582 59 582 L59 582 Z M211 582 C186 582 166 563 166 538 C166 514 186 494 210 494 C234 494 254 514 254 538 C254 562 234 582 211 582 L211 582 Z " />
<glyph glyph-name="Alpha" unicode="&#x391;" horiz-adv-x="722" d="M371 669 L359 669 L123 124 C83 30 72 20 6 18 L6 0 L227 0 L227 19 L215 19 C179 19 156 33 156 56 C156 63 163 87 173 112 L215 217 L457 217 L495 120 C508 87 512 71 512 56 C512 32 493 19 457 19 L441 19 L441 0 L719 0 L719 18 L706 18 C661 18 635 47 599 135 L371 669 Z M234 258 L334 496 L441 258 L234 258 Z " />
<glyph glyph-name="Beta" unicode="&#x392;" horiz-adv-x="667" d="M55 662 L55 644 L78 643 C130 641 146 622 146 559 L146 103 C146 40 130 21 78 19 L55 18 L55 0 L256 0 C412 0 440 3 488 25 C552 55 592 115 592 183 C592 261 549 313 459 344 C492 359 506 369 522 385 C548 413 565 455 565 493 C565 549 529 602 470 633 C427 656 393 662 297 662 L55 662 Z M251 620 C271 623 281 624 295 624 C388 624 448 572 448 492 C448 411 394 363 305 363 C287 363 276 364 251 369 L251 620 Z M251 318 C275 324 286 325 304 325 C405 325 469 270 469 183 C469 99 407 41 317 41 C293 41 280 43 251 50 L251 318 Z " />
<glyph glyph-name="Gamma" unicode="&#x393;" horiz-adv-x="578" d="M277 20 C203 26 188 41 188 108 L188 562 C186 602 200 615 248 619 L361 619 C464 616 515 581 553 487 L581 487 L532 662 L-5 662 L-5 642 C69 636 84 621 84 554 L84 108 C84 41 69 26 -5 20 L-5 0 L277 0 L277 20 Z " />
<glyph glyph-name="uni0394" unicode="&#x394;" horiz-adv-x="643" d="M325 669 L316 669 L24 0 L620 0 L325 669 Z M478 76 L155 76 C131 76 122 80 122 91 C122 98 126 113 133 128 L295 502 L478 76 Z " />
<glyph glyph-name="Epsilon" unicode="&#x395;" horiz-adv-x="611" d="M218 329 L384 329 C442 328 462 302 460 232 L478 232 L478 473 L460 473 C461 400 440 373 384 374 L218 374 L218 623 L371 623 C474 625 506 600 517 511 L534 512 L524 662 L22 662 L22 644 L45 643 C97 641 113 622 113 559 L113 104 C113 40 97 21 45 19 L22 18 L22 0 L534 0 L591 167 L575 174 C535 75 495 47 390 45 L271 45 C224 44 218 53 218 116 L218 329 Z " />
<glyph glyph-name="Zeta" unicode="&#x396;" horiz-adv-x="611" d="M424 617 L6 0 L556 0 L592 182 L573 184 C551 79 502 41 395 45 L164 45 L580 662 L85 662 L66 489 L85 487 C100 599 124 619 237 617 L424 617 Z " />
<glyph glyph-name="Eta" unicode="&#x397;" horiz-adv-x="722" d="M214 315 L509 315 L509 104 C509 40 493 21 441 19 L418 18 L418 0 L704 0 L704 18 L682 19 C629 21 614 40 614 104 L614 559 C614 622 629 641 682 643 L704 644 L704 662 L418 662 L418 644 L441 643 C493 641 509 622 509 559 L509 360 L214 360 L214 559 C214 622 229 641 282 643 L304 644 L304 662 L18 662 L18 644 L41 643 C93 641 109 622 109 559 L109 104 C109 40 93 21 41 19 L18 18 L18 0 L304 0 L304 18 L282 19 C229 21 214 40 214 104 L214 315 Z " />
<glyph glyph-name="Theta" unicode="&#x398;" horiz-adv-x="722" d="M255 434 L255 236 L286 236 C286 283 311 307 361 307 C410 307 435 283 435 236 L466 236 L466 434 L435 434 C430 386 409 366 361 366 C312 366 291 386 286 434 L255 434 Z M364 675 C170 675 33 532 33 330 C33 132 171 -13 360 -13 C550 -13 688 131 688 330 C688 528 550 675 364 675 L364 675 Z M355 637 C399 637 442 621 476 591 C538 538 572 443 572 323 C572 211 542 120 489 70 C459 42 413 25 365 25 C235 25 149 148 149 335 C149 525 225 637 355 637 L355 637 Z " />
<glyph glyph-name="Iota" unicode="&#x399;" horiz-adv-x="333" d="M24 644 L47 643 C99 641 115 622 115 559 L115 103 C115 40 99 21 47 19 L24 18 L24 0 L310 0 L310 18 L288 19 C235 21 220 40 220 103 L220 559 C220 622 235 641 288 643 L310 644 L310 662 L24 662 L24 644 Z " />
<glyph glyph-name="Kappa" unicode="&#x39a;" horiz-adv-x="722" d="M233 320 L414 134 C464 83 483 59 483 44 C483 29 468 20 441 19 L425 18 L425 0 L743 0 L743 18 C682 19 639 45 554 132 L326 368 C332 375 339 382 346 390 C361 405 376 421 391 437 C404 450 470 521 491 544 C558 620 581 635 638 642 L652 643 L652 662 L409 662 L409 643 C456 642 467 637 467 617 C467 581 370 468 233 346 L233 558 C233 624 248 642 306 643 L325 644 L325 662 L37 662 L37 644 L60 643 C112 641 128 622 128 559 L128 103 C128 40 112 21 60 19 L37 18 L37 0 L325 0 L325 18 L302 19 C248 21 232 40 233 103 L233 320 Z " />
<glyph glyph-name="Lambda" unicode="&#x39b;" horiz-adv-x="725" d="M373 669 L361 669 L125 124 C85 30 74 21 8 18 L8 0 L229 0 L229 19 L217 19 C181 19 158 33 158 56 C158 64 167 92 175 112 L336 493 L497 120 C509 92 514 74 514 57 C514 32 495 19 459 19 L443 19 L443 0 L721 0 L721 18 L708 18 C663 19 637 47 601 136 L373 669 Z " />
<glyph glyph-name="Mu" unicode="&#x39c;" horiz-adv-x="889" d="M410 0 L426 0 L662 531 L662 103 C662 40 646 21 593 19 L574 18 L574 0 L857 0 L857 18 L835 19 C782 21 767 40 767 103 L767 559 C767 622 782 641 835 643 L857 644 L857 662 L662 662 L447 171 L223 662 L32 662 L32 644 L55 643 C107 641 123 622 123 559 L123 103 C123 40 107 21 55 19 L32 18 L32 0 L264 0 L264 18 L240 19 C187 21 172 40 172 103 L172 525 L410 0 Z " />
<glyph glyph-name="Nu" unicode="&#x39d;" horiz-adv-x="722" d="M606 0 L622 0 L622 559 C622 622 637 641 690 643 L713 644 L713 662 L482 662 L482 644 L505 643 C558 641 573 622 573 559 L573 205 L181 662 L-15 662 L-15 644 C40 642 53 635 112 574 L112 103 C112 40 97 21 44 19 L21 18 L21 0 L252 0 L252 18 L229 19 C176 21 161 40 161 103 L161 515 L606 0 Z " />
<glyph glyph-name="Xi" unicode="&#x39e;" horiz-adv-x="643" d="M148 231 L166 231 C164 294 183 316 242 317 L401 317 C460 316 479 294 477 231 L495 231 L495 472 L477 472 C478 415 458 394 401 395 L242 395 C185 394 164 415 166 472 L148 472 L148 231 Z M95 510 C104 572 129 588 209 587 L433 587 C513 588 538 572 547 510 L564 512 L554 662 L88 662 L78 512 L95 510 Z M92 0 L552 0 L593 169 L576 173 C546 103 517 83 441 81 L203 81 C126 83 97 102 68 173 L51 169 L92 0 Z " />
<glyph glyph-name="Omicron" unicode="&#x39f;" horiz-adv-x="722" d="M359 669 C179 669 44 524 44 331 C44 138 179 -7 359 -7 C452 -7 524 23 584 85 C645 149 678 235 678 332 C678 525 542 669 359 669 L359 669 Z M358 630 C478 630 561 509 561 332 C561 151 481 32 358 32 C241 32 161 154 161 331 C161 509 241 630 358 630 L358 630 Z " />
<glyph glyph-name="Pi" unicode="&#x3a0;" horiz-adv-x="722" d="M704 662 L18 662 L18 644 L41 643 C93 641 109 622 109 559 L109 103 C109 40 93 21 41 19 L18 18 L18 0 L304 0 L304 18 L282 19 C229 21 214 40 214 103 L214 545 C214 608 230 628 282 630 L441 630 C493 628 509 608 509 545 L509 103 C509 40 493 21 441 19 L418 18 L418 0 L704 0 L704 18 L682 19 C629 21 614 40 614 103 L614 559 C614 622 629 641 682 643 L704 644 L704 662 Z " />
<glyph glyph-name="Rho" unicode="&#x3a1;" horiz-adv-x="556" d="M217 316 C255 303 282 298 317 298 C378 298 437 317 478 350 C513 378 533 424 533 477 C533 554 496 607 422 641 C381 659 361 661 235 662 L21 662 L21 644 L44 643 C96 641 112 622 112 559 L112 103 C112 40 96 21 44 19 L21 18 L21 0 L309 0 L309 18 L285 19 C232 21 217 40 217 103 L217 316 Z M217 614 C239 622 253 624 275 624 C360 624 416 566 416 480 C416 395 363 340 283 340 C260 340 242 344 217 354 L217 614 Z " />
<glyph glyph-name="Sigma" unicode="&#x3a3;" horiz-adv-x="582" d="M536 662 L45 662 L215 310 L45 0 L536 0 L585 226 L554 226 C500 98 431 51 302 53 L187 53 L328 334 L181 621 L293 621 C430 625 496 574 505 457 L536 457 L536 662 Z " />
<glyph glyph-name="Tau" unicode="&#x3a4;" horiz-adv-x="611" d="M162 0 L449 0 L449 18 L427 19 C373 21 358 40 358 104 L358 614 L447 614 C532 615 565 584 569 500 L588 502 L578 662 L33 662 L23 502 L42 500 C46 584 79 615 164 614 L253 614 L253 104 C253 40 238 21 184 19 L162 18 L162 0 Z " />
<glyph glyph-name="Upsilon" unicode="&#x3a5;" horiz-adv-x="722" d="M315 282 L315 103 C315 40 300 21 246 19 L221 18 L221 0 L519 0 L519 18 L492 19 C439 21 423 40 423 103 L423 282 L567 524 C617 610 651 640 704 643 L715 644 L715 662 L492 662 L492 644 L513 643 C540 643 554 633 554 615 C554 602 549 588 532 560 L403 342 L273 547 C254 577 246 596 246 612 C246 634 264 644 301 644 L315 644 L315 662 L14 662 L14 644 L37 642 C87 635 110 615 152 542 L315 282 Z " />
<glyph glyph-name="Phi" unicode="&#x3a6;" horiz-adv-x="731" d="M314 590 C143 572 27 467 27 331 C27 195 146 88 314 72 L314 60 C315 3 304 -9 246 -11 L223 -12 L223 -30 L508 -30 L508 -12 L485 -11 C427 -9 416 3 417 60 L417 72 C585 88 704 195 704 331 C704 467 590 570 417 590 L417 602 C416 659 427 671 485 673 L508 674 L508 692 L223 692 L223 674 L246 673 C304 671 315 659 314 602 L314 590 Z M314 100 C206 122 144 207 144 331 C144 455 208 542 314 563 L314 100 Z M417 562 C525 538 587 454 587 331 C587 208 523 121 417 99 L417 562 Z " />
<glyph glyph-name="Chi" unicode="&#x3a7;" horiz-adv-x="722" d="M319 324 L183 143 C101 33 81 19 1 18 L1 0 L245 0 L245 18 L224 20 C199 22 183 33 183 49 C183 61 188 71 206 95 L348 281 L466 108 C483 84 490 66 490 51 C490 27 475 19 429 18 L429 0 L720 0 L720 18 L699 20 C659 24 634 46 573 136 L414 369 L544 540 C617 634 624 639 677 643 L689 644 L689 662 L466 662 L466 644 L482 644 C513 644 530 632 530 611 C530 601 525 591 508 569 L387 410 L284 564 C274 579 268 594 268 606 C268 622 277 636 290 640 C298 642 304 643 329 644 L329 662 L33 662 L33 644 L55 641 C100 635 123 615 180 532 L319 324 Z " />
<glyph glyph-name="Psi" unicode="&#x3a8;" horiz-adv-x="738" d="M226 662 L226 644 L249 643 C302 641 317 622 317 559 L317 253 C273 263 256 272 227 300 C187 344 177 380 174 484 C173 556 170 579 162 602 C147 647 117 669 71 669 C47 669 24 664 -1 655 L6 634 C17 639 22 640 31 640 C60 640 65 628 68 561 C73 400 79 377 133 308 C181 254 235 229 317 222 L317 103 C317 40 302 21 249 19 L226 18 L226 0 L513 0 L513 18 L490 19 C437 21 422 40 422 103 L422 222 C487 228 526 241 570 274 C642 334 667 391 668 507 C672 604 672 604 675 613 C679 632 690 640 708 640 C716 640 722 639 732 634 L740 655 C715 664 692 669 668 669 C625 669 596 650 580 611 C569 586 566 563 565 484 C562 380 552 344 512 300 C483 272 466 263 422 253 L422 559 C422 622 437 641 490 643 L513 644 L513 662 L226 662 Z " />
<glyph glyph-name="uni03A9" unicode="&#x3a9;" horiz-adv-x="743" d="M302 142 C259 158 237 173 215 201 C180 248 161 313 161 390 C161 472 183 540 225 586 C258 622 308 641 372 641 C435 641 485 622 518 586 C560 540 582 473 582 389 C582 312 563 248 528 201 C506 173 484 158 441 142 L426 0 L721 0 L721 163 L704 163 C693 113 681 103 633 103 L485 103 L485 117 C540 133 576 150 607 175 C665 223 702 305 702 388 C702 468 666 548 605 600 C548 649 466 675 372 675 C277 675 195 649 138 600 C77 548 41 468 41 388 C41 312 72 235 123 187 C156 156 195 135 258 117 L258 103 L110 103 C62 103 51 113 39 163 L22 163 L22 0 L317 0 L302 142 Z " />
<glyph glyph-name="Iotadieresis" unicode="&#x3aa;" horiz-adv-x="333" d="M23 644 L46 643 C99 641 114 622 114 559 L114 103 C114 40 99 21 46 19 L23 18 L23 0 L310 0 L310 18 L287 19 C234 21 219 40 219 103 L219 559 C219 622 234 641 287 643 L310 644 L310 662 L23 662 L23 644 Z M74 821 C45 821 22 798 22 770 C22 741 45 718 73 718 C102 718 125 741 125 770 C125 798 102 821 74 821 L74 821 Z M259 821 C230 821 207 798 207 770 C207 741 230 718 258 718 C287 718 310 741 310 770 C310 798 287 821 259 821 L259 821 Z " />
<glyph glyph-name="Upsilondieresis" unicode="&#x3ab;" horiz-adv-x="722" d="M315 282 L315 103 C315 40 300 21 246 19 L221 18 L221 0 L519 0 L519 18 L492 19 C439 21 423 40 423 103 L423 282 L567 524 C617 610 651 640 704 643 L715 644 L715 662 L492 662 L492 644 L513 643 C540 643 554 633 554 615 C554 602 549 588 532 560 L403 342 L273 547 C254 577 246 596 246 612 C246 634 264 644 301 644 L315 644 L315 662 L14 662 L14 644 L37 642 C87 635 110 615 152 542 L315 282 Z M308 821 C279 821 256 798 256 770 C256 741 279 718 307 718 C336 718 359 741 359 770 C359 797 336 821 308 821 L308 821 Z M494 821 C465 821 442 798 442 770 C442 741 465 718 493 718 C522 718 545 741 545 770 C545 797 522 821 494 821 L494 821 Z " />
<glyph glyph-name="alphatonos" unicode="&#x3ac;" horiz-adv-x="524" d="M220 503 L246 503 L256 543 C269 593 270 600 270 619 C270 652 257 669 233 669 C209 669 196 652 196 619 C196 600 197 596 211 543 L220 503 Z M519 452 L417 453 L378 322 C363 370 358 384 349 402 C324 448 286 472 237 472 C122 472 29 351 29 202 C29 74 101 -16 204 -16 C279 -16 336 19 378 91 C384 53 391 33 407 10 C418 -7 429 -16 436 -16 C439 -16 444 -14 451 -11 L542 30 L542 66 C525 59 517 57 507 57 C467 57 438 94 421 169 L519 452 Z M334 187 C297 70 260 15 219 15 C168 15 133 95 133 212 C133 350 174 435 241 435 C270 435 293 420 313 386 C327 363 335 338 356 260 L334 187 Z " />
<glyph glyph-name="epsilontonos" unicode="&#x3ad;" horiz-adv-x="420" d="M368 445 C321 457 273 463 228 463 C132 463 57 414 57 350 C57 313 78 285 128 256 C64 215 42 183 42 130 C42 50 112 -7 209 -7 C309 -7 379 54 399 158 L380 161 C355 83 307 42 240 42 C173 42 122 92 122 160 C122 189 130 210 153 241 C185 227 214 220 245 220 C275 220 294 233 294 253 C294 273 271 286 236 286 C210 286 188 281 153 268 C136 283 129 300 129 322 C129 370 165 397 229 397 C273 397 310 389 355 370 L368 445 Z M216 503 L243 503 L252 543 C265 593 266 600 266 619 C266 651 253 669 229 669 C206 669 193 652 193 618 C193 600 194 595 207 543 L216 503 Z " />
<glyph glyph-name="etatonos" unicode="&#x3ae;" horiz-adv-x="523" d="M177 467 C108 433 97 428 24 397 L31 383 L41 387 C48 389 54 390 62 390 C91 390 98 377 98 320 L98 0 L177 0 L177 343 C228 388 255 402 291 402 C346 402 361 377 361 285 L361 -179 L440 -179 L440 283 C440 349 436 376 422 406 C407 441 370 463 329 463 C281 463 234 438 177 379 L177 467 Z M248 503 L275 503 L284 543 C298 594 299 600 299 619 C299 652 286 669 262 669 C238 669 225 652 225 619 C225 600 225 597 239 543 L248 503 Z " />
<glyph glyph-name="iotatonos" unicode="&#x3af;" horiz-adv-x="269" d="M174 467 C107 434 96 429 27 401 L32 386 L39 388 C46 390 54 391 61 391 C88 391 95 377 95 322 L95 70 C95 35 98 23 113 5 C122 -4 129 -10 133 -10 C136 -10 140 -8 146 -5 L249 49 L243 63 C230 55 223 53 212 53 C182 53 174 70 174 134 L174 467 Z M121 503 L148 503 L157 543 C171 594 172 600 172 619 C172 652 159 669 135 669 C110 669 98 652 98 618 C98 599 98 597 112 543 L121 503 Z " />
<glyph glyph-name="upsilondieresistonos" unicode="&#x3b0;" horiz-adv-x="495" d="M33 396 C45 404 52 406 63 406 C94 406 102 389 102 324 L102 140 C102 47 150 -7 232 -7 C286 -7 337 19 379 68 C420 117 440 179 440 262 C440 377 402 463 352 463 C327 463 307 442 307 418 C307 399 317 383 339 363 C366 339 372 332 380 315 C392 292 398 261 398 228 C398 131 340 60 260 60 C232 60 208 71 196 90 C185 108 181 132 181 180 L181 389 C181 419 178 431 168 445 C158 459 148 467 141 467 C138 467 134 466 130 464 L27 410 L33 396 Z M235 593 L260 593 L272 631 C280 658 283 671 283 685 C283 717 271 733 247 733 C226 733 212 715 212 689 C212 676 216 656 224 631 L235 593 Z M173 582 C148 582 128 563 128 538 C128 514 147 494 172 494 C196 494 216 514 216 538 C216 562 196 582 173 582 L173 582 Z M325 582 C300 582 280 563 280 538 C280 514 300 494 324 494 C348 494 368 514 368 538 C368 562 348 582 325 582 L325 582 Z " />
<glyph glyph-name="alpha" unicode="&#x3b1;" horiz-adv-x="524" d="M519 452 L417 453 L378 322 C363 370 358 384 349 402 C324 448 286 472 237 472 C122 472 29 351 29 202 C29 74 101 -16 204 -16 C279 -16 336 19 378 91 C384 53 391 33 407 10 C418 -7 429 -16 436 -16 C439 -16 444 -14 451 -11 L542 30 L542 66 C525 59 517 57 507 57 C467 57 438 94 421 169 L519 452 Z M334 187 C297 70 260 15 219 15 C168 15 133 95 133 212 C133 350 174 435 241 435 C270 435 293 420 313 386 C327 363 335 338 356 260 L334 187 Z " />
<glyph glyph-name="beta" unicode="&#x3b2;" horiz-adv-x="509" d="M157 50 C197 7 225 -7 269 -7 C377 -7 463 97 463 227 C463 320 422 392 347 430 C404 470 430 510 430 559 C430 625 376 669 295 669 C220 669 159 638 119 580 C87 533 78 492 78 386 L78 -179 L157 -179 L157 50 Z M157 404 C157 482 163 529 176 560 C197 607 233 634 275 634 C325 634 361 596 361 544 C361 505 351 483 314 439 C297 444 287 446 273 446 C229 446 199 430 199 406 C199 392 213 380 232 380 C254 380 278 388 314 408 C363 353 382 299 382 219 C382 108 329 29 255 29 C218 29 194 43 157 88 L157 404 Z " />
<glyph glyph-name="gamma" unicode="&#x3b3;" horiz-adv-x="442" d="M-14 389 C-4 395 1 397 8 397 C35 397 64 361 98 285 C143 185 175 94 190 24 C167 -40 160 -69 160 -104 C160 -149 183 -185 211 -185 C244 -185 266 -144 266 -83 C266 -55 262 -25 253 17 L352 215 C355 222 364 239 378 263 C389 283 398 301 406 318 C420 349 428 379 428 404 C428 438 406 463 375 463 C349 463 328 444 328 419 C328 412 330 401 334 392 C349 351 350 348 350 332 C350 301 346 290 309 214 L241 72 C220 174 166 329 129 395 C108 430 76 468 66 467 C65 467 62 465 57 462 L-22 402 L-14 389 Z " />
<glyph glyph-name="delta" unicode="&#x3b4;" horiz-adv-x="471" d="M399 630 C296 661 223 675 164 675 C101 675 59 647 59 605 C59 577 74 556 118 523 L206 456 C93 436 16 338 16 217 C16 85 107 -11 231 -11 C357 -11 456 97 456 236 C456 315 430 368 360 430 C328 458 316 468 239 521 L167 572 C135 594 122 608 122 622 C122 636 137 644 163 644 C220 644 308 616 399 570 L399 630 Z M222 426 C305 426 363 331 363 194 C363 85 322 22 251 22 C214 22 178 41 157 72 C127 116 109 186 109 256 C109 363 151 426 222 426 L222 426 Z " />
<glyph glyph-name="epsilon" unicode="&#x3b5;" horiz-adv-x="420" d="M368 445 C321 457 273 463 228 463 C132 463 57 414 57 350 C57 313 78 285 128 256 C64 215 42 183 42 130 C42 50 112 -7 209 -7 C309 -7 379 54 399 158 L380 161 C355 83 307 42 240 42 C173 42 122 92 122 160 C122 189 130 210 153 241 C185 227 214 220 245 220 C275 220 294 233 294 253 C294 273 271 286 236 286 C210 286 188 281 153 268 C136 283 129 300 129 322 C129 370 165 397 229 397 C273 397 310 389 355 370 L368 445 Z " />
<glyph glyph-name="zeta" unicode="&#x3b6;" horiz-adv-x="414" d="M122 682 L70 633 C68 630 66 626 66 623 C66 598 124 559 194 537 C87 427 34 312 34 187 C34 122 51 78 89 42 C123 11 162 -3 217 -3 C238 -3 254 -2 294 2 C305 3 316 4 323 4 C347 4 361 -10 361 -32 C361 -63 335 -88 303 -88 C296 -88 291 -87 279 -83 C264 -78 255 -76 246 -76 C224 -76 208 -92 208 -113 C208 -138 231 -156 263 -156 C335 -156 400 -83 400 -4 C400 48 372 78 322 78 C315 78 300 77 284 75 C258 73 232 71 217 71 C150 71 113 117 113 198 C113 313 149 418 226 530 C239 529 248 529 259 529 C333 529 409 570 409 611 C409 627 390 641 368 641 C325 641 279 616 217 562 C155 585 121 613 121 640 C121 650 126 660 138 674 L122 682 Z " />
<glyph glyph-name="eta" unicode="&#x3b7;" horiz-adv-x="523" d="M181 467 C112 433 101 428 28 397 L35 383 L45 387 C52 389 58 390 66 390 C95 390 102 377 102 320 L102 0 L181 0 L181 343 C232 388 259 402 295 402 C350 402 365 377 365 285 L365 -179 L444 -179 L444 283 C444 349 440 376 426 406 C411 441 374 463 333 463 C285 463 238 438 181 379 L181 467 Z " />
<glyph glyph-name="theta" unicode="&#x3b8;" horiz-adv-x="479" d="M244 669 C186 669 139 639 100 577 C57 510 33 420 33 324 C33 240 52 159 87 95 C122 29 175 -7 236 -7 C354 -7 446 145 446 339 C446 528 360 669 244 669 L244 669 Z M123 383 C131 545 169 634 231 634 C297 634 341 544 354 383 L123 383 Z M356 346 C357 330 357 320 357 307 C357 137 314 28 247 28 C170 28 122 150 122 346 L356 346 Z " />
<glyph glyph-name="iota" unicode="&#x3b9;" horiz-adv-x="269" d="M174 467 C107 434 96 429 27 401 L32 386 L39 388 C46 390 54 391 61 391 C88 391 95 377 95 322 L95 70 C95 35 98 23 113 5 C122 -4 129 -10 133 -10 C136 -10 140 -8 146 -5 L249 49 L243 63 C230 55 223 53 212 53 C182 53 174 70 174 134 L174 467 Z " />
<glyph glyph-name="kappa" unicode="&#x3ba;" horiz-adv-x="504" d="M181 467 C112 433 101 428 28 398 L35 384 L46 388 C53 390 59 391 66 391 C95 391 102 378 102 322 L102 0 L181 0 L181 236 L349 2 C355 -6 360 -10 365 -10 C368 -10 373 -8 379 -5 L476 45 L470 60 C457 55 450 53 442 53 C428 53 415 60 402 72 C387 88 362 115 353 128 L244 277 C316 360 334 374 368 374 C374 374 380 374 387 373 C397 371 405 370 409 370 C432 370 453 394 453 420 C453 445 433 463 406 463 C357 463 314 424 187 267 L181 259 L181 467 Z " />
<glyph glyph-name="lambda" unicode="&#x3bb;" horiz-adv-x="485" d="M454 64 C441 57 433 55 424 55 C392 55 370 86 343 170 L249 457 C223 539 204 581 179 610 C152 643 119 662 88 662 C59 662 39 643 39 615 C39 587 60 565 86 565 C91 565 99 566 106 567 C114 569 121 570 125 570 C145 570 165 557 177 535 C188 517 198 489 213 437 L23 0 L108 0 L247 334 L318 98 C339 27 358 -11 371 -11 C373 -11 376 -10 378 -9 L461 50 L454 64 Z " />
<glyph glyph-name="uni03BC" unicode="&#x3bc;" horiz-adv-x="536" d="M431 450 L352 450 L352 117 C296 69 277 59 243 59 C193 59 173 90 173 168 L173 450 L94 450 L94 307 C92 144 89 110 71 -20 C56 -116 56 -116 56 -131 C56 -163 74 -185 100 -185 C124 -185 140 -165 140 -135 C140 -124 138 -107 134 -91 C115 -10 113 7 111 72 C130 18 160 -7 207 -7 C240 -7 275 7 302 32 C317 45 322 50 352 84 L352 67 C352 33 355 22 371 5 C379 -5 386 -10 390 -10 C392 -10 397 -8 403 -5 L506 47 L500 61 C488 53 481 50 470 50 C439 50 431 67 431 132 L431 450 Z " />
<glyph glyph-name="nu" unicode="&#x3bd;" horiz-adv-x="452" d="M252 111 L163 393 C151 432 125 467 109 467 C105 467 101 465 97 462 L16 399 L23 386 C35 392 41 394 50 394 C63 394 76 386 82 374 C89 361 89 361 107 306 L208 -10 L233 -10 L390 300 C411 341 422 378 422 405 C422 439 402 463 375 463 C348 463 328 440 328 410 C328 403 329 393 331 385 C340 349 341 345 341 330 C341 307 333 280 313 239 L252 111 Z " />
<glyph glyph-name="xi" unicode="&#x3be;" horiz-adv-x="446" d="M152 716 L99 671 C94 666 90 660 90 656 C90 643 128 622 189 603 C130 564 105 529 105 482 C105 434 129 403 180 383 C93 318 54 253 54 174 C54 122 74 75 109 42 C143 11 182 -3 237 -3 C258 -3 274 -2 314 2 C325 3 336 4 343 4 C367 4 381 -10 381 -32 C381 -63 355 -88 323 -88 C316 -88 311 -87 299 -83 C284 -78 275 -76 266 -76 C244 -76 228 -92 228 -113 C228 -138 251 -156 283 -156 C355 -156 420 -83 420 -4 C420 48 392 78 342 78 C335 78 320 77 304 75 C278 73 252 71 237 71 C172 71 133 117 133 195 C133 262 159 321 213 374 C234 370 246 369 263 369 C332 369 392 399 392 433 C392 451 371 464 342 464 C308 464 264 445 210 407 C182 433 172 456 172 491 C172 531 186 560 222 593 C261 584 281 581 310 581 C376 581 427 605 427 636 C427 655 402 669 369 669 C329 669 283 655 227 625 C165 648 150 657 150 675 C150 685 154 696 162 708 L152 716 Z " />
<glyph glyph-name="omicron" unicode="&#x3bf;" horiz-adv-x="500" d="M255 461 C193 461 147 441 103 397 C58 351 33 287 33 220 C33 89 125 -10 247 -10 C369 -10 466 97 466 233 C466 365 377 461 255 461 L255 461 Z M242 426 C322 426 377 335 377 202 C377 95 330 25 258 25 C177 25 122 109 122 232 C122 355 166 426 242 426 L242 426 Z " />
<glyph glyph-name="pi" unicode="&#x3c0;" horiz-adv-x="505" d="M528 448 L129 448 C83 448 72 444 46 422 L-38 348 L-21 328 C39 375 69 386 140 385 C122 190 111 142 77 111 C36 73 31 65 31 39 C31 10 48 -7 77 -7 C137 -7 157 46 165 234 C167 267 168 290 168 300 L174 385 L380 385 C336 343 321 311 320 252 L320 101 C320 59 321 50 328 31 C336 12 353 -7 362 -7 C364 -7 366 -6 377 -2 L485 45 L481 66 C454 57 439 52 435 52 C419 52 401 66 397 81 C396 86 396 86 396 126 L396 253 C395 344 396 354 407 385 L528 385 L528 448 Z " />
<glyph glyph-name="rho" unicode="&#x3c1;" horiz-adv-x="499" d="M152 -182 L152 34 C187 2 215 -10 257 -10 C372 -10 459 93 459 229 C459 369 380 461 261 461 C199 461 144 436 111 392 C84 355 73 305 73 212 L73 -182 L152 -182 Z M152 284 C152 329 157 356 171 379 C187 409 216 426 249 426 C324 426 371 347 371 218 C371 101 325 27 253 27 C217 27 190 41 152 78 L152 284 Z " />
<glyph glyph-name="uni03C2" unicode="&#x3c2;" horiz-adv-x="396" d="M311 78 C301 78 292 77 264 74 C246 72 227 71 217 71 C140 71 97 122 97 214 C97 272 112 318 142 350 C169 380 210 401 242 401 C257 401 271 397 292 386 C319 372 328 369 344 369 C370 369 388 387 388 411 C388 443 356 463 305 463 C156 463 35 337 35 182 C35 123 53 74 87 40 C117 10 157 -3 216 -3 C230 -3 243 -2 256 -1 C282 2 304 4 309 4 C332 4 345 -8 345 -27 C345 -61 318 -90 288 -90 C279 -90 273 -89 259 -84 C247 -80 239 -78 232 -78 C208 -78 192 -92 192 -114 C192 -139 215 -156 251 -156 C319 -156 384 -82 384 -3 C384 49 358 78 311 78 L311 78 Z " />
<glyph glyph-name="sigma" unicode="&#x3c3;" horiz-adv-x="539" d="M536 459 L291 459 C222 459 207 457 173 442 C89 406 33 316 33 217 C33 85 124 -11 248 -11 C374 -11 473 97 473 236 C473 286 458 335 433 369 C418 389 404 401 372 421 L536 400 L536 459 Z M237 426 C323 426 380 333 380 191 C380 85 338 22 268 22 C231 22 195 41 174 72 C144 117 126 186 126 257 C126 362 168 426 237 426 L237 426 Z " />
<glyph glyph-name="tau" unicode="&#x3c4;" horiz-adv-x="402" d="M424 450 L142 450 C79 449 61 443 38 411 L-17 334 L24 311 C67 372 102 388 189 387 L204 387 C171 325 163 293 161 227 L161 83 C161 30 177 -14 196 -14 C199 -14 199 -14 218 -4 L340 39 L340 78 C313 66 302 63 290 63 C263 63 250 90 250 149 L250 283 C252 343 257 365 274 387 L424 387 L424 450 Z " />
<glyph glyph-name="upsilon" unicode="&#x3c5;" horiz-adv-x="495" d="M33 396 C45 404 52 406 63 406 C94 406 102 389 102 324 L102 140 C102 47 150 -7 232 -7 C286 -7 337 19 379 68 C420 117 440 179 440 262 C440 377 402 463 352 463 C327 463 307 442 307 418 C307 399 317 383 339 363 C366 339 372 332 380 315 C392 292 398 261 398 228 C398 131 340 60 260 60 C232 60 208 71 196 90 C185 108 181 132 181 180 L181 389 C181 419 178 431 168 445 C158 459 148 467 141 467 C138 467 134 466 130 464 L27 410 L33 396 Z " />
<glyph glyph-name="phi" unicode="&#x3c6;" horiz-adv-x="577" d="M228 460 C103 452 27 368 27 240 C27 101 109 11 248 -4 L248 -201 L315 -201 L315 -4 C382 3 418 15 456 44 C516 89 551 161 551 243 C551 306 532 357 491 399 C454 439 408 460 361 460 C323 460 289 443 269 414 C253 393 248 363 248 301 L248 23 C215 33 201 40 184 55 C140 93 118 156 118 245 C118 328 138 386 178 419 C191 430 203 436 228 443 L228 460 Z M315 307 C315 355 316 369 323 381 C330 396 343 404 360 404 C421 404 471 320 471 220 C471 141 448 87 401 54 C378 38 358 31 315 23 L315 307 Z " />
<glyph glyph-name="chi" unicode="&#x3c7;" horiz-adv-x="444" d="M259 148 L442 451 L352 451 L225 228 L197 300 C158 401 102 458 42 458 C12 458 -9 439 -9 413 C-9 388 14 368 42 368 C104 371 126 354 159 278 L198 184 L-18 -179 L73 -179 L230 102 L277 -21 C317 -124 352 -186 371 -186 C374 -186 378 -185 383 -182 L462 -134 L456 -119 C443 -124 435 -126 425 -126 C400 -126 378 -113 360 -87 C339 -58 330 -39 299 42 L259 148 Z " />
<glyph glyph-name="psi" unicode="&#x3c8;" horiz-adv-x="626" d="M294 450 L294 66 C204 74 169 114 173 203 L173 381 C173 411 171 421 162 435 C153 449 143 457 137 457 C135 457 130 455 124 452 L23 401 L29 388 C42 396 49 398 60 398 C91 398 100 381 100 318 L100 183 C97 69 165 3 294 -7 L294 -179 L369 -179 L369 -9 C496 20 570 121 570 265 C570 373 532 457 483 457 C458 457 437 437 437 414 C437 398 445 383 464 365 C501 330 501 330 511 314 C524 293 530 267 530 236 C530 180 509 129 474 100 C448 78 422 69 369 62 L369 450 L294 450 Z " />
<glyph glyph-name="omega" unicode="&#x3c9;" horiz-adv-x="658" d="M181 462 C99 401 56 314 56 211 C56 86 118 -7 202 -7 C256 -7 302 29 334 98 C366 28 405 -7 453 -7 C537 -7 602 99 602 236 C602 370 553 462 483 462 C457 462 439 444 439 419 C439 400 451 381 467 375 C517 356 522 353 537 330 C555 304 565 264 565 220 C565 128 516 59 449 59 C406 59 377 82 352 136 C370 188 377 223 377 265 C377 315 363 343 339 343 C311 343 295 312 295 258 C295 213 302 180 320 134 C294 82 264 58 229 58 C171 58 137 123 137 235 C137 319 158 389 200 449 L181 462 Z " />
<glyph glyph-name="iotadieresis" unicode="&#x3ca;" horiz-adv-x="269" d="M173 467 C106 434 96 429 26 401 L32 386 L38 388 C46 390 53 391 60 391 C87 391 94 377 94 322 L94 70 C94 35 97 23 113 5 C121 -4 128 -10 132 -10 C135 -10 140 -8 145 -5 L248 49 L242 63 C229 55 223 53 212 53 C181 53 173 70 173 134 L173 467 Z M59 636 C30 636 7 613 7 585 C7 556 30 533 58 533 C87 533 110 556 110 585 C110 613 87 636 59 636 L59 636 Z M211 636 C182 636 159 613 159 585 C159 556 182 533 210 533 C239 533 262 556 262 585 C262 613 239 636 211 636 L211 636 Z " />
<glyph glyph-name="upsilondieresis" unicode="&#x3cb;" horiz-adv-x="495" d="M33 396 C45 404 52 406 63 406 C94 406 102 389 102 324 L102 140 C102 47 150 -7 232 -7 C286 -7 337 19 379 68 C420 117 440 179 440 262 C440 377 402 463 352 463 C327 463 307 442 307 418 C307 399 317 383 339 363 C366 339 372 332 380 315 C392 292 398 261 398 228 C398 131 340 60 260 60 C232 60 208 71 196 90 C185 108 181 132 181 180 L181 389 C181 419 178 431 168 445 C158 459 148 467 141 467 C138 467 134 466 130 464 L27 410 L33 396 Z M172 636 C143 636 120 613 120 585 C120 556 143 533 171 533 C200 533 223 556 223 585 C223 613 200 636 172 636 L172 636 Z M324 636 C295 636 272 613 272 585 C272 556 295 533 323 533 C352 533 375 556 375 585 C375 613 352 636 324 636 L324 636 Z " />
<glyph glyph-name="omicrontonos" unicode="&#x3cc;" horiz-adv-x="500" d="M255 461 C193 461 147 441 103 397 C58 351 33 287 33 220 C33 89 125 -10 247 -10 C369 -10 466 97 466 233 C466 365 377 461 255 461 L255 461 Z M242 426 C322 426 377 335 377 202 C377 95 330 25 258 25 C177 25 122 109 122 232 C122 355 166 426 242 426 L242 426 Z M236 503 L263 503 L272 543 C285 593 286 599 286 619 C286 651 273 669 249 669 C226 669 213 652 213 618 C213 599 214 596 227 543 L236 503 Z " />
</font>
</svg>
