<?xml version="1.0" encoding="UTF-8"?>
<svg xmlns="http://www.w3.org/2000/svg" xmlns:xlink="http://www.w3.org/1999/xlink" version="1.2" >
<font id="Nimbus Roman No9 L Regular Italic">
<font-face  font-family="Nimbus Roman No9 L" units-per-em="1000" ascent="693" descent="-307" font-style="italic" font-weight="400" font-stretch="normal" slope="-15.5" cap-height="657" x-height="436" underline-position="-75" underline-thickness="50" />
<missing-glyph  horiz-adv-x="250" d="" />
<glyph glyph-name="NULL" d="" />
<glyph glyph-name="&amp;#x21b5;" unicode="&#x21b5;" horiz-adv-x="1000" d="M884 528 L820 528 L820 348 L261 348 L471 429 L448 482 L162 355 L162 278 L448 150 L471 202 L261 284 L884 284 L884 528 Z " />
<glyph glyph-name="&amp;#xd;" unicode="&#xd;" horiz-adv-x="1000" d="M884 528 L820 528 L820 348 L261 348 L471 429 L448 482 L162 355 L162 278 L448 150 L471 202 L261 284 L884 284 L884 528 Z " />
<glyph glyph-name="space" unicode="&#x20;" horiz-adv-x="250" d="" />
<glyph glyph-name="exclam" unicode="&#x21;" horiz-adv-x="333" d="M169 179 C228 342 249 396 294 500 C322 562 332 593 332 622 C332 658 318 676 291 676 C254 676 234 643 221 558 C199 416 192 379 152 184 L169 179 Z M123 95 C96 95 71 71 71 44 C71 12 93 -11 123 -11 C154 -11 179 12 179 41 C179 70 153 95 123 95 L123 95 Z " />
<glyph glyph-name="quotedbl" unicode="&#x22;" horiz-adv-x="420" d="M367 427 C425 557 454 629 454 646 C454 662 439 675 422 675 C397 675 372 656 367 633 C361 609 353 525 345 427 L367 427 Z M185 427 C243 555 273 628 273 646 C273 662 258 675 241 675 C216 675 190 656 185 633 C181 612 170 508 164 427 L185 427 Z " />
<glyph glyph-name="numbersign" unicode="&#x23;" horiz-adv-x="500" d="M482 271 L386 271 L439 415 L546 415 L556 470 L459 470 L538 685 L476 685 L397 470 L265 470 L344 685 L282 685 L203 470 L97 470 L86 415 L184 415 L130 271 L24 271 L13 216 L109 216 L30 0 L93 0 L171 216 L303 216 L224 0 L287 0 L365 216 L471 216 L482 271 Z M377 415 L324 271 L192 271 L245 415 L377 415 Z " />
<glyph glyph-name="dollar" unicode="&#x24;" horiz-adv-x="500" d="M509 621 C478 643 434 661 387 672 L405 741 L371 741 L352 677 C268 676 249 672 207 648 C156 619 127 571 127 516 C127 481 139 451 166 415 C188 388 208 371 259 334 L181 33 C103 52 77 90 69 196 L53 193 L22 68 C59 37 109 15 173 2 L148 -90 L183 -90 L207 0 C280 3 315 10 355 30 C418 62 455 125 455 198 C455 275 431 310 317 402 L380 642 C441 618 463 582 462 507 L477 505 L509 621 Z M286 426 C225 471 207 498 207 543 C207 589 233 626 277 642 C297 649 305 650 346 650 L286 426 Z M290 310 L296 305 C362 249 378 222 378 169 C378 82 323 34 214 26 L290 310 Z " />
<glyph glyph-name="percent" unicode="&#x25;" horiz-adv-x="833" d="M667 685 L619 685 L234 -13 L282 -13 L667 685 Z M653 305 C682 305 701 279 701 239 C701 180 675 97 638 37 C618 6 597 -9 574 -9 C543 -9 524 16 524 55 C524 120 558 224 596 271 C614 295 631 305 653 305 L653 305 Z M648 325 C554 325 462 216 462 106 C462 27 511 -29 579 -29 C674 -29 764 77 764 188 C764 267 715 325 648 325 L648 325 Z M311 658 C341 658 360 632 360 592 C360 530 334 448 294 387 C275 357 255 343 233 343 C201 343 182 367 182 408 C182 475 214 576 251 622 C271 647 290 658 311 658 L311 658 Z M307 679 C263 679 219 657 179 613 C140 570 119 518 119 462 C119 382 169 325 237 325 C333 325 422 430 422 541 C422 622 374 679 307 679 L307 679 Z " />
<glyph glyph-name="ampersand" unicode="&#x26;" horiz-adv-x="778" d="M523 355 L523 336 C564 332 575 325 575 302 C575 268 559 239 496 162 C463 214 430 299 405 403 C468 434 498 453 525 478 C560 510 578 544 578 579 C578 633 533 675 473 675 C379 675 313 590 313 469 C313 456 314 445 318 415 C318 410 320 397 321 383 C217 338 172 314 136 284 C88 243 65 198 65 142 C65 45 138 -18 251 -18 C315 -18 346 -6 452 62 C498 5 538 -18 592 -18 C642 -18 679 1 722 51 L711 62 C680 39 664 32 640 32 C592 32 557 58 515 127 C573 208 587 227 615 269 C633 296 645 311 656 320 C671 331 681 334 711 338 L711 355 L523 355 Z M324 350 C361 221 398 135 432 91 C385 52 342 35 291 35 C217 35 160 93 160 168 C160 241 225 312 324 350 L324 350 Z M401 434 C397 466 395 488 395 515 C395 604 416 643 463 643 C494 643 508 625 508 584 C508 519 486 488 401 434 L401 434 Z " />
<glyph glyph-name="quotesingle" unicode="&#x27;" horiz-adv-x="214" d="M172 427 C229 552 259 629 259 646 C259 662 244 675 227 675 C203 675 177 656 172 633 C168 612 157 507 151 427 L172 427 Z " />
<glyph glyph-name="parenleft" unicode="&#x28;" horiz-adv-x="333" d="M195 -177 C156 -73 144 -7 144 94 C144 214 172 357 216 467 C249 547 279 593 345 663 L332 678 C201 559 150 492 108 386 C84 324 73 264 73 189 C73 109 86 30 110 -42 C124 -85 140 -117 177 -184 L195 -177 Z " />
<glyph glyph-name="parenright" unicode="&#x29;" horiz-adv-x="333" d="M156 672 C195 567 207 502 207 401 C207 281 179 138 135 28 C103 -52 72 -99 6 -168 L19 -184 C150 -64 201 3 243 109 C267 171 278 231 278 305 C278 386 265 464 241 537 C227 580 212 612 174 678 L156 672 Z " />
<glyph glyph-name="asterisk" unicode="&#x2a;" horiz-adv-x="500" d="M332 507 C332 529 335 547 347 585 C355 610 358 624 358 635 C358 659 343 675 321 675 C299 675 286 660 286 635 C286 625 288 616 295 596 C309 551 314 526 314 483 C274 506 254 522 221 558 C201 582 189 589 173 589 C153 589 138 574 138 554 C138 526 153 515 200 507 C237 500 269 489 295 475 L307 467 C263 441 245 434 198 426 C156 418 139 406 139 382 C139 362 155 345 175 345 C192 345 208 355 226 376 C255 413 267 424 298 442 C307 447 310 449 313 452 C315 434 316 426 316 421 C316 400 311 375 297 339 C290 318 287 306 287 298 C287 275 302 259 323 259 C346 259 362 275 362 299 C362 308 360 315 353 333 C338 375 334 399 333 452 L340 448 C373 429 397 408 424 376 C443 352 455 344 470 344 C492 344 508 361 508 383 C508 407 491 419 446 426 C418 431 395 438 379 446 L342 465 C385 493 402 500 450 508 C492 515 507 526 507 552 C507 574 491 590 469 590 C452 590 452 590 417 553 C381 514 374 508 332 480 L332 507 Z " />
<glyph glyph-name="plus" unicode="&#x2b;" horiz-adv-x="675" d="M336 337 L114 337 L114 283 L337 283 L339 60 L392 60 L390 283 L612 283 L612 337 L390 337 L388 560 L334 560 L336 337 Z " />
<glyph glyph-name="comma" unicode="&#x2c;" horiz-adv-x="250" d="M21 -131 C106 -84 152 -28 152 29 C152 70 126 102 93 102 C63 102 41 83 41 55 C41 37 47 26 66 9 C81 -5 87 -14 87 -24 C87 -51 65 -77 12 -114 L21 -131 Z " />
<glyph glyph-name="hyphen" unicode="&#x2d;" horiz-adv-x="333" d="M289 259 L67 259 L53 195 L276 195 L289 259 Z " />
<glyph glyph-name="period" unicode="&#x2e;" horiz-adv-x="250" d="M97 102 C67 102 42 76 42 45 C42 15 67 -11 97 -11 C129 -11 155 13 155 44 C155 75 128 102 97 102 L97 102 Z " />
<glyph glyph-name="slash" unicode="&#x2f;" horiz-adv-x="278" d="M326 675 L-51 -18 L23 -18 L400 675 L326 675 Z " />
<glyph glyph-name="zero" unicode="0" horiz-adv-x="500" d="M357 685 C200 685 48 458 48 222 C48 84 114 -7 213 -7 C257 -7 299 8 342 39 C442 113 518 279 518 424 C518 586 457 685 357 685 L357 685 Z M351 657 C406 657 437 609 437 526 C437 388 399 225 342 123 C305 56 263 21 218 21 C162 21 129 73 129 161 C129 271 179 468 230 561 C266 626 305 657 351 657 L351 657 Z " />
<glyph glyph-name="one" unicode="1" horiz-adv-x="500" d="M63 0 L346 0 L346 15 L329 15 C279 15 258 25 258 48 C258 57 261 72 270 100 C271 105 274 116 276 123 L416 649 C421 670 422 673 422 678 C422 682 420 685 417 685 C417 685 389 680 334 669 C303 663 273 657 243 651 C241 650 233 649 221 647 L221 632 L279 634 L282 634 C302 636 318 622 318 602 C318 596 316 586 311 568 L176 69 C164 31 143 21 63 14 L63 0 Z " />
<glyph glyph-name="two" unicode="2" horiz-adv-x="500" d="M417 141 C395 92 375 79 318 77 L125 77 L125 82 L318 277 C435 395 467 445 467 512 C467 609 394 685 301 685 C265 685 227 675 196 658 C144 630 118 596 89 523 L111 516 C147 582 191 611 252 611 C325 611 380 558 380 487 C380 465 377 447 371 433 C348 380 302 316 236 244 L25 17 L25 0 L385 0 L435 134 L417 141 Z " />
<glyph glyph-name="three" unicode="3" horiz-adv-x="500" d="M188 575 C224 623 258 643 301 643 C356 643 392 606 392 550 C392 507 371 472 328 442 C286 413 242 398 151 382 L152 366 C208 366 219 365 245 355 C308 333 341 277 341 196 C341 160 333 125 320 101 C297 61 251 32 210 32 C190 32 168 42 137 64 C107 85 92 92 72 92 C44 92 28 78 28 53 C28 15 69 -7 142 -7 C199 -7 251 6 293 31 C373 77 422 161 422 250 C422 325 392 372 324 404 L324 407 C445 454 480 487 480 556 C480 630 419 686 337 686 C267 686 204 646 172 580 L188 575 Z " />
<glyph glyph-name="four" unicode="4" horiz-adv-x="500" d="M470 244 L373 244 L492 685 L450 685 L32 248 L12 180 L278 180 L230 0 L310 0 L355 178 L456 178 L470 244 Z M291 244 L76 244 L76 248 L381 570 L386 570 L291 244 Z " />
<glyph glyph-name="five" unicode="5" horiz-adv-x="500" d="M249 603 L482 603 L505 675 L245 675 L142 454 L142 439 C241 418 274 405 311 376 C345 350 366 298 366 244 C366 134 286 36 195 36 C173 36 155 44 125 65 C100 84 84 91 69 91 C45 91 28 75 28 51 C28 15 68 -7 136 -7 C302 -7 436 121 436 279 C436 345 413 400 367 442 C329 477 293 494 210 514 L249 603 Z " />
<glyph glyph-name="six" unicode="6" horiz-adv-x="500" d="M533 696 C398 680 330 655 244 591 C117 497 41 354 41 210 C41 78 115 -7 229 -7 C365 -7 478 120 478 272 C478 377 405 453 304 453 C275 453 243 445 214 432 L210 434 C279 563 415 665 534 679 L533 696 Z M271 416 C342 416 388 365 388 286 C388 217 364 138 328 85 C297 41 261 19 218 19 C155 19 118 70 118 155 C118 223 137 305 163 350 C191 396 223 416 271 416 L271 416 Z " />
<glyph glyph-name="seven" unicode="7" horiz-adv-x="500" d="M564 665 L558 675 L178 675 L97 537 L111 528 C158 585 186 600 246 601 L471 601 L473 598 L106 -8 L177 -8 L564 665 Z " />
<glyph glyph-name="eight" unicode="8" horiz-adv-x="500" d="M325 387 C445 427 490 469 490 541 C490 625 416 685 311 685 C203 685 130 624 130 534 C130 479 151 440 220 365 C93 324 24 254 24 165 C24 137 33 106 48 80 C82 23 143 -7 228 -7 C352 -7 444 70 444 173 C444 242 414 297 325 387 L325 387 Z M242 349 C356 233 368 214 368 155 C368 74 310 15 231 15 C150 15 93 75 93 159 C93 242 147 311 242 349 L242 349 Z M307 405 C226 480 209 505 209 549 C209 620 247 662 311 662 C376 662 421 613 421 541 C421 478 394 446 307 405 L307 405 Z " />
<glyph glyph-name="nine" unicode="9" horiz-adv-x="500" d="M48 -17 C185 6 252 33 336 100 C452 191 519 324 519 461 C519 596 445 685 334 685 C207 685 91 557 91 416 C91 309 155 232 244 232 C286 232 322 244 375 278 L379 276 C363 230 312 163 250 107 C178 44 128 19 48 1 L48 -17 Z M341 659 C405 659 443 609 443 524 C443 443 419 352 389 323 C363 296 322 279 283 279 C218 279 180 331 180 422 C180 497 209 577 251 620 C276 646 307 659 341 659 L341 659 Z " />
<glyph glyph-name="colon" unicode="&#x3a;" horiz-adv-x="333" d="M121 102 C90 102 65 76 65 44 C65 14 90 -11 120 -11 C153 -11 177 13 177 43 C177 75 151 102 121 102 L121 102 Z M218 448 C187 448 163 423 163 390 C163 360 188 335 218 335 C251 335 276 359 276 390 C276 422 250 448 218 448 L218 448 Z " />
<glyph glyph-name="semicolon" unicode="&#x3b;" horiz-adv-x="333" d="M52 -131 C137 -84 183 -28 183 29 C183 70 157 102 124 102 C94 102 72 83 72 55 C72 37 78 26 97 9 C112 -5 118 -14 118 -24 C118 -51 96 -77 43 -114 L52 -131 Z M219 448 C187 448 163 423 163 391 C163 360 188 335 218 335 C251 335 276 359 276 390 C276 422 250 448 219 448 L219 448 Z " />
<glyph glyph-name="less" unicode="&#x3c;" horiz-adv-x="675" d="M601 54 L601 111 L169 306 L597 501 L597 559 L104 335 L105 277 L601 54 Z " />
<glyph glyph-name="equal" unicode="&#x3d;" horiz-adv-x="675" d="M613 438 L115 438 L115 384 L613 384 L613 438 Z M615 236 L117 236 L117 182 L615 182 L615 236 Z " />
<glyph glyph-name="greater" unicode="&#x3e;" horiz-adv-x="675" d="M128 54 L620 277 L620 335 L123 559 L124 501 L555 306 L127 111 L128 54 Z " />
<glyph glyph-name="question" unicode="&#x3f;" horiz-adv-x="500" d="M231 176 L238 206 C251 262 281 301 353 359 C467 453 487 480 487 541 C487 621 427 673 336 673 C253 673 195 628 195 563 C195 532 210 514 235 514 C258 514 275 529 275 549 C275 557 273 563 267 575 C261 588 259 594 259 603 C259 633 286 651 329 651 C382 651 412 620 412 564 C412 511 390 469 325 397 C241 301 230 279 214 178 L231 176 Z M200 92 C170 92 147 69 147 40 C147 11 171 -12 201 -12 C230 -12 254 12 254 40 C254 68 229 92 200 92 L200 92 Z " />
<glyph glyph-name="at" unicode="&#x40;" horiz-adv-x="920" d="M609 402 C584 454 568 467 530 467 C484 467 439 444 406 404 C351 338 318 244 318 155 C318 74 361 12 417 12 C464 12 513 45 552 102 C559 48 599 11 651 11 C759 11 850 147 850 307 C850 513 691 675 489 675 C268 675 94 485 94 242 C94 3 272 -185 500 -185 C577 -185 633 -168 735 -113 L722 -77 C637 -121 584 -136 511 -136 C312 -136 170 18 170 235 C170 353 208 466 274 541 C326 601 405 636 487 636 C662 636 806 482 806 296 C806 221 780 141 740 92 C720 67 692 53 665 53 C639 53 624 73 624 107 C624 116 625 124 627 132 L695 449 L619 449 L609 402 Z M546 412 C577 409 593 380 591 332 C585 189 524 65 462 65 C422 65 396 106 396 171 C396 238 416 303 450 348 C481 389 519 415 546 412 L546 412 Z " />
<glyph glyph-name="A" unicode="A" horiz-adv-x="611" d="M584 16 C526 21 519 29 506 103 L405 678 L379 678 L89 170 C11 36 1 24 -40 16 L-40 0 L150 0 L150 16 C97 22 89 26 89 53 C89 72 91 78 109 115 L166 229 L389 229 L410 96 C412 86 413 75 413 67 C413 31 399 22 334 16 L334 0 L584 0 L584 16 Z M187 266 L336 530 L384 266 L187 266 Z " />
<glyph glyph-name="B" unicode="B" horiz-adv-x="611" d="M4 0 L290 0 C449 0 557 81 557 200 C557 276 525 314 428 356 C499 373 529 385 561 413 C589 438 604 471 604 512 C604 609 532 662 399 662 L138 662 L138 646 C203 641 217 633 217 604 C217 590 213 565 206 540 L85 91 C68 32 61 26 4 16 L4 0 Z M250 336 C314 336 359 331 380 323 C421 306 447 261 447 205 C447 96 373 30 251 30 C208 30 185 45 185 73 C185 86 196 134 219 214 C230 255 236 277 250 336 L250 336 Z M324 604 C330 626 342 632 382 632 C464 632 501 597 501 520 C501 463 478 419 435 395 C400 375 351 367 260 368 L324 604 Z " />
<glyph glyph-name="C" unicode="C" horiz-adv-x="667" d="M668 472 L704 673 L682 673 C675 657 664 651 644 651 C635 651 624 653 603 658 C558 669 518 675 484 675 C268 675 76 474 76 250 C76 93 187 -18 344 -18 C448 -18 528 26 619 133 L601 147 C510 57 453 28 369 28 C255 28 190 106 190 240 C190 359 237 480 315 561 C363 610 426 638 493 638 C587 638 639 583 650 475 L668 472 Z " />
<glyph glyph-name="D" unicode="D" horiz-adv-x="722" d="M137 646 C200 640 215 632 215 604 C215 587 211 564 205 540 L84 91 C67 32 60 26 3 16 L3 0 L260 0 C379 0 486 31 564 88 C660 159 717 269 717 386 C717 555 601 662 419 662 L137 662 L137 646 Z M323 603 C329 625 344 632 384 632 C442 632 493 619 525 595 C576 558 604 492 604 411 C604 301 563 190 496 121 C436 60 355 30 249 30 C202 30 183 41 183 68 C183 81 187 101 204 164 L323 603 Z " />
<glyph glyph-name="E" unicode="E" horiz-adv-x="611" d="M649 662 L145 662 L145 646 C209 640 224 632 224 604 C224 592 219 562 213 540 L92 91 C75 33 68 26 11 16 L11 0 L525 0 L587 164 L570 172 C524 107 497 81 453 61 C416 43 348 33 270 33 C214 33 190 43 190 67 C190 80 201 128 225 216 C230 231 243 282 256 333 L304 330 L350 329 C379 328 403 324 411 317 C420 310 422 302 422 281 C422 263 421 253 416 230 L436 225 L503 460 L484 465 C447 378 437 372 346 368 C333 368 301 367 265 366 L330 603 C336 625 346 629 404 629 C564 629 599 615 599 554 C599 538 599 526 598 509 L619 507 L649 662 Z " />
<glyph glyph-name="F" unicode="F" horiz-adv-x="611" d="M660 662 L155 662 L155 646 C202 642 207 641 219 634 C227 629 233 617 233 605 C233 587 229 564 223 539 L102 91 C84 30 78 24 20 16 L20 0 L276 0 L276 16 C216 20 198 31 198 62 C198 71 200 83 207 106 L267 333 C306 330 329 330 350 330 C389 330 396 329 405 324 C420 317 428 303 428 283 C428 266 427 255 421 223 L438 218 L513 455 L494 460 C450 370 446 368 276 366 L341 602 C347 624 361 630 410 629 L445 629 C572 629 610 612 610 554 C610 547 610 538 609 529 L608 518 L608 509 L629 507 L660 662 Z " />
<glyph glyph-name="G" unicode="G" horiz-adv-x="722" d="M723 671 L708 675 C690 650 674 641 647 641 C637 641 626 643 603 651 C553 667 509 675 467 675 C254 675 62 475 62 252 C62 182 92 110 141 61 C193 9 268 -18 356 -18 C445 -18 517 1 595 45 L643 234 C659 291 675 302 741 307 L741 323 L471 323 L471 307 C538 300 551 294 551 272 C551 250 544 217 524 147 C504 78 499 67 487 54 C465 32 427 20 381 20 C248 20 174 96 174 232 C174 354 223 483 300 566 C345 614 409 641 475 641 C541 641 597 613 628 567 C645 541 652 519 657 474 L675 471 L723 671 Z " />
<glyph glyph-name="H" unicode="H" horiz-adv-x="722" d="M783 662 L532 662 L532 646 C592 639 604 631 604 602 C604 586 601 566 593 539 L548 373 L259 373 L312 571 C327 622 353 641 414 646 L414 662 L137 662 L137 646 C201 640 216 632 216 601 C216 586 213 569 205 539 L84 91 C67 33 59 26 3 16 L3 0 L253 0 L252 16 C191 25 180 31 180 61 C180 69 181 76 183 83 L247 330 L536 330 L473 91 C457 38 437 23 371 16 L371 0 L648 0 L648 16 C581 23 568 30 568 60 C568 67 569 75 571 83 L700 571 C718 630 725 636 783 646 L783 662 Z " />
<glyph glyph-name="I" unicode="I" horiz-adv-x="333" d="M6 0 L254 0 L253 16 C194 23 184 30 184 59 C184 79 185 87 195 122 L315 571 C332 630 339 636 398 646 L397 662 L147 662 L147 646 C207 638 219 631 219 601 C219 586 216 569 208 539 L87 91 C70 33 63 26 6 16 L6 0 Z " />
<glyph glyph-name="J" unicode="J" horiz-adv-x="444" d="M497 662 L240 662 L240 646 C305 639 319 632 319 604 C319 589 316 573 307 539 L178 68 C168 28 154 13 129 13 C101 13 93 25 94 68 C95 104 75 126 44 126 C17 126 -1 104 -1 72 C-1 18 47 -18 118 -18 C171 -18 215 2 247 40 C274 72 293 117 314 195 L415 571 C433 632 440 637 498 646 L497 662 Z " />
<glyph glyph-name="K" unicode="K" horiz-adv-x="667" d="M738 662 L513 662 L513 646 C525 644 534 643 541 643 C553 642 562 640 569 636 C572 634 575 628 575 623 C575 599 520 545 430 482 L277 374 L329 571 C344 621 371 641 431 646 L431 662 L154 662 L154 646 C218 640 233 632 233 602 C233 586 230 569 222 539 L101 91 C84 31 78 26 19 16 L19 0 L271 0 L270 16 C206 23 197 29 197 62 C197 72 198 79 205 100 C206 106 208 113 211 122 L272 353 L396 142 C420 101 435 64 435 45 C435 30 421 22 388 20 C384 19 372 18 360 16 L360 0 L639 0 L639 16 C574 22 568 26 540 73 L360 380 L662 609 C690 630 714 641 738 646 L738 662 Z " />
<glyph glyph-name="L" unicode="L" horiz-adv-x="556" d="M415 662 L138 662 L138 646 C202 640 217 632 217 601 C217 586 214 569 206 539 L85 91 C68 33 61 26 4 16 L4 0 L480 0 L538 181 L517 187 C487 125 473 105 443 80 C404 49 355 36 272 36 C209 36 183 46 183 71 C183 79 187 101 193 121 L313 571 C328 622 354 641 415 646 L415 662 Z " />
<glyph glyph-name="M" unicode="M" horiz-adv-x="833" d="M889 662 L720 662 L384 162 L324 662 L140 662 L140 646 C192 643 216 631 216 608 C216 600 212 585 206 567 C204 561 202 556 194 525 L90 148 C60 43 45 23 -8 16 L-8 0 L193 0 L193 16 C140 20 120 33 120 62 C120 72 124 95 129 115 L244 554 L312 0 L329 0 L706 568 L579 92 C564 38 544 23 478 16 L478 0 L755 0 L755 16 C685 23 676 28 676 61 C676 78 678 89 687 122 L807 571 C825 632 830 636 890 646 L889 662 Z " />
<glyph glyph-name="N" unicode="N" horiz-adv-x="667" d="M742 662 L541 662 L541 646 C599 641 612 631 612 593 C612 582 610 572 604 550 C603 546 602 544 602 541 L502 156 L286 662 L123 662 L123 646 C171 642 192 629 211 589 L94 166 C57 36 49 24 -9 16 L-9 0 L192 0 L192 16 C139 20 120 32 120 61 C120 73 123 93 129 115 L240 542 L479 -15 L497 -15 L639 495 C675 626 679 631 743 646 L742 662 Z " />
<glyph glyph-name="O" unicode="O" horiz-adv-x="722" d="M486 675 C400 675 309 634 229 560 C128 467 70 346 70 228 C70 84 163 -18 294 -18 C503 -18 705 193 716 421 C723 565 623 675 486 675 L486 675 Z M477 641 C558 641 609 581 609 484 C609 374 563 229 499 135 C444 55 382 15 310 15 C225 15 177 77 177 189 C177 285 225 433 285 521 C341 602 403 641 477 641 L477 641 Z " />
<glyph glyph-name="P" unicode="P" horiz-adv-x="611" d="M154 646 C213 639 227 630 227 603 C227 588 225 576 210 522 L94 91 C76 30 70 24 12 16 L12 0 L261 0 L260 16 C196 25 191 29 191 65 C191 76 193 83 203 122 L255 317 C280 311 305 309 347 309 C431 309 499 326 542 358 C592 395 621 450 621 509 C621 608 545 662 405 662 L154 662 L154 646 Z M333 603 C339 624 351 632 379 632 C419 632 457 623 478 608 C504 589 516 558 516 509 C516 444 494 399 449 373 C418 355 379 347 316 347 C298 347 293 347 263 352 L333 603 Z " />
<glyph glyph-name="Q" unicode="Q" horiz-adv-x="722" d="M294 -16 C372 -11 411 -1 467 31 C616 114 716 276 716 436 C716 575 618 675 482 675 C400 675 309 634 229 560 C128 466 70 346 70 228 C70 143 101 72 157 29 C184 8 206 -2 251 -12 C156 -96 148 -102 73 -156 L83 -171 C121 -150 159 -140 199 -140 C220 -140 249 -146 293 -158 C355 -176 409 -185 448 -185 C504 -185 574 -159 626 -118 C650 -100 663 -85 689 -50 L674 -39 C618 -97 577 -116 503 -116 C472 -116 436 -110 378 -94 C324 -79 288 -72 266 -73 L240 -74 L294 -16 Z M477 641 C558 641 609 581 609 484 C609 375 563 229 500 137 C444 56 382 17 309 17 C225 17 177 79 177 189 C177 285 226 433 285 521 C341 602 403 641 477 641 L477 641 Z " />
<glyph glyph-name="R" unicode="R" horiz-adv-x="611" d="M587 16 C542 19 522 36 502 89 L406 338 C484 355 517 370 553 402 C586 431 604 470 604 515 C604 610 529 662 391 662 L140 662 L140 646 C183 640 188 639 199 632 C207 627 213 615 213 603 C213 592 208 567 201 540 L80 91 C63 31 56 25 -1 16 L-1 0 L247 0 L246 16 C183 25 177 29 177 64 C177 74 179 86 189 122 L243 334 L309 329 L437 0 L587 0 L587 16 Z M319 604 C325 625 338 632 371 632 C455 632 497 593 497 516 C497 417 433 366 307 366 C289 366 279 367 255 371 L319 604 Z " />
<glyph glyph-name="S" unicode="S" horiz-adv-x="500" d="M483 475 L521 676 L498 676 C484 655 475 650 452 650 C440 650 430 652 406 661 C383 670 352 675 320 675 C215 675 141 606 141 508 C141 452 156 423 219 357 C221 355 241 334 259 315 C277 295 296 275 298 272 C347 222 360 196 360 152 C360 75 305 18 231 18 C145 18 81 91 81 188 C81 195 81 201 83 209 L62 211 L30 -15 L48 -15 C55 8 66 18 87 18 C98 18 112 14 139 5 C186 -12 213 -18 245 -18 C361 -18 448 68 448 183 C448 249 425 289 332 382 C239 474 230 489 230 539 C230 602 272 641 341 641 C379 641 409 628 431 604 C453 579 462 545 464 478 L483 475 Z " />
<glyph glyph-name="T" unicode="T" horiz-adv-x="556" d="M660 662 L120 662 L79 506 L97 502 C150 612 183 629 337 627 L196 91 C181 38 157 21 90 16 L90 0 L384 0 L384 16 C296 23 292 25 292 64 C292 76 294 85 304 122 L440 627 L496 627 C569 627 602 601 602 544 C602 531 601 516 599 499 L616 497 L660 662 Z " />
<glyph glyph-name="U" unicode="U" horiz-adv-x="722" d="M781 662 L579 662 L579 646 C611 643 622 641 633 633 C644 627 651 612 651 599 C651 582 625 478 579 308 C575 296 571 279 566 259 C549 193 533 153 512 119 C473 56 418 24 347 24 C262 24 204 73 204 144 C204 182 239 323 300 535 C301 539 305 552 305 554 C326 624 342 639 411 646 L410 662 L134 662 L134 646 C202 640 213 634 213 604 C213 591 211 576 206 559 L154 364 C125 256 113 192 113 150 C113 53 207 -18 336 -18 C469 -18 552 54 595 206 L677 495 C714 627 718 632 781 646 L781 662 Z " />
<glyph glyph-name="V" unicode="V" horiz-adv-x="611" d="M704 662 L515 662 L515 646 C561 640 579 631 579 611 C579 592 560 548 528 491 L322 130 L251 579 C250 584 250 588 250 595 C250 629 264 638 328 646 L327 662 L83 662 L83 646 C140 639 142 636 165 509 L256 -18 L275 -18 L647 605 C663 632 681 645 704 646 L704 662 Z " />
<glyph glyph-name="W" unicode="W" horiz-adv-x="833" d="M923 662 L735 662 L735 646 C791 640 802 634 802 605 C802 588 795 566 781 537 L595 164 L550 572 L550 587 C552 631 564 640 618 646 L617 662 L376 662 L376 646 C435 644 446 636 453 587 L463 517 L291 164 L243 576 C242 581 242 588 242 591 C242 630 254 638 315 646 L315 662 L76 662 L76 646 C109 642 119 639 128 630 C140 619 145 599 158 506 L225 -18 L245 -18 L465 442 L470 442 L526 -18 L546 -18 L848 573 C875 625 884 634 923 646 L923 662 Z " />
<glyph glyph-name="X" unicode="X" horiz-adv-x="611" d="M671 662 L460 662 L460 646 C510 640 522 633 522 609 C522 596 516 584 502 568 L357 399 L295 548 C285 573 280 591 280 605 C280 630 296 639 351 646 L351 662 L83 662 L84 646 C142 641 157 631 177 584 L287 317 C250 274 215 234 204 219 C186 198 167 176 148 154 C100 97 70 65 52 51 C28 31 10 22 -17 16 L-17 0 L200 0 L200 16 C151 16 134 26 134 52 C134 67 141 83 155 98 L306 273 L376 105 C383 87 387 71 387 56 C387 26 377 21 311 16 L311 0 L587 0 L587 16 C517 24 507 31 481 91 L375 353 L545 550 C596 608 626 631 671 646 L671 662 Z " />
<glyph glyph-name="Y" unicode="Y" horiz-adv-x="556" d="M99 646 C156 638 159 635 177 579 L258 306 L198 91 C181 36 159 21 92 16 L92 0 L385 0 L385 16 C369 18 357 19 348 19 C331 20 317 23 307 29 C299 33 294 44 294 57 C294 79 300 104 325 188 C327 196 329 203 330 208 L359 310 L578 584 C611 624 619 632 649 646 L649 662 L457 662 L457 646 C506 640 506 640 518 634 C524 631 528 623 528 614 C528 586 481 519 378 398 C360 377 354 370 339 352 C327 396 324 406 307 464 C281 548 269 595 269 610 C269 634 281 640 342 646 L341 662 L99 662 L99 646 Z " />
<glyph glyph-name="Z" unicode="Z" horiz-adv-x="556" d="M612 662 L144 662 L99 514 L118 509 C160 603 196 622 329 626 L486 626 L6 14 L6 0 L496 0 L549 171 L530 174 C478 61 436 38 278 37 L137 37 L612 648 L612 662 Z " />
<glyph glyph-name="bracketleft" unicode="&#x5b;" horiz-adv-x="389" d="M406 645 L414 672 L238 672 L10 -155 L201 -155 L209 -128 L152 -128 C119 -128 103 -119 103 -101 C103 -95 103 -94 108 -78 L294 609 C302 636 312 644 343 645 L406 645 Z " />
<glyph glyph-name="backslash" unicode="&#x5c;" horiz-adv-x="278" d="M-33 675 L267 -18 L339 -18 L40 675 L-33 675 Z " />
<glyph glyph-name="bracketright" unicode="&#x5d;" horiz-adv-x="389" d="M8 -128 L0 -155 L175 -155 L404 672 L213 672 L205 645 L262 645 C294 645 310 636 310 618 C310 612 310 611 306 595 L120 -92 C112 -120 101 -127 71 -128 L8 -128 Z " />
<glyph glyph-name="asciicircum" unicode="&#x5e;" horiz-adv-x="422" d="M94 308 L238 605 L388 308 L442 308 L264 659 L212 659 L41 308 L94 308 Z " />
<glyph glyph-name="underscore" unicode="&#x5f;" horiz-adv-x="500" d="M500 -125 L500 -75 L0 -75 L0 -125 L500 -125 Z " />
<glyph glyph-name="grave" unicode="&#x60;" horiz-adv-x="333" d="M299 499 L331 499 L212 650 C199 666 188 673 172 673 C152 673 137 659 137 639 C137 626 143 617 156 606 L299 499 Z " />
<glyph glyph-name="a" unicode="a" horiz-adv-x="500" d="M478 112 C463 96 456 90 449 83 C419 52 406 42 396 42 C388 42 382 48 382 55 C382 75 428 255 476 423 C479 433 480 435 482 444 L475 447 L413 440 L410 437 L399 389 C391 426 362 447 318 447 C183 447 25 260 25 100 C25 30 63 -11 127 -11 C199 -11 242 23 333 148 C310 65 308 57 308 31 C308 2 320 -10 348 -10 C389 -10 413 9 490 101 L478 112 Z M324 425 C358 423 380 399 380 364 C380 280 327 159 257 83 C232 56 198 39 169 39 C132 39 110 67 110 113 C110 169 149 272 194 337 C235 395 282 428 324 425 L324 425 Z " />
<glyph glyph-name="b" unicode="b" horiz-adv-x="500" d="M118 652 C178 650 184 647 184 625 C184 616 181 603 175 581 C172 573 170 566 169 561 L167 555 L25 47 L25 43 C25 20 102 -11 160 -11 C313 -11 484 168 484 327 C484 397 435 447 367 447 C296 447 243 406 170 294 C224 484 232 513 279 687 L274 693 C222 683 185 677 118 669 L118 652 Z M328 397 C372 397 398 364 398 310 C398 245 345 134 284 71 C247 33 202 12 158 12 C127 12 112 23 112 46 C112 106 144 205 188 281 C233 359 279 397 328 397 L328 397 Z " />
<glyph glyph-name="c" unicode="c" horiz-adv-x="444" d="M369 107 C313 48 273 25 224 25 C166 25 132 67 132 139 C132 225 168 317 226 377 C256 408 296 426 336 426 C360 426 374 418 374 405 C374 400 373 396 368 386 C361 373 359 366 359 356 C359 332 374 318 399 318 C426 318 447 338 447 365 C447 412 402 447 341 447 C188 447 45 298 45 139 C45 44 99 -11 192 -11 C269 -11 324 20 385 97 L369 107 Z " />
<glyph glyph-name="d" unicode="d" horiz-adv-x="500" d="M479 113 C422 49 413 41 395 41 C385 41 377 50 377 61 C377 77 410 197 445 311 C470 393 492 472 549 687 L544 693 C489 681 452 675 388 669 L388 652 C445 650 451 647 451 625 C451 612 451 611 435 555 L389 388 C381 431 364 447 324 447 C192 447 25 255 25 103 C25 31 64 -11 131 -11 C199 -11 244 22 315 122 C303 71 300 55 300 32 C300 5 317 -13 342 -13 C385 -13 439 29 491 102 L479 113 Z M328 424 C358 422 373 403 373 367 C373 269 325 152 257 80 C231 53 200 38 172 38 C136 38 113 64 113 105 C113 187 165 306 233 377 C261 407 299 426 328 424 L328 424 Z " />
<glyph glyph-name="e" unicode="e" horiz-adv-x="444" d="M371 111 C298 51 266 35 222 35 C165 35 128 71 128 126 C128 142 130 152 139 189 L167 193 C320 214 428 292 428 379 C428 421 398 447 348 447 C201 447 40 279 40 126 C40 45 94 -11 173 -11 C245 -11 323 30 384 98 L371 111 Z M164 256 C199 346 275 424 326 424 C347 424 361 409 361 386 C361 353 342 316 310 286 C272 250 234 233 146 211 L164 256 Z " />
<glyph glyph-name="f" unicode="f" horiz-adv-x="278" d="M53 402 L144 402 L52 -24 C28 -134 -5 -189 -48 -189 C-60 -189 -68 -182 -68 -172 C-68 -169 -67 -167 -64 -162 C-60 -155 -59 -151 -59 -145 C-59 -123 -77 -106 -99 -106 C-120 -106 -136 -125 -136 -149 C-136 -183 -101 -210 -57 -210 C34 -210 105 -110 149 77 L224 402 L335 402 L341 434 L232 434 C262 594 301 665 357 665 C371 665 379 660 379 652 C379 650 378 647 375 642 C370 634 369 629 369 621 C369 597 384 581 406 581 C429 581 449 600 449 622 C449 659 412 687 362 687 C313 687 273 665 236 618 C206 578 185 532 154 434 L60 434 L53 402 Z " />
<glyph glyph-name="g" unicode="g" horiz-adv-x="500" d="M481 411 L419 411 C416 411 411 413 403 419 C375 437 342 447 303 447 C190 447 98 369 98 273 C98 220 120 191 177 164 C117 123 99 103 99 79 C99 65 107 54 126 39 C25 -26 6 -47 6 -95 C6 -165 72 -209 176 -209 C303 -209 389 -149 389 -60 C389 3 341 47 244 73 C200 84 174 100 174 115 C174 130 197 157 211 157 C213 157 215 157 218 156 C227 154 239 153 250 153 C342 153 438 236 438 315 C438 332 435 351 430 371 L480 371 L481 411 Z M183 17 C292 -18 328 -44 328 -91 C328 -146 269 -187 190 -187 C109 -187 62 -149 62 -85 C62 -60 68 -42 84 -23 C98 -5 141 28 149 28 C150 28 152 27 154 26 L183 17 Z M302 425 C339 425 358 401 358 354 C358 317 346 273 326 238 C303 196 272 174 237 174 C199 174 177 202 177 249 C177 343 235 425 302 425 L302 425 Z " />
<glyph glyph-name="h" unicode="h" horiz-adv-x="500" d="M479 119 C424 51 412 39 395 39 C386 39 379 47 379 57 C379 68 396 131 413 184 C444 278 464 354 464 380 C464 420 437 447 398 447 C332 447 260 381 163 234 L289 687 L284 693 C226 679 187 673 125 665 L125 649 L151 650 C174 651 192 640 192 625 C192 611 187 586 177 557 C177 555 173 541 167 519 L26 0 L102 0 C144 156 157 190 198 252 C251 332 321 395 357 395 C372 395 386 383 385 370 C385 365 382 353 378 336 L320 127 C306 77 299 45 299 33 C299 7 316 -9 344 -9 C395 -9 430 18 492 106 L479 119 Z " />
<glyph glyph-name="i" unicode="i" horiz-adv-x="278" d="M238 116 C212 82 206 75 196 65 C178 47 163 37 154 37 C146 37 138 44 138 52 C138 63 142 78 148 97 C150 103 153 111 155 119 L247 445 L244 447 C144 429 121 425 81 422 L81 406 C135 405 146 401 145 381 C145 371 141 356 136 336 L86 157 C68 96 62 66 62 46 C62 9 78 -11 108 -11 C155 -11 193 19 251 104 L238 116 Z M235 663 C206 663 186 640 186 608 C186 577 205 556 234 556 C262 556 285 580 285 607 C285 637 262 663 235 663 L235 663 Z " />
<glyph glyph-name="j" unicode="j" horiz-adv-x="278" d="M248 445 L245 447 C161 432 104 424 72 422 L72 406 L100 406 L107 407 C116 408 135 403 140 398 C144 394 147 385 147 375 C147 364 141 337 130 293 L55 -3 C19 -143 -5 -187 -45 -187 C-57 -187 -63 -183 -63 -175 C-63 -172 -62 -169 -58 -164 C-52 -156 -50 -151 -50 -143 C-50 -121 -68 -105 -91 -105 C-115 -105 -132 -123 -132 -148 C-132 -184 -99 -210 -52 -210 C36 -210 97 -134 139 28 L248 445 Z M230 663 C201 663 181 640 181 609 C181 577 200 556 229 556 C257 556 280 580 280 608 C280 637 257 663 230 663 L230 663 Z " />
<glyph glyph-name="k" unicode="k" horiz-adv-x="444" d="M434 111 C398 49 392 42 373 42 C351 42 331 75 292 172 C287 185 272 222 255 262 C405 393 437 415 485 418 L485 434 L299 434 L299 418 C343 417 355 413 355 400 C355 380 304 330 209 258 C194 247 179 235 165 224 L290 687 L285 693 C226 679 187 672 127 665 L127 649 L144 649 C178 649 194 641 195 624 C193 606 186 579 172 532 C167 514 166 509 161 490 L28 0 L104 0 L154 183 L197 215 C212 172 238 111 257 72 C287 10 307 -11 336 -11 C377 -11 403 15 450 99 L434 111 Z " />
<glyph glyph-name="l" unicode="l" horiz-adv-x="278" d="M246 125 C181 41 171 32 149 32 C139 32 134 38 134 51 C134 59 137 72 142 90 C143 94 144 97 145 98 L145 100 L302 687 L298 693 C238 679 200 672 139 665 L139 649 L156 649 C188 649 208 640 208 626 C208 622 207 616 204 607 L60 72 C57 61 56 52 56 45 C56 8 73 -11 105 -11 C158 -11 193 18 260 116 L246 125 Z " />
<glyph glyph-name="m" unicode="m" horiz-adv-x="722" d="M706 119 C639 39 639 39 619 39 C610 39 606 45 606 55 C606 59 610 75 617 100 L688 355 C689 359 691 377 691 384 C691 420 666 447 633 447 C613 447 592 440 568 424 C518 393 476 343 405 232 C431 310 447 367 447 387 C447 423 424 447 390 447 C328 447 256 380 161 233 L222 445 L219 447 C158 435 137 430 57 416 L57 400 C103 399 103 399 113 393 C118 391 122 384 122 378 C122 366 97 274 60 145 C36 64 33 52 19 0 L95 0 C145 159 160 198 196 251 C253 337 314 394 349 394 C362 394 369 385 369 369 C369 355 335 227 296 93 C286 62 283 50 269 0 L346 0 C387 157 409 210 460 280 C511 350 562 394 591 394 C602 394 611 385 611 373 C611 368 609 356 604 337 L543 104 C532 61 529 47 529 37 C529 7 543 -9 569 -9 C616 -9 664 26 716 99 L722 106 L706 119 Z " />
<glyph glyph-name="n" unicode="n" horiz-adv-x="500" d="M479 119 C423 50 412 39 395 39 C386 39 379 46 379 55 C379 62 379 62 394 118 L453 327 C459 349 463 371 463 386 C463 422 436 447 397 447 C332 447 267 386 162 224 L231 445 L228 447 C174 436 153 432 64 416 L64 400 C115 398 128 392 128 372 C128 364 128 361 126 355 L26 0 L102 0 C151 160 160 182 206 251 C267 345 319 395 357 395 C372 395 381 384 381 366 C381 354 375 322 366 289 L320 121 C305 65 303 56 303 46 C303 7 317 -9 350 -9 C396 -9 422 12 493 105 L479 119 Z " />
<glyph glyph-name="o" unicode="o" horiz-adv-x="500" d="M331 447 C287 447 248 436 206 413 C100 354 26 237 26 130 C26 42 82 -11 174 -11 C241 -11 306 19 366 77 C433 143 475 230 475 306 C475 390 417 447 331 447 L331 447 Z M319 426 C362 426 390 390 390 332 C390 258 356 156 309 89 C272 35 233 10 189 10 C143 10 111 46 111 100 C111 175 142 266 192 338 C232 396 275 426 319 426 L319 426 Z " />
<glyph glyph-name="p" unicode="p" horiz-adv-x="500" d="M66 409 L89 410 L92 410 C111 412 131 397 131 381 C131 370 94 227 57 95 C32 6 11 -71 -4 -132 C-15 -179 -28 -190 -72 -192 L-72 -208 L136 -208 L136 -193 C88 -192 71 -184 71 -162 C71 -147 86 -81 110 6 C136 -7 153 -11 177 -11 C326 -11 484 160 484 322 C484 400 440 447 368 447 C302 447 254 415 194 332 L224 434 C225 438 226 441 226 443 C226 445 223 448 220 447 L64 425 L66 409 Z M331 403 C374 401 393 375 393 319 C393 250 363 163 318 99 C275 39 226 8 173 8 C145 8 125 23 125 45 C125 79 162 211 193 287 C221 357 280 406 331 403 L331 403 Z " />
<glyph glyph-name="q" unicode="q" horiz-adv-x="500" d="M393 -194 L376 -194 C338 -194 318 -184 318 -165 C318 -162 319 -158 320 -153 L491 432 L417 432 L402 385 C385 431 365 447 324 447 C189 447 24 259 24 105 C24 34 63 -11 126 -11 C199 -11 245 26 336 156 L244 -142 C230 -183 214 -191 148 -196 L148 -212 L393 -212 L393 -194 Z M327 425 C359 425 386 398 386 364 C386 280 315 135 245 77 C219 55 191 43 167 43 C132 43 111 72 111 120 C111 194 165 307 232 375 C264 407 297 425 327 425 L327 425 Z " />
<glyph glyph-name="r" unicode="r" horiz-adv-x="389" d="M133 0 C188 175 205 216 251 293 C286 350 314 381 331 381 C338 381 343 377 348 367 C356 350 364 345 384 345 C414 345 431 363 431 395 C431 427 412 447 384 447 C361 447 333 432 307 404 C265 362 223 301 207 262 L192 225 L248 445 L245 447 C172 434 161 432 88 420 L88 403 C110 407 114 408 122 408 C144 408 157 398 157 380 C157 367 149 326 141 296 L56 0 L133 0 Z " />
<glyph glyph-name="s" unicode="s" horiz-adv-x="389" d="M28 148 L6 -13 L22 -13 C30 3 36 8 46 8 C58 8 76 4 96 -1 C120 -8 135 -11 152 -11 C238 -11 299 45 299 122 C299 161 278 205 231 263 C193 310 177 341 177 369 C177 403 199 424 234 424 C288 424 318 386 327 307 L343 307 L365 448 L350 448 C342 434 335 430 320 430 C312 430 302 432 284 437 C258 445 244 447 225 447 C152 447 103 402 103 335 C103 302 124 259 166 204 C205 154 222 118 222 89 C222 42 191 10 146 10 C90 10 59 52 44 148 L28 148 Z " />
<glyph glyph-name="t" unicode="t" horiz-adv-x="278" d="M311 434 L230 434 L259 538 C260 541 260 543 260 544 C260 550 258 554 254 554 L252 554 L249 554 C245 554 242 551 237 545 C198 494 135 442 101 434 C76 425 69 419 69 408 L69 402 L144 402 L69 123 C53 63 45 31 45 27 C45 5 66 -11 93 -11 C140 -11 174 17 238 112 L225 119 C176 56 158 39 142 39 C133 39 127 46 127 58 C127 60 127 60 129 64 L220 402 L306 402 L311 434 Z " />
<glyph glyph-name="u" unicode="u" horiz-adv-x="500" d="M474 119 C420 52 406 39 389 39 C382 39 378 45 378 55 C378 61 378 61 399 135 L481 438 L406 438 C347 281 340 265 292 191 C231 94 181 43 148 43 C135 43 126 54 127 68 L128 77 L224 445 L221 447 C165 434 128 427 68 420 L68 406 C109 405 109 405 119 400 C124 397 129 388 129 381 C129 373 124 348 114 313 L76 169 C56 95 49 62 49 44 C49 7 67 -11 103 -11 C175 -11 228 44 347 239 C315 128 299 61 299 39 C299 8 317 -9 348 -9 C395 -9 418 10 489 110 L474 119 Z " />
<glyph glyph-name="v" unicode="v" horiz-adv-x="444" d="M38 409 C49 410 60 410 68 410 C112 410 123 385 138 251 C143 209 152 59 152 28 L152 18 C151 5 151 5 151 4 C151 -11 154 -18 160 -18 C177 -18 213 17 290 106 C387 219 448 328 448 388 C448 420 422 447 392 447 C369 447 354 434 354 412 C354 395 360 384 378 368 C392 355 396 348 396 338 C396 282 321 166 224 71 C217 216 213 266 199 341 C180 447 180 447 171 447 C166 447 158 446 150 443 C135 439 73 427 38 422 L38 409 Z " />
<glyph glyph-name="w" unicode="w" horiz-adv-x="667" d="M31 409 L51 410 L60 410 C91 410 97 403 106 363 C116 313 128 199 131 119 L134 29 C136 -11 138 -18 148 -18 C159 -18 176 7 213 78 C218 87 238 123 269 177 L361 336 L388 12 C390 -15 391 -18 399 -18 C407 -18 417 -8 444 25 C445 26 450 31 454 37 C596 205 672 330 672 394 C672 425 650 447 619 447 C595 447 580 434 580 412 C580 399 585 390 601 376 C617 361 623 350 623 338 C623 295 588 241 453 75 L424 432 C423 443 421 446 415 446 C410 446 408 444 403 436 L205 128 C203 197 192 305 181 376 C171 441 169 448 157 448 C151 448 139 445 127 441 C126 439 90 432 57 427 C53 426 43 425 31 423 L31 409 Z " />
<glyph glyph-name="x" unicode="x" horiz-adv-x="444" d="M409 113 C400 103 395 97 386 85 C363 55 351 45 339 45 C324 45 315 58 308 87 L306 93 C306 95 305 99 304 103 C281 196 269 250 269 268 C313 344 351 390 369 390 C375 390 384 387 394 382 C406 375 413 373 422 373 C443 373 457 388 457 410 C457 432 440 447 415 447 C371 447 333 411 261 302 L250 358 C237 427 225 447 198 447 C175 447 139 438 80 418 C74 416 74 415 68 414 L72 399 C119 410 119 410 129 410 C154 410 160 402 174 340 L203 215 L119 96 C98 67 77 48 66 48 C60 48 51 51 40 57 C27 64 16 67 8 67 C-12 67 -27 52 -27 31 C-27 5 -8 -11 23 -11 C55 -11 67 -2 118 59 C144 91 169 122 210 178 L240 57 C252 5 266 -11 299 -11 C337 -11 363 13 423 104 L409 113 Z " />
<glyph glyph-name="y" unicode="y" horiz-adv-x="444" d="M24 406 C37 409 45 410 56 410 C98 410 117 393 136 339 C165 258 214 49 214 8 C214 -8 207 -23 192 -43 C160 -86 139 -111 128 -122 C107 -145 95 -153 81 -153 C75 -153 69 -150 58 -142 C43 -130 32 -125 20 -125 C-3 -125 -20 -142 -20 -165 C-20 -191 1 -209 31 -209 C97 -209 229 -58 342 144 C412 269 441 342 441 391 C441 422 416 447 385 447 C361 447 345 432 345 409 C345 393 353 383 374 370 C393 359 400 350 400 336 C400 295 361 215 274 73 L255 191 C240 281 184 447 169 447 L165 447 C164 446 161 446 156 446 C148 445 111 438 56 428 C52 428 39 425 24 423 L24 406 Z " />
<glyph glyph-name="z" unicode="z" horiz-adv-x="389" d="M85 313 C106 363 121 374 167 373 L315 373 L-2 -4 L7 -13 C15 -6 17 -5 29 0 L325 0 L369 132 L351 132 C322 69 315 65 235 66 L90 66 L389 423 L389 434 L101 434 L69 317 L85 313 Z " />
<glyph glyph-name="braceleft" unicode="&#x7b;" horiz-adv-x="400" d="M420 697 C305 697 260 663 229 555 L182 374 C163 300 142 276 77 259 C116 244 130 229 130 200 C130 176 118 121 97 45 C76 -30 66 -76 66 -99 C66 -155 100 -177 194 -179 L196 -168 C157 -157 142 -138 142 -101 C142 -83 142 -83 169 22 C202 153 206 173 206 194 C206 222 189 241 150 259 C216 276 241 305 263 389 L307 560 C328 639 354 669 417 685 L420 697 Z " />
<glyph glyph-name="bar" unicode="&#x7c;" horiz-adv-x="275" d="M119 -155 L185 -155 L185 676 L119 676 L119 -155 Z " />
<glyph glyph-name="braceright" unicode="&#x7d;" horiz-adv-x="400" d="M228 685 C266 675 282 655 282 617 C282 603 276 574 260 515 C234 415 218 342 218 323 C218 295 235 275 275 259 C208 241 183 212 161 128 L117 -43 C97 -122 71 -152 8 -168 L5 -179 C119 -179 164 -145 195 -38 L242 143 C261 217 283 241 348 259 C308 273 294 288 294 317 C294 342 305 396 327 472 C348 546 358 593 358 617 C358 673 324 694 231 697 L228 685 Z " />
<glyph glyph-name="asciitilde" unicode="&#x7e;" horiz-adv-x="541" d="M461 303 C436 264 419 252 388 252 C367 252 346 257 329 266 C239 313 221 320 176 320 C130 320 100 299 54 235 L109 203 C134 242 151 254 182 254 C203 254 223 249 241 240 C331 192 349 186 394 186 C440 186 468 206 516 271 L461 303 Z " />
<glyph glyph-name="uni00A0" unicode="&#xa0;" horiz-adv-x="250" d="" />
<glyph glyph-name="exclamdown" unicode="&#xa1;" horiz-adv-x="389" d="M238 289 C183 135 148 48 113 -32 C84 -94 75 -124 75 -155 C75 -190 89 -208 116 -208 C153 -208 173 -175 186 -90 C203 26 221 121 255 285 L238 289 Z M284 479 C253 479 228 456 228 427 C228 398 254 373 284 373 C311 373 336 397 336 424 C336 456 314 479 284 479 L284 479 Z " />
<glyph glyph-name="cent" unicode="&#xa2;" horiz-adv-x="500" d="M382 568 L352 568 L319 446 C267 438 242 429 206 405 C123 349 73 258 73 164 C73 99 96 46 136 17 C153 5 167 -1 195 -7 L158 -145 L189 -145 L226 -10 C231 -11 233 -11 237 -11 C311 -11 364 21 418 97 L401 107 C350 47 312 25 262 25 C251 25 244 26 236 29 L344 426 C369 425 381 417 381 403 C381 399 380 394 376 386 C371 375 369 369 369 361 C369 334 385 318 412 318 C438 318 457 335 457 361 C457 383 443 408 421 424 C402 438 386 443 349 446 L382 568 Z M209 42 C175 69 160 107 160 168 C160 225 176 285 203 332 C234 385 261 408 312 423 L209 42 Z " />
<glyph glyph-name="sterling" unicode="&#xa3;" horiz-adv-x="500" d="M398 323 L405 366 L280 366 C320 596 343 650 401 650 C426 650 437 638 442 605 C448 570 455 561 478 561 C504 561 518 575 518 602 C518 647 479 679 423 679 C369 679 317 652 280 602 C230 537 209 481 190 366 L78 366 L70 323 L184 323 L161 116 C119 128 119 128 104 128 C48 128 9 100 9 60 C9 20 36 -6 76 -6 C111 -6 133 9 172 58 C238 8 269 -6 319 -6 C387 -6 437 29 462 92 L451 101 L441 94 C412 74 391 67 361 67 C318 67 270 78 198 105 C239 196 245 211 270 323 L398 323 Z M147 74 C135 40 106 16 76 16 C51 16 32 33 32 54 C32 81 54 100 85 100 C106 100 119 95 147 74 L147 74 Z " />
<glyph glyph-name="currency" unicode="&#xa4;" horiz-adv-x="500" d="M4 104 L55 54 L152 153 C194 125 234 112 281 112 C328 112 368 125 407 153 L508 54 L556 104 L458 202 C485 245 496 281 496 328 C496 377 484 415 455 457 L552 557 L503 605 L404 508 C364 536 326 548 277 548 C229 548 192 536 149 508 L50 605 L0 557 L100 457 C72 418 60 380 60 332 C60 283 73 244 103 202 L4 104 Z M280 483 C360 483 427 413 427 329 C427 244 362 177 280 177 C196 177 129 246 129 333 C129 417 196 483 280 483 L280 483 Z " />
<glyph glyph-name="yen" unicode="&#xa5;" horiz-adv-x="500" d="M474 185 L486 226 L303 226 L327 308 L333 316 L505 316 L517 357 L364 357 L545 584 C578 624 587 632 619 646 L619 662 L427 662 L427 646 C477 640 477 640 488 634 C494 631 498 622 498 614 C498 586 451 520 336 386 C327 376 318 365 307 352 C294 398 291 409 277 454 C247 554 236 595 236 610 C236 635 247 640 311 646 L311 662 L69 662 L69 646 C136 638 141 634 159 579 L225 357 L83 357 L71 316 L237 316 L240 306 L217 226 L51 226 L39 185 L206 185 L180 91 C163 40 134 21 70 16 L66 0 L355 0 L355 16 C281 22 281 22 272 30 C264 37 261 45 261 59 C261 78 268 110 283 157 L291 185 L474 185 Z " />
<glyph glyph-name="brokenbar" unicode="&#xa6;" horiz-adv-x="275" d="M105 -153 L171 -153 L171 177 L105 177 L105 -153 Z M105 315 L171 315 L171 644 L105 644 L105 315 Z " />
<glyph glyph-name="section" unicode="&#xa7;" horiz-adv-x="500" d="M250 404 C232 411 215 415 197 415 C138 415 90 360 90 291 C90 243 115 190 164 135 L242 47 C280 3 293 -21 293 -52 C293 -106 251 -143 191 -143 C152 -143 118 -125 118 -106 C118 -99 122 -95 133 -88 C153 -75 160 -64 160 -42 C160 -14 142 2 112 2 C77 2 56 -19 56 -54 C56 -116 117 -164 195 -164 C285 -164 352 -105 352 -26 C352 15 341 37 287 105 L289 108 C301 102 307 101 322 101 C394 101 441 151 441 227 C441 269 425 312 398 345 L272 497 C254 518 245 544 245 570 C245 622 280 654 338 654 C373 654 399 640 399 622 C399 617 395 611 386 603 C370 590 364 579 364 565 C364 538 384 519 412 519 C444 519 464 540 464 574 C464 633 409 675 332 675 C244 675 183 623 183 550 C183 505 200 470 252 407 L250 404 Z M214 394 C248 394 283 369 323 317 C368 258 382 229 382 194 C382 155 353 122 317 122 C257 122 147 255 147 327 C147 365 176 394 214 394 L214 394 Z " />
<glyph glyph-name="dieresis" unicode="&#xa8;" horiz-adv-x="333" d="M164 614 C136 614 114 593 114 566 C114 537 136 515 164 515 C191 515 213 537 213 564 C213 590 189 614 164 614 L164 614 Z M367 614 C339 614 317 593 317 566 C317 537 339 515 367 515 C394 515 416 537 416 564 C416 590 392 614 367 614 L367 614 Z " />
<glyph glyph-name="copyright" unicode="&#xa9;" horiz-adv-x="760" d="M405 675 C215 675 64 522 64 331 C64 136 219 -18 413 -18 C601 -18 752 132 752 320 C752 520 601 675 405 675 L405 675 Z M406 632 C566 632 696 492 696 321 C696 161 566 25 412 25 C253 25 120 164 120 331 C120 496 250 632 406 632 L406 632 Z M558 524 L539 524 C532 507 528 503 517 503 C513 503 507 504 499 507 C450 522 442 524 413 524 C282 524 184 435 184 315 C184 200 277 111 399 111 C478 111 530 138 578 204 L561 212 C520 160 478 138 417 138 C317 138 261 207 261 328 C261 437 317 504 408 504 C479 504 525 469 550 396 L568 396 L558 524 Z " />
<glyph glyph-name="ordfeminine" unicode="&#xaa;" horiz-adv-x="276" d="M312 682 L310 680 L303 650 C297 674 277 685 242 685 C154 685 53 578 53 484 C53 439 83 412 133 412 C183 412 210 431 260 500 C246 465 243 455 243 438 C243 422 255 412 275 412 C301 412 316 423 365 479 L358 489 C330 459 319 449 313 449 C311 449 309 452 309 455 C309 457 309 460 310 463 C310 464 311 470 313 479 C314 491 335 573 365 684 L312 682 Z M262 667 C274 666 282 650 282 628 C282 596 262 543 234 503 C209 466 181 446 157 446 C141 446 127 466 127 488 C127 563 210 673 262 667 L262 667 Z " />
<glyph glyph-name="guillemotleft" unicode="&#xab;" horiz-adv-x="500" d="M65 219 C82 194 99 173 134 134 C143 123 150 115 156 106 C183 65 208 37 218 37 C222 37 225 40 225 44 C225 54 199 110 161 179 L140 220 C168 250 190 273 205 288 C219 300 232 313 245 327 C281 365 297 388 297 401 C297 405 294 409 290 409 C283 409 265 394 185 324 C167 307 155 298 101 256 L65 228 L65 219 Z M229 219 C246 194 264 172 298 134 C307 124 314 115 320 106 C346 65 372 37 382 37 C386 37 389 40 389 44 C389 54 363 110 325 179 C322 185 314 202 304 220 C332 250 354 273 369 288 C383 300 396 313 409 327 C445 365 461 388 461 401 C461 405 458 409 454 409 C447 409 431 395 349 324 C331 307 320 298 265 256 L229 228 L229 219 Z " />
<glyph glyph-name="logicalnot" unicode="&#xac;" horiz-adv-x="675" d="M34 388 L34 324 L472 324 L472 118 L538 118 L538 388 L34 388 Z " />
<glyph glyph-name="uni00AD" unicode="&#xad;" horiz-adv-x="333" d="M289 259 L67 259 L53 195 L276 195 L289 259 Z " />
<glyph glyph-name="registered" unicode="&#xae;" horiz-adv-x="760" d="M247 503 C279 500 280 499 288 495 C294 492 295 485 296 454 L298 212 C298 188 297 178 294 174 C288 168 284 167 250 163 L250 148 L412 148 L412 163 C381 167 379 167 371 171 C365 175 364 180 363 212 L362 312 L410 312 C435 275 445 258 463 229 C500 165 515 149 533 148 L597 148 L597 157 C577 173 552 199 520 243 L462 322 C514 342 541 377 541 425 C541 482 496 518 424 518 L247 518 L247 503 Z M360 499 L402 499 C449 499 473 472 473 419 C473 361 449 330 405 330 L362 330 L360 499 Z M407 675 C217 675 66 522 66 331 C66 136 221 -18 415 -18 C603 -18 754 132 754 320 C754 520 603 675 407 675 L407 675 Z M408 632 C568 632 698 492 698 321 C698 161 568 25 414 25 C255 25 122 164 122 331 C122 496 252 632 408 632 L408 632 Z " />
<glyph glyph-name="macron" unicode="&#xaf;" horiz-adv-x="333" d="M146 709 L134 666 L440 666 L453 709 L146 709 Z " />
<glyph glyph-name="degree" unicode="&#xb0;" horiz-adv-x="400" d="M282 685 C201 685 138 622 138 541 C138 460 203 395 283 395 C365 395 428 457 428 539 C428 620 363 685 282 685 L282 685 Z M282 651 C339 651 388 600 388 539 C388 478 341 429 283 429 C226 429 178 481 178 541 C178 601 225 651 282 651 L282 651 Z " />
<glyph glyph-name="plusminus" unicode="&#xb1;" horiz-adv-x="675" d="M113 60 L611 60 L610 114 L113 114 L113 60 Z M332 400 L110 400 L110 346 L333 346 L334 184 L388 184 L386 346 L608 346 L608 400 L386 400 L384 623 L330 623 L332 400 Z " />
<glyph glyph-name="twosuperior" unicode="&#xb2;" horiz-adv-x="300" d="M301 363 C286 336 274 330 235 329 L126 329 L124 334 L238 445 C325 529 337 547 337 582 C337 639 286 685 224 685 C189 685 156 673 130 652 C112 636 102 622 88 588 L101 580 C131 619 155 633 192 633 C236 633 271 603 271 565 C271 533 240 485 179 425 L45 293 L45 275 L279 275 L312 355 L301 363 Z " />
<glyph glyph-name="threesuperior" unicode="&#xb3;" horiz-adv-x="300" d="M160 617 C191 646 206 653 233 653 C262 653 284 630 284 600 C284 554 237 524 136 505 L136 496 L149 496 C213 496 252 459 252 396 C252 343 216 303 167 303 C156 303 143 308 124 322 C107 334 94 340 85 340 C68 340 55 328 55 311 C55 286 81 272 129 272 C238 272 315 337 315 430 C315 457 308 477 293 493 C284 503 283 504 255 518 L251 520 C328 548 352 569 352 608 C352 652 310 686 256 686 C210 686 170 662 149 624 L160 617 Z " />
<glyph glyph-name="acute" unicode="&#xb4;" horiz-adv-x="333" d="M192 501 L227 501 L400 608 C412 616 417 624 417 637 C417 657 401 673 380 673 C370 673 361 670 355 663 L192 501 Z " />
<glyph glyph-name="mu" unicode="&#xb5;" horiz-adv-x="500" d="M510 434 L421 434 L333 117 C295 71 250 46 206 46 C166 46 140 72 140 112 C140 122 142 139 144 146 L224 434 L135 434 L32 55 C25 27 13 -4 -6 -47 C-40 -107 -50 -135 -50 -170 C-50 -199 -40 -212 -17 -212 C34 -212 61 -148 62 -24 C62 21 63 37 67 67 C77 35 86 20 105 8 C121 -3 144 -10 166 -10 C222 -10 271 18 327 81 C323 66 322 56 322 46 C322 8 340 -10 377 -10 C417 -10 443 4 489 48 L492 57 C466 37 451 30 434 30 C418 30 409 39 409 56 C409 66 410 70 416 93 L510 434 Z " />
<glyph glyph-name="paragraph" unicode="&#xb6;" horiz-adv-x="523" d="M296 640 L354 640 L362 -180 L428 -180 L421 553 C422 626 431 636 508 643 L508 662 L245 662 C99 662 38 608 38 480 C38 397 62 340 109 306 C143 283 171 275 234 273 L238 -180 L304 -180 L296 640 Z M234 295 C200 298 184 304 166 318 C130 346 114 398 114 484 C114 554 127 597 155 618 C174 631 191 637 230 640 L234 295 Z " />
<glyph glyph-name="periodcentered" unicode="&#xb7;" horiz-adv-x="250" d="M138 315 C108 315 83 289 83 258 C83 227 108 202 138 202 C170 202 196 227 196 256 C196 288 170 315 138 315 L138 315 Z " />
<glyph glyph-name="cedilla" unicode="&#xb8;" horiz-adv-x="333" d="M37 -97 L46 -105 C59 -100 67 -98 78 -98 C105 -98 125 -117 125 -143 C125 -169 106 -184 71 -184 C50 -184 33 -180 3 -169 L-14 -199 C28 -215 51 -220 80 -220 C150 -220 200 -184 200 -134 C200 -91 168 -64 117 -64 C108 -64 101 -65 91 -67 L135 0 L97 0 L37 -97 Z " />
<glyph glyph-name="onesuperior" unicode="&#xb9;" horiz-adv-x="300" d="M263 291 C223 292 212 296 212 314 C212 322 218 347 228 386 L303 664 C305 670 306 676 306 680 C306 683 304 685 301 685 L298 685 L294 684 C285 684 267 680 240 675 C217 670 196 667 169 663 L170 644 L204 645 L208 645 C219 645 227 637 227 626 C227 621 227 621 223 605 L144 317 C139 301 127 296 79 291 L80 275 L264 275 L263 291 Z " />
<glyph glyph-name="ordmasculine" unicode="&#xba;" horiz-adv-x="310" d="M293 685 C191 685 94 594 94 497 C94 445 133 412 193 412 C292 412 392 506 392 599 C392 649 351 685 293 685 L293 685 Z M286 663 C308 662 318 646 318 615 C318 561 293 496 257 459 C244 445 225 436 207 436 C183 436 168 455 168 483 C168 570 231 667 286 663 L286 663 Z " />
<glyph glyph-name="guillemotright" unicode="&#xbb;" horiz-adv-x="500" d="M464 227 C452 244 432 270 395 312 C386 323 379 332 373 340 C346 380 320 409 311 409 C307 409 304 406 304 402 C304 392 331 335 368 267 C371 261 379 245 389 226 C361 196 339 173 324 158 C310 146 297 133 284 119 C248 80 232 58 232 45 C232 40 235 37 239 37 C246 37 262 50 344 122 C363 139 374 148 428 190 L464 218 L464 227 Z M299 227 C288 244 267 271 231 312 C222 323 215 332 209 340 C182 380 156 409 147 409 C143 409 140 406 140 402 C140 392 167 335 203 267 C206 261 215 245 224 226 C197 196 175 173 160 158 C146 146 133 133 120 119 C84 80 68 58 68 45 C68 40 71 37 75 37 C82 37 97 50 180 122 C198 139 210 148 264 190 C276 200 288 209 300 218 L299 227 Z " />
<glyph glyph-name="onequarter" unicode="&#xbc;" horiz-adv-x="750" d="M672 149 L616 149 L685 412 L648 412 L385 149 L374 106 L544 106 L516 0 L580 0 L606 105 L665 105 L672 149 Z M604 338 L551 149 L421 149 L604 338 Z M241 291 C202 292 191 296 191 314 C191 322 197 350 207 386 L282 664 C283 670 284 675 284 679 C284 683 283 685 279 685 C274 685 249 681 218 675 C184 669 170 666 148 663 L149 644 L181 645 L186 645 C198 645 205 637 205 625 C205 621 204 615 201 605 L123 317 C118 301 105 296 58 291 L59 275 L242 275 L241 291 Z M639 685 L588 685 L157 -10 L209 -10 L639 685 Z " />
<glyph glyph-name="onehalf" unicode="&#xbd;" horiz-adv-x="750" d="M616 685 L564 685 L134 -10 L185 -10 L616 685 Z M241 291 C202 292 191 296 191 314 C191 322 197 350 207 386 L282 664 C283 670 284 675 284 679 C284 683 283 685 279 685 C274 685 249 681 218 675 C184 669 170 666 148 663 L149 644 L181 645 L186 645 C198 645 205 637 205 625 C205 621 204 615 201 605 L123 317 C118 301 105 296 58 291 L59 275 L242 275 L241 291 Z M690 88 C676 61 664 55 625 54 L516 54 L514 59 L624 171 C708 255 719 271 719 305 C719 363 665 412 602 412 C569 412 535 400 510 378 C492 362 482 347 469 314 L483 305 C512 345 535 359 572 359 C617 359 654 327 654 288 C654 257 624 210 565 150 L436 18 L437 0 L672 0 L701 80 L690 88 Z " />
<glyph glyph-name="threequarters" unicode="&#xbe;" horiz-adv-x="750" d="M689 149 L633 149 L701 412 L665 412 L402 149 L390 106 L561 106 L533 0 L597 0 L623 105 L681 105 L689 149 Z M620 338 L568 149 L437 149 L620 338 Z M149 617 C180 645 194 653 220 653 C251 653 274 629 274 598 C274 553 228 523 130 505 L130 496 L143 496 C209 496 250 456 250 392 C250 341 215 303 168 303 C156 303 144 308 124 322 C106 334 93 340 84 340 C68 340 55 328 55 312 C55 286 82 272 131 272 C238 272 312 335 312 425 C312 454 304 476 287 493 C278 503 278 503 248 518 L244 520 C319 547 342 568 342 606 C342 651 298 686 243 686 C197 686 158 662 138 624 L149 617 Z M640 685 L588 685 L157 -10 L209 -10 L640 685 Z " />
<glyph glyph-name="questiondown" unicode="&#xbf;" horiz-adv-x="500" d="M298 289 L291 260 C277 202 248 164 176 106 C61 12 42 -14 42 -76 C42 -156 101 -208 193 -208 C276 -208 334 -163 334 -98 C334 -67 319 -49 294 -49 C270 -49 254 -64 254 -85 C254 -93 256 -99 262 -110 C268 -123 270 -129 270 -138 C270 -168 243 -186 199 -186 C146 -186 117 -155 117 -99 C117 -46 139 -4 204 68 C287 164 299 186 315 287 L298 289 Z M328 477 C299 477 275 453 275 425 C275 397 300 373 329 373 C359 373 382 396 382 425 C382 454 358 477 328 477 L328 477 Z " />
<glyph glyph-name="Agrave" unicode="&#xc0;" horiz-adv-x="611" d="M584 16 C526 21 519 29 506 103 L405 678 L379 678 L89 170 C11 36 1 24 -40 16 L-40 0 L150 0 L150 16 C97 22 89 26 89 53 C89 72 91 78 109 115 L166 229 L389 229 L410 96 C412 86 413 75 413 67 C413 31 399 22 334 16 L334 0 L584 0 L584 16 Z M187 266 L336 530 L384 266 L187 266 Z M440 714 L472 714 L353 865 C340 881 328 888 313 888 C293 888 278 873 278 854 C278 842 284 831 297 821 L440 714 Z " />
<glyph glyph-name="Aacute" unicode="&#xc1;" horiz-adv-x="611" d="M584 16 C526 21 519 29 506 103 L405 678 L379 678 L89 170 C11 36 1 24 -40 16 L-40 0 L150 0 L150 16 C97 22 89 26 89 53 C89 72 91 78 109 115 L166 229 L389 229 L410 96 C412 86 413 75 413 67 C413 31 399 22 334 16 L334 0 L584 0 L584 16 Z M187 266 L336 530 L384 266 L187 266 Z M329 716 L364 716 L536 824 C548 831 553 839 553 852 C553 872 537 888 516 888 C506 888 498 885 491 878 L329 716 Z " />
<glyph glyph-name="Acircumflex" unicode="&#xc2;" horiz-adv-x="611" d="M584 16 C526 21 519 29 506 103 L405 678 L379 678 L89 170 C11 36 1 24 -40 16 L-40 0 L150 0 L150 16 C97 22 89 26 89 53 C89 72 91 78 109 115 L166 229 L389 229 L410 96 C412 86 413 75 413 67 C413 31 399 22 334 16 L334 0 L584 0 L584 16 Z M187 266 L336 530 L384 266 L187 266 Z M451 885 L401 885 L243 714 L283 714 L421 819 L505 714 L542 714 L451 885 Z " />
<glyph glyph-name="Atilde" unicode="&#xc3;" horiz-adv-x="611" d="M584 16 C526 21 519 29 506 103 L405 678 L379 678 L89 170 C11 36 1 24 -40 16 L-40 0 L150 0 L150 16 C97 22 89 26 89 53 C89 72 91 78 109 115 L166 229 L389 229 L410 96 C412 86 413 75 413 67 C413 31 399 22 334 16 L334 0 L584 0 L584 16 Z M187 266 L336 530 L384 266 L187 266 Z M549 848 C539 814 526 803 498 803 C483 803 466 808 435 822 C397 840 371 847 348 847 C295 847 267 817 247 739 L277 739 C286 772 302 787 328 787 C345 787 370 779 424 758 C451 747 470 742 483 742 C531 742 564 779 578 848 L549 848 Z " />
<glyph glyph-name="Adieresis" unicode="&#xc4;" horiz-adv-x="611" d="M584 16 C526 21 519 29 506 103 L405 678 L379 678 L89 170 C11 36 1 24 -40 16 L-40 0 L150 0 L150 16 C97 22 89 26 89 53 C89 72 91 78 109 115 L166 229 L389 229 L410 96 C412 86 413 75 413 67 C413 31 399 22 334 16 L334 0 L584 0 L584 16 Z M187 266 L336 530 L384 266 L187 266 Z M298 829 C270 829 248 808 248 781 C248 752 270 730 298 730 C325 730 347 752 347 779 C347 805 323 829 298 829 L298 829 Z M501 829 C473 829 451 808 451 781 C451 752 473 730 501 730 C528 730 550 752 550 779 C550 805 526 829 501 829 L501 829 Z " />
<glyph glyph-name="Aring" unicode="&#xc5;" horiz-adv-x="611" d="M584 16 C526 21 519 29 506 103 L405 678 L379 678 L89 170 C11 36 1 24 -40 16 L-40 0 L150 0 L150 16 C97 22 89 26 89 53 C89 72 91 78 109 115 L166 229 L389 229 L410 96 C412 86 413 75 413 67 C413 31 399 22 334 16 L334 0 L584 0 L584 16 Z M187 266 L336 530 L384 266 L187 266 Z M397 917 C342 917 297 872 297 818 C297 760 342 715 399 715 C455 715 500 760 500 815 C500 871 453 917 397 917 L397 917 Z M397 883 C435 883 465 853 465 815 C465 777 436 749 398 749 C361 749 332 779 332 817 C332 853 362 883 397 883 L397 883 Z " />
<glyph glyph-name="AE" unicode="&#xc6;" horiz-adv-x="889" d="M846 171 C774 62 716 34 564 33 L533 33 C497 33 481 42 481 63 C481 75 494 124 544 309 L551 333 L591 333 C690 333 712 324 712 281 C712 266 710 253 706 229 L723 225 L791 461 L773 465 C731 372 721 368 560 366 L619 591 C628 624 636 629 684 629 C850 629 879 617 879 544 L879 509 L896 507 L928 662 L404 662 L404 647 C435 644 454 641 460 637 C465 634 469 627 469 619 C469 606 467 603 437 565 L67 93 C20 34 8 22 -17 16 L-17 0 L173 0 L173 16 C119 22 107 28 107 47 C107 71 146 133 207 206 C211 211 221 223 232 237 L425 237 L377 65 C365 27 358 22 296 16 L296 0 L801 0 L865 166 L846 171 Z M260 275 L529 622 L436 275 L260 275 Z " />
<glyph glyph-name="Ccedilla" unicode="&#xc7;" horiz-adv-x="667" d="M292 -12 C331 -17 354 -19 360 -19 C409 -19 464 1 519 38 C556 63 578 85 619 133 L601 147 C510 57 453 27 369 27 C255 27 190 105 190 240 C190 359 237 479 315 560 C363 610 426 638 493 638 C587 638 639 583 650 475 L668 472 L704 673 L682 673 C675 657 664 651 644 651 C635 651 624 653 603 658 C558 669 518 675 484 675 C268 675 76 474 76 249 C76 125 147 26 259 -6 L203 -77 L212 -83 C226 -79 234 -78 244 -78 C271 -78 291 -93 291 -113 C291 -134 272 -145 238 -145 C216 -145 199 -142 169 -132 L152 -155 C194 -168 217 -172 245 -172 C317 -172 366 -145 366 -105 C366 -72 334 -51 282 -51 C273 -51 267 -52 257 -53 L292 -12 Z " />
<glyph glyph-name="Egrave" unicode="&#xc8;" horiz-adv-x="611" d="M649 662 L145 662 L145 646 C209 640 224 632 224 604 C224 592 219 562 213 540 L92 91 C75 33 68 26 11 16 L11 0 L525 0 L587 164 L570 172 C524 107 497 81 453 61 C416 43 348 33 270 33 C214 33 190 43 190 67 C190 80 201 128 225 216 C230 231 243 282 256 333 L304 330 L350 329 C379 328 403 324 411 317 C420 310 422 302 422 281 C422 263 421 253 416 230 L436 225 L503 460 L484 465 C447 378 437 372 346 368 C333 368 301 367 265 366 L330 603 C336 625 346 629 404 629 C564 629 599 615 599 554 C599 538 599 526 598 509 L619 507 L649 662 Z M455 714 L487 714 L368 865 C355 881 343 888 328 888 C308 888 293 873 293 854 C293 841 299 831 312 821 L455 714 Z " />
<glyph glyph-name="Eacute" unicode="&#xc9;" horiz-adv-x="611" d="M649 662 L145 662 L145 646 C209 640 224 632 224 604 C224 592 219 562 213 540 L92 91 C75 33 68 26 11 16 L11 0 L525 0 L587 164 L570 172 C524 107 497 81 453 61 C416 43 348 33 270 33 C214 33 190 43 190 67 C190 80 201 128 225 216 C230 231 243 282 256 333 L304 330 L350 329 C379 328 403 324 411 317 C420 310 422 302 422 281 C422 263 421 253 416 230 L436 225 L503 460 L484 465 C447 378 437 372 346 368 C333 368 301 367 265 366 L330 603 C336 625 346 629 404 629 C564 629 599 615 599 554 C599 538 599 526 598 509 L619 507 L649 662 Z M350 716 L386 716 L558 824 C570 831 575 839 575 852 C575 872 559 888 538 888 C528 888 519 885 513 878 L350 716 Z " />
<glyph glyph-name="Ecircumflex" unicode="&#xca;" horiz-adv-x="611" d="M649 662 L145 662 L145 646 C209 640 224 632 224 604 C224 592 219 562 213 540 L92 91 C75 33 68 26 11 16 L11 0 L525 0 L587 164 L570 172 C524 107 497 81 453 61 C416 43 348 33 270 33 C214 33 190 43 190 67 C190 80 201 128 225 216 C230 231 243 282 256 333 L304 330 L350 329 C379 328 403 324 411 317 C420 310 422 302 422 281 C422 263 421 253 416 230 L436 225 L503 460 L484 465 C447 378 437 372 346 368 C333 368 301 367 265 366 L330 603 C336 625 346 629 404 629 C564 629 599 615 599 554 C599 538 599 526 598 509 L619 507 L649 662 Z M481 885 L432 885 L274 714 L313 714 L451 819 L536 714 L572 714 L481 885 Z " />
<glyph glyph-name="Edieresis" unicode="&#xcb;" horiz-adv-x="611" d="M649 662 L145 662 L145 646 C209 640 224 632 224 604 C224 592 219 562 213 540 L92 91 C75 33 68 26 11 16 L11 0 L525 0 L587 164 L570 172 C524 107 497 81 453 61 C416 43 348 33 270 33 C214 33 190 43 190 67 C190 80 201 128 225 216 C230 231 243 282 256 333 L304 330 L350 329 C379 328 403 324 411 317 C420 310 422 302 422 281 C422 263 421 253 416 230 L436 225 L503 460 L484 465 C447 378 437 372 346 368 C333 368 301 367 265 366 L330 603 C336 625 346 629 404 629 C564 629 599 615 599 554 C599 538 599 526 598 509 L619 507 L649 662 Z M326 829 C298 829 276 808 276 781 C276 752 298 730 326 730 C353 730 375 752 375 779 C375 805 351 829 326 829 L326 829 Z M528 829 C500 829 478 808 478 781 C478 752 500 730 528 730 C555 730 577 752 577 779 C577 805 553 829 528 829 L528 829 Z " />
<glyph glyph-name="Igrave" unicode="&#xcc;" horiz-adv-x="333" d="M6 0 L254 0 L253 16 C194 23 184 30 184 59 C184 79 185 87 195 122 L315 571 C332 630 339 636 398 646 L397 662 L147 662 L147 646 C207 638 219 631 219 601 C219 586 216 569 208 539 L87 91 C70 33 63 26 6 16 L6 0 Z M334 714 L365 714 L246 865 C233 881 222 888 206 888 C186 888 171 873 171 854 C171 842 177 832 191 821 L334 714 Z " />
<glyph glyph-name="Iacute" unicode="&#xcd;" horiz-adv-x="333" d="M6 0 L254 0 L253 16 C194 23 184 30 184 59 C184 79 185 87 195 122 L315 571 C332 630 339 636 398 646 L397 662 L147 662 L147 646 C207 638 219 631 219 601 C219 586 216 569 208 539 L87 91 C70 33 63 26 6 16 L6 0 Z M205 716 L240 716 L413 824 C425 831 430 839 430 852 C430 872 414 888 393 888 C383 888 374 885 368 878 L205 716 Z " />
<glyph glyph-name="Icircumflex" unicode="&#xce;" horiz-adv-x="333" d="M6 0 L254 0 L253 16 C194 23 184 30 184 59 C184 79 185 87 195 122 L315 571 C332 630 339 636 398 646 L397 662 L147 662 L147 646 C207 638 219 631 219 601 C219 586 216 569 208 539 L87 91 C70 33 63 26 6 16 L6 0 Z M348 885 L298 885 L140 714 L180 714 L318 819 L402 714 L438 714 L348 885 Z " />
<glyph glyph-name="Idieresis" unicode="&#xcf;" horiz-adv-x="333" d="M6 0 L254 0 L253 16 C194 23 184 30 184 59 C184 79 185 87 195 122 L315 571 C332 630 339 636 398 646 L397 662 L147 662 L147 646 C207 638 219 631 219 601 C219 586 216 569 208 539 L87 91 C70 33 63 26 6 16 L6 0 Z M196 829 C168 829 146 808 146 781 C146 752 168 730 196 730 C223 730 245 752 245 779 C245 805 221 829 196 829 L196 829 Z M399 829 C371 829 349 808 349 781 C349 752 371 730 399 730 C426 730 448 752 448 779 C448 805 424 829 399 829 L399 829 Z " />
<glyph glyph-name="Eth" unicode="&#xd0;" horiz-adv-x="722" d="M57 330 L148 330 L84 91 C67 32 60 26 3 16 L3 0 L260 0 C379 0 486 31 564 88 C660 159 717 269 717 386 C717 555 601 662 419 662 L137 662 L137 646 C201 640 215 632 215 604 C215 587 211 564 205 540 L160 373 L69 373 L57 330 Z M416 373 L261 373 L323 603 C329 625 344 632 388 632 C443 632 493 619 525 595 C576 558 604 491 604 411 C604 300 563 190 496 121 C436 60 354 30 249 30 C202 30 183 41 183 68 C183 80 188 105 204 164 L249 330 L405 330 L416 373 Z " />
<glyph glyph-name="Ntilde" unicode="&#xd1;" horiz-adv-x="667" d="M742 662 L541 662 L541 646 C599 641 612 631 612 593 C612 582 610 572 604 550 C603 546 602 544 602 541 L502 156 L286 662 L123 662 L123 646 C171 642 192 629 211 589 L94 166 C57 36 49 24 -9 16 L-9 0 L192 0 L192 16 C139 20 120 32 120 61 C120 73 123 93 129 115 L240 542 L479 -15 L497 -15 L639 495 C675 626 679 631 743 646 L742 662 Z M599 848 C588 814 575 803 547 803 C532 803 515 808 484 822 C446 840 420 847 397 847 C344 847 316 817 297 739 L326 739 C335 772 351 787 377 787 C394 787 419 780 473 758 C501 747 519 742 532 742 C580 742 614 779 627 848 L599 848 Z " />
<glyph glyph-name="Ograve" unicode="&#xd2;" horiz-adv-x="722" d="M486 675 C400 675 309 634 229 560 C128 467 70 346 70 228 C70 84 163 -18 294 -18 C503 -18 705 193 716 421 C723 565 623 675 486 675 L486 675 Z M477 641 C558 641 609 581 609 484 C609 374 563 229 499 135 C444 55 382 15 310 15 C225 15 177 77 177 189 C177 285 225 433 285 521 C341 602 403 641 477 641 L477 641 Z M530 714 L562 714 L443 865 C430 881 418 888 403 888 C383 888 368 873 368 854 C368 841 374 831 387 821 L530 714 Z " />
<glyph glyph-name="Oacute" unicode="&#xd3;" horiz-adv-x="722" d="M486 675 C400 675 309 634 229 560 C128 467 70 346 70 228 C70 84 163 -18 294 -18 C503 -18 705 193 716 421 C723 565 623 675 486 675 L486 675 Z M477 641 C558 641 609 581 609 484 C609 374 563 229 499 135 C444 55 382 15 310 15 C225 15 177 77 177 189 C177 285 225 433 285 521 C341 602 403 641 477 641 L477 641 Z M399 716 L434 716 L606 824 C618 831 623 839 623 852 C623 872 607 888 586 888 C576 888 568 885 561 878 L399 716 Z " />
<glyph glyph-name="Ocircumflex" unicode="&#xd4;" horiz-adv-x="722" d="M486 675 C400 675 309 634 229 560 C128 467 70 346 70 228 C70 84 163 -18 294 -18 C503 -18 705 193 716 421 C723 565 623 675 486 675 L486 675 Z M477 641 C558 641 609 581 609 484 C609 374 563 229 499 135 C444 55 382 15 310 15 C225 15 177 77 177 189 C177 285 225 433 285 521 C341 602 403 641 477 641 L477 641 Z M543 885 L493 885 L335 714 L375 714 L513 819 L597 714 L633 714 L543 885 Z " />
<glyph glyph-name="Otilde" unicode="&#xd5;" horiz-adv-x="722" d="M486 675 C400 675 309 634 229 560 C128 467 70 346 70 228 C70 84 163 -18 294 -18 C503 -18 705 193 716 421 C723 565 623 675 486 675 L486 675 Z M477 641 C558 641 609 581 609 484 C609 374 563 229 499 135 C444 55 382 15 310 15 C225 15 177 77 177 189 C177 285 225 433 285 521 C341 602 403 641 477 641 L477 641 Z M628 848 C617 814 604 803 576 803 C561 803 544 808 513 822 C475 840 449 847 426 847 C373 847 345 817 325 739 L355 739 C364 772 380 787 406 787 C423 787 448 780 502 758 C530 747 548 742 561 742 C609 742 643 779 656 848 L628 848 Z " />
<glyph glyph-name="Odieresis" unicode="&#xd6;" horiz-adv-x="722" d="M486 675 C400 675 309 634 229 560 C128 467 70 346 70 228 C70 84 163 -18 294 -18 C503 -18 705 193 716 421 C723 565 623 675 486 675 L486 675 Z M477 641 C558 641 609 581 609 484 C609 374 563 229 499 135 C444 55 382 15 310 15 C225 15 177 77 177 189 C177 285 225 433 285 521 C341 602 403 641 477 641 L477 641 Z M383 829 C355 829 333 808 333 781 C333 752 355 730 383 730 C410 730 432 752 432 779 C432 805 408 829 383 829 L383 829 Z M586 829 C558 829 536 808 536 781 C536 752 558 730 586 730 C613 730 635 752 635 779 C635 805 611 829 586 829 L586 829 Z " />
<glyph glyph-name="multiply" unicode="&#xd7;" horiz-adv-x="675" d="M326 310 L129 110 L168 71 L365 271 L567 71 L606 110 L404 310 L602 509 L562 548 L365 348 L164 548 L125 509 L326 310 Z " />
<glyph glyph-name="Oslash" unicode="&#xd8;" horiz-adv-x="722" d="M683 732 L638 732 L586 653 C548 669 517 675 480 675 C400 675 309 633 230 560 C128 467 70 346 70 229 C70 165 87 109 120 67 C133 50 143 40 168 22 L82 -106 L127 -106 L201 3 C240 -12 265 -18 296 -18 C508 -18 716 205 716 434 C716 482 703 531 680 570 C665 595 652 609 619 635 L683 732 Z M203 75 C185 110 177 141 177 182 C177 287 223 430 285 522 C341 602 403 642 476 642 C510 642 534 634 559 615 L203 75 Z M584 582 C601 551 609 520 609 479 C609 374 562 226 499 134 C444 54 383 15 310 15 C275 15 252 24 229 45 L584 582 Z " />
<glyph glyph-name="Ugrave" unicode="&#xd9;" horiz-adv-x="722" d="M781 662 L579 662 L579 646 C611 643 622 641 633 633 C644 627 651 612 651 599 C651 582 625 478 579 308 C575 296 571 279 566 259 C549 193 533 153 512 119 C473 56 418 24 347 24 C262 24 204 73 204 144 C204 182 239 323 300 535 C301 539 305 552 305 554 C326 624 342 639 411 646 L410 662 L134 662 L134 646 C202 640 213 634 213 604 C213 591 211 576 206 559 L154 364 C125 256 113 192 113 150 C113 53 207 -18 336 -18 C469 -18 552 54 595 206 L677 495 C714 627 718 632 781 646 L781 662 Z M522 714 L554 714 L435 865 C422 881 410 888 395 888 C375 888 360 873 360 854 C360 841 366 831 379 821 L522 714 Z " />
<glyph glyph-name="Uacute" unicode="&#xda;" horiz-adv-x="722" d="M781 662 L579 662 L579 646 C611 643 622 641 633 633 C644 627 651 612 651 599 C651 582 625 478 579 308 C575 296 571 279 566 259 C549 193 533 153 512 119 C473 56 418 24 347 24 C262 24 204 73 204 144 C204 182 239 323 300 535 C301 539 305 552 305 554 C326 624 342 639 411 646 L410 662 L134 662 L134 646 C202 640 213 634 213 604 C213 591 211 576 206 559 L154 364 C125 256 113 192 113 150 C113 53 207 -18 336 -18 C469 -18 552 54 595 206 L677 495 C714 627 718 632 781 646 L781 662 Z M468 716 L503 716 L676 824 C688 831 693 839 693 852 C693 872 677 888 656 888 C646 888 637 884 631 878 L468 716 Z " />
<glyph glyph-name="Ucircumflex" unicode="&#xdb;" horiz-adv-x="722" d="M781 662 L579 662 L579 646 C611 643 622 641 633 633 C644 627 651 612 651 599 C651 582 625 478 579 308 C575 296 571 279 566 259 C549 193 533 153 512 119 C473 56 418 24 347 24 C262 24 204 73 204 144 C204 182 239 323 300 535 C301 539 305 552 305 554 C326 624 342 639 411 646 L410 662 L134 662 L134 646 C202 640 213 634 213 604 C213 591 211 576 206 559 L154 364 C125 256 113 192 113 150 C113 53 207 -18 336 -18 C469 -18 552 54 595 206 L677 495 C714 627 718 632 781 646 L781 662 Z M547 885 L497 885 L340 714 L379 714 L517 819 L601 714 L638 714 L547 885 Z " />
<glyph glyph-name="Udieresis" unicode="&#xdc;" horiz-adv-x="722" d="M781 662 L579 662 L579 646 C611 643 622 641 633 633 C644 627 651 612 651 599 C651 582 625 478 579 308 C575 296 571 279 566 259 C549 193 533 153 512 119 C473 56 418 24 347 24 C262 24 204 73 204 144 C204 182 239 323 300 535 C301 539 305 552 305 554 C326 624 342 639 411 646 L410 662 L134 662 L134 646 C202 640 213 634 213 604 C213 591 211 576 206 559 L154 364 C125 256 113 192 113 150 C113 53 207 -18 336 -18 C469 -18 552 54 595 206 L677 495 C714 627 718 632 781 646 L781 662 Z M411 829 C383 829 361 808 361 780 C361 752 383 730 411 730 C438 730 460 752 460 779 C460 805 436 829 411 829 L411 829 Z M614 829 C586 829 564 808 564 780 C564 752 586 730 614 730 C641 730 663 752 663 779 C663 805 639 829 614 829 L614 829 Z " />
<glyph glyph-name="Yacute" unicode="&#xdd;" horiz-adv-x="556" d="M99 646 C156 638 159 635 177 579 L258 306 L198 91 C181 36 159 21 92 16 L92 0 L385 0 L385 16 C369 18 357 19 348 19 C331 20 317 23 307 29 C299 33 294 44 294 57 C294 79 300 104 325 188 C327 196 329 203 330 208 L359 310 L578 584 C611 624 619 632 649 646 L649 662 L457 662 L457 646 C506 640 506 640 518 634 C524 631 528 623 528 614 C528 586 481 519 378 398 C360 377 354 370 339 352 C327 396 324 406 307 464 C281 548 269 595 269 610 C269 634 281 640 342 646 L341 662 L99 662 L99 646 Z M364 716 L400 716 L572 824 C584 831 589 839 589 852 C589 872 573 888 552 888 C542 888 534 885 527 878 L364 716 Z " />
<glyph glyph-name="Thorn" unicode="&#xde;" horiz-adv-x="611" d="M154 646 C213 639 227 630 227 603 C227 588 224 575 210 522 L94 91 C76 30 70 24 12 16 L12 0 L261 0 L260 16 C196 25 191 29 191 65 C191 77 193 86 203 122 L219 182 C244 175 266 172 309 172 C395 172 465 189 507 221 C557 258 586 313 586 372 C586 471 510 525 370 525 L313 525 L333 603 C342 632 355 641 395 646 L395 662 L154 662 L154 646 Z M298 465 C304 487 316 495 345 495 C384 495 422 485 443 471 C470 451 482 421 482 371 C482 306 459 260 415 235 C384 217 344 209 281 209 C263 209 258 209 228 214 L298 465 Z " />
<glyph glyph-name="germandbls" unicode="&#xdf;" horiz-adv-x="500" d="M344 389 L353 392 C464 434 511 482 511 558 C511 637 455 689 371 689 C245 689 166 580 106 319 L30 -4 C-2 -142 -29 -186 -80 -186 C-90 -186 -97 -183 -97 -177 C-97 -175 -96 -172 -93 -168 C-88 -159 -85 -148 -85 -140 C-85 -119 -102 -104 -125 -104 C-150 -104 -165 -120 -165 -147 C-165 -185 -134 -210 -87 -210 C-5 -210 65 -127 103 12 L219 444 C259 592 309 666 368 666 C408 666 430 638 430 587 C430 531 413 477 386 447 C362 420 325 403 291 403 C277 403 273 400 273 390 C273 379 278 376 299 375 C356 371 381 338 381 267 C381 200 360 115 331 64 C311 28 286 9 259 9 C249 9 241 15 241 22 C241 24 243 29 246 34 C252 44 254 51 254 61 C254 85 239 101 215 101 C188 101 170 82 170 53 C170 14 202 -13 251 -13 C298 -13 347 8 382 44 C435 98 469 179 469 249 C469 295 446 341 410 365 C392 377 376 382 344 386 L344 389 Z " />
<glyph glyph-name="agrave" unicode="&#xe0;" horiz-adv-x="500" d="M478 112 C463 96 456 90 449 83 C419 52 406 42 396 42 C388 42 382 48 382 55 C382 75 428 255 476 423 C479 433 480 435 482 444 L475 447 L413 440 L410 437 L399 389 C391 426 362 447 318 447 C183 447 25 260 25 100 C25 30 63 -11 127 -11 C199 -11 242 23 333 148 C310 65 308 57 308 31 C308 2 320 -10 348 -10 C389 -10 413 9 490 101 L478 112 Z M324 425 C358 423 380 399 380 364 C380 280 327 159 257 83 C232 56 198 39 169 39 C132 39 110 67 110 113 C110 169 149 272 194 337 C235 395 282 428 324 425 L324 425 Z M380 499 L411 499 L295 650 C282 666 271 673 256 673 C235 673 220 658 220 639 C220 626 226 616 238 606 L380 499 Z " />
<glyph glyph-name="aacute" unicode="&#xe1;" horiz-adv-x="500" d="M478 112 C463 96 456 90 449 83 C419 52 406 42 396 42 C388 42 382 48 382 55 C382 75 428 255 476 423 C479 433 480 435 482 444 L475 447 L413 440 L410 437 L399 389 C391 426 362 447 318 447 C183 447 25 260 25 100 C25 30 63 -11 127 -11 C199 -11 242 23 333 148 C310 65 308 57 308 31 C308 2 320 -10 348 -10 C389 -10 413 9 490 101 L478 112 Z M324 425 C358 423 380 399 380 364 C380 280 327 159 257 83 C232 56 198 39 169 39 C132 39 110 67 110 113 C110 169 149 272 194 337 C235 395 282 428 324 425 L324 425 Z M293 501 L329 501 L503 608 C516 616 521 624 521 637 C521 658 505 673 484 673 C474 673 465 669 459 663 L293 501 Z " />
<glyph glyph-name="acircumflex" unicode="&#xe2;" horiz-adv-x="500" d="M478 112 C463 96 456 90 449 83 C419 52 406 42 396 42 C388 42 382 48 382 55 C382 75 428 255 476 423 C479 433 480 435 482 444 L475 447 L413 440 L410 437 L399 389 C391 426 362 447 318 447 C183 447 25 260 25 100 C25 30 63 -11 127 -11 C199 -11 242 23 333 148 C310 65 308 57 308 31 C308 2 320 -10 348 -10 C389 -10 413 9 490 101 L478 112 Z M324 425 C358 423 380 399 380 364 C380 280 327 159 257 83 C232 56 198 39 169 39 C132 39 110 67 110 113 C110 169 149 272 194 337 C235 395 282 428 324 425 L324 425 Z M398 670 L349 670 L188 499 L228 499 L367 604 L450 499 L486 499 L398 670 Z " />
<glyph glyph-name="atilde" unicode="&#xe3;" horiz-adv-x="500" d="M478 112 C463 96 456 90 449 83 C419 52 406 42 396 42 C388 42 382 48 382 55 C382 75 428 255 476 423 C479 433 480 435 482 444 L475 447 L413 440 L410 437 L399 389 C391 426 362 447 318 447 C183 447 25 260 25 100 C25 30 63 -11 127 -11 C199 -11 242 23 333 148 C310 65 308 57 308 31 C308 2 320 -10 348 -10 C389 -10 413 9 490 101 L478 112 Z M324 425 C358 423 380 399 380 364 C380 280 327 159 257 83 C232 56 198 39 169 39 C132 39 110 67 110 113 C110 169 149 272 194 337 C235 395 282 428 324 425 L324 425 Z M502 633 C490 599 477 588 450 588 C434 588 418 593 387 607 C349 624 323 632 300 632 C247 632 219 602 198 524 L227 524 C237 557 254 572 279 572 C297 572 321 565 375 543 C402 532 420 527 433 527 C482 527 515 564 530 633 L502 633 Z " />
<glyph glyph-name="adieresis" unicode="&#xe4;" horiz-adv-x="500" d="M478 112 C463 96 456 90 449 83 C419 52 406 42 396 42 C388 42 382 48 382 55 C382 75 428 255 476 423 C479 433 480 435 482 444 L475 447 L413 440 L410 437 L399 389 C391 426 362 447 318 447 C183 447 25 260 25 100 C25 30 63 -11 127 -11 C199 -11 242 23 333 148 C310 65 308 57 308 31 C308 2 320 -10 348 -10 C389 -10 413 9 490 101 L478 112 Z M324 425 C358 423 380 399 380 364 C380 280 327 159 257 83 C232 56 198 39 169 39 C132 39 110 67 110 113 C110 169 149 272 194 337 C235 395 282 428 324 425 L324 425 Z M256 614 C228 614 205 592 205 565 C205 537 226 515 254 515 C282 515 304 537 304 565 C304 590 281 614 256 614 L256 614 Z M459 614 C431 614 408 592 408 565 C408 537 429 515 457 515 C485 515 507 537 507 565 C507 590 484 614 459 614 L459 614 Z " />
<glyph glyph-name="aring" unicode="&#xe5;" horiz-adv-x="500" d="M478 112 C463 96 456 90 449 83 C419 52 406 42 396 42 C388 42 382 48 382 55 C382 75 428 255 476 423 C479 433 480 435 482 444 L475 447 L413 440 L410 437 L399 389 C391 426 362 447 318 447 C183 447 25 260 25 100 C25 30 63 -11 127 -11 C199 -11 242 23 333 148 C310 65 308 57 308 31 C308 2 320 -10 348 -10 C389 -10 413 9 490 101 L478 112 Z M324 425 C358 423 380 399 380 364 C380 280 327 159 257 83 C232 56 198 39 169 39 C132 39 110 67 110 113 C110 169 149 272 194 337 C235 395 282 428 324 425 L324 425 Z M355 717 C300 717 254 671 254 616 C254 559 297 515 355 515 C411 515 457 561 457 616 C457 672 411 717 355 717 L355 717 Z M354 683 C392 683 422 653 422 616 C422 578 392 549 353 549 C317 549 288 578 288 616 C288 652 319 683 354 683 L354 683 Z " />
<glyph glyph-name="ae" unicode="&#xe6;" horiz-adv-x="667" d="M603 115 C542 58 503 37 458 37 C411 37 388 70 388 138 C388 162 390 173 397 201 C507 232 555 251 593 276 C636 304 658 339 658 377 C658 420 627 447 576 447 C535 447 501 429 452 383 L475 445 L403 443 L384 400 C367 436 352 447 317 447 C191 447 30 243 30 84 C30 28 65 -11 115 -11 C180 -11 226 27 313 153 C309 136 307 126 307 110 C307 39 352 -11 414 -11 C479 -11 555 33 613 102 L603 115 Z M318 427 C346 426 364 406 364 376 C364 290 306 161 232 81 C209 56 178 40 151 40 C127 40 115 61 117 100 C125 248 237 431 318 427 L318 427 Z M403 226 C435 317 453 351 489 389 C509 410 533 422 556 422 C579 422 591 409 591 386 C591 364 584 342 570 321 C538 274 494 249 403 226 L403 226 Z " />
<glyph glyph-name="ccedilla" unicode="&#xe7;" horiz-adv-x="444" d="M183 -11 C266 -12 326 20 385 97 L369 107 C313 48 273 25 224 25 C166 25 132 67 132 139 C132 225 168 317 226 377 C256 408 297 426 336 426 C360 426 374 418 374 405 C374 400 372 396 368 386 C361 373 359 366 359 356 C359 332 374 318 399 318 C426 318 447 338 447 365 C447 412 402 447 341 447 C188 447 45 298 45 139 C45 60 80 11 148 -6 L91 -97 L100 -105 C113 -100 121 -98 132 -98 C159 -98 179 -116 179 -142 C179 -169 160 -184 124 -184 C103 -184 85 -180 55 -169 L38 -199 C80 -215 103 -220 132 -220 C203 -220 254 -183 254 -132 C254 -91 222 -64 172 -64 C162 -64 156 -65 145 -67 L183 -11 Z " />
<glyph glyph-name="egrave" unicode="&#xe8;" horiz-adv-x="444" d="M371 111 C298 51 266 35 222 35 C165 35 128 71 128 126 C128 142 130 152 139 189 L167 193 C320 214 428 292 428 379 C428 421 398 447 348 447 C201 447 40 279 40 126 C40 45 94 -11 173 -11 C245 -11 323 30 384 98 L371 111 Z M164 256 C199 346 275 424 326 424 C347 424 361 409 361 386 C361 353 342 316 310 286 C272 250 234 233 146 211 L164 256 Z M352 499 L383 499 L267 650 C254 666 243 673 228 673 C207 673 192 658 192 638 C192 626 197 617 211 606 L352 499 Z " />
<glyph glyph-name="eacute" unicode="&#xe9;" horiz-adv-x="444" d="M371 111 C298 51 266 35 222 35 C165 35 128 71 128 126 C128 142 130 152 139 189 L167 193 C320 214 428 292 428 379 C428 421 398 447 348 447 C201 447 40 279 40 126 C40 45 94 -11 173 -11 C245 -11 323 30 384 98 L371 111 Z M164 256 C199 346 275 424 326 424 C347 424 361 409 361 386 C361 353 342 316 310 286 C272 250 234 233 146 211 L164 256 Z M251 501 L286 501 L461 608 C473 616 478 624 478 637 C478 658 462 673 441 673 C432 673 423 670 416 663 L251 501 Z " />
<glyph glyph-name="ecircumflex" unicode="&#xea;" horiz-adv-x="444" d="M371 111 C298 51 266 35 222 35 C165 35 128 71 128 126 C128 142 130 152 139 189 L167 193 C320 214 428 292 428 379 C428 421 398 447 348 447 C201 447 40 279 40 126 C40 45 94 -11 173 -11 C245 -11 323 30 384 98 L371 111 Z M164 256 C199 346 275 424 326 424 C347 424 361 409 361 386 C361 353 342 316 310 286 C272 250 234 233 146 211 L164 256 Z M371 670 L321 670 L161 499 L200 499 L340 604 L422 499 L459 499 L371 670 Z " />
<glyph glyph-name="edieresis" unicode="&#xeb;" horiz-adv-x="444" d="M371 111 C298 51 266 35 222 35 C165 35 128 71 128 126 C128 142 130 152 139 189 L167 193 C320 214 428 292 428 379 C428 421 398 447 348 447 C201 447 40 279 40 126 C40 45 94 -11 173 -11 C245 -11 323 30 384 98 L371 111 Z M164 256 C199 346 275 424 326 424 C347 424 361 409 361 386 C361 353 342 316 310 286 C272 250 234 233 146 211 L164 256 Z M218 614 C190 614 167 592 167 565 C167 537 188 515 216 515 C244 515 266 537 266 565 C266 590 243 614 218 614 L218 614 Z M421 614 C393 614 370 592 370 565 C370 537 391 515 419 515 C447 515 469 537 469 565 C469 590 446 614 421 614 L421 614 Z " />
<glyph glyph-name="igrave" unicode="&#xec;" horiz-adv-x="278" d="M238 116 C212 82 206 75 196 65 C178 47 163 37 154 37 C146 37 138 44 138 52 C138 63 142 78 148 97 C150 103 153 111 155 119 L247 445 L244 447 C144 429 121 425 81 422 L81 406 C135 405 146 401 145 381 C145 371 141 356 136 336 L86 157 C68 96 62 66 62 46 C62 9 78 -11 108 -11 C155 -11 193 19 251 104 L238 116 Z M273 499 L304 499 L188 650 C175 666 164 673 148 673 C128 673 112 658 112 639 C112 626 117 617 131 606 L273 499 Z " />
<glyph glyph-name="iacute" unicode="&#xed;" horiz-adv-x="278" d="M238 116 C212 82 206 75 196 65 C178 47 163 37 154 37 C146 37 138 44 138 52 C138 63 142 78 148 97 C150 103 153 111 155 119 L247 445 L244 447 C144 429 121 425 81 422 L81 406 C135 405 146 401 145 381 C145 371 141 356 136 336 L86 157 C68 96 62 66 62 46 C62 9 78 -11 108 -11 C155 -11 193 19 251 104 L238 116 Z M151 501 L186 501 L361 608 C373 616 378 624 378 637 C378 658 362 673 341 673 C332 673 323 670 316 663 L151 501 Z " />
<glyph glyph-name="icircumflex" unicode="&#xee;" horiz-adv-x="278" d="M237 116 C212 82 206 75 195 65 C177 47 162 37 153 37 C145 37 137 44 137 52 C137 62 141 78 147 97 C149 102 152 111 154 117 L154 119 L246 445 L243 447 C143 429 121 425 81 422 L81 406 C135 405 144 401 144 381 C144 373 141 355 135 336 L85 157 C66 91 61 66 61 46 C61 9 77 -11 107 -11 C155 -11 192 19 251 104 L237 116 Z M260 670 L211 670 L50 499 L90 499 L229 604 L312 499 L348 499 L260 670 Z " />
<glyph glyph-name="idieresis" unicode="&#xef;" horiz-adv-x="278" d="M123 614 C95 614 72 592 72 565 C72 537 93 515 121 515 C149 515 171 538 171 565 C171 590 148 614 123 614 L123 614 Z M326 614 C298 614 275 592 275 565 C275 537 296 515 324 515 C352 515 374 538 374 565 C374 590 351 614 326 614 L326 614 Z M238 116 C212 82 206 75 196 65 C178 47 163 37 154 37 C146 37 138 44 138 52 C138 63 142 78 148 97 C150 103 153 111 155 119 L247 445 L244 447 C144 429 121 425 81 422 L81 406 C135 405 146 401 145 381 C145 371 141 356 136 336 L86 157 C68 96 62 66 62 46 C62 9 78 -11 108 -11 C155 -11 193 19 251 104 L238 116 Z " />
<glyph glyph-name="eth" unicode="&#xf0;" horiz-adv-x="500" d="M335 575 C375 522 397 469 406 399 L404 397 C387 430 358 447 320 447 C180 447 30 283 30 129 C30 42 86 -11 178 -11 C338 -11 478 165 478 367 C478 461 454 527 393 600 L496 646 L463 674 L363 631 C322 664 285 683 239 693 L204 675 C246 658 272 641 308 607 L182 553 L216 523 L335 575 Z M323 426 C366 426 394 390 394 332 C394 258 360 155 313 89 C276 35 237 10 193 10 C147 10 115 46 115 100 C115 175 146 267 196 338 C236 396 279 426 323 426 L323 426 Z " />
<glyph glyph-name="ntilde" unicode="&#xf1;" horiz-adv-x="500" d="M479 119 C423 50 412 39 395 39 C386 39 379 46 379 55 C379 62 379 62 394 118 L453 327 C459 349 463 371 463 386 C463 422 436 447 397 447 C332 447 267 386 162 224 L231 445 L228 447 C174 436 153 432 64 416 L64 400 C115 398 128 392 128 372 C128 364 128 361 126 355 L26 0 L102 0 C151 160 160 182 206 251 C267 345 319 395 357 395 C372 395 381 384 381 366 C381 354 375 322 366 289 L320 121 C305 65 303 56 303 46 C303 7 317 -9 350 -9 C396 -9 422 12 493 105 L479 119 Z M471 633 C459 599 447 588 419 588 C403 588 387 593 356 607 C319 624 293 632 270 632 C217 632 188 602 167 524 L196 524 C207 557 223 572 248 572 C266 572 290 565 344 543 C371 532 389 527 403 527 C451 527 485 564 500 633 L471 633 Z " />
<glyph glyph-name="ograve" unicode="&#xf2;" horiz-adv-x="500" d="M331 447 C287 447 248 436 206 413 C100 354 26 237 26 130 C26 42 82 -11 174 -11 C241 -11 306 19 366 77 C433 143 475 230 475 306 C475 390 417 447 331 447 L331 447 Z M319 426 C362 426 390 390 390 332 C390 258 356 156 309 89 C272 35 233 10 189 10 C143 10 111 46 111 100 C111 175 142 266 192 338 C232 396 275 426 319 426 L319 426 Z M370 499 L402 499 L285 650 C273 666 261 673 246 673 C226 673 210 658 210 639 C210 626 215 617 229 606 L370 499 Z " />
<glyph glyph-name="oacute" unicode="&#xf3;" horiz-adv-x="500" d="M331 447 C287 447 248 436 206 413 C100 354 26 237 26 130 C26 42 82 -11 174 -11 C241 -11 306 19 365 77 C433 143 475 230 475 306 C475 390 417 447 331 447 L331 447 Z M319 426 C362 426 390 390 390 332 C390 258 356 156 309 89 C272 35 233 10 189 10 C143 10 111 46 111 100 C111 175 142 266 192 338 C232 397 275 426 319 426 L319 426 Z M269 501 L305 501 L479 608 C492 616 497 625 497 637 C497 657 481 673 460 673 C450 673 441 670 435 663 L269 501 Z " />
<glyph glyph-name="ocircumflex" unicode="&#xf4;" horiz-adv-x="500" d="M331 447 C287 447 248 436 206 413 C100 354 26 237 26 130 C26 42 82 -11 174 -11 C241 -11 306 19 366 77 C433 143 475 230 475 306 C475 390 417 447 331 447 L331 447 Z M319 426 C362 426 390 390 390 332 C390 258 356 156 309 89 C272 35 233 10 189 10 C143 10 111 46 111 100 C111 175 142 266 192 338 C232 396 275 426 319 426 L319 426 Z M378 670 L328 670 L168 499 L207 499 L347 604 L430 499 L466 499 L378 670 Z " />
<glyph glyph-name="otilde" unicode="&#xf5;" horiz-adv-x="500" d="M331 447 C287 447 248 436 206 413 C100 354 26 237 26 130 C26 42 82 -11 174 -11 C241 -11 306 19 366 77 C433 143 475 230 475 306 C475 390 417 447 331 447 L331 447 Z M319 426 C362 426 390 390 390 332 C390 258 356 156 309 89 C272 35 233 10 189 10 C143 10 111 46 111 100 C111 175 142 266 192 338 C232 396 275 426 319 426 L319 426 Z M477 633 C465 599 453 588 425 588 C409 588 393 593 362 607 C325 624 298 632 276 632 C223 632 194 602 173 524 L203 524 C212 557 229 572 254 572 C272 572 296 565 350 543 C377 532 396 527 409 527 C457 527 491 564 506 633 L477 633 Z " />
<glyph glyph-name="odieresis" unicode="&#xf6;" horiz-adv-x="500" d="M331 447 C287 447 248 436 206 413 C100 354 26 237 26 130 C26 42 82 -11 174 -11 C241 -11 306 19 366 77 C433 143 475 230 475 306 C475 390 417 447 331 447 L331 447 Z M319 426 C362 426 390 390 390 332 C390 258 356 155 309 89 C272 35 233 10 189 10 C143 10 111 46 111 100 C111 175 142 267 192 338 C232 396 275 426 319 426 L319 426 Z M247 614 C219 614 196 592 196 565 C196 537 217 515 245 515 C273 515 295 537 295 565 C295 590 272 614 247 614 L247 614 Z M450 614 C422 614 399 592 399 565 C399 537 420 515 448 515 C476 515 498 537 498 565 C498 590 475 614 450 614 L450 614 Z " />
<glyph glyph-name="divide" unicode="&#xf7;" horiz-adv-x="675" d="M611 283 L611 337 L113 337 L113 283 L611 283 Z M363 148 C337 148 315 125 315 98 C315 72 337 49 363 49 C391 49 414 70 414 97 C414 124 391 148 363 148 L363 148 Z M359 571 C333 571 311 548 311 521 C311 494 333 472 360 472 C387 472 410 494 410 519 C410 547 387 571 359 571 L359 571 Z " />
<glyph glyph-name="oslash" unicode="&#xf8;" horiz-adv-x="500" d="M436 562 L401 562 L345 446 C339 447 334 447 329 447 C181 447 27 286 27 130 C27 91 40 56 63 31 C79 14 92 6 123 -4 L57 -137 L93 -137 L156 -9 C162 -11 168 -11 176 -11 C239 -11 300 16 358 69 C429 135 475 227 475 304 C475 331 467 362 454 384 C437 415 417 429 376 441 L436 562 Z M140 29 C121 49 112 70 112 98 C112 193 159 308 226 380 C254 409 289 426 323 426 C326 426 329 425 333 424 L140 29 Z M363 412 C382 391 390 366 390 330 C390 257 356 155 310 88 C272 34 234 10 189 10 C180 10 175 11 167 14 L363 412 Z " />
<glyph glyph-name="ugrave" unicode="&#xf9;" horiz-adv-x="500" d="M474 119 C420 52 406 39 389 39 C382 39 378 45 378 55 C378 61 378 61 399 135 L481 438 L406 438 C347 281 340 265 292 191 C231 94 181 43 148 43 C135 43 126 54 127 68 L128 77 L224 445 L221 447 C165 434 128 427 68 420 L68 406 C109 405 109 405 119 400 C124 397 129 388 129 381 C129 373 124 348 114 313 L76 169 C56 95 49 62 49 44 C49 7 67 -11 103 -11 C175 -11 228 44 347 239 C315 128 299 61 299 39 C299 8 317 -9 348 -9 C395 -9 418 10 489 110 L474 119 Z M379 499 L410 499 L294 650 C281 666 270 673 255 673 C234 673 219 658 219 639 C219 626 224 616 238 606 L379 499 Z " />
<glyph glyph-name="uacute" unicode="&#xfa;" horiz-adv-x="500" d="M474 119 C420 52 406 39 389 39 C382 39 378 45 378 55 C378 61 378 61 398 135 L481 438 L406 438 C347 281 340 265 292 191 C231 94 181 43 148 43 C135 43 127 53 127 68 L128 77 L224 445 L221 447 C165 434 128 427 68 420 L68 406 C109 405 109 405 119 400 C124 397 129 388 129 381 C129 374 123 348 114 313 L76 169 C56 96 49 62 49 44 C49 7 67 -11 103 -11 C175 -11 228 44 347 239 C315 127 299 60 299 39 C299 8 317 -9 348 -9 C395 -9 418 10 489 110 L474 119 Z M285 501 L321 501 L495 608 C508 616 513 624 513 637 C513 657 497 673 476 673 C466 673 457 670 451 663 L285 501 Z " />
<glyph glyph-name="ucircumflex" unicode="&#xfb;" horiz-adv-x="500" d="M474 119 C420 52 406 39 389 39 C382 39 378 45 378 55 C378 61 378 61 399 135 L481 438 L406 438 C347 281 340 265 292 191 C231 94 181 43 148 43 C135 43 126 54 127 68 L128 77 L224 445 L221 447 C165 434 128 427 68 420 L68 406 C109 405 109 405 119 400 C124 397 129 388 129 381 C129 373 124 348 114 313 L76 169 C56 95 49 62 49 44 C49 7 67 -11 103 -11 C175 -11 228 44 347 239 C315 128 299 61 299 39 C299 8 317 -9 348 -9 C395 -9 418 10 489 110 L474 119 Z M372 670 L323 670 L162 499 L202 499 L342 604 L424 499 L460 499 L372 670 Z " />
<glyph glyph-name="udieresis" unicode="&#xfc;" horiz-adv-x="500" d="M474 119 C420 52 406 39 389 39 C382 39 378 45 378 55 C378 61 378 61 398 135 L481 438 L406 438 C347 281 340 265 292 191 C231 94 181 43 148 43 C135 43 127 53 127 68 L128 77 L224 445 L221 447 C165 434 128 427 68 420 L68 406 C109 405 109 405 119 400 C124 397 129 388 129 381 C129 374 123 348 114 313 L76 169 C56 96 49 62 49 44 C49 7 67 -11 103 -11 C175 -11 228 44 347 239 C315 127 299 60 299 39 C299 8 317 -9 348 -9 C395 -9 418 10 489 110 L474 119 Z M245 614 C217 614 194 592 194 565 C194 537 215 515 243 515 C270 515 293 538 293 565 C293 590 270 614 245 614 L245 614 Z M448 614 C420 614 397 592 397 565 C397 537 418 515 446 515 C473 515 496 538 496 565 C496 590 473 614 448 614 L448 614 Z " />
<glyph glyph-name="yacute" unicode="&#xfd;" horiz-adv-x="444" d="M24 406 C37 409 45 410 56 410 C98 410 117 393 136 339 C165 258 214 49 214 8 C214 -8 207 -23 192 -43 C160 -86 139 -111 128 -122 C107 -145 95 -153 81 -153 C75 -153 69 -150 58 -142 C43 -130 32 -125 20 -125 C-3 -125 -20 -142 -20 -165 C-20 -191 1 -209 31 -209 C97 -209 229 -58 342 144 C412 269 441 342 441 391 C441 422 416 447 385 447 C361 447 345 432 345 409 C345 393 353 383 374 370 C393 359 400 350 400 336 C400 295 361 215 274 73 L255 191 C240 281 184 447 169 447 L165 447 C164 446 161 446 156 446 C148 445 111 438 56 428 C52 428 39 425 24 423 L24 406 Z M249 501 L284 501 L458 608 C471 616 476 624 476 637 C476 658 460 673 439 673 C430 673 421 669 414 663 L249 501 Z " />
<glyph glyph-name="thorn" unicode="&#xfe;" horiz-adv-x="500" d="M137 -193 C89 -192 72 -184 72 -162 C72 -147 87 -80 111 6 C137 -7 154 -11 178 -11 C327 -11 485 160 485 321 C485 400 442 447 369 447 C304 447 250 411 203 338 L201 340 C208 359 230 437 286 648 C287 654 290 665 296 687 L291 693 C240 683 204 677 137 669 L137 652 C196 650 202 647 202 625 C202 616 199 604 193 581 C190 573 188 567 187 561 C176 520 163 472 117 308 C82 183 29 -13 -3 -132 C-13 -178 -27 -191 -71 -192 L-71 -208 L137 -208 L137 -193 Z M332 403 C373 403 394 375 394 319 C394 250 364 163 319 99 C276 39 227 8 175 8 C146 8 126 23 126 45 C126 79 163 211 194 287 C222 357 277 403 332 403 L332 403 Z " />
<glyph glyph-name="ydieresis" unicode="&#xff;" horiz-adv-x="444" d="M24 406 C37 409 45 410 56 410 C98 410 117 393 136 339 C165 258 214 49 214 8 C214 -8 207 -23 192 -43 C160 -86 139 -111 128 -122 C107 -145 95 -153 81 -153 C75 -153 69 -150 58 -142 C43 -130 32 -125 20 -125 C-3 -125 -20 -142 -20 -165 C-20 -191 1 -209 31 -209 C97 -209 229 -58 342 144 C412 269 441 342 441 391 C441 422 416 447 385 447 C361 447 345 432 345 409 C345 393 353 383 374 370 C393 359 400 350 400 336 C400 295 361 215 274 73 L255 191 C240 281 184 447 169 447 L165 447 C164 446 161 446 156 446 C148 445 111 438 56 428 C52 428 39 425 24 423 L24 406 Z M180 614 C152 614 129 592 129 565 C129 537 150 515 178 515 C205 515 228 538 228 565 C228 590 205 614 180 614 L180 614 Z M382 614 C354 614 331 592 331 565 C331 537 352 515 380 515 C407 515 430 538 430 565 C430 590 407 614 382 614 L382 614 Z " />
<glyph glyph-name="Amacron" unicode="&#x100;" horiz-adv-x="611" d="M584 16 C526 21 519 29 506 103 L405 678 L379 678 L89 170 C11 36 1 24 -40 16 L-40 0 L150 0 L150 16 C97 22 89 26 89 53 C89 72 91 78 109 115 L166 229 L389 229 L410 96 C412 86 413 75 413 67 C413 31 399 22 334 16 L334 0 L584 0 L584 16 Z M187 266 L336 530 L384 266 L187 266 Z M562 806 L257 806 L246 754 L551 754 L562 806 Z " />
<glyph glyph-name="amacron" unicode="&#x101;" horiz-adv-x="500" d="M478 112 C463 96 456 90 449 83 C419 52 406 42 396 42 C388 42 382 48 382 55 C382 75 428 255 476 423 C479 433 480 435 482 444 L475 447 L413 440 L410 437 L399 389 C391 426 362 447 318 447 C183 447 25 260 25 100 C25 30 63 -11 127 -11 C199 -11 242 23 333 148 C310 65 308 57 308 31 C308 2 320 -10 348 -10 C389 -10 413 9 490 101 L478 112 Z M324 425 C358 423 380 399 380 364 C380 280 327 159 257 83 C232 56 198 39 169 39 C132 39 110 67 110 113 C110 169 149 272 194 337 C235 395 282 428 324 425 L324 425 Z M513 591 L208 591 L196 539 L502 539 L513 591 Z " />
<glyph glyph-name="Abreve" unicode="&#x102;" horiz-adv-x="611" d="M584 16 C526 21 519 29 506 103 L405 678 L379 678 L89 170 C11 36 1 24 -40 16 L-40 0 L150 0 L150 16 C97 22 89 26 89 53 C89 72 91 78 109 115 L166 229 L389 229 L410 96 C412 86 413 75 413 67 C413 31 399 22 334 16 L334 0 L584 0 L584 16 Z M187 266 L336 530 L384 266 L187 266 Z M539 874 C514 810 465 774 403 774 C338 774 298 811 293 874 L263 874 C264 816 272 785 293 759 C316 729 351 714 397 714 C485 714 548 773 568 874 L539 874 Z " />
<glyph glyph-name="abreve" unicode="&#x103;" horiz-adv-x="500" d="M478 112 C463 96 456 90 449 83 C419 52 406 42 396 42 C388 42 382 48 382 55 C382 75 428 255 476 423 C479 433 480 435 482 444 L475 447 L413 440 L410 437 L399 389 C391 426 362 447 318 447 C183 447 25 261 25 100 C25 30 63 -11 127 -11 C199 -11 242 23 333 148 C310 65 308 57 308 31 C308 2 320 -10 348 -10 C389 -10 413 9 490 101 L478 112 Z M324 425 C358 423 380 399 380 364 C380 280 327 159 257 83 C232 56 198 39 169 39 C132 39 110 67 110 113 C110 169 149 272 194 337 C235 395 282 428 324 425 L324 425 Z M491 659 C466 596 416 559 355 559 C289 559 249 595 245 659 L216 659 C216 601 223 570 243 544 C266 514 301 499 346 499 C434 499 498 558 521 659 L491 659 Z " />
<glyph glyph-name="Aogonek" unicode="&#x104;" horiz-adv-x="611" d="M389 229 L410 96 C412 86 413 75 413 67 C413 31 399 22 334 16 L334 0 L534 0 C512 -30 506 -45 506 -73 C506 -127 550 -171 603 -171 C653 -171 695 -145 730 -93 L712 -75 C685 -98 660 -107 628 -107 C590 -107 567 -85 567 -49 C567 -27 572 -11 584 0 L584 16 C526 21 519 29 506 103 L405 678 L379 678 L89 170 C11 36 1 24 -40 16 L-40 0 L150 0 L150 16 C97 22 89 26 89 53 C89 72 91 78 109 115 L166 229 L389 229 Z M187 266 L336 530 L384 266 L187 266 Z " />
<glyph glyph-name="aogonek" unicode="&#x105;" horiz-adv-x="500" d="M478 112 C463 96 456 90 449 83 C419 52 406 42 396 42 C388 42 382 48 382 55 C382 75 428 255 476 423 C479 433 480 435 482 444 L475 447 L413 440 L410 437 L399 389 C391 426 362 447 318 447 C183 447 25 260 25 100 C25 30 63 -11 127 -11 C199 -11 242 23 333 148 C310 65 308 57 308 31 C308 15 310 8 318 0 C298 -27 290 -49 290 -76 C290 -128 333 -171 386 -171 C435 -171 477 -145 513 -93 L496 -75 C468 -98 444 -107 412 -107 C375 -107 352 -86 352 -53 C352 -28 360 -17 384 -3 C411 11 440 40 490 101 L478 112 Z M324 425 C358 423 380 399 380 364 C380 280 327 159 257 83 C232 56 198 39 169 39 C132 39 110 67 110 113 C110 169 149 272 194 337 C235 395 282 428 324 425 L324 425 Z " />
<glyph glyph-name="Cacute" unicode="&#x106;" horiz-adv-x="667" d="M668 472 L704 673 L682 673 C675 657 664 651 644 651 C635 651 624 653 603 658 C558 669 518 675 484 675 C268 675 76 474 76 250 C76 93 187 -18 344 -18 C448 -18 528 26 619 133 L601 147 C510 57 453 28 369 28 C255 28 190 106 190 240 C190 359 237 480 315 561 C363 610 426 638 493 638 C587 638 639 583 650 475 L668 472 Z M428 716 L463 716 L635 824 C647 831 652 839 652 852 C652 872 636 888 615 888 C605 888 597 885 590 878 L428 716 Z " />
<glyph glyph-name="cacute" unicode="&#x107;" horiz-adv-x="444" d="M369 107 C313 48 273 25 224 25 C166 25 132 67 132 139 C132 225 168 317 226 377 C256 408 296 426 336 426 C360 426 374 418 374 405 C374 400 373 396 368 386 C361 373 359 366 359 356 C359 332 374 318 399 318 C426 318 447 338 447 365 C447 412 402 447 341 447 C188 447 45 298 45 139 C45 44 99 -11 192 -11 C269 -11 324 20 385 97 L369 107 Z M256 501 L291 501 L465 608 C478 616 483 624 483 637 C483 658 467 673 446 673 C437 673 428 670 421 663 L256 501 Z " />
<glyph glyph-name="Ccircumflex" unicode="&#x108;" horiz-adv-x="667" d="M689 472 L725 673 L703 673 C696 657 685 651 665 651 C656 651 645 653 624 658 C579 669 539 675 505 675 C289 675 97 474 97 250 C97 93 208 -18 365 -18 C469 -18 549 26 640 133 L622 147 C531 57 474 28 390 28 C276 28 211 106 211 240 C211 359 258 480 336 561 C384 610 447 638 514 638 C608 638 660 583 671 475 L689 472 Z M578 885 L528 885 L371 714 L410 714 L548 819 L632 714 L669 714 L578 885 Z " />
<glyph glyph-name="ccircumflex" unicode="&#x109;" horiz-adv-x="444" d="M369 107 C313 48 273 25 224 25 C166 25 132 67 132 139 C132 225 168 317 226 377 C256 408 296 426 336 426 C360 426 374 418 374 405 C374 400 373 396 368 386 C361 373 359 366 359 356 C359 332 374 318 399 318 C426 318 447 338 447 365 C447 412 402 447 341 447 C188 447 45 298 45 139 C45 44 99 -11 192 -11 C269 -11 324 20 385 97 L369 107 Z M382 670 L332 670 L172 499 L211 499 L351 604 L433 499 L470 499 L382 670 Z " />
<glyph glyph-name="Cdotaccent" unicode="&#x10a;" horiz-adv-x="667" d="M605 162 C544 78 473 34 400 34 C288 34 208 119 208 239 C208 445 360 646 516 646 C598 646 653 592 653 510 C653 497 652 486 648 464 L665 464 L713 673 L697 673 C685 659 672 653 654 653 C645 653 641 654 625 659 C586 670 540 677 506 677 C427 677 348 648 279 593 C169 505 103 383 103 265 C103 107 212 -9 361 -9 C457 -9 550 50 617 154 L605 162 Z M531 842 C499 842 474 817 474 786 C474 754 499 728 531 728 C563 728 588 753 588 785 C588 816 562 842 531 842 L531 842 Z " />
<glyph glyph-name="cdotaccent" unicode="&#x10b;" horiz-adv-x="444" d="M369 107 C313 48 273 25 224 25 C166 25 132 67 132 139 C132 225 168 317 226 377 C256 408 296 426 336 426 C360 426 374 418 374 405 C374 400 373 396 368 386 C361 373 359 366 359 356 C359 332 374 318 399 318 C426 318 447 338 447 365 C447 412 402 447 341 447 C188 447 45 298 45 139 C45 44 99 -11 192 -11 C269 -11 324 20 385 97 L369 107 Z M355 614 C327 614 304 592 304 565 C304 537 325 515 353 515 C380 515 403 538 403 565 C403 590 380 614 355 614 L355 614 Z " />
<glyph glyph-name="Ccaron" unicode="&#x10c;" horiz-adv-x="667" d="M668 472 L704 673 L682 673 C675 657 664 651 644 651 C635 651 624 653 603 658 C558 669 518 675 484 675 C268 675 76 474 76 250 C76 93 187 -18 344 -18 C448 -18 528 26 619 133 L601 147 C510 57 453 28 369 28 C255 28 190 106 190 240 C190 359 237 480 315 561 C363 610 426 638 493 638 C587 638 639 583 650 475 L668 472 Z M693 885 L657 885 L514 779 L421 885 L384 885 L483 714 L529 714 L693 885 Z " />
<glyph glyph-name="ccaron" unicode="&#x10d;" horiz-adv-x="444" d="M369 107 C313 48 273 25 224 25 C166 25 132 67 132 139 C132 225 168 317 226 377 C256 408 296 426 336 426 C360 426 374 418 374 405 C374 400 373 396 368 386 C361 373 359 366 359 356 C359 332 374 318 399 318 C426 318 447 338 447 365 C447 412 402 447 341 447 C188 447 45 298 45 139 C45 44 99 -11 192 -11 C269 -11 324 20 385 97 L369 107 Z M512 670 L476 670 L331 564 L241 670 L203 670 L299 499 L346 499 L512 670 Z " />
<glyph glyph-name="Dcaron" unicode="&#x10e;" horiz-adv-x="722" d="M137 646 C200 640 215 632 215 604 C215 587 211 564 205 540 L84 91 C67 32 60 26 3 16 L3 0 L260 0 C379 0 486 31 564 88 C660 159 717 269 717 386 C717 555 601 662 419 662 L137 662 L137 646 Z M323 603 C329 625 344 632 384 632 C442 632 493 619 525 595 C576 558 604 492 604 411 C604 301 563 190 496 121 C436 60 355 30 249 30 C202 30 183 41 183 68 C183 81 187 101 204 164 L323 603 Z M603 885 L566 885 L423 779 L331 885 L293 885 L392 714 L439 714 L603 885 Z " />
<glyph glyph-name="dcaron" unicode="&#x10f;" horiz-adv-x="544" d="M562 442 C649 490 695 546 695 604 C695 644 670 675 637 675 C607 675 585 655 585 627 C585 609 591 599 610 582 C625 568 630 559 630 549 C630 522 606 494 553 459 L562 442 Z M479 113 C422 49 413 41 395 41 C385 41 377 50 377 61 C377 77 410 197 445 311 C470 393 492 472 549 687 L544 693 C489 681 452 675 388 669 L388 652 C445 650 451 647 451 625 C451 612 451 611 435 555 L389 388 C381 431 364 447 324 447 C192 447 25 255 25 103 C25 31 64 -11 131 -11 C199 -11 244 22 315 122 C303 71 300 55 300 32 C300 5 317 -13 342 -13 C385 -13 439 29 491 102 L479 113 Z M328 424 C358 422 373 403 373 367 C373 269 325 152 257 80 C231 53 200 38 172 38 C136 38 113 64 113 105 C113 187 165 306 233 377 C261 407 299 426 328 424 L328 424 Z " />
<glyph glyph-name="Dcroat" unicode="&#x110;" horiz-adv-x="722" d="M57 330 L148 330 L84 91 C67 32 60 26 3 16 L3 0 L260 0 C379 0 486 31 564 88 C660 159 717 269 717 386 C717 555 601 662 419 662 L137 662 L137 646 C201 640 215 632 215 604 C215 587 211 564 205 540 L160 373 L69 373 L57 330 Z M416 373 L261 373 L323 603 C329 625 344 632 388 632 C443 632 493 619 525 595 C576 558 604 491 604 411 C604 300 563 190 496 121 C436 60 354 30 249 30 C202 30 183 41 183 68 C183 80 188 105 204 164 L249 330 L405 330 L416 373 Z " />
<glyph glyph-name="dcroat" unicode="&#x111;" horiz-adv-x="500" d="M429 551 L384 388 C376 431 359 447 319 447 C186 447 20 256 20 103 C20 31 59 -11 126 -11 C194 -11 239 22 310 122 C298 71 295 55 295 32 C295 5 312 -13 337 -13 C380 -13 434 29 486 102 L474 113 C417 49 408 41 390 41 C380 41 372 50 372 61 C372 77 405 199 440 310 C458 370 476 432 500 522 L508 551 L566 551 L574 587 L517 587 L544 687 L539 692 C484 681 447 675 383 669 L383 652 C440 650 446 647 446 625 C446 614 444 606 439 587 L269 587 L261 551 L429 551 Z M323 424 C353 422 368 403 368 367 C368 269 320 152 252 80 C226 53 195 38 167 38 C131 38 108 64 108 105 C108 187 160 306 228 377 C256 407 294 426 323 424 L323 424 Z " />
<glyph glyph-name="Emacron" unicode="&#x112;" horiz-adv-x="611" d="M649 662 L145 662 L145 646 C209 640 224 632 224 604 C224 592 219 562 213 540 L92 91 C75 33 68 26 11 16 L11 0 L525 0 L587 164 L570 172 C524 107 497 81 453 61 C416 43 348 33 270 33 C214 33 190 43 190 67 C190 80 201 128 225 216 C230 231 243 282 256 333 L304 330 L350 329 C379 328 403 324 411 317 C420 310 422 302 422 281 C422 263 421 253 416 230 L436 225 L503 460 L484 465 C447 378 437 372 346 368 C333 368 301 367 265 366 L330 603 C336 625 346 629 404 629 C564 629 599 615 599 554 C599 538 599 526 598 509 L619 507 L649 662 Z M594 806 L289 806 L278 754 L583 754 L594 806 Z " />
<glyph glyph-name="emacron" unicode="&#x113;" horiz-adv-x="444" d="M371 111 C298 51 266 35 222 35 C165 35 128 71 128 126 C128 142 130 152 139 189 L167 193 C320 214 428 292 428 379 C428 421 398 447 348 447 C201 447 40 279 40 126 C40 45 94 -11 173 -11 C245 -11 323 30 384 98 L371 111 Z M164 256 C199 346 275 424 326 424 C347 424 361 409 361 386 C361 353 342 316 310 286 C272 250 234 233 146 211 L164 256 Z M485 591 L180 591 L169 539 L474 539 L485 591 Z " />
<glyph glyph-name="Ebreve" unicode="&#x114;" horiz-adv-x="611" d="M649 662 L145 662 L145 646 C209 640 224 632 224 604 C224 592 219 562 213 540 L92 91 C75 33 68 26 11 16 L11 0 L525 0 L587 164 L570 172 C524 107 497 81 453 61 C416 43 348 33 270 33 C214 33 190 43 190 67 C190 80 201 128 225 216 C230 231 243 282 256 333 L304 330 L350 329 C379 328 403 324 411 317 C420 310 422 302 422 281 C422 263 421 253 416 230 L436 225 L503 460 L484 465 C447 378 437 372 346 368 C333 368 301 367 265 366 L330 603 C336 625 346 629 404 629 C564 629 599 615 599 554 C599 538 599 526 598 509 L619 507 L649 662 Z M580 874 C555 810 506 774 444 774 C379 774 339 811 333 874 L304 874 C305 816 313 785 334 759 C357 729 392 714 438 714 C526 714 588 773 609 874 L580 874 Z " />
<glyph glyph-name="ebreve" unicode="&#x115;" horiz-adv-x="444" d="M371 111 C298 51 266 35 222 35 C165 35 128 71 128 126 C128 142 130 152 139 189 L167 193 C320 214 428 292 428 379 C428 421 398 447 348 447 C201 447 40 279 40 126 C40 45 94 -11 173 -11 C245 -11 323 30 384 98 L371 111 Z M164 256 C199 346 275 424 326 424 C347 424 361 409 361 386 C361 353 342 316 310 286 C272 250 234 233 146 211 L164 256 Z M464 659 C438 595 388 559 326 559 C261 559 221 596 217 659 L188 659 C188 601 195 570 215 544 C238 514 273 499 319 499 C407 499 471 558 493 659 L464 659 Z " />
<glyph glyph-name="Edotaccent" unicode="&#x116;" horiz-adv-x="611" d="M649 662 L145 662 L145 646 C209 640 224 632 224 604 C224 592 219 562 213 540 L92 91 C75 33 68 26 11 16 L11 0 L525 0 L587 164 L570 172 C524 107 497 81 453 61 C416 43 348 33 270 33 C214 33 190 43 190 67 C190 80 201 128 225 216 C230 231 243 282 256 333 L304 330 L350 329 C379 328 403 324 411 317 C420 310 422 302 422 281 C422 263 421 253 416 230 L436 225 L503 460 L484 465 C447 378 437 372 346 368 C333 368 301 367 265 366 L330 603 C336 625 346 629 404 629 C564 629 599 615 599 554 C599 538 599 526 598 509 L619 507 L649 662 Z M446 829 C418 829 396 808 396 781 C396 752 418 730 446 730 C473 730 495 752 495 779 C495 805 471 829 446 829 L446 829 Z " />
<glyph glyph-name="edotaccent" unicode="&#x117;" horiz-adv-x="444" d="M371 111 C298 51 266 35 222 35 C165 35 128 71 128 126 C128 142 130 152 139 189 L167 193 C320 214 428 292 428 379 C428 421 398 447 348 447 C201 447 40 279 40 126 C40 45 94 -11 173 -11 C245 -11 323 30 384 98 L371 111 Z M164 256 C199 346 275 424 326 424 C347 424 361 409 361 386 C361 353 342 316 310 286 C272 250 234 233 146 211 L164 256 Z M329 614 C301 614 278 592 278 565 C278 537 299 515 327 515 C355 515 377 537 377 565 C377 590 354 614 329 614 L329 614 Z " />
<glyph glyph-name="Eogonek" unicode="&#x118;" horiz-adv-x="611" d="M587 164 L570 172 C524 107 497 81 453 61 C416 43 348 33 270 33 C214 33 190 43 190 67 C190 80 201 128 225 216 C230 231 243 282 256 333 L304 330 L350 329 C379 328 403 324 411 317 C420 310 422 302 422 281 C422 263 421 253 416 230 L436 225 L503 460 L484 465 C447 378 437 372 346 368 C333 368 301 367 265 366 L330 603 C336 625 346 629 404 629 C564 629 599 615 599 554 C599 538 599 526 598 509 L619 507 L649 662 L145 662 L145 646 C209 640 224 632 224 604 C224 592 219 562 213 540 L92 91 C75 33 68 26 11 16 L11 0 L478 0 C456 -28 450 -44 450 -72 C450 -127 493 -171 547 -171 C596 -171 638 -145 673 -93 L656 -75 C628 -98 604 -107 573 -107 C537 -107 512 -86 512 -56 C512 -44 517 -21 525 0 L587 164 Z " />
<glyph glyph-name="eogonek" unicode="&#x119;" horiz-adv-x="444" d="M371 111 C298 51 266 35 222 35 C165 35 128 71 128 126 C128 142 130 152 139 189 L167 193 C320 214 428 292 428 379 C428 421 398 447 348 447 C201 447 40 279 40 126 C40 45 94 -11 174 -11 C208 -11 236 -4 274 14 C246 -16 234 -43 234 -77 C234 -128 277 -171 330 -171 C379 -171 421 -145 457 -93 L440 -75 C412 -98 388 -107 356 -107 C320 -107 296 -86 296 -54 C296 -10 313 21 367 81 L384 98 L371 111 Z M164 256 C199 346 275 424 326 424 C347 424 361 409 361 386 C361 353 342 316 310 286 C272 250 234 233 146 211 L164 256 Z " />
<glyph glyph-name="Ecaron" unicode="&#x11a;" horiz-adv-x="611" d="M649 662 L145 662 L145 646 C209 640 224 632 224 604 C224 592 219 562 213 540 L92 91 C75 33 68 26 11 16 L11 0 L525 0 L587 164 L570 172 C524 107 497 81 453 61 C416 43 348 33 270 33 C214 33 190 43 190 67 C190 80 201 128 225 216 C230 231 243 282 256 333 L304 330 L350 329 C379 328 403 324 411 317 C420 310 422 302 422 281 C422 263 421 253 416 230 L436 225 L503 460 L484 465 C447 378 437 372 346 368 C333 368 301 367 265 366 L330 603 C336 625 346 629 404 629 C564 629 599 615 599 554 C599 538 599 526 598 509 L619 507 L649 662 Z M617 885 L581 885 L438 779 L346 885 L308 885 L407 714 L454 714 L617 885 Z " />
<glyph glyph-name="ecaron" unicode="&#x11b;" horiz-adv-x="444" d="M371 111 C298 51 266 35 222 35 C165 35 128 71 128 126 C128 142 130 152 139 189 L167 193 C320 214 428 292 428 379 C428 421 398 447 348 447 C201 447 40 279 40 126 C40 45 94 -11 173 -11 C245 -11 323 30 384 98 L371 111 Z M164 256 C199 346 275 424 326 424 C347 424 361 409 361 386 C361 353 342 316 310 286 C272 250 234 233 146 211 L164 256 Z M513 670 L477 670 L332 564 L241 670 L204 670 L300 499 L346 499 L513 670 Z " />
<glyph glyph-name="Gcircumflex" unicode="&#x11c;" horiz-adv-x="722" d="M734 671 L719 675 C701 650 685 641 658 641 C648 641 637 643 614 651 C564 667 520 675 478 675 C265 675 73 475 73 252 C73 182 103 110 152 61 C204 9 279 -18 367 -18 C456 -18 528 1 606 45 L654 234 C670 291 686 302 752 307 L752 323 L482 323 L482 307 C549 300 562 294 562 272 C562 250 555 217 535 147 C515 78 510 67 498 54 C476 32 438 20 392 20 C259 20 185 96 185 232 C185 354 234 483 311 566 C356 614 420 641 486 641 C552 641 608 613 639 567 C656 541 663 519 668 474 L686 471 L734 671 Z M563 885 L514 885 L356 714 L395 714 L533 819 L618 714 L654 714 L563 885 Z " />
<glyph glyph-name="gcircumflex" unicode="&#x11d;" horiz-adv-x="500" d="M481 411 L419 411 C416 411 411 413 403 419 C375 437 342 447 303 447 C190 447 98 369 98 273 C98 220 120 191 177 164 C117 123 99 103 99 79 C99 65 107 54 126 39 C25 -26 6 -47 6 -95 C6 -165 72 -209 176 -209 C303 -209 389 -149 389 -60 C389 3 341 47 244 73 C200 84 174 100 174 115 C174 130 197 157 211 157 C213 157 215 157 218 156 C227 154 239 153 250 153 C342 153 438 236 438 315 C438 332 435 351 430 371 L480 371 L481 411 Z M183 17 C292 -18 328 -44 328 -91 C328 -146 269 -187 190 -187 C109 -187 62 -149 62 -85 C62 -60 68 -42 84 -23 C98 -5 141 28 149 28 C150 28 152 27 154 26 L183 17 Z M302 425 C339 425 358 401 358 354 C358 317 346 273 326 238 C303 196 272 174 237 174 C199 174 177 202 177 249 C177 343 235 425 302 425 L302 425 Z M374 670 L324 670 L163 499 L203 499 L343 604 L425 499 L461 499 L374 670 Z " />
<glyph glyph-name="Gbreve" unicode="&#x11e;" horiz-adv-x="722" d="M723 671 L708 675 C690 650 674 641 647 641 C637 641 626 643 603 651 C553 667 509 675 467 675 C254 675 62 475 62 252 C62 182 92 110 141 61 C193 9 268 -18 356 -18 C445 -18 517 1 595 45 L643 234 C659 291 675 302 741 307 L741 323 L471 323 L471 307 C538 300 551 294 551 272 C551 250 544 217 524 147 C504 78 499 67 487 54 C465 32 427 20 381 20 C248 20 174 96 174 232 C174 354 223 483 300 566 C345 614 409 641 475 641 C541 641 597 613 628 567 C645 541 652 519 657 474 L675 471 L723 671 Z M636 874 C611 810 562 774 500 774 C435 774 394 811 389 874 L360 874 C361 816 369 785 389 759 C413 729 448 714 493 714 C581 714 644 773 665 874 L636 874 Z " />
<glyph glyph-name="gbreve" unicode="&#x11f;" horiz-adv-x="500" d="M481 411 L419 411 C416 411 411 413 403 419 C375 437 342 447 303 447 C190 447 98 369 98 273 C98 220 120 191 177 164 C117 123 99 103 99 79 C99 65 107 54 126 39 C25 -26 6 -47 6 -95 C6 -165 72 -209 176 -209 C303 -209 389 -149 389 -60 C389 3 341 47 244 73 C200 84 174 100 174 115 C174 130 197 157 211 157 C213 157 215 157 218 156 C227 154 239 153 250 153 C342 153 438 236 438 315 C438 332 435 351 430 371 L480 371 L481 411 Z M183 17 C292 -18 328 -44 328 -91 C328 -146 269 -187 190 -187 C109 -187 62 -149 62 -85 C62 -60 68 -42 84 -23 C98 -5 141 28 149 28 C150 28 152 27 154 26 L183 17 Z M302 425 C339 425 358 401 358 354 C358 317 346 273 326 238 C303 196 272 174 237 174 C199 174 177 202 177 249 C177 343 235 425 302 425 L302 425 Z M471 659 C446 596 396 559 334 559 C269 559 229 595 225 659 L195 659 C196 601 203 570 223 544 C246 514 281 499 326 499 C380 499 427 523 462 568 C482 595 491 617 501 659 L471 659 Z " />
<glyph glyph-name="Gdotaccent" unicode="&#x120;" horiz-adv-x="722" d="M714 671 L698 671 C685 653 670 643 655 643 C650 643 644 645 636 648 C579 670 556 675 508 675 C300 675 119 479 119 253 C119 96 223 -11 377 -11 C429 -11 490 4 560 33 L616 233 C633 300 654 319 711 321 L716 339 L445 339 L440 321 L449 321 C477 321 492 319 503 316 C519 310 528 296 528 279 C528 269 525 253 521 238 L468 46 C437 32 407 25 378 25 C336 25 291 45 265 74 C238 105 220 160 220 215 C220 302 248 412 290 490 C344 589 420 642 511 642 C598 642 658 592 658 519 C658 508 656 497 650 466 L669 466 L714 671 Z M525 842 C493 842 468 817 468 786 C468 754 494 728 526 728 C557 728 582 753 582 785 C582 816 556 842 525 842 L525 842 Z " />
<glyph glyph-name="gdotaccent" unicode="&#x121;" horiz-adv-x="500" d="M497 412 L377 412 C343 433 318 441 288 441 C248 441 202 425 163 396 C118 363 95 322 95 275 C95 220 124 183 184 161 C121 129 99 107 99 77 C99 62 104 51 120 37 C30 -26 14 -43 14 -79 C14 -107 34 -136 63 -152 C93 -168 135 -176 188 -176 C310 -176 396 -120 396 -40 C396 -14 385 9 362 28 C336 49 318 56 248 70 C186 84 169 91 169 103 C169 124 189 139 238 155 C269 155 280 156 300 163 C372 186 422 248 422 314 C422 326 420 336 414 357 L480 357 L497 412 Z M287 409 C323 409 342 386 342 343 C342 304 321 241 298 212 C282 192 259 180 235 180 C199 180 177 208 177 254 C177 334 230 409 287 409 L287 409 Z M143 23 C158 18 167 15 188 11 C255 -3 267 -7 294 -19 C320 -32 334 -49 334 -70 C334 -113 275 -147 200 -147 C127 -147 77 -116 77 -72 C77 -39 101 -4 143 23 L143 23 Z M316 616 C288 616 265 594 265 566 C265 538 287 516 315 516 C342 516 365 539 365 566 C365 593 343 616 316 616 L316 616 Z " />
<glyph glyph-name="Gcommaaccent" unicode="&#x122;" horiz-adv-x="722" d="M723 671 L708 675 C690 650 674 641 647 641 C637 641 626 643 603 651 C553 667 509 675 467 675 C254 675 62 475 62 252 C62 182 92 110 141 61 C193 9 268 -18 356 -18 C445 -18 517 1 595 45 L643 234 C659 291 675 302 741 307 L741 323 L471 323 L471 307 C538 300 551 294 551 272 C551 250 544 217 524 147 C504 78 499 67 487 54 C465 32 427 20 381 20 C248 20 174 96 174 232 C174 354 223 483 300 566 C345 614 409 641 475 641 C541 641 597 613 628 567 C645 541 652 519 657 474 L675 471 L723 671 Z M239 -274 C324 -227 369 -171 369 -114 C369 -73 343 -41 310 -41 C281 -41 259 -61 259 -88 C259 -106 265 -117 284 -134 C300 -148 305 -157 305 -167 C305 -195 282 -221 230 -257 L239 -274 Z " />
<glyph glyph-name="gcommaaccent" unicode="&#x123;" horiz-adv-x="500" d="M481 411 L419 411 C416 411 411 413 403 419 C375 437 342 447 303 447 C190 447 98 369 98 273 C98 220 120 191 177 164 C117 123 99 103 99 79 C99 65 107 54 126 39 C25 -26 6 -47 6 -95 C6 -165 72 -209 176 -209 C303 -209 389 -149 389 -60 C389 3 341 47 244 73 C200 84 174 100 174 115 C174 130 197 157 211 157 C213 157 215 157 218 156 C227 154 239 153 250 153 C342 153 438 236 438 315 C438 332 435 351 430 371 L480 371 L481 411 Z M183 17 C292 -18 328 -44 328 -91 C328 -146 269 -187 190 -187 C109 -187 62 -149 62 -85 C62 -60 68 -42 84 -23 C98 -5 141 28 149 28 C150 28 152 27 154 26 L183 17 Z M302 425 C339 425 358 401 358 354 C358 317 346 273 326 238 C303 196 272 174 237 174 C199 174 177 202 177 249 C177 343 235 425 302 425 L302 425 Z M409 716 C322 668 276 612 276 554 C276 513 301 483 334 483 C364 483 386 503 386 531 C386 548 380 559 361 576 C347 590 341 599 341 609 C341 636 364 663 418 699 L409 716 Z " />
<glyph glyph-name="Hcircumflex" unicode="&#x124;" horiz-adv-x="722" d="M568 885 L518 885 L361 714 L400 714 L538 819 L622 714 L659 714 L568 885 Z M796 662 L545 662 L545 646 C605 639 617 631 617 602 C617 586 614 566 606 539 L561 373 L272 373 L325 571 C340 622 366 641 427 646 L427 662 L150 662 L150 646 C214 640 229 632 229 601 C229 586 226 569 218 539 L97 91 C80 33 72 26 16 16 L16 0 L266 0 L265 16 C204 25 193 31 193 61 C193 69 194 76 196 83 L260 330 L549 330 L486 91 C470 38 450 23 384 16 L384 0 L661 0 L661 16 C594 23 581 30 581 60 C581 67 582 75 584 83 L713 571 C731 630 738 636 796 646 L796 662 Z " />
<glyph glyph-name="hcircumflex" unicode="&#x125;" horiz-adv-x="500" d="M328 893 L279 893 L118 721 L158 721 L297 827 L380 721 L416 721 L328 893 Z M479 119 C424 51 412 39 395 39 C386 39 379 47 379 57 C379 68 396 131 413 184 C444 278 464 354 464 380 C464 420 437 447 398 447 C332 447 260 381 163 234 L289 687 L284 693 C226 679 187 673 125 665 L125 649 L151 650 C174 651 192 640 192 625 C192 611 187 586 177 557 C177 555 173 541 167 519 L26 0 L102 0 C144 156 157 190 198 252 C251 332 321 395 357 395 C372 395 386 383 385 370 C385 365 382 353 378 336 L320 127 C306 77 299 45 299 33 C299 7 316 -9 344 -9 C395 -9 430 18 492 106 L479 119 Z " />
<glyph glyph-name="Hbar" unicode="&#x126;" horiz-adv-x="722" d="M222 498 L111 105 C93 36 74 19 12 18 L7 0 L266 0 L271 18 C247 18 234 20 225 23 C210 29 200 43 200 59 C200 69 203 85 207 100 L272 330 L541 330 L477 105 C458 35 439 19 373 18 L368 0 L634 0 L639 18 C615 18 601 20 591 23 C576 29 566 42 566 59 C566 69 569 84 573 100 L685 498 L774 498 L784 531 L695 531 L702 557 C721 628 740 644 809 644 L814 662 L546 662 L541 644 C594 644 613 633 613 603 C613 593 610 577 606 562 L598 531 L328 531 L336 557 C355 630 374 645 447 644 L452 662 L180 662 L175 644 C228 644 247 633 247 603 C247 593 244 577 240 562 L232 531 L144 531 L134 498 L222 498 Z M319 498 L588 498 L551 367 L282 367 L319 498 Z " />
<glyph glyph-name="hbar" unicode="&#x127;" horiz-adv-x="500" d="M243 522 L366 522 L375 553 L252 553 L289 687 L284 693 C226 679 187 673 125 665 L125 649 L151 650 C174 651 192 640 192 625 C192 613 187 588 177 557 L176 553 L122 553 L113 522 L168 522 L26 0 L102 0 C144 156 157 190 198 252 C251 332 321 395 357 395 C372 395 386 383 385 370 C385 365 382 353 378 336 L320 127 C306 77 299 45 299 33 C299 7 316 -9 344 -9 C395 -9 430 18 492 106 L479 119 C424 51 412 39 395 39 C386 39 379 47 379 57 C379 68 396 131 413 184 C444 278 464 354 464 380 C464 420 437 447 398 447 C332 447 260 381 163 234 L243 522 Z " />
<glyph glyph-name="Itilde" unicode="&#x128;" horiz-adv-x="333" d="M6 0 L254 0 L253 16 C194 23 184 30 184 59 C184 79 185 87 195 122 L315 571 C332 630 339 636 398 646 L397 662 L147 662 L147 646 C207 638 219 631 219 601 C219 586 216 569 208 539 L87 91 C70 33 63 26 6 16 L6 0 Z M437 839 C426 805 413 794 385 794 C370 794 354 799 323 813 C285 830 258 838 235 838 C182 838 155 808 135 730 L164 730 C174 763 190 778 215 778 C233 778 258 770 312 749 C339 738 357 733 370 733 C419 733 452 770 466 839 L437 839 Z " />
<glyph glyph-name="itilde" unicode="&#x129;" horiz-adv-x="278" d="M238 116 C212 82 206 75 196 65 C178 47 163 37 154 37 C146 37 138 44 138 52 C138 63 141 78 148 97 C150 102 152 111 155 119 L246 445 L243 447 C143 429 121 425 81 422 L81 406 C135 405 146 401 145 381 C144 372 141 357 135 336 L85 157 C69 99 62 66 62 46 C62 9 78 -11 108 -11 C155 -11 193 19 251 104 L238 116 Z M342 633 C330 599 317 588 290 588 C274 588 258 593 227 607 C190 624 163 632 141 632 C87 632 59 602 38 524 L67 524 C77 557 94 572 119 572 C137 572 161 565 215 543 C242 532 260 527 274 527 C322 527 356 564 371 633 L342 633 Z " />
<glyph glyph-name="Imacron" unicode="&#x12a;" horiz-adv-x="333" d="M6 0 L254 0 L253 16 C194 23 184 30 184 59 C184 79 185 87 195 122 L315 571 C332 630 339 636 398 646 L397 662 L147 662 L147 646 C207 638 219 631 219 601 C219 586 216 569 208 539 L87 91 C70 33 63 26 6 16 L6 0 Z M454 806 L149 806 L138 754 L443 754 L454 806 Z " />
<glyph glyph-name="imacron" unicode="&#x12b;" horiz-adv-x="278" d="M238 116 C212 82 206 75 196 65 C178 47 163 37 154 37 C146 37 138 44 138 52 C138 63 142 78 148 97 C150 103 153 111 155 119 L247 445 L244 447 C144 429 121 425 81 422 L81 406 C135 405 146 401 145 381 C145 371 141 356 136 336 L86 157 C68 96 62 66 62 46 C62 9 78 -11 108 -11 C155 -11 193 19 251 104 L238 116 Z M369 591 L64 591 L52 539 L357 539 L369 591 Z " />
<glyph glyph-name="Ibreve" unicode="&#x12c;" horiz-adv-x="333" d="M6 0 L254 0 L253 16 C194 23 184 30 184 59 C184 79 185 87 195 122 L315 571 C332 630 339 636 398 646 L397 662 L147 662 L147 646 C207 638 219 631 219 601 C219 586 216 569 208 539 L87 91 C70 33 63 26 6 16 L6 0 Z M440 872 C416 808 366 772 304 772 C239 772 199 809 194 872 L164 872 C165 815 173 783 194 757 C216 728 252 712 297 712 C352 712 398 736 432 781 C452 808 461 830 469 872 L440 872 Z " />
<glyph glyph-name="ibreve" unicode="&#x12d;" horiz-adv-x="278" d="M225 105 C199 67 168 39 153 39 C146 39 139 45 139 52 C139 55 140 60 142 66 L255 451 C204 438 154 430 107 426 L101 407 C117 410 125 411 134 411 C153 411 161 404 161 389 C161 378 159 370 152 344 L68 59 C63 44 61 32 61 23 C61 3 81 -15 103 -15 C134 -15 178 19 232 84 L225 105 Z M138 659 C137 642 137 634 137 624 C137 554 166 517 222 517 C284 517 325 564 349 659 L332 659 C300 598 271 575 227 575 C181 575 159 600 155 659 L138 659 Z " />
<glyph glyph-name="Iogonek" unicode="&#x12e;" horiz-adv-x="333" d="M147 662 L147 646 C207 638 219 631 219 601 C219 586 216 569 208 539 L87 91 C70 33 63 26 6 16 L6 0 L203 0 C181 -31 176 -46 176 -73 C176 -127 220 -171 273 -171 C323 -171 364 -145 399 -93 L382 -75 C354 -98 330 -107 298 -107 C260 -107 237 -85 237 -48 C237 -30 242 -14 254 0 L253 16 C194 23 184 30 184 59 C184 79 185 87 195 122 L315 571 C332 630 339 636 398 646 L397 662 L147 662 Z " />
<glyph glyph-name="iogonek" unicode="&#x12f;" horiz-adv-x="278" d="M238 116 C212 82 206 75 196 65 C178 47 163 37 154 37 C146 37 138 44 138 52 C138 63 142 78 148 97 C150 103 153 111 155 119 L247 445 L244 447 C144 429 121 425 81 422 L81 406 C135 405 146 401 145 381 C145 371 141 356 136 336 L86 157 C68 96 62 66 62 46 C62 15 71 -1 93 -9 C76 -33 70 -49 70 -74 C70 -128 112 -171 166 -171 C215 -171 257 -145 293 -93 L276 -75 C248 -98 224 -107 192 -107 C154 -107 132 -86 132 -51 C132 -23 137 -15 173 13 C202 37 218 56 251 104 L238 116 Z M235 663 C206 663 186 640 186 608 C186 577 205 556 234 556 C262 556 285 580 285 607 C285 637 262 663 235 663 L235 663 Z " />
<glyph glyph-name="Idotaccent" unicode="&#x130;" horiz-adv-x="333" d="M6 0 L254 0 L253 16 C194 23 184 30 184 59 C184 79 185 87 195 122 L315 571 C332 630 339 636 398 646 L397 662 L147 662 L147 646 C207 638 219 631 219 601 C219 586 216 569 208 539 L87 91 C70 33 63 26 6 16 L6 0 Z M307 829 C279 829 257 808 257 781 C257 752 279 730 307 730 C334 730 356 752 356 779 C356 805 332 829 307 829 L307 829 Z " />
<glyph glyph-name="dotlessi" unicode="&#x131;" horiz-adv-x="278" d="M238 116 C212 82 206 75 196 65 C178 47 163 37 154 37 C146 37 138 44 138 52 C138 63 142 78 148 97 C150 103 153 111 155 119 L247 445 L244 447 C144 429 121 425 81 422 L81 406 C135 405 146 401 145 381 C145 371 141 356 136 336 L86 157 C68 96 62 66 62 46 C62 9 78 -11 108 -11 C155 -11 193 19 251 104 L238 116 Z " />
<glyph glyph-name="IJ" unicode="&#x132;" horiz-adv-x="750" d="M271 18 C248 18 234 20 225 23 C209 29 200 43 200 60 C200 70 203 86 207 101 L336 565 C355 639 374 654 447 653 L452 671 L180 671 L175 653 C228 653 247 642 247 611 C247 601 244 585 240 570 L111 106 C93 37 74 20 12 18 L7 0 L266 0 L271 18 Z M573 653 C595 653 612 652 621 650 C641 645 653 631 653 612 C653 602 650 586 646 570 L521 118 C505 61 476 26 444 26 C427 26 415 36 415 50 C415 59 417 63 428 75 C438 85 442 95 442 107 C442 133 422 153 395 153 C360 153 332 121 332 82 C332 29 377 -11 436 -11 C481 -11 530 12 567 51 C597 81 622 131 639 191 L743 565 C759 629 780 651 830 653 L835 671 L578 671 L573 653 Z " />
<glyph glyph-name="ij" unicode="&#x133;" horiz-adv-x="500" d="M227 105 C201 67 170 39 155 39 C148 39 141 45 141 52 C141 55 142 60 144 66 L257 451 C206 438 156 430 109 426 L103 407 C119 410 127 411 136 411 C155 411 163 404 163 389 C163 378 161 370 154 344 L70 59 C65 44 63 32 63 23 C63 3 83 -15 105 -15 C136 -15 180 19 234 84 L227 105 Z M246 622 C217 622 193 599 193 571 C193 542 216 519 244 519 C273 519 296 542 296 571 C296 599 273 622 246 622 L246 622 Z M329 405 C344 406 350 407 358 407 C377 407 388 397 388 382 C388 376 387 371 382 353 L274 -11 C253 -84 247 -99 228 -123 C212 -143 189 -156 168 -156 C156 -156 149 -152 143 -143 C160 -143 169 -134 169 -117 C169 -100 156 -88 136 -88 C113 -88 95 -105 95 -127 C95 -154 125 -173 166 -173 C250 -173 321 -96 360 37 L480 443 C426 432 386 426 335 422 L329 405 Z M469 622 C440 622 416 599 416 571 C416 542 439 519 467 519 C496 519 519 542 519 571 C519 599 496 622 469 622 L469 622 Z " />
<glyph glyph-name="Jcircumflex" unicode="&#x134;" horiz-adv-x="444" d="M505 662 L248 662 L248 646 C313 639 327 632 327 604 C327 589 324 573 315 539 L186 68 C176 28 162 13 137 13 C109 13 101 25 102 68 C103 104 83 126 52 126 C25 126 7 104 7 72 C7 18 55 -18 126 -18 C179 -18 223 2 255 40 C282 72 301 117 322 195 L423 571 C441 632 448 637 506 646 L505 662 Z M442 893 L392 893 L235 721 L274 721 L412 827 L496 721 L533 721 L442 893 Z " />
<glyph glyph-name="jcircumflex" unicode="&#x135;" horiz-adv-x="278" d="M248 445 L245 447 C161 432 104 424 72 422 L72 406 L100 406 L107 407 C116 408 135 403 140 398 C144 394 147 385 147 375 C147 364 141 337 130 293 L55 -3 C19 -143 -5 -187 -45 -187 C-57 -187 -63 -183 -63 -175 C-63 -172 -62 -169 -58 -164 C-52 -156 -50 -151 -50 -143 C-50 -121 -68 -105 -91 -105 C-115 -105 -132 -123 -132 -148 C-132 -184 -99 -210 -52 -210 C36 -210 97 -134 139 28 L248 445 Z M244 670 L195 670 L34 499 L74 499 L213 604 L296 499 L332 499 L244 670 Z " />
<glyph glyph-name="Kcommaaccent" unicode="&#x136;" horiz-adv-x="667" d="M738 662 L513 662 L513 646 C525 644 534 643 541 643 C553 642 562 640 569 636 C572 634 575 628 575 623 C575 599 520 545 430 482 L277 374 L329 571 C344 621 371 641 431 646 L431 662 L154 662 L154 646 C218 640 233 632 233 602 C233 586 230 569 222 539 L101 91 C84 31 78 26 19 16 L19 0 L271 0 L270 16 C206 23 197 29 197 62 C197 72 198 79 205 100 C206 106 208 113 211 122 L272 353 L396 142 C420 101 435 64 435 45 C435 30 421 22 388 20 C384 19 372 18 360 16 L360 0 L639 0 L639 16 C574 22 568 26 540 73 L360 380 L662 609 C690 630 714 641 738 646 L738 662 Z M226 -274 C312 -226 357 -171 357 -114 C357 -73 331 -41 298 -41 C268 -41 246 -61 246 -87 C246 -106 252 -117 271 -134 C286 -148 292 -157 292 -167 C292 -194 270 -221 217 -257 L226 -274 Z " />
<glyph glyph-name="kcommaaccent" unicode="&#x137;" horiz-adv-x="444" d="M434 111 C398 49 392 42 373 42 C351 42 331 75 292 172 C287 185 272 222 255 262 C405 393 437 415 485 418 L485 434 L299 434 L299 418 C343 417 355 413 355 400 C355 380 304 330 209 258 C194 247 179 235 165 224 L290 687 L285 693 C226 679 187 672 127 665 L127 649 L144 649 C178 649 194 641 195 624 C193 606 186 579 172 532 C167 514 166 509 161 490 L28 0 L104 0 L154 183 L197 215 C212 172 238 111 257 72 C287 10 307 -11 336 -11 C377 -11 403 15 450 99 L434 111 Z M104 -274 C191 -226 237 -169 237 -112 C237 -72 212 -41 179 -41 C149 -41 127 -61 127 -89 C127 -106 133 -117 152 -134 C167 -148 172 -156 172 -167 C172 -194 149 -221 95 -257 L104 -274 Z " />
<glyph glyph-name="kgreenlandic" unicode="&#x138;" horiz-adv-x="444" d="M136 179 L202 234 L269 40 C281 6 298 -12 322 -12 C341 -12 366 1 386 23 C408 46 421 65 451 117 L437 125 C411 74 380 40 361 40 C346 40 331 61 317 101 L255 277 C372 380 439 421 496 424 L500 439 L321 439 L316 424 C351 422 358 419 358 408 C358 396 358 396 283 332 L147 217 L217 454 C153 441 143 439 77 431 L71 412 C91 415 92 415 99 415 C112 415 123 406 123 395 C123 391 121 380 117 365 L15 0 L83 0 L136 179 Z " />
<glyph glyph-name="Lacute" unicode="&#x139;" horiz-adv-x="556" d="M415 662 L138 662 L138 646 C202 640 217 632 217 602 C217 586 214 569 206 540 L85 92 C68 33 60 26 4 16 L4 0 L520 0 L577 182 L557 188 C522 115 495 83 450 60 C415 43 374 37 284 37 C208 37 183 46 183 72 C183 80 187 102 193 122 L313 571 C328 622 354 641 415 646 L415 662 Z M257 716 L292 716 L465 824 C477 831 482 839 482 852 C482 872 466 888 445 888 C435 888 426 885 420 878 L257 716 Z " />
<glyph glyph-name="lacute" unicode="&#x13a;" horiz-adv-x="278" d="M246 125 C181 41 171 32 149 32 C139 32 134 38 134 51 C134 59 137 72 142 90 C143 94 144 97 145 98 L145 100 L302 687 L298 693 C238 679 200 672 139 665 L139 649 L156 649 C188 649 208 640 208 626 C208 622 207 616 204 607 L60 72 C57 61 56 52 56 45 C56 8 73 -11 105 -11 C158 -11 193 18 260 116 L246 125 Z M174 716 L210 716 L384 824 C397 831 402 840 402 852 C402 873 386 888 365 888 C355 888 346 885 340 878 L174 716 Z " />
<glyph glyph-name="Lcommaaccent" unicode="&#x13b;" horiz-adv-x="556" d="M415 662 L138 662 L138 646 C202 640 217 632 217 602 C217 586 214 569 206 540 L85 92 C68 33 60 26 4 16 L4 0 L520 0 L577 182 L557 188 C522 115 495 83 450 60 C415 43 374 37 284 37 C208 37 183 46 183 72 C183 80 187 102 193 122 L313 571 C328 622 354 641 415 646 L415 662 Z M176 -274 C261 -226 306 -171 306 -113 C306 -73 280 -41 247 -41 C218 -41 196 -61 196 -88 C196 -106 202 -117 221 -134 C237 -148 242 -157 242 -167 C242 -195 219 -221 167 -257 L176 -274 Z " />
<glyph glyph-name="lcommaaccent" unicode="&#x13c;" horiz-adv-x="278" d="M247 125 C180 40 171 32 149 32 C139 32 134 38 134 51 C134 59 137 74 143 90 L145 98 L145 100 L303 687 L298 693 C239 679 200 672 140 665 L140 649 L157 649 C188 649 208 640 208 626 C208 622 207 615 205 607 L61 72 C58 61 56 51 56 45 C56 8 73 -11 105 -11 C158 -11 193 18 260 116 L247 125 Z M0 -274 C87 -226 133 -169 133 -112 C133 -72 108 -41 75 -41 C45 -41 23 -61 23 -89 C23 -106 29 -117 48 -134 C62 -148 68 -157 68 -167 C68 -194 45 -221 -9 -257 L0 -274 Z " />
<glyph glyph-name="Lcaron" unicode="&#x13d;" horiz-adv-x="611" d="M418 662 L141 662 L141 646 C205 640 220 632 220 602 C220 586 217 569 209 540 L88 92 C71 33 63 26 7 16 L7 0 L523 0 L580 182 L560 188 C525 115 498 83 453 60 C418 43 377 37 287 37 C211 37 186 46 186 72 C186 80 190 102 196 122 L316 571 C331 622 357 641 418 646 L418 662 Z M442 442 C528 490 573 545 573 602 C573 643 547 675 514 675 C484 675 462 655 462 629 C462 610 468 599 487 582 C503 568 508 559 508 548 C508 521 485 494 433 459 L442 442 Z " />
<glyph glyph-name="lcaron" unicode="&#x13e;" horiz-adv-x="300" d="M313 442 C401 490 447 546 447 604 C447 644 422 675 389 675 C358 675 336 655 336 627 C336 610 342 599 361 582 C375 568 381 559 381 549 C381 522 358 495 304 459 L313 442 Z M245 125 C180 41 170 32 148 32 C138 32 133 38 133 51 C133 59 136 72 141 90 C142 94 143 97 144 98 L144 100 L301 687 L297 693 C237 679 199 672 138 665 L138 649 L155 649 C187 649 207 640 207 626 C207 622 206 616 203 607 L59 72 C56 61 55 52 55 45 C55 8 72 -11 104 -11 C157 -11 192 18 259 116 L245 125 Z " />
<glyph glyph-name="Ldot" unicode="&#x13f;" horiz-adv-x="556" d="M415 662 L138 662 L138 646 C202 640 217 632 217 602 C217 586 214 569 206 540 L85 92 C68 33 60 26 4 16 L4 0 L520 0 L577 182 L557 188 C522 115 495 83 450 60 C415 43 374 37 284 37 C208 37 183 46 183 72 C183 80 187 102 193 122 L313 571 C328 622 354 641 415 646 L415 662 Z M426 382 C395 382 371 357 371 325 C371 294 396 269 426 269 C457 269 483 294 483 323 C483 355 457 382 426 382 L426 382 Z " />
<glyph glyph-name="ldot" unicode="&#x140;" horiz-adv-x="323" d="M326 382 C295 382 270 356 270 324 C270 294 295 269 324 269 C355 269 382 294 382 324 C382 356 357 382 326 382 L326 382 Z M246 125 C181 41 171 32 149 32 C139 32 134 38 134 51 C134 59 137 72 142 90 C143 94 144 97 145 98 L145 100 L302 687 L298 693 C238 679 200 672 139 665 L139 649 L156 649 C188 649 208 640 208 626 C208 622 207 616 204 607 L60 72 C57 61 56 52 56 45 C56 8 73 -11 105 -11 C158 -11 193 18 260 116 L246 125 Z " />
<glyph glyph-name="Lslash" unicode="&#x141;" horiz-adv-x="556" d="M557 188 C522 115 495 83 450 60 C415 43 374 37 286 37 C208 37 182 46 182 71 C182 83 193 126 219 221 C230 264 241 305 252 346 L396 430 L409 480 L265 394 L313 571 C328 622 354 641 415 646 L415 662 L138 662 L138 646 C202 640 217 632 217 602 C217 586 214 569 206 540 L151 337 L51 277 L39 228 L138 288 L85 92 C68 33 60 26 4 16 L4 0 L520 0 L577 182 L557 188 Z " />
<glyph glyph-name="lslash" unicode="&#x142;" horiz-adv-x="278" d="M230 416 L303 687 L298 693 C238 679 199 672 139 665 L139 649 L157 649 C188 649 208 640 208 625 C208 616 188 541 140 365 L67 329 L54 282 L127 318 C118 284 111 258 105 241 L83 167 C63 94 56 63 56 45 C56 8 72 -11 105 -11 C158 -11 193 18 260 116 L246 125 C179 40 171 32 149 32 C139 32 134 38 134 51 C134 59 137 72 142 90 C143 94 144 97 144 98 L145 100 L217 369 L317 420 L329 466 L230 416 Z " />
<glyph glyph-name="Nacute" unicode="&#x143;" horiz-adv-x="667" d="M742 662 L541 662 L541 646 C599 641 612 631 612 593 C612 582 610 572 604 550 C603 546 602 544 602 541 L502 156 L286 662 L123 662 L123 646 C171 642 192 629 211 589 L94 166 C57 36 49 24 -9 16 L-9 0 L192 0 L192 16 C139 20 120 32 120 61 C120 73 123 93 129 115 L240 542 L479 -15 L497 -15 L639 495 C675 626 679 631 743 646 L742 662 Z M397 716 L433 716 L605 824 C617 831 622 839 622 852 C622 872 606 888 585 888 C575 888 566 885 560 878 L397 716 Z " />
<glyph glyph-name="nacute" unicode="&#x144;" horiz-adv-x="500" d="M479 119 C423 50 412 39 395 39 C386 39 379 46 379 55 C379 62 379 62 394 118 L453 327 C459 349 463 371 463 386 C463 422 436 447 397 447 C332 447 267 386 162 224 L231 445 L228 447 C174 436 153 432 64 416 L64 400 C115 398 128 392 128 372 C128 364 128 361 126 355 L26 0 L102 0 C151 160 160 182 206 251 C267 345 319 395 357 395 C372 395 381 384 381 366 C381 354 375 322 366 289 L320 121 C305 65 303 56 303 46 C303 7 317 -9 350 -9 C396 -9 422 12 493 105 L479 119 Z M298 501 L333 501 L508 608 C520 616 525 624 525 637 C525 657 509 673 488 673 C479 673 470 669 463 663 L298 501 Z " />
<glyph glyph-name="Ncommaaccent" unicode="&#x145;" horiz-adv-x="667" d="M742 662 L541 662 L541 646 C599 641 612 631 612 593 C612 582 610 572 604 550 C603 546 602 544 602 541 L502 156 L286 662 L123 662 L123 646 C171 642 192 629 211 589 L94 166 C57 36 49 24 -9 16 L-9 0 L192 0 L192 16 C139 20 120 32 120 61 C120 73 123 93 129 115 L240 542 L479 -15 L497 -15 L639 495 C675 626 679 631 743 646 L742 662 Z M223 -274 C308 -226 353 -171 353 -113 C353 -73 327 -41 294 -41 C264 -41 242 -61 242 -87 C242 -106 248 -117 268 -134 C284 -148 289 -157 289 -167 C289 -194 267 -221 213 -257 L223 -274 Z " />
<glyph glyph-name="ncommaaccent" unicode="&#x146;" horiz-adv-x="500" d="M479 119 C423 50 412 39 395 39 C386 39 379 46 379 55 C379 62 379 62 394 118 L453 327 C459 349 463 371 463 386 C463 422 436 447 397 447 C332 447 267 386 162 224 L231 445 L228 447 C174 436 153 432 64 416 L64 400 C115 398 128 392 128 372 C128 364 128 361 126 355 L26 0 L102 0 C151 160 160 182 206 251 C267 345 319 395 357 395 C372 395 381 384 381 366 C381 354 375 322 366 289 L320 121 C305 65 303 56 303 46 C303 7 317 -9 350 -9 C396 -9 422 12 493 105 L479 119 Z M116 -274 C202 -226 249 -169 249 -112 C249 -72 224 -41 191 -41 C161 -41 139 -61 139 -88 C139 -106 145 -117 164 -134 C178 -148 184 -157 184 -167 C184 -194 161 -221 107 -257 L116 -274 Z " />
<glyph glyph-name="Ncaron" unicode="&#x147;" horiz-adv-x="667" d="M742 662 L541 662 L541 646 C599 641 612 631 612 593 C612 582 610 572 604 550 C603 546 602 544 602 541 L502 156 L286 662 L123 662 L123 646 C171 642 192 629 211 589 L94 166 C57 36 49 24 -9 16 L-9 0 L192 0 L192 16 C139 20 120 32 120 61 C120 73 123 93 129 115 L240 542 L479 -15 L497 -15 L639 495 C675 626 679 631 743 646 L742 662 Z M630 885 L594 885 L451 779 L359 885 L321 885 L420 714 L467 714 L630 885 Z " />
<glyph glyph-name="ncaron" unicode="&#x148;" horiz-adv-x="500" d="M479 119 C423 50 412 39 395 39 C386 39 379 46 379 55 C379 62 379 62 394 118 L453 327 C459 349 463 371 463 386 C463 422 436 447 397 447 C332 447 267 386 162 224 L231 445 L228 447 C174 436 153 432 64 416 L64 400 C115 398 128 392 128 372 C128 364 128 361 126 355 L26 0 L102 0 C151 160 160 182 206 251 C267 345 319 395 357 395 C372 395 381 384 381 366 C381 354 375 322 366 289 L320 121 C305 65 303 56 303 46 C303 7 317 -9 350 -9 C396 -9 422 12 493 105 L479 119 Z M516 670 L480 670 L335 564 L244 670 L207 670 L303 499 L350 499 L516 670 Z " />
<glyph glyph-name="napostrophe" unicode="&#x149;" horiz-adv-x="577" d="M122 496 C193 528 237 580 237 633 C237 661 216 685 191 685 C167 685 146 663 146 639 C146 629 150 620 158 613 C173 599 176 594 176 584 C176 560 151 537 104 517 L122 496 Z M556 119 C500 50 489 39 472 39 C463 39 456 46 456 55 C456 62 456 62 471 118 L530 327 C536 349 540 371 540 386 C540 422 513 447 474 447 C409 447 344 386 239 224 L308 445 L305 447 C251 436 230 432 141 416 L141 400 C192 398 205 392 205 372 C205 364 205 361 203 355 L103 0 L179 0 C228 160 237 182 283 251 C344 345 396 395 434 395 C449 395 458 384 458 366 C458 354 452 322 443 289 L397 121 C382 65 380 56 380 46 C380 7 394 -9 427 -9 C473 -9 499 12 570 105 L556 119 Z " />
<glyph glyph-name="Eng" unicode="&#x14a;" horiz-adv-x="696" d="M324 662 L301 664 C247 653 225 649 137 633 L137 617 C189 615 202 609 202 588 C202 581 202 577 200 572 L49 0 L145 0 L170 91 C222 279 253 372 284 429 C353 553 424 613 503 613 C549 613 575 589 575 545 C575 525 572 502 565 477 L443 -3 C407 -148 387 -187 346 -187 C334 -187 328 -183 328 -175 C328 -172 329 -170 333 -164 C338 -157 340 -151 340 -143 C340 -118 322 -99 297 -99 C272 -99 252 -120 252 -147 C252 -187 288 -210 351 -210 C402 -210 436 -194 469 -155 C502 -116 521 -70 547 28 L671 511 C674 524 676 536 676 551 C676 625 628 665 539 665 C432 665 367 613 258 441 L324 662 Z " />
<glyph glyph-name="eng" unicode="&#x14b;" horiz-adv-x="482" d="M224 445 L221 447 C167 436 146 432 57 416 L57 400 C108 398 121 392 121 372 C121 364 121 361 119 355 L19 0 L95 0 C144 160 153 182 199 251 C260 345 312 395 350 395 C365 395 374 384 374 366 C374 355 368 324 360 293 L281 -3 C243 -148 222 -187 181 -187 C169 -187 163 -183 163 -176 C163 -172 164 -170 168 -164 C174 -156 176 -151 176 -142 C176 -121 158 -105 135 -105 C111 -105 94 -123 94 -148 C94 -185 127 -210 175 -210 C216 -210 252 -192 284 -155 C318 -116 339 -67 365 28 L446 327 C452 350 456 372 456 386 C456 422 429 447 390 447 C325 447 260 386 155 224 L224 445 Z " />
<glyph glyph-name="Omacron" unicode="&#x14c;" horiz-adv-x="722" d="M486 675 C400 675 309 634 229 560 C128 467 70 346 70 228 C70 84 163 -18 294 -18 C503 -18 705 193 716 421 C723 565 623 675 486 675 L486 675 Z M477 641 C558 641 609 581 609 484 C609 374 563 229 499 135 C444 55 382 15 310 15 C225 15 177 77 177 189 C177 285 225 433 285 521 C341 602 403 641 477 641 L477 641 Z M658 806 L353 806 L342 754 L648 754 L658 806 Z " />
<glyph glyph-name="omacron" unicode="&#x14d;" horiz-adv-x="500" d="M331 447 C287 447 248 436 206 413 C100 354 26 237 26 130 C26 42 82 -11 174 -11 C241 -11 306 19 366 77 C433 143 475 230 475 306 C475 390 417 447 331 447 L331 447 Z M319 426 C362 426 390 390 390 332 C390 258 356 156 309 89 C272 35 233 10 189 10 C143 10 111 46 111 100 C111 175 142 266 192 338 C232 396 275 426 319 426 L319 426 Z M495 591 L190 591 L178 539 L483 539 L495 591 Z " />
<glyph glyph-name="Obreve" unicode="&#x14e;" horiz-adv-x="722" d="M486 675 C400 675 309 634 229 560 C128 467 70 346 70 228 C70 84 163 -18 294 -18 C503 -18 705 193 716 421 C723 565 623 675 486 675 L486 675 Z M477 641 C558 641 609 581 609 484 C609 374 563 229 499 135 C444 55 382 15 310 15 C225 15 177 77 177 189 C177 285 225 433 285 521 C341 602 403 641 477 641 L477 641 Z M658 872 C633 808 584 772 522 772 C457 772 416 809 411 872 L382 872 C383 815 391 783 412 757 C434 728 470 712 515 712 C570 712 616 736 650 781 C670 808 679 830 687 872 L658 872 Z " />
<glyph glyph-name="obreve" unicode="&#x14f;" horiz-adv-x="500" d="M331 447 C287 447 248 436 206 413 C100 354 26 237 26 130 C26 42 82 -11 174 -11 C241 -11 306 19 366 77 C433 143 475 230 475 306 C475 390 417 447 331 447 L331 447 Z M319 426 C362 426 390 390 390 332 C390 258 356 156 309 89 C272 35 233 10 189 10 C143 10 111 46 111 100 C111 175 142 266 192 338 C232 396 275 426 319 426 L319 426 Z M498 659 C472 595 422 559 360 559 C295 559 255 596 251 659 L222 659 C222 602 230 570 249 544 C272 514 307 499 353 499 C441 499 505 558 527 659 L498 659 Z " />
<glyph glyph-name="Ohungarumlaut" unicode="&#x150;" horiz-adv-x="722" d="M486 675 C400 675 309 634 229 560 C128 467 70 346 70 228 C70 84 163 -18 294 -18 C503 -18 705 193 716 421 C723 565 623 675 486 675 L486 675 Z M477 641 C558 641 609 581 609 484 C609 374 563 229 499 135 C444 55 382 15 310 15 C225 15 177 77 177 189 C177 285 225 433 285 521 C341 602 403 641 477 641 L477 641 Z M355 716 L391 716 L563 824 C575 831 580 839 580 852 C580 872 564 888 543 888 C533 888 524 885 518 878 L355 716 Z M527 716 L563 716 L735 824 C747 831 752 839 752 852 C752 872 736 888 715 888 C705 888 697 885 690 878 L527 716 Z " />
<glyph glyph-name="ohungarumlaut" unicode="&#x151;" horiz-adv-x="500" d="M331 447 C287 447 248 436 206 413 C100 354 26 237 26 130 C26 42 82 -11 174 -11 C241 -11 306 19 366 77 C433 143 475 230 475 306 C475 390 417 447 331 447 L331 447 Z M319 426 C362 426 390 390 390 332 C390 258 356 156 309 89 C272 35 233 10 189 10 C143 10 111 46 111 100 C111 175 142 266 192 338 C232 396 275 426 319 426 L319 426 Z M237 501 L272 501 L446 608 C459 616 464 625 464 637 C464 658 448 673 427 673 C418 673 409 669 402 663 L237 501 Z M409 501 L444 501 L619 608 C631 616 636 624 636 637 C636 657 620 673 599 673 C590 673 581 670 575 663 L409 501 Z " />
<glyph glyph-name="OE" unicode="&#x152;" horiz-adv-x="944" d="M981 662 L607 662 L453 675 C243 675 57 467 57 232 C57 94 156 -8 289 -8 C315 -8 331 -7 393 -4 C445 -1 470 0 504 0 L855 0 L920 168 L903 174 C823 62 764 33 616 33 C558 33 540 42 540 71 C540 80 543 96 551 125 L553 133 L555 140 L606 333 L669 330 C748 327 764 317 765 270 L763 254 L760 227 L780 225 L845 459 L826 463 C788 371 773 365 614 366 L677 597 C683 620 692 628 714 629 L812 629 C920 626 936 611 935 510 L951 510 L981 662 Z M472 202 C452 125 439 93 415 63 C395 39 358 24 314 24 C216 24 167 86 167 210 C167 354 233 515 324 592 C365 626 410 643 458 643 C519 643 563 610 563 563 C563 548 563 548 543 474 L472 202 Z " />
<glyph glyph-name="oe" unicode="&#x153;" horiz-adv-x="667" d="M614 106 C534 46 505 31 466 31 C422 31 391 65 391 114 C391 137 396 171 402 188 C406 200 414 204 439 206 C482 210 558 240 599 268 C644 300 670 340 670 379 C670 422 640 447 589 447 C533 447 497 429 426 366 C409 417 367 447 313 447 C182 447 33 281 33 136 C33 50 94 -11 179 -11 C231 -11 267 7 319 57 C343 11 378 -12 424 -12 C488 -12 548 20 625 95 L614 106 Z M303 424 C339 424 362 398 362 357 C362 324 350 264 328 192 C309 131 294 97 273 67 C245 27 217 9 185 9 C142 9 117 43 117 100 C117 199 164 319 229 388 C251 412 276 424 303 424 L303 424 Z M411 218 C438 303 457 340 497 382 C521 408 547 422 568 422 C590 422 603 407 603 383 C603 350 583 312 548 281 C516 253 500 245 411 218 L411 218 Z " />
<glyph glyph-name="Racute" unicode="&#x154;" horiz-adv-x="611" d="M587 16 C542 19 522 36 502 89 L406 338 C484 355 517 370 553 402 C586 431 604 470 604 515 C604 610 529 662 391 662 L140 662 L140 646 C183 640 188 639 199 632 C207 627 213 615 213 603 C213 592 208 567 201 540 L80 91 C63 31 56 25 -1 16 L-1 0 L247 0 L246 16 C183 25 177 29 177 64 C177 74 179 86 189 122 L243 334 L309 329 L437 0 L587 0 L587 16 Z M319 604 C325 625 338 632 371 632 C455 632 497 593 497 516 C497 417 433 366 307 366 C289 366 279 367 255 371 L319 604 Z M347 716 L382 716 L555 824 C567 831 572 839 572 852 C572 872 556 888 534 888 C525 888 516 885 509 878 L347 716 Z " />
<glyph glyph-name="racute" unicode="&#x155;" horiz-adv-x="389" d="M133 0 C188 175 205 216 251 293 C286 350 314 381 331 381 C338 381 343 377 348 367 C356 350 364 345 384 345 C414 345 431 363 431 395 C431 427 412 447 384 447 C361 447 333 432 307 404 C265 362 223 301 207 262 L192 225 L248 445 L245 447 C172 434 161 432 88 420 L88 403 C110 407 114 408 122 408 C144 408 157 398 157 380 C157 367 149 326 141 296 L56 0 L133 0 Z M269 501 L305 501 L479 608 C492 616 497 624 497 637 C497 658 481 673 460 673 C451 673 441 669 435 663 L269 501 Z " />
<glyph glyph-name="Rcommaaccent" unicode="&#x156;" horiz-adv-x="611" d="M587 16 C542 19 522 36 502 89 L406 338 C484 355 517 370 553 402 C586 431 604 470 604 515 C604 610 529 662 391 662 L140 662 L140 646 C183 640 188 639 199 632 C207 627 213 615 213 603 C213 592 208 567 201 540 L80 91 C63 31 56 25 -1 16 L-1 0 L247 0 L246 16 C183 25 177 29 177 64 C177 74 179 86 189 122 L243 334 L309 329 L437 0 L587 0 L587 16 Z M319 604 C325 625 338 632 371 632 C455 632 497 593 497 516 C497 417 433 366 307 366 C289 366 279 367 255 371 L319 604 Z M225 -274 C310 -226 355 -171 355 -114 C355 -73 329 -41 296 -41 C266 -41 244 -61 244 -88 C244 -106 250 -117 270 -134 C285 -148 291 -157 291 -167 C291 -195 268 -221 215 -257 L225 -274 Z " />
<glyph glyph-name="rcommaaccent" unicode="&#x157;" horiz-adv-x="389" d="M133 0 C188 175 205 216 251 293 C286 349 314 381 331 381 C339 381 343 377 348 367 C355 350 364 345 384 345 C414 345 431 363 431 395 C431 427 412 447 384 447 C361 447 333 432 307 404 C265 362 223 301 207 262 L192 225 L248 445 L245 447 C172 434 161 432 88 420 L88 403 C109 407 114 408 122 408 C144 408 157 398 157 380 C157 367 149 325 141 296 L56 0 L133 0 Z M8 -274 C95 -226 141 -169 141 -112 C141 -72 116 -41 83 -41 C53 -41 31 -61 31 -89 C31 -106 37 -117 56 -134 C70 -148 76 -157 76 -167 C76 -194 53 -221 -1 -257 L8 -274 Z " />
<glyph glyph-name="Rcaron" unicode="&#x158;" horiz-adv-x="611" d="M587 16 C542 19 522 36 502 89 L406 338 C484 355 517 370 553 402 C586 431 604 470 604 515 C604 610 529 662 391 662 L140 662 L140 646 C183 640 188 639 199 632 C207 627 213 615 213 603 C213 592 208 567 201 540 L80 91 C63 31 56 25 -1 16 L-1 0 L247 0 L246 16 C183 25 177 29 177 64 C177 74 179 86 189 122 L243 334 L309 329 L437 0 L587 0 L587 16 Z M319 604 C325 625 338 632 371 632 C455 632 497 593 497 516 C497 417 433 366 307 366 C289 366 279 367 255 371 L319 604 Z M571 885 L535 885 L392 779 L299 885 L262 885 L361 714 L407 714 L571 885 Z " />
<glyph glyph-name="rcaron" unicode="&#x159;" horiz-adv-x="389" d="M133 0 C188 175 205 216 251 293 C286 350 314 381 331 381 C338 381 343 377 348 367 C356 350 364 345 384 345 C414 345 431 363 431 395 C431 427 412 447 384 447 C361 447 333 432 307 404 C265 362 223 301 207 262 L192 225 L248 445 L245 447 C172 434 161 432 88 420 L88 403 C110 407 114 408 122 408 C144 408 157 398 157 380 C157 367 149 326 141 296 L56 0 L133 0 Z M476 670 L440 670 L295 564 L204 670 L167 670 L263 499 L310 499 L476 670 Z " />
<glyph glyph-name="Sacute" unicode="&#x15a;" horiz-adv-x="500" d="M483 475 L521 676 L498 676 C484 655 475 650 452 650 C440 650 430 652 406 661 C383 670 352 675 320 675 C215 675 141 606 141 508 C141 452 156 423 219 357 C221 355 241 334 259 315 C277 295 296 275 298 272 C347 222 360 196 360 152 C360 75 305 18 231 18 C145 18 81 91 81 188 C81 195 81 201 83 209 L62 211 L30 -15 L48 -15 C55 8 66 18 87 18 C98 18 112 14 139 5 C186 -12 213 -18 245 -18 C361 -18 448 68 448 183 C448 249 425 289 332 382 C239 474 230 489 230 539 C230 602 272 641 341 641 C379 641 409 628 431 604 C453 579 462 545 464 478 L483 475 Z M300 716 L335 716 L508 824 C520 832 525 839 525 852 C525 872 508 888 487 888 C478 888 469 885 462 878 L300 716 Z " />
<glyph glyph-name="sacute" unicode="&#x15b;" horiz-adv-x="389" d="M28 148 L6 -13 L22 -13 C30 3 36 8 46 8 C58 8 76 4 96 -1 C120 -8 135 -11 152 -11 C238 -11 299 45 299 122 C299 161 278 205 231 263 C193 310 177 341 177 369 C177 403 199 424 234 424 C288 424 318 386 327 307 L343 307 L365 448 L350 448 C342 434 335 430 320 430 C312 430 302 432 284 437 C258 445 244 447 225 447 C152 447 103 402 103 335 C103 302 124 259 166 204 C205 154 222 118 222 89 C222 42 191 10 146 10 C90 10 59 52 44 148 L28 148 Z M205 501 L240 501 L415 608 C427 616 432 624 432 637 C432 657 416 673 395 673 C386 673 377 669 370 663 L205 501 Z " />
<glyph glyph-name="Scircumflex" unicode="&#x15c;" horiz-adv-x="500" d="M495 475 L533 676 L510 676 C496 655 487 650 464 650 C452 650 442 652 418 661 C395 670 364 675 332 675 C227 675 153 606 153 508 C153 452 168 423 231 357 C233 355 253 334 271 315 C289 295 308 275 310 272 C359 222 372 196 372 152 C372 75 317 18 243 18 C157 18 93 91 93 188 C93 195 93 201 95 209 L74 211 L42 -15 L60 -15 C67 8 78 18 99 18 C110 18 124 14 151 5 C198 -12 225 -18 257 -18 C373 -18 460 68 460 183 C460 249 437 289 344 382 C251 474 242 489 242 539 C242 602 284 641 353 641 C391 641 421 628 443 604 C465 579 474 545 476 478 L495 475 Z M435 885 L385 885 L227 714 L267 714 L405 819 L489 714 L525 714 L435 885 Z " />
<glyph glyph-name="scircumflex" unicode="&#x15d;" horiz-adv-x="389" d="M28 148 L6 -13 L22 -13 C30 3 36 8 46 8 C58 8 76 4 96 -1 C120 -8 135 -11 152 -11 C238 -11 299 45 299 122 C299 161 278 205 231 263 C193 310 177 341 177 369 C177 403 199 424 234 424 C288 424 318 386 327 307 L343 307 L365 448 L350 448 C342 434 335 430 320 430 C312 430 302 432 284 437 C258 445 244 447 225 447 C152 447 103 402 103 335 C103 302 124 259 166 204 C205 154 222 118 222 89 C222 42 191 10 146 10 C90 10 59 52 44 148 L28 148 Z M325 670 L275 670 L115 499 L154 499 L294 604 L376 499 L413 499 L325 670 Z " />
<glyph glyph-name="Scedilla" unicode="&#x15e;" horiz-adv-x="500" d="M208 -15 C225 -17 233 -18 245 -18 C361 -18 448 68 448 183 C448 249 425 289 332 382 C239 474 230 489 230 539 C230 602 272 641 341 641 C379 641 409 628 431 604 C453 579 462 545 464 478 L483 475 L521 676 L498 676 C484 655 475 650 452 650 C440 650 430 652 406 661 C383 670 352 675 320 675 C215 675 141 606 141 508 C141 452 156 423 219 357 C221 355 241 334 259 315 C277 295 296 275 298 272 C347 222 360 196 360 152 C360 75 305 18 231 18 C145 18 81 91 81 188 C81 195 81 201 83 209 L62 211 L30 -15 L48 -15 C55 8 66 18 87 18 C98 18 112 14 139 5 C153 0 162 -3 175 -7 L120 -97 L129 -105 C142 -100 150 -98 161 -98 C188 -98 208 -117 208 -143 C208 -169 189 -184 154 -184 C133 -184 116 -180 86 -169 L69 -199 C111 -215 134 -220 163 -220 C233 -220 283 -184 283 -134 C283 -91 251 -64 200 -64 C191 -64 184 -65 174 -67 L208 -15 Z " />
<glyph glyph-name="scedilla" unicode="&#x15f;" horiz-adv-x="389" d="M133 -10 C142 -11 144 -11 151 -11 C239 -11 300 44 300 122 C300 161 279 205 232 263 C194 310 178 341 178 369 C178 403 200 424 235 424 C288 424 318 387 328 307 L344 307 L365 448 L351 448 C343 434 335 430 321 430 C312 430 303 432 285 437 C259 445 245 447 226 447 C153 447 104 402 104 335 C104 302 125 259 167 204 C206 153 223 118 223 89 C223 42 192 10 147 10 C91 10 60 52 45 148 L28 148 L7 -13 L23 -13 C31 3 37 8 47 8 C57 8 72 5 87 1 L100 -2 L40 -97 L49 -105 C62 -100 70 -98 81 -98 C108 -98 128 -116 128 -142 C128 -169 109 -184 73 -184 C52 -184 35 -180 4 -169 L-13 -199 C29 -215 52 -220 81 -220 C152 -220 203 -183 203 -132 C203 -91 171 -64 121 -64 C111 -64 105 -65 94 -67 L133 -10 Z " />
<glyph glyph-name="Scaron" unicode="&#x160;" horiz-adv-x="500" d="M483 475 L521 676 L498 676 C484 655 475 650 452 650 C440 650 430 652 406 661 C383 670 352 675 320 675 C215 675 141 606 141 508 C141 452 156 423 219 357 C221 355 241 334 259 315 C277 295 296 275 298 272 C347 222 360 196 360 152 C360 75 305 18 231 18 C145 18 81 91 81 188 C81 195 81 201 83 209 L62 211 L30 -15 L48 -15 C55 8 66 18 87 18 C98 18 112 14 139 5 C186 -12 213 -18 245 -18 C361 -18 448 68 448 183 C448 249 425 289 332 382 C239 474 230 489 230 539 C230 602 272 641 341 641 C379 641 409 628 431 604 C453 579 462 545 464 478 L483 475 Z M532 885 L495 885 L352 779 L260 885 L222 885 L321 714 L368 714 L532 885 Z " />
<glyph glyph-name="scaron" unicode="&#x161;" horiz-adv-x="389" d="M28 148 L6 -13 L22 -13 C30 3 36 8 46 8 C58 8 76 4 96 -1 C120 -8 135 -11 152 -11 C238 -11 299 45 299 122 C299 161 278 205 231 263 C193 310 177 341 177 369 C177 403 199 424 234 424 C288 424 318 386 327 307 L343 307 L365 448 L350 448 C342 434 335 430 320 430 C312 430 302 432 284 437 C258 445 244 447 225 447 C152 447 103 402 103 335 C103 302 124 259 166 204 C205 154 222 118 222 89 C222 42 191 10 146 10 C90 10 59 52 44 148 L28 148 Z M456 670 L419 670 L274 564 L184 670 L146 670 L242 499 L289 499 L456 670 Z " />
<glyph glyph-name="Tcommaaccent" unicode="&#x162;" horiz-adv-x="556" d="M649 662 L109 662 L68 506 L86 502 C139 612 172 629 326 627 L185 91 C170 38 146 21 79 16 L79 0 L373 0 L373 16 C285 23 281 25 281 64 C281 76 283 85 293 122 L429 627 L485 627 C558 627 591 601 591 544 C591 531 590 516 588 499 L605 497 L649 662 Z M124 -274 C209 -227 254 -171 254 -114 C254 -73 228 -41 195 -41 C166 -41 144 -61 144 -88 C144 -106 150 -117 169 -134 C185 -148 190 -157 190 -167 C190 -194 168 -221 115 -257 L124 -274 Z " />
<glyph glyph-name="tcommaaccent" unicode="&#x163;" horiz-adv-x="278" d="M0 -274 C87 -226 133 -169 133 -112 C133 -72 108 -41 75 -41 C45 -41 23 -61 23 -89 C23 -106 29 -117 48 -134 C62 -148 68 -157 68 -167 C68 -194 45 -221 -9 -257 L0 -274 Z M311 434 L230 434 L259 538 C260 541 260 543 260 544 C260 550 258 554 254 554 L252 554 L249 554 C245 554 242 551 237 545 C198 494 135 442 101 434 C76 425 69 419 69 408 L69 402 L144 402 L69 123 L67 114 C52 62 45 34 45 27 C45 5 66 -11 93 -11 C140 -11 173 17 238 112 L225 119 C175 56 158 39 142 39 C133 39 127 46 127 58 C127 59 127 59 128 64 L220 402 L305 402 L311 434 Z " />
<glyph glyph-name="Tcaron" unicode="&#x164;" horiz-adv-x="556" d="M649 662 L109 662 L68 506 L86 502 C139 612 172 629 326 627 L185 91 C170 38 146 21 79 16 L79 0 L373 0 L373 16 C285 23 281 25 281 64 C281 76 283 85 293 122 L429 627 L485 627 C558 627 591 601 591 544 C591 531 590 516 588 499 L605 497 L649 662 Z M577 885 L541 885 L398 779 L305 885 L268 885 L367 714 L413 714 L577 885 Z " />
<glyph glyph-name="tcaron" unicode="&#x165;" horiz-adv-x="300" d="M320 472 C406 519 453 576 453 634 C453 674 428 705 395 705 C365 705 343 685 343 657 C343 639 349 629 368 611 C382 598 388 589 388 579 C388 552 364 523 311 489 L320 472 Z M310 434 L229 434 L258 538 C259 541 259 543 259 544 C259 550 257 554 253 554 L251 554 L248 554 C244 554 241 551 236 545 C197 494 134 442 100 434 C75 425 68 419 68 408 L68 402 L143 402 L68 123 C52 63 44 31 44 27 C44 5 65 -11 92 -11 C139 -11 173 17 237 112 L224 119 C175 56 157 39 141 39 C132 39 126 46 126 58 C126 60 126 60 128 64 L219 402 L305 402 L310 434 Z " />
<glyph glyph-name="Tbar" unicode="&#x166;" horiz-adv-x="556" d="M361 333 L456 333 L463 368 L370 368 L440 627 L496 627 C569 627 602 601 602 544 C602 531 601 516 599 499 L616 497 L660 662 L120 662 L79 506 L97 502 C150 612 183 629 337 627 L269 368 L158 368 L151 333 L260 333 L196 91 C181 38 157 21 90 16 L90 0 L384 0 L384 16 C297 23 292 26 292 64 C292 76 294 86 304 122 L361 333 Z " />
<glyph glyph-name="tbar" unicode="&#x167;" horiz-adv-x="278" d="M196 305 L223 402 L308 402 L313 434 L232 434 L261 538 C262 540 262 542 262 544 C262 550 260 554 256 554 L254 554 L252 554 C248 554 244 551 239 545 C199 493 137 443 103 434 C77 424 71 419 71 408 C71 406 71 405 72 402 L147 402 L121 305 L36 305 L28 270 L111 270 L72 123 C70 117 68 110 65 102 C55 69 47 35 47 27 C47 5 68 -11 95 -11 C143 -11 176 17 241 112 L228 119 C178 56 161 39 145 39 C136 39 130 46 130 58 C130 60 130 61 131 64 L187 270 L291 270 L299 305 L196 305 Z " />
<glyph glyph-name="Utilde" unicode="&#x168;" horiz-adv-x="722" d="M781 662 L579 662 L579 646 C611 643 622 641 633 633 C644 627 651 612 651 599 C651 582 625 478 579 308 C575 296 571 279 566 259 C549 193 533 153 512 119 C473 56 418 24 347 24 C262 24 204 73 204 144 C204 182 239 323 300 535 C301 539 305 552 305 554 C326 624 342 639 411 646 L410 662 L134 662 L134 646 C202 640 213 634 213 604 C213 591 211 576 206 559 L154 364 C125 256 113 192 113 150 C113 53 207 -18 336 -18 C469 -18 552 54 595 206 L677 495 C714 627 718 632 781 646 L781 662 Z M656 844 C645 811 632 800 605 800 C589 800 573 805 542 819 C503 836 477 843 455 843 C402 843 374 814 354 736 L383 736 C393 768 409 783 435 783 C452 783 477 776 531 754 C558 744 577 739 590 739 C638 739 671 776 685 844 L656 844 Z " />
<glyph glyph-name="utilde" unicode="&#x169;" horiz-adv-x="500" d="M482 436 L408 436 L383 352 C354 253 342 229 281 146 C232 80 191 45 164 45 C143 45 133 55 133 73 C133 84 134 88 141 112 L217 369 C220 381 223 399 223 408 C223 431 207 446 183 446 C162 446 136 435 115 416 C96 399 87 389 50 345 L61 334 C114 394 114 394 130 394 C139 394 146 387 146 378 C146 373 145 366 142 358 L63 89 C60 77 58 65 58 54 C58 12 78 -14 110 -14 C140 -14 175 5 216 44 C255 81 284 119 339 202 L300 69 C296 55 292 34 292 23 C292 3 308 -13 329 -13 C366 -13 411 18 457 76 L448 89 C418 54 397 37 384 37 C378 37 372 43 372 49 C372 52 373 55 374 59 C374 62 376 70 379 82 C381 91 383 99 385 106 L482 436 Z M465 633 C454 599 441 588 413 588 C398 588 382 593 351 607 C313 624 286 632 263 632 C210 632 183 602 163 524 L192 524 C202 557 218 572 243 572 C261 572 285 565 340 543 C367 532 385 527 398 527 C446 527 480 564 493 633 L465 633 Z " />
<glyph glyph-name="Umacron" unicode="&#x16a;" horiz-adv-x="722" d="M781 662 L579 662 L579 646 C611 643 622 641 633 633 C644 627 651 612 651 599 C651 582 625 478 579 308 C575 296 571 279 566 259 C549 193 533 153 512 119 C473 56 418 24 347 24 C262 24 204 73 204 144 C204 182 239 323 300 535 C301 539 305 552 305 554 C326 624 342 639 411 646 L410 662 L134 662 L134 646 C202 640 213 634 213 604 C213 591 211 576 206 559 L154 364 C125 256 113 192 113 150 C113 53 207 -18 336 -18 C469 -18 552 54 595 206 L677 495 C714 627 718 632 781 646 L781 662 Z M658 806 L353 806 L342 754 L647 754 L658 806 Z " />
<glyph glyph-name="umacron" unicode="&#x16b;" horiz-adv-x="500" d="M474 119 C420 52 406 39 389 39 C382 39 378 45 378 55 C378 61 378 61 399 135 L481 438 L406 438 C347 281 340 265 292 191 C231 94 181 43 148 43 C135 43 126 54 127 68 L128 77 L224 445 L221 447 C165 434 128 427 68 420 L68 406 C109 405 109 405 119 400 C124 397 129 388 129 381 C129 373 124 348 114 313 L76 169 C56 95 49 62 49 44 C49 7 67 -11 103 -11 C175 -11 228 44 347 239 C315 128 299 61 299 39 C299 8 317 -9 348 -9 C395 -9 418 10 489 110 L474 119 Z M483 591 L178 591 L166 539 L471 539 L483 591 Z " />
<glyph glyph-name="Ubreve" unicode="&#x16c;" horiz-adv-x="722" d="M781 662 L579 662 L579 646 C611 643 622 641 633 633 C644 627 651 612 651 599 C651 582 625 478 579 308 C575 296 571 279 566 259 C549 193 533 153 512 119 C473 56 418 24 347 24 C262 24 204 73 204 144 C204 182 239 323 300 535 C301 539 305 552 305 554 C326 624 342 639 411 646 L410 662 L134 662 L134 646 C202 640 213 634 213 604 C213 591 211 576 206 559 L154 364 C125 256 113 192 113 150 C113 53 207 -18 336 -18 C469 -18 552 54 595 206 L677 495 C714 627 718 632 781 646 L781 662 Z M652 876 C628 813 578 776 516 776 C451 776 410 813 406 876 L376 876 C377 819 385 787 406 761 C428 732 464 716 509 716 C564 716 610 740 644 785 C664 812 673 834 681 876 L652 876 Z " />
<glyph glyph-name="ubreve" unicode="&#x16d;" horiz-adv-x="500" d="M482 436 L408 436 L383 352 C354 253 342 229 281 146 C232 80 191 45 164 45 C143 45 133 55 133 73 C133 84 134 88 141 112 L217 369 C220 381 223 399 223 408 C223 431 207 446 183 446 C162 446 136 435 115 416 C96 399 87 389 50 345 L61 334 C114 394 114 394 130 394 C139 394 146 387 146 378 C146 373 145 366 142 358 L63 89 C60 77 58 65 58 54 C58 12 78 -14 110 -14 C140 -14 175 5 216 44 C255 81 284 119 339 202 L300 69 C296 55 292 34 292 23 C292 3 308 -13 329 -13 C366 -13 411 18 457 76 L448 89 C418 54 397 37 384 37 C378 37 372 43 372 49 C372 52 373 55 374 59 C374 62 376 70 379 82 C381 91 383 99 385 106 L482 436 Z M233 659 C231 643 231 635 231 625 C231 552 262 517 325 517 C398 517 438 558 464 659 L447 659 C413 596 385 575 331 575 C276 575 254 598 249 659 L233 659 Z " />
<glyph glyph-name="Uring" unicode="&#x16e;" horiz-adv-x="722" d="M781 662 L579 662 L579 646 C611 643 622 641 633 633 C644 627 651 612 651 599 C651 582 625 478 579 308 C575 296 571 279 566 259 C549 193 533 153 512 119 C473 56 418 24 347 24 C262 24 204 73 204 144 C204 182 239 323 300 535 C301 539 305 552 305 554 C326 624 342 639 411 646 L410 662 L134 662 L134 646 C202 640 213 634 213 604 C213 591 211 576 206 559 L154 364 C125 256 113 192 113 150 C113 53 207 -18 336 -18 C469 -18 552 54 595 206 L677 495 C714 627 718 632 781 646 L781 662 Z M498 932 C443 932 398 887 398 833 C398 775 443 730 500 730 C556 730 601 775 601 830 C601 886 554 932 498 932 L498 932 Z M498 898 C536 898 567 868 567 830 C567 792 538 764 499 764 C462 764 433 794 433 832 C433 868 463 898 498 898 L498 898 Z " />
<glyph glyph-name="uring" unicode="&#x16f;" horiz-adv-x="500" d="M474 119 C420 52 406 39 389 39 C382 39 378 45 378 55 C378 61 378 61 399 135 L481 438 L406 438 C347 281 340 265 292 191 C231 94 181 43 148 43 C135 43 126 54 127 68 L128 77 L224 445 L221 447 C165 434 128 427 68 420 L68 406 C109 405 109 405 119 400 C124 397 129 388 129 381 C129 373 124 348 114 313 L76 169 C56 95 49 62 49 44 C49 7 67 -11 103 -11 C175 -11 228 44 347 239 C315 128 299 61 299 39 C299 8 317 -9 348 -9 C395 -9 418 10 489 110 L474 119 Z M339 717 C284 717 238 671 238 616 C238 559 282 515 339 515 C395 515 441 561 441 616 C441 672 395 717 339 717 L339 717 Z M339 683 C377 683 407 653 407 616 C407 578 377 549 338 549 C301 549 272 578 272 616 C272 652 303 683 339 683 L339 683 Z " />
<glyph glyph-name="Uhungarumlaut" unicode="&#x170;" horiz-adv-x="722" d="M781 662 L579 662 L579 646 C611 643 622 641 633 633 C644 627 651 612 651 599 C651 582 625 478 579 308 C575 296 571 279 566 259 C549 193 533 153 512 119 C473 56 418 24 347 24 C262 24 204 73 204 144 C204 182 239 323 300 535 C301 539 305 552 305 554 C326 624 342 639 411 646 L410 662 L134 662 L134 646 C202 640 213 634 213 604 C213 591 211 576 206 559 L154 364 C125 256 113 192 113 150 C113 53 207 -18 336 -18 C469 -18 552 54 595 206 L677 495 C714 627 718 632 781 646 L781 662 Z M378 716 L413 716 L586 824 C598 831 603 839 603 852 C603 872 586 888 566 888 C556 888 547 885 540 878 L378 716 Z M550 716 L586 716 L758 824 C770 831 775 839 775 852 C775 872 759 888 738 888 C728 888 719 885 713 878 L550 716 Z " />
<glyph glyph-name="uhungarumlaut" unicode="&#x171;" horiz-adv-x="500" d="M474 119 C420 52 406 39 389 39 C382 39 378 45 378 55 C378 61 378 61 399 135 L481 438 L406 438 C347 281 340 265 292 191 C231 94 181 43 148 43 C135 43 126 54 127 68 L128 77 L224 445 L221 447 C165 434 128 427 68 420 L68 406 C109 405 109 405 119 400 C124 397 129 388 129 381 C129 373 124 348 114 313 L76 169 C56 95 49 62 49 44 C49 7 67 -11 103 -11 C175 -11 228 44 347 239 C315 128 299 61 299 39 C299 8 317 -9 348 -9 C395 -9 418 10 489 110 L474 119 Z M201 501 L236 501 L411 608 C423 616 428 625 428 637 C428 658 412 673 391 673 C382 673 373 669 366 663 L201 501 Z M373 501 L409 501 L583 608 C596 616 601 625 601 637 C601 657 585 673 564 673 C554 673 545 670 539 663 L373 501 Z " />
<glyph glyph-name="Uogonek" unicode="&#x172;" horiz-adv-x="722" d="M579 662 L579 646 C611 643 622 641 633 633 C644 627 651 612 651 599 C651 582 625 478 579 308 C575 296 571 279 566 259 C549 193 533 153 512 119 C473 56 418 24 347 24 C262 24 204 73 204 144 C204 182 239 323 300 535 C301 539 305 552 305 554 C326 624 342 639 411 646 L410 662 L134 662 L134 646 C202 640 213 634 213 604 C213 591 211 576 206 559 L154 364 C125 256 113 192 113 150 C113 53 207 -18 335 -18 C382 -18 420 -10 460 10 C436 -18 425 -44 425 -75 C425 -127 469 -171 522 -171 C572 -171 614 -145 649 -93 L631 -75 C604 -98 580 -107 548 -107 C511 -107 487 -85 487 -51 C487 -21 496 3 535 71 C566 123 580 155 595 206 L677 495 C714 627 718 632 781 646 L781 662 L579 662 Z " />
<glyph glyph-name="uogonek" unicode="&#x173;" horiz-adv-x="500" d="M474 119 C420 52 406 39 389 39 C382 39 378 45 378 55 C378 61 378 61 399 135 L481 438 L406 438 C347 281 340 265 292 191 C231 94 181 43 148 43 C135 43 126 54 127 68 L128 77 L224 445 L221 447 C165 434 128 427 68 420 L68 406 C109 405 109 405 119 400 C124 397 129 388 129 381 C129 373 124 348 114 313 L76 169 C56 95 49 62 49 44 C49 7 67 -11 103 -11 C175 -11 228 44 347 239 C315 127 299 60 299 39 C299 22 305 8 316 -1 C297 -28 289 -49 289 -76 C289 -128 332 -171 385 -171 C434 -171 476 -145 512 -93 L495 -75 C467 -98 443 -107 411 -107 C374 -107 351 -86 351 -52 C351 -26 357 -17 391 1 C418 17 437 37 489 110 L474 119 Z " />
<glyph glyph-name="Wcircumflex" unicode="&#x174;" horiz-adv-x="833" d="M968 662 L780 662 L780 646 C836 640 847 634 847 605 C847 588 840 566 826 537 L640 164 L595 572 L595 587 C597 631 609 640 663 646 L662 662 L421 662 L421 646 C480 644 491 636 498 587 L508 517 L336 164 L288 576 C287 581 287 588 287 591 C287 630 299 638 360 646 L360 662 L121 662 L121 646 C154 642 164 639 173 630 C185 619 190 599 203 506 L270 -18 L290 -18 L510 442 L515 442 L571 -18 L591 -18 L893 573 C920 625 929 634 968 646 L968 662 Z M610 885 L561 885 L403 714 L443 714 L581 819 L665 714 L701 714 L610 885 Z " />
<glyph glyph-name="wcircumflex" unicode="&#x175;" horiz-adv-x="667" d="M31 409 L51 410 L60 410 C91 410 97 403 106 363 C116 313 128 199 131 119 L134 29 C136 -11 138 -18 148 -18 C159 -18 176 7 213 78 C218 87 238 123 269 177 L361 336 L388 12 C390 -15 391 -18 399 -18 C407 -18 417 -8 444 25 C445 26 450 31 454 37 C596 205 672 330 672 394 C672 425 650 447 619 447 C595 447 580 434 580 412 C580 399 585 390 601 376 C617 361 623 350 623 338 C623 295 588 241 453 75 L424 432 C423 443 421 446 415 446 C410 446 408 444 403 436 L205 128 C203 197 192 305 181 376 C171 441 169 448 157 448 C151 448 139 445 127 441 C126 439 90 432 57 427 C53 426 43 425 31 423 L31 409 Z M467 670 L417 670 L257 499 L296 499 L436 604 L518 499 L555 499 L467 670 Z " />
<glyph glyph-name="Ycircumflex" unicode="&#x176;" horiz-adv-x="556" d="M117 646 C174 638 177 635 195 579 L276 306 L216 91 C199 36 177 21 110 16 L110 0 L403 0 L403 16 C387 18 375 19 366 19 C349 20 335 23 325 29 C317 33 312 44 312 57 C312 79 318 104 343 188 C345 196 347 203 348 208 L377 310 L596 584 C629 624 637 632 667 646 L667 662 L475 662 L475 646 C524 640 524 640 536 634 C542 631 546 623 546 614 C546 586 499 519 396 398 C378 377 372 370 357 352 C345 396 342 406 325 464 C299 548 287 595 287 610 C287 634 299 640 360 646 L359 662 L117 662 L117 646 Z M483 885 L433 885 L276 714 L315 714 L453 819 L537 714 L574 714 L483 885 Z " />
<glyph glyph-name="ycircumflex" unicode="&#x177;" horiz-adv-x="444" d="M24 406 C37 409 45 410 56 410 C98 410 117 393 136 339 C165 258 214 49 214 8 C214 -8 207 -23 192 -43 C160 -86 139 -111 128 -122 C107 -145 95 -153 81 -153 C75 -153 69 -150 58 -142 C43 -130 32 -125 20 -125 C-3 -125 -20 -142 -20 -165 C-20 -191 1 -209 31 -209 C97 -209 229 -58 342 144 C412 269 441 342 441 391 C441 422 416 447 385 447 C361 447 345 432 345 409 C345 393 353 383 374 370 C393 359 400 350 400 336 C400 295 361 215 274 73 L255 191 C240 281 184 447 169 447 L165 447 C164 446 161 446 156 446 C148 445 111 438 56 428 C52 428 39 425 24 423 L24 406 Z M325 670 L275 670 L115 499 L154 499 L294 604 L376 499 L413 499 L325 670 Z " />
<glyph glyph-name="Ydieresis" unicode="&#x178;" horiz-adv-x="556" d="M99 646 C156 638 159 635 177 579 L258 306 L198 91 C181 36 159 21 92 16 L92 0 L385 0 L385 16 C369 18 357 19 348 19 C331 20 317 23 307 29 C299 33 294 44 294 57 C294 79 300 104 325 188 C327 196 329 203 330 208 L359 310 L578 584 C611 624 619 632 649 646 L649 662 L457 662 L457 646 C506 640 506 640 518 634 C524 631 528 623 528 614 C528 586 481 519 378 398 C360 377 354 370 339 352 C327 396 324 406 307 464 C281 548 269 595 269 610 C269 634 281 640 342 646 L341 662 L99 662 L99 646 Z M303 829 C275 829 253 808 253 781 C253 752 275 730 303 730 C330 730 352 752 352 779 C352 805 328 829 303 829 L303 829 Z M506 829 C478 829 456 808 456 781 C456 752 478 730 506 730 C533 730 555 752 555 779 C555 805 531 829 506 829 L506 829 Z " />
<glyph glyph-name="Zacute" unicode="&#x179;" horiz-adv-x="556" d="M621 662 L128 662 L82 514 L102 509 C144 603 179 622 313 626 L486 626 L6 14 L6 0 L518 0 L571 171 L552 174 C501 61 458 38 300 37 L137 37 L621 648 L621 662 Z M310 716 L345 716 L518 824 C530 831 535 839 535 852 C535 872 519 888 498 888 C488 888 479 885 473 878 L310 716 Z " />
<glyph glyph-name="zacute" unicode="&#x17a;" horiz-adv-x="389" d="M99 313 C120 363 135 374 181 373 L329 373 L12 -4 L21 -13 C37 0 50 5 68 5 C93 5 125 -8 173 -37 C223 -69 257 -82 286 -82 C337 -82 382 -46 382 -5 C382 16 368 31 346 31 C326 31 312 18 312 -1 C312 -10 315 -19 321 -30 C324 -36 326 -42 326 -46 C326 -55 315 -61 299 -61 C273 -61 261 -53 228 -10 C184 47 164 61 106 74 L403 423 L403 434 L115 434 L83 317 L99 313 Z M229 501 L264 501 L439 608 C451 616 456 624 456 637 C456 657 440 673 419 673 C410 673 401 670 395 663 L229 501 Z " />
<glyph glyph-name="Zdotaccent" unicode="&#x17b;" horiz-adv-x="556" d="M621 662 L128 662 L82 514 L102 509 C144 603 179 622 313 626 L486 626 L6 14 L6 0 L518 0 L571 171 L552 174 C501 61 458 38 300 37 L137 37 L621 648 L621 662 Z M378 829 C350 829 328 808 328 781 C328 752 350 730 378 730 C405 730 427 752 427 779 C427 805 403 829 378 829 L378 829 Z " />
<glyph glyph-name="zdotaccent" unicode="&#x17c;" horiz-adv-x="389" d="M99 313 C120 363 135 374 181 373 L329 373 L12 -4 L21 -13 C37 0 50 5 68 5 C93 5 125 -8 173 -37 C223 -69 257 -82 286 -82 C337 -82 382 -46 382 -5 C382 16 368 31 346 31 C326 31 312 18 312 -1 C312 -10 315 -19 321 -30 C324 -36 326 -42 326 -46 C326 -55 315 -61 299 -61 C273 -61 261 -53 228 -10 C184 47 164 61 106 74 L403 423 L403 434 L115 434 L83 317 L99 313 Z M275 614 C247 614 224 592 224 565 C224 537 245 515 273 515 C301 515 323 537 323 565 C323 590 300 614 275 614 L275 614 Z " />
<glyph glyph-name="Zcaron" unicode="&#x17d;" horiz-adv-x="556" d="M621 662 L128 662 L82 514 L102 509 C144 603 179 622 313 626 L486 626 L6 14 L6 0 L518 0 L571 171 L552 174 C501 61 458 38 300 37 L137 37 L621 648 L621 662 Z M560 885 L523 885 L380 779 L288 885 L250 885 L349 714 L396 714 L560 885 Z " />
<glyph glyph-name="zcaron" unicode="&#x17e;" horiz-adv-x="389" d="M99 313 C120 363 135 374 181 373 L329 373 L12 -4 L21 -13 C37 0 50 5 68 5 C93 5 125 -8 173 -37 C223 -69 257 -82 286 -82 C337 -82 382 -46 382 -5 C382 16 368 31 346 31 C326 31 312 18 312 -1 C312 -10 315 -19 321 -30 C324 -36 326 -42 326 -46 C326 -55 315 -61 299 -61 C273 -61 261 -53 228 -10 C184 47 164 61 106 74 L403 423 L403 434 L115 434 L83 317 L99 313 Z M460 670 L423 670 L278 564 L188 670 L150 670 L246 499 L293 499 L460 670 Z " />
<glyph glyph-name="longs" unicode="&#x17f;" horiz-adv-x="278" d="M53 402 L144 402 L52 -24 C28 -134 -5 -189 -48 -189 C-60 -189 -68 -182 -68 -172 C-68 -169 -67 -167 -64 -162 C-60 -155 -59 -151 -59 -145 C-59 -123 -77 -106 -99 -106 C-120 -106 -136 -125 -136 -149 C-136 -183 -101 -210 -57 -210 C33 -210 106 -108 148 77 C246 506 246 506 255 533 C270 582 283 610 299 632 C316 654 335 665 357 665 C370 665 379 660 379 652 C379 650 378 647 375 642 C370 634 369 629 369 621 C369 597 384 581 406 581 C429 581 449 600 449 622 C449 659 412 687 362 687 C313 687 273 665 236 618 C206 578 185 532 154 434 L60 434 L53 402 Z " />
<glyph glyph-name="florin" unicode="&#x192;" horiz-adv-x="500" d="M114 426 L104 388 L225 388 L115 -31 C92 -120 70 -152 34 -152 C27 -152 23 -151 23 -148 C23 -145 26 -139 29 -135 C34 -129 36 -122 36 -115 C36 -95 20 -81 -2 -81 C-30 -81 -51 -102 -51 -129 C-51 -163 -19 -188 26 -188 C85 -188 126 -158 165 -88 C185 -51 222 54 243 137 L309 388 L432 388 L442 426 L319 426 L328 460 L333 478 C358 569 364 585 378 612 C396 645 414 659 439 659 C449 659 455 655 455 649 C455 645 453 640 450 634 C446 627 445 622 445 615 C445 594 465 578 489 578 C517 578 539 600 539 627 C539 664 503 690 452 690 C400 690 355 666 313 616 C285 582 262 528 242 453 L234 426 L114 426 Z " />
<glyph glyph-name="Aringacute" unicode="&#x1fa;" horiz-adv-x="611" d="M564 16 C507 21 501 29 488 102 L394 668 L368 668 L78 168 C-1 35 -11 24 -51 16 L-51 0 L136 0 L136 16 C85 21 77 26 77 51 C77 70 80 79 97 113 L154 226 L374 226 L394 95 C395 86 396 77 396 69 C396 31 382 22 318 16 L318 0 L564 0 L564 16 Z M175 262 L325 522 L369 262 L175 262 Z M388 826 C334 826 289 795 289 757 C289 717 332 686 389 686 C443 686 489 718 489 755 C489 794 444 826 388 826 L388 826 Z M388 802 C426 802 455 781 455 755 C455 730 426 710 388 710 C352 710 323 730 323 756 C323 781 353 802 388 802 L388 802 Z M307 832 L342 832 L513 906 C525 912 530 917 530 926 C530 940 514 951 493 951 C483 951 475 949 469 944 L307 832 Z " />
<glyph glyph-name="aringacute" unicode="&#x1fb;" horiz-adv-x="500" d="M464 110 C448 95 442 88 436 82 C405 50 393 41 384 41 C376 41 370 47 370 54 C370 74 413 248 459 417 C462 427 463 429 465 438 L458 441 L397 434 L394 431 L383 383 C375 420 346 441 303 441 C170 441 17 259 17 100 C17 30 55 -11 119 -11 C189 -11 232 22 320 146 C299 64 297 56 297 31 C297 2 309 -10 337 -10 C377 -10 401 9 476 100 L464 110 Z M309 419 C343 417 365 393 365 358 C365 274 314 156 246 82 C222 55 188 38 159 38 C123 38 101 66 101 112 C101 168 138 269 182 332 C222 390 268 422 309 419 L309 419 Z M352 707 C298 707 253 662 253 608 C253 552 296 508 353 508 C408 508 453 553 453 607 C453 662 408 707 352 707 L352 707 Z M352 673 C389 673 419 644 419 607 C419 570 390 542 352 542 C315 542 287 571 287 608 C287 643 317 673 352 673 L352 673 Z M319 735 L354 735 L525 841 C537 849 542 857 542 869 C542 890 526 905 505 905 C496 905 487 902 481 895 L319 735 Z " />
<glyph glyph-name="AEacute" unicode="&#x1fc;" horiz-adv-x="889" d="M826 169 C754 62 696 33 546 33 L516 33 C481 33 465 42 465 62 C465 74 480 131 529 304 L536 328 L576 328 C673 328 694 319 694 278 C694 263 692 249 688 226 L705 222 L774 454 L756 458 C714 367 704 362 545 361 L606 583 C615 615 623 620 671 620 C834 620 862 608 862 538 C862 532 862 515 861 502 L878 500 L911 653 L394 653 L394 638 C425 635 443 632 449 628 C455 625 458 618 458 610 C458 598 456 595 426 557 L57 92 C9 32 -3 22 -27 16 L-27 0 L160 0 L160 16 C107 22 96 27 96 47 C96 70 135 131 196 204 C200 208 210 220 221 234 L411 234 L362 64 C350 27 343 22 282 16 L282 0 L780 0 L844 164 L826 169 Z M249 271 L517 613 L422 271 L249 271 Z M585 688 L620 688 L791 794 C803 801 808 810 808 822 C808 842 792 858 772 858 C762 858 754 855 747 848 L585 688 Z " />
<glyph glyph-name="aeacute" unicode="&#x1fd;" horiz-adv-x="667" d="M588 113 C528 57 489 36 446 36 C400 36 376 70 376 138 C376 160 377 168 384 198 C492 229 540 247 577 272 C619 300 640 333 640 371 C640 414 609 441 559 441 C518 441 485 423 437 377 L459 439 L388 437 L369 394 C353 430 337 441 303 441 C179 441 23 241 23 83 C23 28 58 -11 107 -11 C171 -11 216 26 302 151 C297 134 296 126 296 111 C296 40 340 -11 403 -11 C466 -11 542 33 598 101 L588 113 Z M305 421 C332 420 350 400 350 370 C350 285 295 158 223 80 C200 55 169 39 143 39 C119 39 107 61 109 99 C116 246 225 425 305 421 L305 421 Z M390 223 C420 312 438 346 473 384 C493 404 516 416 539 416 C562 416 574 403 574 380 C574 358 567 337 554 317 C523 271 480 246 390 223 L390 223 Z M376 494 L411 494 L582 600 C594 607 599 616 599 628 C599 648 583 664 563 664 C553 664 545 661 538 654 L376 494 Z " />
<glyph glyph-name="Oslashacute" unicode="&#x1fe;" horiz-adv-x="722" d="M669 722 L625 722 L573 644 C535 660 506 666 469 666 C390 666 300 625 220 553 C119 460 60 339 60 222 C60 131 89 70 155 22 L69 -105 L113 -105 L187 3 C225 -12 250 -18 281 -18 C491 -18 699 205 699 431 C699 477 687 525 665 562 C650 587 638 600 605 626 L669 722 Z M190 74 C172 108 165 138 165 176 C165 280 212 423 275 514 C330 594 393 633 464 633 C498 633 521 626 546 607 L190 74 Z M570 574 C587 544 594 515 594 475 C594 372 546 224 482 132 C427 53 366 15 295 15 C261 15 238 23 215 44 L570 574 Z M435 703 L470 703 L641 809 C653 816 658 825 658 837 C658 857 642 873 622 873 C612 873 604 870 597 863 L435 703 Z " />
<glyph glyph-name="oslashacute" unicode="&#x1ff;" horiz-adv-x="500" d="M428 554 L394 554 L339 440 C333 441 329 441 322 441 C178 441 28 283 28 130 C28 91 41 55 65 30 C80 14 93 6 124 -4 L60 -135 L95 -135 L156 -9 C162 -10 168 -11 176 -11 C238 -11 298 16 355 68 C425 133 469 222 469 298 C469 326 461 357 448 379 C430 409 411 423 370 435 L428 554 Z M140 29 C121 48 112 69 112 97 C112 192 157 304 223 374 C249 403 285 420 318 420 C321 420 323 419 328 418 L140 29 Z M357 406 C376 385 385 360 385 325 C385 251 353 152 308 87 C271 34 234 10 189 10 C180 10 175 11 167 14 L357 406 Z M229 494 L264 494 L435 600 C447 607 452 616 452 628 C452 648 436 664 416 664 C406 664 398 661 391 654 L229 494 Z " />
<glyph glyph-name="Scommaaccent" unicode="&#x218;" horiz-adv-x="500" d="M503 677 C491 660 486 656 474 656 C468 656 451 659 437 663 C394 676 368 680 336 680 C225 680 138 603 138 504 C138 459 158 417 199 374 L298 271 C346 220 366 183 366 143 C366 73 313 23 237 23 C144 23 92 77 92 174 C92 183 92 185 93 215 L60 215 L27 -15 L58 -15 C65 5 74 13 89 13 C94 13 94 13 111 7 L120 5 L128 2 C164 -11 207 -18 250 -18 C306 -18 348 -5 385 23 C432 59 461 117 461 176 C461 238 440 278 369 352 L290 433 C244 480 233 499 233 532 C233 591 284 639 347 639 C374 639 403 630 423 614 C451 593 463 562 463 513 C463 500 462 493 460 476 L493 476 L533 677 L503 677 Z M119 -299 C160 -282 182 -269 203 -247 C235 -213 255 -169 255 -133 C255 -95 231 -68 196 -68 C164 -68 141 -90 141 -120 C141 -140 149 -152 172 -167 C187 -177 190 -181 190 -190 C190 -219 156 -254 108 -276 L119 -299 Z " />
<glyph glyph-name="scommaaccent" unicode="&#x219;" horiz-adv-x="389" d="M336 450 C332 441 329 438 322 438 C318 438 310 440 301 443 C277 451 253 455 228 455 C154 455 99 409 99 347 C99 311 110 286 148 235 L188 182 C219 141 226 126 226 100 C226 58 197 29 155 29 C93 29 58 69 58 137 L58 158 L28 158 L7 -7 L37 -7 C41 12 44 16 54 16 C59 16 61 16 69 12 C100 -1 129 -7 159 -7 C243 -7 308 49 308 122 C308 160 296 185 249 248 L214 294 C194 322 181 352 181 373 C181 403 203 424 236 424 C287 424 316 392 316 334 C316 326 316 319 314 306 L345 306 L369 450 L336 450 Z M42 -299 C83 -282 105 -269 126 -247 C158 -213 178 -169 178 -133 C178 -95 154 -68 119 -68 C87 -68 64 -90 64 -120 C64 -140 72 -152 95 -167 C110 -177 113 -181 113 -190 C113 -219 79 -254 31 -276 L42 -299 Z " />
<glyph glyph-name="uni021A" unicode="&#x21a;" horiz-adv-x="556" d="M649 662 L109 662 L68 506 L86 502 C139 612 172 629 326 627 L185 91 C170 38 146 21 79 16 L79 0 L373 0 L373 16 C285 23 281 25 281 64 C281 76 283 85 293 122 L429 627 L485 627 C558 627 591 601 591 544 C591 531 590 516 588 499 L605 497 L649 662 Z M124 -274 C209 -227 254 -171 254 -114 C254 -73 228 -41 195 -41 C166 -41 144 -61 144 -88 C144 -106 150 -117 169 -134 C185 -148 190 -157 190 -167 C190 -194 168 -221 115 -257 L124 -274 Z " />
<glyph glyph-name="uni021B" unicode="&#x21b;" horiz-adv-x="278" d="M0 -274 C87 -226 133 -169 133 -112 C133 -72 108 -41 75 -41 C45 -41 23 -61 23 -89 C23 -106 29 -117 48 -134 C62 -148 68 -157 68 -167 C68 -194 45 -221 -9 -257 L0 -274 Z M311 434 L230 434 L259 538 C260 541 260 543 260 544 C260 550 258 554 254 554 L252 554 L249 554 C245 554 242 551 237 545 C198 494 135 442 101 434 C76 425 69 419 69 408 L69 402 L144 402 L69 123 L67 114 C52 62 45 34 45 27 C45 5 66 -11 93 -11 C140 -11 173 17 238 112 L225 119 C175 56 158 39 142 39 C133 39 127 46 127 58 C127 59 127 59 128 64 L220 402 L305 402 L311 434 Z " />
<glyph glyph-name="circumflex" unicode="&#x2c6;" horiz-adv-x="333" d="M309 670 L260 670 L102 499 L142 499 L279 604 L364 499 L400 499 L309 670 Z " />
<glyph glyph-name="caron" unicode="&#x2c7;" horiz-adv-x="333" d="M440 670 L404 670 L261 564 L169 670 L131 670 L230 499 L277 499 L440 670 Z " />
<glyph glyph-name="uni02C9" unicode="&#x2c9;" horiz-adv-x="333" d="M146 709 L134 666 L440 666 L453 709 L146 709 Z " />
<glyph glyph-name="breve" unicode="&#x2d8;" horiz-adv-x="333" d="M403 659 C379 595 329 559 267 559 C202 559 161 596 156 659 L127 659 C128 602 136 570 157 544 C179 514 215 499 260 499 C315 499 361 523 395 568 C415 595 424 617 432 659 L403 659 Z " />
<glyph glyph-name="dotaccent" unicode="&#x2d9;" horiz-adv-x="333" d="M263 614 C235 614 213 593 213 566 C213 537 235 515 263 515 C290 515 312 537 312 564 C312 590 288 614 263 614 L263 614 Z " />
<glyph glyph-name="ring" unicode="&#x2da;" horiz-adv-x="333" d="M273 717 C218 717 173 672 173 618 C173 560 218 515 275 515 C331 515 376 560 376 615 C376 671 329 717 273 717 L273 717 Z M273 683 C311 683 342 652 342 615 C342 577 313 549 274 549 C237 549 207 579 207 617 C207 653 237 683 273 683 L273 683 Z " />
<glyph glyph-name="ogonek" unicode="&#x2db;" horiz-adv-x="333" d="M235 -75 C208 -98 183 -107 152 -107 C116 -107 91 -85 91 -55 C91 -24 101 5 123 41 L99 41 C49 3 29 -30 29 -74 C29 -127 73 -171 126 -171 C175 -171 217 -145 252 -93 L235 -75 Z " />
<glyph glyph-name="tilde" unicode="&#x2dc;" horiz-adv-x="333" d="M407 633 C396 599 383 588 356 588 C340 588 324 593 293 607 C255 624 228 632 206 632 C153 632 125 602 105 524 L134 524 C144 557 160 572 185 572 C203 572 228 565 282 543 C309 532 327 527 341 527 C389 527 422 564 436 633 L407 633 Z " />
<glyph glyph-name="hungarumlaut" unicode="&#x2dd;" horiz-adv-x="333" d="M124 501 L159 501 L332 608 C344 616 349 624 349 637 C349 657 333 673 312 673 C302 673 293 670 287 663 L124 501 Z M296 501 L332 501 L504 608 C516 616 521 624 521 637 C521 657 505 673 484 673 C474 673 465 670 459 663 L296 501 Z " />
<glyph glyph-name="tonos" unicode="&#x384;" horiz-adv-x="333" d="M216 482 L258 482 L280 529 C303 580 316 620 316 640 C316 661 306 672 287 672 C246 672 232 643 222 538 L216 482 Z " />
<glyph glyph-name="dieresistonos" unicode="&#x385;" horiz-adv-x="333" d="M240 557 L274 557 L290 590 C307 625 316 651 316 667 C316 682 308 690 292 690 C259 690 249 670 243 596 L240 557 Z M179 569 C154 569 134 550 134 526 C134 501 155 480 180 480 C205 480 224 499 224 523 C224 548 203 569 179 569 L179 569 Z M333 569 C308 569 288 550 288 526 C288 501 309 480 334 480 C359 480 378 499 378 523 C378 548 357 569 333 569 L333 569 Z " />
<glyph glyph-name="Alphatonos" unicode="&#x386;" horiz-adv-x="611" d="M180 450 L229 450 L254 505 C282 564 297 611 297 635 C297 659 285 672 263 672 C215 672 199 637 186 515 L180 450 Z M371 208 L366 91 C363 31 352 18 305 18 L282 18 L278 0 L542 0 L547 18 L524 18 C475 18 460 30 460 70 C460 75 460 75 461 104 L484 662 L467 662 L61 91 C14 28 -1 17 -36 18 L-47 18 L-52 0 L146 0 L150 18 L131 18 C101 18 86 27 86 45 C86 51 90 61 96 70 L192 208 L371 208 Z M372 244 L217 244 L382 480 L372 244 Z " />
<glyph glyph-name="uni0387" unicode="&#x387;" horiz-adv-x="250" d="M138 315 C108 315 83 289 83 258 C83 227 108 202 138 202 C170 202 196 227 196 256 C196 288 170 315 138 315 L138 315 Z " />
<glyph glyph-name="Epsilontonos" unicode="&#x388;" horiz-adv-x="679" d="M88 450 L137 450 L162 505 C189 563 205 611 205 635 C205 659 193 672 171 672 C124 672 106 637 94 515 L88 450 Z M346 331 L424 331 C477 331 500 316 500 283 C500 267 498 257 491 226 L508 226 L572 467 L555 467 C532 389 500 365 422 367 L355 367 L425 626 L529 626 C631 626 670 602 670 540 C670 529 669 521 665 504 L682 504 L725 662 L244 662 L240 644 C299 645 319 634 319 603 C319 591 317 577 313 563 L191 105 C174 38 154 20 96 18 L91 0 L586 0 L646 188 L630 188 C607 139 588 114 554 90 C507 56 444 37 376 37 C290 37 277 41 277 65 C277 72 278 78 282 92 L346 331 Z " />
<glyph glyph-name="Etatonos" unicode="&#x389;" horiz-adv-x="792" d="M79 450 L128 450 L154 505 C180 561 196 611 196 635 C196 659 184 672 163 672 C115 672 98 638 86 515 L79 450 Z M339 330 L608 330 L548 105 C530 35 511 19 445 18 L440 0 L706 0 L711 18 C687 18 673 20 664 23 C648 29 638 43 638 60 C638 73 640 85 644 100 L766 557 C785 629 803 644 872 644 L877 662 L609 662 L604 644 C657 644 676 633 676 603 C676 590 674 577 670 563 L618 367 L349 367 L400 557 C419 630 437 644 510 644 L515 662 L243 662 L238 644 C262 644 275 642 284 639 C300 633 310 619 310 602 C310 589 308 577 304 563 L182 105 C165 37 145 19 84 18 L79 0 L338 0 L343 18 C319 18 306 20 297 23 C281 29 271 43 271 59 C271 69 273 85 277 100 L339 330 Z " />
<glyph glyph-name="Iotatonos" unicode="&#x38a;" horiz-adv-x="402" d="M67 450 L116 450 L142 505 C168 561 184 611 184 635 C184 659 172 672 151 672 C103 672 86 638 74 515 L67 450 Z M331 18 C307 18 294 20 285 23 C269 29 259 43 259 59 C259 69 261 85 265 100 L388 557 C407 630 425 644 498 644 L503 662 L231 662 L226 644 C250 644 263 642 272 639 C288 633 298 619 298 602 C298 589 296 577 292 563 L170 105 C153 37 133 19 72 18 L67 0 L326 0 L331 18 Z " />
<glyph glyph-name="Omicrontonos" unicode="&#x38c;" horiz-adv-x="722" d="M85 450 L134 450 L159 505 C187 564 202 611 202 635 C202 659 190 672 168 672 C120 672 104 638 91 515 L85 450 Z M505 672 C421 672 330 628 261 553 C174 460 122 337 122 224 C122 81 209 -10 347 -10 C432 -10 503 19 566 80 C665 177 728 315 728 435 C728 577 638 672 505 672 L505 672 Z M499 635 C578 635 625 576 625 477 C625 388 590 266 536 165 C488 77 420 24 353 24 C276 24 226 86 226 180 C226 292 282 453 355 552 C393 603 447 635 499 635 L499 635 Z " />
<glyph glyph-name="Upsilontonos" unicode="&#x38e;" horiz-adv-x="660" d="M71 450 L120 450 L145 505 C173 564 188 611 188 635 C188 659 176 672 154 672 C106 672 90 638 77 515 L71 450 Z M495 311 L658 537 C711 611 757 644 810 644 L815 662 L593 662 L587 644 L603 644 C637 644 656 634 656 616 C656 605 651 594 634 571 L484 357 L420 571 C415 589 413 598 413 605 C413 632 434 644 477 644 L498 644 L502 662 L219 662 L214 644 L235 644 C280 646 305 624 322 571 L400 321 L342 105 C323 32 304 17 228 18 L223 0 L511 0 L517 18 C492 18 474 19 466 21 C445 26 433 40 433 60 C433 73 435 85 439 100 L495 311 Z " />
<glyph glyph-name="Omegatonos" unicode="&#x38f;" horiz-adv-x="726" d="M84 450 L133 450 L158 505 C186 564 201 611 201 635 C201 659 189 672 167 672 C120 672 102 637 90 515 L84 450 Z M671 163 C648 101 620 79 566 76 L455 76 C520 113 558 141 597 181 C681 268 725 362 725 458 C725 591 644 672 511 672 C420 672 344 642 279 580 C201 507 158 411 158 313 C158 216 197 138 278 76 L159 76 C116 76 100 89 100 124 C100 134 101 142 103 163 L83 156 L67 0 L293 0 L312 70 C273 113 258 158 258 232 C258 309 281 418 314 497 C351 584 421 638 497 638 C573 638 621 586 621 503 C621 416 592 311 544 223 C509 160 479 123 418 70 L399 0 L626 0 L694 157 L671 163 Z " />
<glyph glyph-name="iotadieresistonos" unicode="&#x390;" horiz-adv-x="278" d="M210 100 C186 65 158 40 144 40 C136 40 129 46 129 52 C129 55 130 60 131 65 L232 444 C182 432 131 424 85 420 L80 401 C96 404 104 405 113 405 C132 405 140 398 140 381 C140 371 138 359 133 340 L57 58 C54 44 52 32 52 22 C52 2 67 -10 94 -10 C127 -10 168 21 222 86 L210 100 Z M201 557 L235 557 L251 590 C267 623 277 652 277 667 C277 682 268 690 253 690 C221 690 210 669 204 596 L201 557 Z M130 569 C105 569 85 550 85 526 C85 501 106 480 131 480 C156 480 175 499 175 523 C175 548 154 569 130 569 L130 569 Z M305 569 C280 569 260 550 260 526 C260 501 281 480 306 480 C331 480 350 499 350 523 C350 548 329 569 305 569 L305 569 Z " />
<glyph glyph-name="Alpha" unicode="&#x391;" horiz-adv-x="611" d="M371 208 L366 91 C363 31 352 18 305 18 L282 18 L278 0 L542 0 L547 18 L524 18 C475 18 460 30 460 70 C460 75 460 75 461 104 L484 662 L467 662 L61 91 C14 28 -1 17 -36 18 L-47 18 L-52 0 L146 0 L150 18 L131 18 C101 18 86 27 86 45 C86 51 90 61 96 70 L192 208 L371 208 Z M372 244 L217 244 L382 480 L372 244 Z " />
<glyph glyph-name="Beta" unicode="&#x392;" horiz-adv-x="611" d="M170 662 L165 644 C191 644 206 642 216 639 C232 633 242 619 242 602 C242 591 240 577 236 562 L113 105 C96 35 76 19 10 18 L5 0 L197 0 C345 0 395 8 448 42 C507 78 543 141 543 208 C543 277 508 322 432 349 C484 362 507 372 532 392 C571 422 596 472 596 517 C596 557 575 601 543 625 C510 651 464 662 397 662 L170 662 Z M345 621 C360 624 367 625 381 625 C456 625 500 588 500 525 C500 430 430 366 326 366 C310 366 296 366 277 367 L345 621 Z M268 332 C278 333 288 334 292 334 C393 334 440 297 440 217 C440 111 364 38 253 38 C232 38 219 40 191 46 L268 332 Z " />
<glyph glyph-name="Gamma" unicode="&#x393;" horiz-adv-x="569" d="M350 626 L497 626 C528 626 541 624 552 617 C571 606 581 584 581 557 C581 538 579 523 573 488 L590 488 L636 662 L175 662 L170 644 C226 643 242 633 242 600 C242 590 240 576 236 563 L114 105 C97 37 77 19 16 18 L11 0 L270 0 L275 18 C220 19 203 30 203 61 C203 72 205 83 209 100 L350 626 Z " />
<glyph glyph-name="uni0394" unicode="&#x394;" horiz-adv-x="587" d="M460 0 L472 662 L453 662 L-52 0 L460 0 Z M364 41 L105 41 C79 41 64 48 64 61 C64 69 74 88 86 105 L376 490 L364 41 Z " />
<glyph glyph-name="Epsilon" unicode="&#x395;" horiz-adv-x="611" d="M265 331 L343 331 C396 331 419 316 419 283 C419 267 417 257 410 226 L427 226 L491 467 L474 467 C452 389 419 365 341 367 L274 367 L344 626 L448 626 C550 626 589 602 589 540 C589 528 588 521 584 504 L601 504 L644 662 L163 662 L159 644 C218 645 238 634 238 603 C238 591 236 577 232 563 L110 105 C93 38 74 20 15 18 L10 0 L505 0 L565 188 L549 188 C527 139 507 114 473 90 C426 56 363 37 295 37 C209 37 196 41 196 65 C196 72 197 78 201 92 L265 331 Z " />
<glyph glyph-name="Zeta" unicode="&#x396;" horiz-adv-x="556" d="M149 39 L624 662 L131 662 L79 506 L104 506 C134 603 179 626 336 624 L466 624 L-9 0 L494 0 L549 178 L528 178 C495 71 432 38 257 39 L149 39 Z " />
<glyph glyph-name="Eta" unicode="&#x397;" horiz-adv-x="722" d="M257 330 L526 330 L466 105 C448 35 429 19 363 18 L358 0 L624 0 L629 18 C605 18 591 20 582 23 C566 29 556 43 556 60 C556 73 558 85 562 100 L684 557 C703 629 721 644 790 644 L795 662 L527 662 L522 644 C575 644 594 633 594 603 C594 590 592 577 588 563 L536 367 L267 367 L318 557 C337 630 355 644 428 644 L433 662 L161 662 L156 644 C180 644 193 642 202 639 C218 633 228 619 228 602 C228 589 226 577 222 563 L100 105 C83 37 63 19 2 18 L-3 0 L256 0 L261 18 C237 18 224 20 215 23 C199 29 189 43 189 59 C189 69 191 85 195 100 L257 330 Z " />
<glyph glyph-name="Theta" unicode="&#x398;" horiz-adv-x="722" d="M546 457 L529 457 C508 397 488 384 422 384 L388 384 C337 384 317 396 317 425 C317 433 318 445 320 457 L303 457 L247 240 L264 240 C285 301 302 313 373 314 L405 314 C459 314 477 304 477 275 C477 267 476 253 473 240 L490 240 L546 457 Z M486 677 C366 677 251 629 174 547 C96 463 45 334 45 217 C45 68 138 -17 302 -17 C422 -17 531 29 608 112 C689 199 740 329 740 446 C740 521 715 581 668 619 C622 656 556 677 486 677 L486 677 Z M480 644 C513 644 551 634 575 619 C615 594 636 545 636 478 C636 375 598 247 540 152 C487 64 405 16 307 16 C271 16 234 25 207 42 C169 65 149 111 149 173 C149 294 201 454 267 538 C322 607 396 644 480 644 L480 644 Z " />
<glyph glyph-name="Iota" unicode="&#x399;" horiz-adv-x="333" d="M250 18 C226 18 213 20 204 23 C188 29 178 43 178 59 C178 69 180 85 184 100 L307 557 C326 630 344 644 417 644 L422 662 L150 662 L145 644 C169 644 182 642 191 639 C207 633 217 619 217 602 C217 589 215 577 211 563 L89 105 C72 37 52 19 -9 18 L-14 0 L245 0 L250 18 Z " />
<glyph glyph-name="Kappa" unicode="&#x39a;" horiz-adv-x="667" d="M268 349 L411 100 C422 81 428 64 428 52 C428 31 409 21 367 18 L361 0 L630 0 L636 18 C573 16 543 40 493 130 L352 384 L616 600 C659 633 684 643 724 644 L730 662 L529 662 L524 644 C568 641 574 639 574 626 C574 618 573 616 553 600 L274 366 L325 557 C343 627 362 643 427 644 L432 662 L165 662 L160 644 C185 644 200 643 210 639 C226 633 236 619 236 602 C236 592 234 577 230 563 L107 105 C90 36 70 19 7 18 L2 0 L270 0 L276 18 C249 18 233 19 223 23 C207 29 197 43 197 60 C197 73 199 85 203 100 L268 349 Z " />
<glyph glyph-name="Lambda" unicode="&#x39b;" horiz-adv-x="604" d="M378 480 L362 91 C359 31 348 18 301 18 L278 18 L274 0 L538 0 L543 18 L520 18 C471 18 456 30 456 70 C456 75 456 75 457 104 L480 662 L463 662 L57 91 C10 28 -5 17 -40 18 L-51 18 L-56 0 L142 0 L146 18 L127 18 C97 18 82 27 82 45 C82 51 86 61 92 70 L378 480 Z " />
<glyph glyph-name="Mu" unicode="&#x39c;" horiz-adv-x="833" d="M391 152 L336 662 L159 662 L154 644 C187 641 195 640 206 635 C221 628 231 618 231 611 C231 609 230 605 229 601 L96 105 C79 36 60 19 -3 18 L-8 0 L199 0 L204 18 C177 18 162 19 152 23 C136 29 126 43 126 59 C126 70 128 85 132 100 L256 562 L317 0 L335 0 L694 539 L572 105 C553 36 534 19 470 18 L465 0 L732 0 L737 18 C712 18 698 20 689 23 C673 29 663 43 663 59 C663 72 665 85 669 100 L791 557 C810 629 828 644 897 644 L902 662 L737 662 L391 152 Z " />
<glyph glyph-name="Nu" unicode="&#x39d;" horiz-adv-x="667" d="M259 540 L472 -8 L487 -8 L638 557 C656 626 674 642 738 644 L743 662 L536 662 L531 644 C556 644 571 642 580 639 C596 633 606 619 606 602 C606 592 604 577 600 562 L497 179 L310 662 L134 662 L129 645 L149 645 C191 645 214 632 236 597 L104 105 C86 35 67 19 3 18 L-2 0 L207 0 L213 18 C186 18 171 19 161 23 C145 29 135 43 135 60 C135 73 137 85 141 100 L259 540 Z " />
<glyph glyph-name="Xi" unicode="&#x39e;" horiz-adv-x="639" d="M563 188 L547 188 C510 99 463 65 372 64 L280 64 L189 64 C112 64 78 92 78 155 C78 164 79 172 80 188 L64 188 L14 0 L513 0 L563 188 Z M672 662 L205 662 L159 490 L176 490 C202 569 241 594 339 592 L501 592 C588 592 613 577 613 525 C613 515 612 507 609 490 L626 490 L672 662 Z M541 467 L524 467 C505 402 473 382 395 384 L338 384 C291 384 276 387 262 400 C253 408 249 418 249 431 C249 440 250 449 254 467 L236 467 L172 226 L189 226 C207 295 233 314 308 315 L389 315 C445 315 467 302 467 269 C467 257 466 248 460 226 L477 226 L541 467 Z " />
<glyph glyph-name="Omicron" unicode="&#x39f;" horiz-adv-x="722" d="M471 672 C387 672 297 628 228 553 C141 460 89 337 89 225 C89 81 176 -10 313 -10 C399 -10 470 19 532 80 C631 177 694 315 694 434 C694 577 605 672 471 672 L471 672 Z M465 635 C544 635 591 576 591 477 C591 388 557 267 502 165 C455 77 387 24 319 24 C243 24 193 86 193 179 C193 292 248 452 322 552 C359 603 414 635 465 635 L465 635 Z " />
<glyph glyph-name="Pi" unicode="&#x3a0;" horiz-adv-x="722" d="M799 662 L161 662 L156 644 C180 644 193 642 202 639 C218 633 228 619 228 602 C228 589 226 577 222 562 L100 105 C83 37 63 19 2 18 L-3 0 L256 0 L261 18 C237 18 224 20 215 23 C199 29 189 43 189 59 C189 69 191 85 195 100 L313 538 C331 610 351 626 423 625 L518 625 C569 625 590 612 590 583 C590 573 588 559 583 543 L466 105 C449 36 430 19 368 18 L363 0 L622 0 L627 18 C604 18 591 20 582 23 C566 29 556 43 556 60 C556 73 558 85 562 100 L684 557 C703 630 722 644 795 644 L799 662 Z " />
<glyph glyph-name="Rho" unicode="&#x3a1;" horiz-adv-x="611" d="M293 324 C332 314 348 311 379 311 C525 311 625 392 625 510 C625 604 546 662 418 662 L195 662 L190 644 C216 644 230 643 240 639 C256 633 266 619 266 603 C266 592 264 577 260 563 L137 105 C120 35 101 19 36 18 L31 0 L302 0 L307 18 C279 18 262 19 252 23 C236 29 226 43 226 60 C226 69 228 85 232 100 L293 324 Z M371 619 C394 623 406 624 419 624 C485 624 525 582 525 514 C525 468 502 415 469 385 C441 360 401 346 359 346 C339 346 326 348 301 355 L371 619 Z " />
<glyph glyph-name="Sigma" unicode="&#x3a3;" horiz-adv-x="594" d="M585 663 L106 663 L232 315 L-86 0 L432 0 L532 171 L504 180 C455 98 421 81 304 81 L117 81 C88 81 78 85 78 95 C78 102 97 127 124 154 L329 361 L232 626 L397 626 C496 626 526 609 526 551 C526 539 525 524 524 508 L556 508 L585 663 Z " />
<glyph glyph-name="Tau" unicode="&#x3a4;" horiz-adv-x="556" d="M435 622 L532 622 C587 622 613 599 613 551 C613 532 611 514 606 488 L623 488 L669 662 L126 662 L79 488 L98 488 C117 579 178 625 276 622 L339 622 L201 105 C182 32 163 18 89 18 L85 0 L375 0 L380 18 L370 18 C341 18 325 20 315 23 C299 29 289 43 289 60 C289 70 291 85 295 100 L435 622 Z " />
<glyph glyph-name="Upsilon" unicode="&#x3a5;" horiz-adv-x="556" d="M372 311 L536 537 C589 611 634 644 687 644 L693 662 L470 662 L464 644 L481 644 C514 644 533 634 533 616 C533 605 528 594 512 571 L361 357 L298 571 C291 593 290 598 290 605 C290 631 311 644 354 644 L375 644 L379 662 L97 662 L91 644 L112 644 C157 646 183 624 199 571 L277 321 L219 105 C200 32 181 17 106 18 L100 0 L389 0 L394 18 C369 18 352 19 343 21 C322 26 310 40 310 60 C310 72 312 85 316 100 L372 311 Z " />
<glyph glyph-name="Phi" unicode="&#x3a6;" horiz-adv-x="761" d="M636 665 L643 692 L365 692 L358 665 L370 665 C416 665 433 654 433 622 C433 611 432 603 427 586 C327 582 269 568 210 533 C117 479 53 371 53 267 C53 202 81 151 133 122 C175 98 221 89 299 88 L296 75 C280 16 257 -2 197 -3 L186 -3 L179 -30 L457 -30 L464 -3 L453 -3 C406 -3 388 8 388 40 C388 51 388 52 394 75 L397 88 C523 97 580 114 644 162 C723 221 775 323 775 420 C775 479 749 526 703 552 C662 574 614 584 526 586 C538 644 564 665 624 665 L636 665 Z M307 119 C263 121 244 126 218 138 C173 160 155 192 155 249 C155 341 195 442 251 492 C295 530 346 549 420 556 L307 119 Z M519 558 C625 547 672 505 672 421 C672 353 643 267 603 215 C556 154 505 130 406 119 L519 558 Z " />
<glyph glyph-name="Chi" unicode="&#x3a7;" horiz-adv-x="611" d="M306 266 L355 87 C357 77 359 66 359 60 C359 33 338 18 302 18 L285 18 L279 0 L534 0 L540 18 L527 18 C480 19 464 39 441 123 L378 355 L537 546 C600 622 632 641 694 644 L699 662 L498 662 L492 644 L503 644 C527 644 536 638 536 622 C536 610 532 603 511 578 L365 400 L322 565 C319 575 316 599 316 607 C316 631 336 644 371 644 L386 644 L392 662 L124 662 L118 644 L136 644 C186 643 204 626 226 559 L295 310 L131 112 C89 59 26 18 -10 18 L-16 0 L193 0 L199 18 L178 18 C147 18 131 26 131 41 C131 49 135 57 149 74 L306 266 Z " />
<glyph glyph-name="Psi" unicode="&#x3a8;" horiz-adv-x="703" d="M820 646 C777 667 761 672 738 672 C691 672 660 638 637 563 L604 456 C568 347 514 294 414 273 L490 557 C509 630 527 644 601 644 L605 662 L337 662 L333 644 C356 644 370 642 379 639 C395 633 405 619 405 602 C405 593 403 577 399 563 L321 273 C247 289 219 320 219 387 C219 412 222 440 227 463 L246 547 C250 565 252 585 252 598 C252 641 226 672 189 672 C165 672 130 660 104 643 L111 622 C124 628 130 629 138 629 C152 629 159 622 159 608 C159 601 158 596 152 563 L135 485 C130 462 128 442 128 421 C128 357 172 294 238 265 C260 255 280 250 314 245 L276 105 C259 37 240 19 178 18 L173 0 L428 0 L433 18 C410 18 397 20 388 23 C372 29 362 43 362 60 C362 73 364 85 368 100 L406 245 C575 262 673 335 711 473 L733 557 C747 609 762 631 785 631 C793 631 799 630 812 625 L820 646 Z " />
<glyph glyph-name="uni03A9" unicode="&#x3a9;" horiz-adv-x="723" d="M708 163 L678 163 C640 98 619 84 555 81 L503 81 C484 81 476 80 454 78 C459 81 465 84 471 87 L516 110 C577 141 593 154 631 199 C696 275 731 365 731 454 C731 526 708 584 666 619 C623 655 556 677 486 677 C368 677 254 625 180 537 C115 461 79 366 79 274 C79 181 116 122 203 78 C185 80 172 81 164 81 L114 81 C44 81 28 96 26 163 L-4 163 L-13 0 L257 0 L278 78 C243 94 229 106 215 127 C194 158 183 199 183 242 C183 326 209 420 252 492 C311 591 390 644 478 644 C574 644 627 587 627 484 C627 392 589 279 532 196 C491 138 449 105 383 78 L363 0 L633 0 L708 163 Z " />
<glyph glyph-name="Iotadieresis" unicode="&#x3aa;" horiz-adv-x="333" d="M250 18 C226 18 213 20 204 23 C188 29 178 43 178 59 C178 69 180 85 184 100 L307 557 C326 630 344 644 417 644 L422 662 L150 662 L145 644 C169 644 182 642 191 639 C207 633 217 619 217 602 C217 589 215 577 211 563 L89 105 C72 37 52 19 -9 18 L-14 0 L245 0 L250 18 Z M215 830 C183 830 158 806 158 776 C158 744 184 718 216 718 C247 718 272 742 272 773 C272 804 246 830 215 830 L215 830 Z M393 830 C361 830 336 806 336 776 C336 744 362 718 394 718 C425 718 450 742 450 773 C450 804 424 830 393 830 L393 830 Z " />
<glyph glyph-name="Upsilondieresis" unicode="&#x3ab;" horiz-adv-x="556" d="M372 311 L536 537 C589 611 634 644 687 644 L693 662 L470 662 L464 644 L481 644 C514 644 533 634 533 616 C533 605 528 594 512 571 L361 357 L298 571 C291 593 290 598 290 605 C290 631 311 644 354 644 L375 644 L379 662 L97 662 L91 644 L112 644 C157 646 183 624 199 571 L277 321 L219 105 C200 32 181 17 106 18 L100 0 L389 0 L394 18 C369 18 352 19 343 21 C322 26 310 40 310 60 C310 72 312 85 316 100 L372 311 Z M342 830 C310 830 285 806 285 776 C285 744 311 718 343 718 C374 718 399 742 399 773 C399 804 373 830 342 830 L342 830 Z M520 830 C488 830 463 806 463 776 C463 744 489 718 521 718 C552 718 577 742 577 773 C577 804 551 830 520 830 L520 830 Z " />
<glyph glyph-name="alphatonos" unicode="&#x3ac;" horiz-adv-x="525" d="M495 134 C461 76 433 50 405 50 C384 50 373 73 373 119 C373 125 373 132 374 142 L491 434 L405 434 L374 347 C366 413 335 444 278 444 C227 444 174 415 123 361 C69 302 39 231 39 157 C39 57 92 -10 170 -10 C216 -10 263 10 298 44 C315 61 326 74 348 105 C345 78 344 66 344 52 C344 14 359 -10 383 -10 C422 -10 459 30 508 125 L495 134 Z M305 159 C270 63 228 14 180 14 C141 14 120 46 120 105 C120 161 135 230 160 291 C194 373 238 416 287 416 C332 416 354 380 356 301 L305 159 Z M312 482 L354 482 L376 529 C398 577 412 620 412 640 C412 661 402 672 383 672 C342 672 329 644 318 538 L312 482 Z " />
</font>
</svg>
